<svg width="234" height="234" viewBox="0 0 234 234" fill="none" xmlns="http://www.w3.org/2000/svg">
<path d="M134.616 49.9833C134.487 45.945 133.449 50.3685 134.032 51.559C134.053 51.5951 134.08 51.6268 134.113 51.6523C134.146 51.6777 134.184 51.6964 134.224 51.7073C134.264 51.7181 134.306 51.7209 134.347 51.7155C134.388 51.7101 134.428 51.6965 134.464 51.6757C134.511 51.646 134.551 51.6061 134.581 51.559C134.68 51.0384 134.68 50.5039 134.581 49.9833H134.616ZM123.575 66.4167C122.793 66.4167 114.366 65.9848 114.413 66.6268C113.887 66.475 114.413 70.2449 114.413 70.6884C114.413 71.1319 115.311 71.0619 115.58 71.0852C117.914 71.2603 124.38 71.2136 124.917 71.2136C125.454 71.2136 125.139 66.7785 125.127 66.7668C125.115 66.2766 123.855 66.4283 123.575 66.4167ZM124.59 70.6534C122.594 70.6534 116.899 70.5133 115.008 70.6534C114.868 69.3695 114.728 68.0857 114.599 66.8018L124.625 67.0002C124.543 68.2141 124.59 69.4396 124.59 70.6534ZM108.915 72.2173C108.96 72.2123 109.002 72.1923 109.034 72.1605C109.065 72.1287 109.085 72.087 109.09 72.0423V69.0661C109.09 68.6226 108.378 68.5409 108.402 68.996C108.402 70.0231 108.53 71.0385 108.612 72.0539C108.613 72.0889 108.623 72.1231 108.641 72.1529C108.66 72.1827 108.685 72.2072 108.716 72.2238C108.747 72.2403 108.782 72.2485 108.817 72.2474C108.852 72.2462 108.886 72.2359 108.915 72.2173ZM134.172 65.1328C134.127 65.1391 134.085 65.1593 134.051 65.1907C134.018 65.222 133.995 65.263 133.986 65.3079C133.986 65.7981 133.67 68.5992 134.254 68.6576C134.978 68.6576 134.487 65.9381 134.417 65.2845C134.404 65.2328 134.371 65.1882 134.325 65.16C134.279 65.1318 134.225 65.1221 134.172 65.1328ZM134.487 71.6221C134.371 70.8168 133.962 70.8751 133.915 71.9722V73.2794C133.915 74.1198 134.919 74.7851 134.487 71.6221ZM134.231 76.8626C133.6 76.9209 134.091 79.8271 134.172 80.364C134.172 80.5624 134.534 80.6091 134.546 80.364C134.546 79.3135 134.546 78.2631 134.616 77.2127C134.618 77.1631 134.609 77.1136 134.59 77.0677C134.571 77.0218 134.542 76.9807 134.505 76.9473C134.469 76.9139 134.425 76.889 134.377 76.8743C134.33 76.8597 134.28 76.8557 134.231 76.8626ZM134.546 54.1734C134.546 53.9283 134.114 53.9633 134.067 54.1734C134.021 54.3835 133.67 58.1416 134.487 57.2079C134.663 56.2001 134.663 55.1695 134.487 54.1617L134.546 54.1734ZM133.904 60.4292V62.7635C133.904 63.2304 134.639 63.1603 134.616 62.7635C134.616 61.9932 134.616 61.2229 134.499 60.4292C134.429 59.1921 133.927 59.122 133.904 60.4292ZM134.067 83.2351C133.892 84.2469 133.892 85.2813 134.067 86.293C134.067 86.5498 134.499 86.5031 134.546 86.293C134.592 86.083 134.884 82.3014 134.067 83.2351ZM165.323 50.9871C165.986 51.0953 166.596 51.4146 167.062 51.8974C167.319 52.1659 167.646 51.699 166.689 50.9287C165.101 49.6799 164.436 50.8237 165.323 50.9871ZM164.471 55.5039C165.51 55.2121 164.646 53.0529 164.331 54.7219C164.296 54.862 164.191 55.5856 164.471 55.5039ZM165.265 62.8452C168.766 62.9152 167.728 57.4764 167.062 58.6435C165.522 61.2696 162.907 60.7094 162.721 60.9778C162.534 61.2462 163.619 62.8219 165.265 62.8452ZM167.237 59.2504C168.019 62.4717 164.553 63.4638 163.176 61.2696C163.969 61.306 164.758 61.1397 165.468 60.7864C166.179 60.4331 166.788 59.9045 167.237 59.2504ZM134.406 46.0851C134.452 46.0638 134.492 46.0318 134.522 45.9917C134.715 44.9737 134.715 43.9285 134.522 42.9105C134.522 42.7237 134.184 42.6654 134.126 42.9105C133.943 43.9276 133.916 44.9664 134.044 45.9917C134.082 46.0491 134.14 46.0903 134.207 46.1076C134.274 46.1248 134.344 46.1168 134.406 46.0851ZM160.059 58.2467C160.293 59.2971 163.047 58.1533 160.631 58.0366C160.783 56.5281 161.1 55.0408 161.577 53.6015C161.763 52.9712 160.748 53.2513 160.153 57.4414C160.075 57.7023 160.043 57.9749 160.059 58.2467ZM108.437 75.1235C108.462 76.1552 108.551 77.1843 108.705 78.2048C108.705 78.2543 108.725 78.3018 108.76 78.3368C108.795 78.3718 108.842 78.3915 108.892 78.3915C108.942 78.3915 108.989 78.3718 109.024 78.3368C109.059 78.3018 109.079 78.2543 109.079 78.2048C109.476 73.011 108.437 75.0535 108.437 75.1235ZM158.437 53.298C158.017 53.8582 158.099 54.8737 158.565 54.4652C159.032 54.0567 158.729 52.9012 158.437 53.298ZM108.507 87.3085C107.935 88.569 109.219 93.1441 109.16 88.1138C109.149 87.3085 108.775 86.7366 108.507 87.3085ZM108.53 84.1689C108.53 84.414 108.974 84.3789 109.02 84.1689C109.067 83.9588 109.406 80.2006 108.6 81.1226C108.402 82.1304 108.378 83.1648 108.53 84.1805V84.1689Z" fill="black"/>
<path d="M154.189 44.9296C154.95 45.62 155.812 46.1906 156.745 46.622C155.274 51.4889 152.146 67.1169 160.421 68.0506C160.421 68.7976 160.351 69.5446 160.316 70.3032C157.76 71.0942 155.304 72.1792 152.998 73.5362C152.053 75.0768 151.107 76.6291 150.22 78.2048C149.052 80.3786 148.004 82.6151 147.081 84.9041C148.722 85.5042 150.252 86.3718 151.609 87.4718C153.01 88.5223 150.512 90.1213 149.508 91.3934C152.35 96.6058 156.065 101.292 160.491 105.247C160.76 103.637 161.075 102.259 161.203 101.746C158.519 97.0774 155.017 79.5703 155.426 73.0343C156.126 72.6842 156.826 72.3691 157.527 72.0773C157.527 73.4078 158.799 76.6174 160.153 76.9442C160.304 77.4111 160.911 76.4774 161.32 76.0689C161.542 76.8742 161.845 77.7029 161.985 78.3098C162.955 78.1022 163.964 78.1792 164.891 78.5316C165.382 77.8546 166.21 76.8859 166.619 76.4307C166.817 76.6992 167.144 77.271 167.494 77.2127C170.284 76.6875 174.497 74.0264 175.932 71.4353C176.796 71.6571 177.637 71.9022 178.477 72.1823C170.855 80.539 163.304 94.8132 161.343 105.726C166.385 102.084 174.684 96.0153 178.617 92.2688C175.571 87.5185 173.026 87.8687 179.142 86.6665C180.309 86.4448 181.418 86.223 182.562 86.0596C182.258 81.5 181.745 76.9637 181.021 72.4508C178.415 71.3311 175.665 70.5807 172.851 70.2215C172.781 68.4125 172.851 66.5917 172.851 64.7827C172.851 64.7827 181.173 54.8503 180.193 48.2793C179.807 45.6532 177.753 45.4548 175.617 46.1434C177.263 44.5678 179.235 44.8129 179.119 43.8092C178.944 42.3269 175.197 43.2139 173.983 45.3848C170.54 38.2769 162.312 36.2578 166.84 41.6033C163.864 39.6425 160.538 37.9268 156.873 37.9268C151.399 37.8451 150.746 41.8017 154.189 44.9296ZM160.328 76.4424C159.629 75.8836 159.048 75.1912 158.619 74.4058C158.19 73.6203 157.922 72.7573 157.83 71.8672C158.682 71.517 159.534 71.2019 160.41 70.9101C161.415 71.8193 162.467 72.6763 163.561 73.4778C162.283 74.2377 161.181 75.26 160.328 76.4774V76.4424ZM172.875 70.7001C173.715 70.8751 174.544 71.0502 175.372 71.2603C173.328 73.759 170.64 75.6518 167.599 76.7342C166.727 75.5732 165.724 74.5159 164.611 73.5829C167.547 73.2787 170.374 72.3044 172.875 70.7351V70.7001ZM157.142 46.797C159.756 47.8941 167.809 49.0613 170.715 48.9446C169.011 53.263 170.984 57.4764 172.198 55.4806C172.536 54.9087 173.12 54.01 174.065 54.7569C174.614 55.2004 174.824 56.2742 173.867 57.9782C172.855 59.6566 172.337 61.5862 172.373 63.5455C172.219 65.8181 172.188 68.0973 172.279 70.3733C169.778 71.7767 167.047 72.7251 164.214 73.1744L160.713 70.5833C160.83 69.1011 161.238 67.4321 160.713 67.4321C160.047 67.3925 159.397 67.2105 158.807 66.8984C158.217 66.5864 157.701 66.1514 157.293 65.623C154.037 61.7131 155.963 51.4189 157.142 46.797Z" fill="black"/>
<path d="M157.853 51.6525C158.135 51.4325 158.458 51.2725 158.803 51.1822C159.148 51.0918 159.508 51.0732 159.861 51.1273C159.911 51.1211 159.958 51.0988 159.995 51.0635C160.031 51.0283 160.055 50.9821 160.063 50.9319C160.071 50.8818 160.063 50.8304 160.039 50.7857C160.015 50.7409 159.977 50.7051 159.931 50.6837C157.83 50.1935 157.165 52.2244 157.853 51.6525ZM162.044 78.9168C161.11 83.5232 160.18 88.1372 159.254 92.7591C159.79 95.3145 160.572 97.8121 161.588 100.217C162.508 97.4404 163.572 94.7134 164.775 92.0472C164.494 88.8025 164.331 80.8776 164.459 79.3954C163.739 78.9485 162.88 78.7785 162.044 78.9168ZM77.566 49.9718C78.5464 49.8434 76.8307 44.1361 77.1341 49.1081C77.1691 49.4116 77.1341 50.0301 77.566 49.9718ZM77.1458 98.2563C77.1458 98.6065 77.0524 99.797 77.6126 99.7269C78.593 99.5986 76.959 94.3348 77.1458 98.2563ZM77.741 63.0321C77.73 62.9862 77.7038 62.9454 77.6668 62.9162C77.6297 62.887 77.5839 62.8712 77.5368 62.8712C77.4896 62.8712 77.4438 62.887 77.4068 62.9162C77.3697 62.9454 77.3436 62.9862 77.3325 63.0321C77.1477 64.0452 77.1241 65.0812 77.2625 66.1017C77.2952 66.168 77.3528 66.2188 77.4228 66.2429C77.4928 66.2669 77.5694 66.2623 77.636 66.23C77.6798 66.2056 77.7192 66.174 77.7527 66.1367C77.9387 65.1098 77.9348 64.0575 77.741 63.0321ZM77.1808 105.049C77.2508 105.528 77.9161 105.493 77.8928 104.629C77.7877 101.898 77.1691 101.851 77.1575 103.205C77.1108 103.819 77.1108 104.435 77.1575 105.049H77.1808ZM77.1458 70.14C77.097 70.6487 77.1365 71.162 77.2625 71.6572C77.3083 71.7288 77.3793 71.7805 77.4615 71.8022C77.5436 71.8238 77.6309 71.8137 77.706 71.774L77.8227 71.6572C77.8227 71.5405 77.8227 67.864 77.2975 68.6227C77.0291 68.9845 77.1458 69.7081 77.1458 70.14ZM77.6593 85.4412C77.6551 85.4134 77.6454 85.3868 77.6307 85.3628C77.616 85.3389 77.5966 85.3182 77.5738 85.3019C77.5509 85.2855 77.525 85.274 77.4976 85.2678C77.4702 85.2617 77.4419 85.2611 77.4142 85.2661C77.3695 85.2711 77.3278 85.2911 77.296 85.323C77.2642 85.3548 77.2442 85.3964 77.2392 85.4412C77.2392 85.9314 76.9124 88.7325 77.4959 88.7908C78.2196 88.8842 77.7294 86.1064 77.6593 85.4412ZM77.6243 79.7922C77.6243 79.7427 77.6046 79.6952 77.5696 79.6602C77.5346 79.6251 77.4871 79.6055 77.4376 79.6055C77.388 79.6055 77.3406 79.6251 77.3055 79.6602C77.2705 79.6952 77.2508 79.7427 77.2508 79.7922C76.854 84.9976 77.8928 82.9435 77.8928 82.8734C77.8685 81.8417 77.7789 80.8126 77.6243 79.7922ZM77.776 74.3183C77.776 74.0615 77.3442 74.1082 77.2975 74.3183C77.2508 74.5284 76.9124 78.2866 77.7177 77.3529C77.9126 76.3445 77.9324 75.3101 77.776 74.295V74.3183ZM77.1691 92.1055V93.3777C77.1691 94.218 78.1729 94.8833 77.741 91.7204C77.6243 90.9501 77.2158 91.0434 77.1691 92.1055ZM143.988 139.118C142.206 138.73 140.47 138.159 138.806 137.414C138.887 139.258 138.981 141.044 139.074 142.818C142.155 142.736 143.649 142.316 143.988 139.141V139.118ZM187.534 146.167L187.837 140.81C185.094 141.065 182.34 141.174 179.586 141.137C180.718 145.619 183.052 146.051 187.534 146.167ZM192.599 219.067C191.771 202.657 191.339 158.271 191.852 140.332C190.802 140.495 189.658 140.635 188.468 140.752C187.662 167.596 187.3 192.223 188.993 219.382C190.204 219.441 191.417 219.335 192.599 219.067ZM108.822 109.017L56.8376 108.2C54.7367 108.2 52.6009 108.072 50.4883 108.2C50.2432 108.2 50.2782 108.586 50.4883 108.609C53.0677 108.854 58.9734 108.866 61.8796 108.924L108.764 109.718C109.219 109.718 109.289 109.017 108.822 109.017Z" fill="#00977D"/>
<path d="M179.399 219.242C182.314 219.492 185.242 219.546 188.164 219.406C186.997 195.316 186.553 171.215 187.499 147.043C184.954 147.043 180.753 146.413 179.504 143.81C179.064 142.978 178.859 142.042 178.909 141.102C171.381 140.904 164.308 139.48 162.417 135.955C161.999 136.775 161.327 137.438 160.503 137.846C160.503 139.223 160.293 145.783 160.853 146.821C161.285 147.65 162.242 147.533 163.024 147.673C163.101 147.695 163.167 147.747 163.206 147.817C163.246 147.887 163.256 147.969 163.234 148.047C163.219 148.096 163.192 148.142 163.155 148.178C163.119 148.215 163.074 148.242 163.024 148.257C160.853 148.607 159.884 147.335 159.768 145.316C159.575 142.946 159.575 140.565 159.768 138.196C156.43 139.772 150.501 140.402 144.595 139.247C144.595 142.841 142.155 143.752 139.051 143.833C141.035 179.466 145.797 201.408 151.808 219.347C152.006 219.919 164.343 219.791 164.319 219.242C163.409 199.144 162.919 181.509 165.125 163.92L163.958 154.583C160.806 153.229 161.39 152.248 161.915 152.587L163.829 153.754C164.261 153.953 164.623 153.929 164.6 154.478C167.763 176.128 172.84 196.798 179.399 219.242ZM66.6182 100.241C63.2708 100.112 59.9186 100.19 56.5808 100.474C55.8338 100.556 55.6471 100.638 55.6471 101.385C55.6471 102.435 55.6471 104.618 56.1256 104.337C56.1957 104.618 64.0388 104.559 66.2097 104.442C66.8049 104.442 66.9217 104.057 66.5832 103.917C66.8516 103.882 66.945 100.381 66.6182 100.241ZM56.2073 104.092C56.2657 103.047 56.2657 101.998 56.2073 100.953C59.4403 100.871 63.0351 100.953 66.1747 100.731C66.1747 101.163 65.9996 103.649 66.3031 103.882C65.0542 103.801 56.4057 103.999 56.2073 104.092Z" fill="#00977D"/>
<path d="M181.78 72.8013C182.597 76.703 183.135 80.658 183.391 84.6361C183.589 87.4722 184.009 86.7486 179.317 87.5889C178.407 87.7523 177.508 87.9624 176.598 88.0791C177.1 88.686 180.543 92.7477 179.142 92.8877C177.251 95.4088 164.471 104.711 161.145 106.567C160.97 107.734 160.841 108.819 160.771 109.963C160.611 109.97 160.453 110.009 160.309 110.079C160.164 110.15 160.035 110.249 159.931 110.371C159.943 109.003 160.06 107.637 160.281 106.287C154.796 102.4 149.579 93.6347 148.738 91.4405C148.341 90.4134 150.431 89.0012 151.072 88.3709C149.672 87.2038 146.077 85.6632 146.252 85.0913C147.507 81.3617 149.212 77.799 151.329 74.4819C150.01 75.2879 148.718 76.1365 147.454 77.0263C146.964 58.2354 146.976 38.8609 145.844 20.1516H148.867C149.392 20.1516 149.357 18.7977 148.867 18.7977H145.715C138.491 17.5139 131.266 16.2417 124.077 14.7478C112.884 12.4135 101.492 9.56566 90.3112 7.47648V6.08758C90.3112 5.78412 89.0741 5.74911 89.0741 6.08758V7.38311C73.1893 11.5148 57.1061 14.9695 41.1163 18.5059C39.0713 18.8476 37.0455 19.2956 35.0472 19.8482L31.1606 19.9299C30.7288 19.9299 30.7404 21.097 31.1606 21.097H35.1989C34.6153 52.353 34.557 83.5856 34.3119 114.818C34.3119 115.495 34.0084 120.794 34.6037 120.794C41.3264 120.934 88.5955 120.794 88.5955 120.794C88.5955 151.653 88.5566 182.516 88.4788 213.383C78.9666 218.414 65.8947 225.428 63.7121 226.724C63.3153 226.829 29.5966 226.724 25.2666 226.829C25.0098 226.829 25.0098 227.319 25.2666 227.319C30.9272 227.517 199.322 227.599 199.322 227.599C199.789 227.599 199.882 226.817 199.415 226.817H191.689C191.429 224.573 190.98 222.356 190.347 220.188C187.689 220.456 185.01 220.456 182.352 220.188C180.496 220.853 173.166 223.689 172.875 226.782H164.553C164.354 224.618 163.939 222.479 163.316 220.398C160.454 221.06 157.486 221.127 154.597 220.596C153.348 221.04 146.229 223.619 145.704 226.805H116.677C115.977 226.105 90.9415 213.885 90.5213 213.745V120.829H137.277C136.857 126.665 136.682 135.815 136.95 135.932C148.983 141.056 160.561 139.001 162.032 135.138C159.207 131.252 159.429 120.946 159.453 119.008C159.677 119.366 159.939 119.699 160.235 120C160.083 123.502 160.083 134.31 164.798 137.426C169.793 140.74 186.087 141.056 193.148 139.27C193.218 135.932 193.054 131.613 192.903 129.361C186.693 128.867 180.532 127.892 174.474 126.443C173.832 126.303 169.408 125.486 169.338 124.961C169.268 124.436 169.186 123.724 169.14 123.093L166.806 122.568C166.796 119.6 167.093 116.639 167.693 113.733L169.49 113.663C169.583 113.056 169.49 111.947 170.202 111.947C171.921 111.38 173.675 110.928 175.454 110.593C178.434 109.963 181.406 109.36 184.371 108.784C183.603 105.641 183.096 102.44 182.854 99.2136C182.854 98.8401 183.391 98.7468 183.426 99.1203C183.808 102.332 184.409 105.514 185.223 108.644C188.628 107.933 192.074 107.43 195.54 107.139C195.601 107.151 195.655 107.184 195.693 107.232C195.732 107.28 195.753 107.34 195.753 107.401C195.753 107.463 195.732 107.522 195.693 107.57C195.655 107.618 195.601 107.651 195.54 107.664C187.207 108.329 178.617 110.593 170.447 112.531C169.734 116.515 169.526 120.574 169.828 124.611C175.032 125.977 180.308 127.048 185.631 127.82C194.315 128.882 207.165 130.995 208.974 119.008C211.845 101.139 197.781 80.0609 181.78 72.8013ZM88.4788 226.747H67.0618C74.1697 222.86 81.3593 219.371 88.5372 215.332L88.4788 226.747ZM141.829 18.7744L90.4746 19.2996C90.4746 15.5064 90.3929 12.2968 90.3229 8.48022C106.955 12.2968 124.952 15.7982 141.829 18.7744ZM89.039 8.56192C88.969 12.3434 88.899 15.5648 88.8523 19.3229C71.6136 19.4863 55.4021 19.533 38.1634 19.8482C55.4955 16.4634 89.039 8.56192 89.039 8.56192ZM113.269 226.817H90.4046V215.449C97.1857 219.336 106.079 223.514 113.269 226.759V226.817ZM145.05 88.2775C140.381 97.9881 138.176 109.379 137.324 120.129C103.477 120.129 68.9759 119.312 35.2222 120.047C35.4207 117.514 35.0472 113.336 35.0705 110.617C35.3039 80.7612 36.296 51.0925 36.1793 21.1904C50.0449 21.1904 144.84 20.1866 144.84 20.1866C145.482 37.8805 146.731 76.7112 146.812 77.5515C140.183 82.2923 134.22 87.9019 129.084 94.23C131.291 94.6301 133.47 95.172 135.608 95.8523C135.679 95.8832 135.736 95.9405 135.767 96.0122C135.797 96.0839 135.799 96.1645 135.771 96.2374C135.745 96.3023 135.697 96.3557 135.635 96.3879C135.572 96.42 135.501 96.4287 135.433 96.4125C131.009 95.3621 114.821 91.9307 107.421 92.736C107.246 92.736 107.281 93.0395 107.34 93.4013C106.649 93.2599 105.94 93.2284 105.239 93.3079C103.196 90.5535 101.037 87.4722 97.5008 89.8065C95.9252 86.842 82.4097 60.9898 81.8845 60.9431C81.2309 59.9861 80.4722 60.9431 80.9041 61.7485L96.0185 92.2108C94.8514 93.2145 94.6763 94.7668 95.6684 95.0936C95.0615 96.3541 95.9018 97.8481 96.322 97.673C95.8668 100.007 99.3332 102.166 100.885 101.875C101.096 102.272 102.053 104.314 102.461 104.291C102.686 104.467 102.965 104.56 103.25 104.554C103.536 104.548 103.811 104.443 104.028 104.258C104.245 104.072 104.392 103.817 104.442 103.536C104.493 103.255 104.444 102.965 104.305 102.715L105.286 103.24C105.005 103.707 104.842 103.952 104.924 104.046C109.744 109.671 121.719 116.639 126.306 117.351C130.017 117.923 134.382 118.04 136.565 117.421C137.569 107.815 139.868 96.5292 144.501 87.9391C144.519 87.9029 144.543 87.8705 144.573 87.8438C144.603 87.8172 144.638 87.7967 144.676 87.7837C144.714 87.7707 144.755 87.7653 144.795 87.7679C144.835 87.7706 144.874 87.7811 144.91 87.799C144.948 87.8164 144.981 87.8413 145.009 87.8722C145.037 87.9031 145.058 87.9394 145.071 87.9787C145.084 88.0181 145.089 88.0598 145.085 88.1011C145.082 88.1425 145.07 88.1827 145.05 88.2192V88.2775ZM101.259 95.5488C101.184 95.4073 101.074 95.2876 100.939 95.2017C100.804 95.1157 100.649 95.0664 100.489 95.0586C100.619 94.9766 100.731 94.8674 100.815 94.7385C100.9 94.6096 100.956 94.4641 100.979 94.3117C101.422 94.7902 101.551 94.4751 101.422 94.3117C100.815 93.4363 100.255 91.0087 99.765 91.2304C99.3099 91.067 97.9093 91.5339 97.139 91.4638C96.8355 91.4638 96.6021 91.2654 96.8355 90.9386C97.717 89.9779 98.9316 89.3894 100.232 89.293C101.959 89.5964 104.095 92.4909 105.006 93.7981C106.021 96.5059 104.305 100.649 103.605 101.338L101.142 96.5409C101.251 96.4023 101.32 96.2363 101.34 96.0613C101.361 95.8862 101.333 95.7089 101.259 95.5488ZM96.3103 91.3938L81.2192 61.2583C81.2192 60.558 81.7211 61.1649 81.9428 61.5267C83.25 64.1528 97.1156 90.1216 97.1156 90.1216C96.8886 90.2528 96.6967 90.4371 96.5564 90.6586C96.4162 90.8802 96.3317 91.1325 96.3103 91.3938ZM96.6955 92.3742C97.3841 92.0124 99.3565 91.4172 99.8467 92.3042C99.9051 92.5843 99.9635 92.8527 100.01 93.1328C99.2375 92.9905 98.4405 93.0682 97.7099 93.3571C96.9793 93.646 96.3447 94.1345 95.8785 94.7668C95.1665 93.9498 95.8668 92.7827 96.6955 92.3742ZM95.9952 95.5138C96.427 94.3467 98.9247 92.9694 100.057 93.6581C101.189 94.3467 99.7417 94.8252 99.5316 95.117C98.8437 95.1636 98.184 95.409 97.6329 95.8234C97.0817 96.2378 96.6628 96.8033 96.427 97.4512C96.1778 97.2031 96.0047 96.8889 95.9282 96.5456C95.8517 96.2023 95.8749 95.8443 95.9952 95.5138ZM98.5746 95.8289C99.0648 95.6422 101.527 95.047 100.71 96.3541C99.5433 96.4592 98.5512 97.3462 99.1348 98.49C99.625 99.4471 100.127 100.404 100.64 101.35C97.3374 100.988 94.8981 97.1945 98.5746 95.8289ZM99.3916 97.603C99.5091 97.3832 99.6754 97.1932 99.8777 97.0475C100.08 96.9018 100.313 96.8044 100.559 96.7626C100.991 97.603 103.92 103.054 103.92 103.485C103.92 103.917 102.963 104.279 102.753 103.882C101.57 101.82 100.442 99.7272 99.3682 97.603H99.3916ZM103.792 101.641C105.601 100.311 106.126 96.1907 105.601 93.6931L107.527 93.9732C107.803 97.0413 107.122 100.12 105.577 102.785C105.204 102.552 103.943 101.991 103.768 101.641H103.792ZM166.455 121.168C164.88 121.074 163.292 121.401 161.588 120.397C160.328 119.65 159.032 118.063 159.453 116.581C159.919 117.211 160.153 116.662 159.978 116.464C159.658 116.116 159.44 115.688 159.348 115.224C159.255 114.761 159.291 114.282 159.453 113.838C159.838 114.62 160.211 114.165 160.071 113.92C159.499 112.857 159.371 110.955 160.736 110.418C160.631 113.103 163.573 113.488 163.362 112.752C163.362 112.752 162.195 107.652 163.514 107.909C164.156 109.636 165.031 113.406 167.016 113.931C166.564 116.316 166.368 118.742 166.432 121.168H166.455Z" fill="black"/>
<path d="M48.7844 106.718C57.748 93.8798 69.1976 74.3302 76.6907 60.7563C76.9735 60.9312 77.2998 61.023 77.6323 61.0213C77.9648 61.0197 78.2902 60.9246 78.5713 60.7469C78.8523 60.5693 79.0779 60.3162 79.222 60.0166C79.3662 59.7169 79.4233 59.3828 79.3867 59.0523C88.4671 61.3866 97.9326 62.7521 107.106 64.7946C107.281 67.234 110.713 66.3003 110.188 64.3044C117.797 56.6247 125.991 48.4547 133.425 40.8449L133.705 40.9617C134.143 41.1063 134.621 41.0722 135.034 40.8668C135.447 40.6613 135.762 40.3012 135.911 39.8646C136.063 39.4547 136.052 39.0021 135.88 38.6004C135.707 38.1987 135.387 37.8785 134.986 37.7061C134.584 37.5338 134.131 37.5224 133.721 37.6743C133.312 37.8262 132.976 38.1298 132.783 38.5223C132.618 38.8339 132.548 39.1876 132.584 39.5386C132.619 39.8897 132.758 40.2224 132.982 40.4948C125.465 48.1162 117.109 55.9594 109.977 63.8376C109.789 63.5788 109.529 63.3802 109.23 63.2657C108.831 63.1214 108.391 63.1396 108.004 63.3164C107.618 63.4932 107.317 63.8144 107.165 64.2111C102.496 63.2657 81.4876 58.6672 79.2934 58.5855C78.4414 56.0644 74.4731 58.247 76.1888 60.3478C67.4002 76.291 57.9931 91.0436 48.3875 106.45C48.0061 106.266 47.5741 106.216 47.1607 106.307C46.7473 106.398 46.3764 106.625 46.1074 106.952C45.8384 107.279 45.6868 107.686 45.677 108.11C45.6672 108.533 45.7997 108.947 46.0532 109.286C47.6055 111.492 50.8852 108.621 48.7844 106.718ZM134.196 29.8505C133.764 29.9089 133.915 30.5041 133.939 30.7959C134.429 35.7212 135.246 29.7455 134.196 29.8505Z" fill="#EBA300"/>
<path d="M108.834 52.4227C108.122 52.3527 108.6 55.1305 108.67 55.7841C108.674 55.8119 108.684 55.8385 108.699 55.8624C108.714 55.8863 108.733 55.9071 108.756 55.9234C108.779 55.9397 108.805 55.9513 108.832 55.9574C108.859 55.9636 108.888 55.9642 108.915 55.9592C108.96 55.9542 109.002 55.9341 109.034 55.9023C109.065 55.8705 109.085 55.8288 109.09 55.7841C109.079 55.2822 109.417 52.5278 108.834 52.4227ZM109.079 61.4797C109.476 56.286 108.437 58.3285 108.437 58.3985C108.462 59.4263 108.552 60.4515 108.705 61.4681C108.704 61.5176 108.722 61.5657 108.756 61.6018C108.79 61.6379 108.837 61.6591 108.886 61.6606C108.936 61.6622 108.984 61.644 109.02 61.6101C109.056 61.5762 109.077 61.5293 109.079 61.4797ZM108.717 41.4049C108.285 41.4633 108.437 42.0585 108.472 42.3503C108.997 47.2757 109.767 41.2999 108.717 41.4049ZM133.974 34.4955C133.67 37.355 134.756 37.6117 134.616 35.4992C134.616 35.044 134.476 34.5889 134.417 34.1337C134.417 33.9353 134.044 33.7719 133.974 34.4955ZM122.583 35.896C124.753 36.1178 129.399 35.9777 129.679 35.9661C131.429 35.9661 131.254 35.9661 131.126 34.2854C131.126 33.3984 131.009 32.4296 130.601 32.5464L121.836 32.3596C121.147 32.1729 121.404 33.3167 121.439 34.052C121.509 35.3825 121.042 35.7326 122.583 35.896ZM122.011 32.8498L130.566 33.1066L130.636 35.3475H121.999L122.011 32.8498ZM108.6 33.0599C108.616 33.112 108.652 33.1558 108.7 33.1819C108.748 33.2081 108.804 33.2146 108.857 33.2C108.891 33.1898 108.923 33.1719 108.949 33.1476C108.975 33.1233 108.996 33.0933 109.009 33.0599C109.187 32.0461 109.211 31.0112 109.079 29.9903C109.064 29.9549 109.042 29.923 109.014 29.8966C108.986 29.8701 108.953 29.8497 108.917 29.8365C108.88 29.8234 108.842 29.8178 108.804 29.8202C108.765 29.8226 108.728 29.8328 108.694 29.8503C108.651 29.872 108.615 29.9041 108.589 29.9436C108.419 30.9637 108.419 32.0048 108.589 33.0249L108.6 33.0599ZM108.822 35.7093C108.25 35.7093 108.472 36.8181 108.495 37.1332C108.705 41.4166 109.919 35.7326 108.822 35.7093ZM62.0897 57.2664C62.0897 57.4414 62.4048 57.4648 62.8833 57.4648C64.9258 57.4648 72.3022 58.0483 72.4305 57.2314C72.8507 57.2314 72.699 54.6987 72.6406 54.2085C73.1658 52.9596 63.1868 53.8817 62.4632 53.8233C62.1364 53.7299 61.9846 54.0917 62.043 54.6286C62.1364 55.539 62.043 56.8462 62.0897 57.2664ZM62.5916 54.3252C65.7428 54.3252 69.0925 54.4069 72.2321 54.3252V57.0213C68.9408 57.1497 65.7545 57.0213 62.5449 57.1146C62.6076 56.1862 62.6232 55.2552 62.5916 54.3252ZM46.9285 33.2933C46.7535 42.432 46.8235 90.2147 46.8468 104.967C46.8468 105.434 47.5821 105.493 47.5821 104.967C47.5821 95.4902 47.6872 47.6608 47.3837 33.2233C47.7339 33.2233 48.9594 33.1649 49.2045 32.7681C49.4496 32.3713 47.7339 27.8311 47.4771 27.1542C47.3837 26.9207 47.0803 27.0841 47.0336 27.2475C46.4734 29.1033 45.8664 30.924 45.3763 32.8031C45.2362 33.375 46.5667 33.305 46.9285 33.2933ZM109.16 49.0264V47.7425C109.16 46.9138 108.157 46.2369 108.589 49.4115C108.705 50.1935 109.079 50.1935 109.16 49.0264ZM77.1691 55.3406C77.2392 55.8191 77.9161 55.7724 77.8811 54.9087C77.776 52.1776 77.1575 52.131 77.1458 53.4965C77.0991 54.1103 77.0991 54.7268 77.1458 55.3406H77.1691ZM77.566 33.4801C78.2079 33.4217 77.706 30.5155 77.566 29.9787C77.566 29.7802 77.2041 29.7336 77.1925 29.9787C77.1925 31.0291 77.1691 32.0795 77.1224 33.1299C77.1204 33.1849 77.1314 33.2396 77.1545 33.2896C77.1776 33.3396 77.2122 33.3834 77.2554 33.4175C77.2986 33.4516 77.3492 33.475 77.4032 33.4859C77.4571 33.4968 77.5129 33.4948 77.566 33.4801ZM77.1575 42.3737V43.6809C77.1575 44.5095 78.1612 45.1631 77.7294 42.0119C77.566 41.2065 77.2041 41.2766 77.1575 42.3737ZM77.4843 39.0473C78.2079 39.1174 77.7177 36.3396 77.6477 35.6743C77.6477 35.6186 77.6255 35.5651 77.5861 35.5257C77.5467 35.4863 77.4933 35.4642 77.4376 35.4642C77.3819 35.4642 77.3284 35.4863 77.289 35.5257C77.2496 35.5651 77.2275 35.6186 77.2275 35.6743C77.2275 36.1878 76.9007 38.989 77.4843 39.0473Z" fill="black"/>
</svg>
