<svg width="126" height="18" viewBox="0 0 126 18" fill="none" xmlns="http://www.w3.org/2000/svg">
<path d="M7.96606 0.504045C6.4685 0.672888 5.15447 1.13537 3.95055 1.93553C3.62754 2.14842 3.28986 2.39067 3.20911 2.46408C3.12836 2.53749 2.93749 2.68431 2.79067 2.80176C2.55576 2.97061 2.20339 3.38904 1.42525 4.39475C0.904037 5.06278 0.324099 6.51629 0.125893 7.64679C-0.057632 8.68187 0.00109587 10.2528 0.265371 11.2218C0.492942 12.0367 1.02149 13.1745 1.51334 13.8866C3.59818 16.9184 7.40081 18.3499 11.0713 17.469C12.6202 17.0946 14.0444 16.3018 15.263 15.1346C15.6227 14.7895 16.4596 13.7545 16.4596 13.6517C16.4596 13.6223 16.1219 13.3948 15.7108 13.1525C15.2924 12.9103 14.5069 12.4404 13.9563 12.1101C13.3984 11.7797 12.9212 11.5155 12.8772 11.5155C12.8405 11.5155 12.723 11.6256 12.6276 11.7504C12.0183 12.5505 11.3576 13.013 10.3299 13.3581C9.89674 13.5049 9.67651 13.5342 8.89837 13.5342C8.09086 13.5342 7.91468 13.5049 7.44485 13.336C6.68873 13.0644 6.17486 12.7341 5.59493 12.1541C3.27517 9.82706 4.18546 6.02444 7.34208 4.84989C7.72381 4.71041 8.02479 4.65903 8.6708 4.62966C9.69119 4.58562 10.117 4.67371 10.9905 5.09214C11.5264 5.34907 11.754 5.51792 12.1945 5.96571L12.745 6.51629L13.1121 6.31074C13.3176 6.19328 13.8315 5.89965 14.2573 5.66474C14.6831 5.42248 15.3217 5.05544 15.6741 4.84989C16.0265 4.65168 16.3348 4.46816 16.3568 4.44614C16.4522 4.35071 16.0999 3.88088 15.4098 3.18349C13.7361 1.49507 11.6879 0.592138 9.26542 0.482023C8.83964 0.460001 8.25236 0.46734 7.96606 0.504045Z" fill="#FF0000"/>
<path d="M25.0318 0.504883C22.925 0.747135 21.0384 1.65007 19.5848 3.11092C18.7773 3.92577 18.8361 3.85236 18.3295 4.6672C17.5807 5.8858 17.1843 7.06036 17.0522 8.4478C16.9861 9.10848 17.0449 10.3124 17.155 10.8263C17.4046 11.9421 17.9111 13.124 18.5131 14.0122C19.5775 15.5832 21.2953 16.8899 23.0645 17.4845C25.9642 18.4609 29.2309 17.9103 31.602 16.0604C32.0865 15.6786 33.0923 14.6436 33.3125 14.2912C33.4226 14.115 33.5327 13.9609 33.5621 13.9388C33.6648 13.8654 34.2228 12.7863 34.4503 12.2137C35.067 10.6648 35.1771 8.646 34.7293 7.02365C33.9658 4.26345 31.8296 1.97307 29.0988 0.989388C27.9389 0.578293 26.2284 0.372747 25.0318 0.504883ZM27.4691 4.90946C28.9299 5.41598 30.0164 6.48042 30.4789 7.84584C30.7064 8.49918 30.7505 9.48287 30.5963 10.1582C30.1999 11.832 28.8712 13.1754 27.1607 13.6232C26.5441 13.7847 25.4356 13.7773 24.8336 13.6158C23.226 13.1827 21.8826 11.854 21.4862 10.3051C21.3467 9.75449 21.3467 8.66068 21.4862 8.12479C21.699 7.28792 22.022 6.75204 22.6901 6.08401C23.3728 5.40864 24.0482 5.01223 24.885 4.79934C25.5237 4.63784 26.8598 4.69657 27.4691 4.90946Z" fill="#FF0000"/>
<path d="M62.7582 0.511652C61.0697 0.687836 59.6823 1.42193 58.8307 2.59648L58.6766 2.81671L58.6692 1.84036V0.871359H56.4669H54.2646V9.16664V17.4619H56.4669H58.6692V12.705C58.6766 9.02716 58.6986 7.83058 58.772 7.40481C59.1244 5.49616 60.1521 4.58588 62.0828 4.47577L62.8169 4.43172L63.1986 2.55978C63.4115 1.53204 63.5804 0.629107 63.5877 0.555698C63.5877 0.482288 63.5363 0.438242 63.4629 0.438242C63.3895 0.445583 63.0738 0.474947 62.7582 0.511652Z" fill="#FF0000"/>
<path d="M70.0849 0.504524C67.0971 0.754116 64.9095 2.36178 64.4397 4.63748C64.102 6.25983 64.5131 7.7427 65.5996 8.82182C66.5025 9.71742 67.6697 10.2533 70.3052 10.9654C72.2211 11.4866 72.8011 11.7142 73.2048 12.1032C73.5719 12.4556 73.6673 12.9034 73.4838 13.3292C73.2709 13.8063 72.6176 14.0779 71.5898 14.1367C69.9014 14.2321 68.4479 13.5861 67.7578 12.4262C67.6257 12.206 67.4936 12.0298 67.4715 12.0298C67.4422 12.0298 67.1779 12.1546 66.8769 12.3161C66.5833 12.4703 65.7464 12.9034 65.0196 13.2778C64.2929 13.6522 63.6909 13.9605 63.6762 13.9752C63.6175 14.0266 64.0139 14.746 64.3369 15.1717C64.8141 15.8031 65.049 16.0306 65.6803 16.4858C66.7448 17.2492 68.0955 17.7191 69.7693 17.8952C73.9977 18.3577 77.3158 16.7794 78.0205 13.9899C78.2848 12.9621 78.16 11.4939 77.7416 10.6791C76.9561 9.13749 75.5907 8.30062 72.5221 7.47843C69.4316 6.64156 68.9471 6.37729 68.9471 5.49637C68.9471 4.79164 69.3875 4.43927 70.4006 4.32182C71.7954 4.16766 73.1388 4.72557 73.7334 5.70926C73.8215 5.85608 73.9022 5.98822 73.9096 6.0029C73.9243 6.01758 74.2693 5.8414 74.6877 5.62117C75.7081 5.07794 76.9781 4.40991 77.4039 4.19702L77.7563 4.02818L77.5213 3.65379C77.2424 3.19865 76.3174 2.25901 75.7668 1.87728C74.7464 1.15787 73.3737 0.673365 71.9349 0.511864C71.1714 0.423773 71.076 0.423773 70.0849 0.504524Z" fill="#FF0000"/>
<path d="M86.8441 0.504278C85.5374 0.651098 84.2821 1.06953 83.2617 1.69351C82.5569 2.12663 82.6303 2.07524 82.0798 2.53772C81.2502 3.24979 80.5969 4.11603 80.061 5.23185C78.5634 8.3591 78.9378 11.8974 81.0594 14.6283C81.353 15.01 82.0137 15.6707 82.344 15.9056C82.5422 16.0524 82.7698 16.2286 82.8359 16.2873C83.2837 16.6911 84.7519 17.3738 85.7723 17.6454C88.3343 18.3281 91.1018 17.895 93.2674 16.4562C93.8547 16.0671 94.9632 15.0394 95.1173 14.7384C95.2348 14.5255 95.2054 14.4888 94.4567 13.9015C94.2584 13.74 94.0309 13.5565 93.9575 13.4904C93.8767 13.417 93.6565 13.2335 93.4509 13.0793C93.2527 12.9252 92.9224 12.6609 92.7242 12.4847C92.526 12.3159 92.3498 12.1764 92.3425 12.1764C92.3351 12.1764 92.1222 12.3673 91.88 12.6022C91.3808 13.0793 90.676 13.4757 89.9052 13.718C89.1198 13.9676 87.6075 14.0116 86.8 13.8061C86.1467 13.6372 85.3759 13.2849 85.0455 13.0059C84.9354 12.9031 84.8033 12.8004 84.7666 12.7784C84.7225 12.749 84.5243 12.5288 84.3334 12.2865C83.959 11.824 83.592 11.134 83.5112 10.7229L83.4672 10.488H89.8906H96.3139L96.358 10.2604C96.4387 9.82729 96.402 8.24898 96.2919 7.60298C95.6679 4.03528 93.0178 1.26774 89.6043 0.621735C88.8481 0.482256 87.5488 0.423529 86.8441 0.504278ZM89.0977 4.57851C89.7584 4.74735 90.5586 5.16578 91.0137 5.58422C91.4689 6.00999 91.8947 6.70738 91.9681 7.15518L92.0121 7.45616L87.8424 7.41946C85.5447 7.40477 83.6507 7.37541 83.6434 7.36807C83.6287 7.35339 83.7241 7.11848 83.8563 6.83952C84.3555 5.81913 85.5594 4.85746 86.6972 4.58585C87.2698 4.44637 88.5545 4.43903 89.0977 4.57851Z" fill="#FF0000"/>
<path d="M106.459 0.511652C104.932 0.680494 103.897 1.17968 102.921 2.22209L102.429 2.7433L102.422 1.80366V0.871359H100.293H98.1641V9.16664V17.4619H100.293H102.422V12.771C102.422 7.88931 102.451 7.39013 102.752 6.52389C102.914 6.04673 103.339 5.4668 103.758 5.12911C104.294 4.71068 104.815 4.53449 105.725 4.47577L106.489 4.43172L106.878 2.52307C107.083 1.47332 107.26 0.570379 107.267 0.518993C107.267 0.423561 107.26 0.423561 106.459 0.511652Z" fill="#FF0000"/>
<path d="M114.719 0.511856C113.595 0.658674 112.281 1.17254 111.217 1.86993C110.578 2.29571 109.249 3.6024 108.86 4.18967C107.891 5.66521 107.392 7.15542 107.289 8.86586C107.055 12.9915 109.785 16.6987 113.86 17.7631C114.66 17.976 116.055 18.0274 116.965 17.8732C118.382 17.6456 119.299 17.2052 120.356 16.2729C120.525 16.1187 120.687 15.9939 120.716 15.9939C120.745 15.9939 120.819 16.1775 120.878 16.3977C120.944 16.6179 121.046 16.985 121.113 17.2052C121.193 17.5062 121.267 17.6163 121.384 17.6456C121.472 17.6677 122.375 17.675 123.381 17.6677L125.216 17.6456V9.20355V0.761448L123.278 0.739426C122.206 0.732084 121.311 0.746767 121.281 0.776131C121.245 0.812836 121.142 1.26063 121.039 1.78184C120.936 2.30305 120.841 2.73617 120.826 2.75085C120.812 2.77287 120.716 2.67744 120.621 2.5453C119.762 1.37075 118.404 0.695379 116.554 0.511856C115.658 0.423765 115.453 0.423765 114.719 0.511856ZM117.824 4.93111C119.248 5.43764 120.356 6.56814 120.797 7.95558C121.024 8.675 121.017 9.95232 120.79 10.613C120.246 12.162 118.874 13.3438 117.236 13.6742C115.9 13.9458 114.763 13.7256 113.581 12.9474C112.582 12.2941 111.922 11.3104 111.657 10.0918C111.555 9.58527 111.628 8.50616 111.811 7.91888C112.281 6.43601 113.529 5.24677 115.064 4.83568C115.834 4.62279 117.075 4.66684 117.824 4.93111Z" fill="#FF0000"/>
<path d="M36.7515 0.82703C36.7294 0.878416 36.7294 3.48446 36.7441 6.60436C36.7735 12.7634 36.7661 12.6386 37.1993 13.8866C37.5516 14.9143 37.9187 15.5016 38.6675 16.2504C39.497 17.0799 40.1944 17.4763 41.3983 17.7993C42.1471 18.0049 44.0998 17.9828 44.9 17.77C45.9277 17.4837 47.0509 16.8156 47.506 16.221C47.9465 15.6264 47.9098 15.597 47.9538 16.6321L47.9905 17.5717H50.1194H52.2483V9.16636V0.760962L50.1047 0.738939L47.9611 0.724257L47.9318 5.8409C47.9098 11.4934 47.9171 11.3393 47.4326 12.2496C47.2417 12.6019 46.6912 13.2773 46.5884 13.2773C46.5737 13.2773 46.4342 13.358 46.2801 13.4608C45.913 13.7031 44.966 13.938 44.3494 13.938C42.6316 13.938 41.4864 13.0717 41.1561 11.5228C41.0753 11.1337 41.0533 10.0252 41.0533 5.87761V0.724257H38.9244C37.1846 0.724257 36.7808 0.746281 36.7515 0.82703Z" fill="#FF0000"/>
</svg>
