<svg width="64" height="64" viewBox="0 0 64 64" fill="none" xmlns="http://www.w3.org/2000/svg">
<rect width="64" height="64" rx="8" fill="#FFFAF5"/>
<path d="M14.125 20.3125H36.125C37.5837 20.3125 38.9826 20.892 40.0141 21.9234C41.0455 22.9549 41.625 24.3538 41.625 25.8125V42.3125C41.625 42.6772 41.4801 43.0269 41.2223 43.2848C40.9644 43.5426 40.6147 43.6875 40.25 43.6875H18.25C16.7913 43.6875 15.3924 43.108 14.3609 42.0766C13.3295 41.0451 12.75 39.6462 12.75 38.1875V21.6875C12.75 21.3228 12.8949 20.9731 13.1527 20.7152C13.4106 20.4574 13.7603 20.3125 14.125 20.3125V20.3125Z" stroke="#FFC27A" stroke-width="1.5" stroke-linecap="round" stroke-linejoin="round"/>
<path d="M41.625 29.25L51.25 23.75V40.25L41.625 34.75" stroke="#FFC27A" stroke-width="1.5" stroke-linecap="round" stroke-linejoin="round"/>
</svg>
