<svg width="64" height="64" viewBox="0 0 64 64" fill="none" xmlns="http://www.w3.org/2000/svg">
<rect width="64" height="64" rx="8" fill="#F0F7FF"/>
<path d="M32 40.9375C35.797 40.9375 38.875 37.8595 38.875 34.0625C38.875 30.2655 35.797 27.1875 32 27.1875C28.203 27.1875 25.125 30.2655 25.125 34.0625C25.125 37.8595 28.203 40.9375 32 40.9375Z" stroke="#0075FD" stroke-width="1.5" stroke-linecap="round" stroke-linejoin="round"/>
<path d="M43.6875 29.9375C45.2889 29.9348 46.8688 30.3064 48.3012 31.0226C49.7336 31.7388 50.9788 32.7797 51.9375 34.0625" stroke="#0075FD" stroke-width="1.5" stroke-linecap="round" stroke-linejoin="round"/>
<path d="M12.0625 34.0625C13.0212 32.7797 14.2664 31.7388 15.6988 31.0226C17.1312 30.3064 18.7111 29.9348 20.3125 29.9375" stroke="#0075FD" stroke-width="1.5" stroke-linecap="round" stroke-linejoin="round"/>
<path d="M22.1 47.125C23.0055 45.2706 24.4136 43.7078 26.1639 42.6147C27.9142 41.5215 29.9363 40.9419 32 40.9419C34.0636 40.9419 36.0858 41.5215 37.8361 42.6147C39.5864 43.7078 40.9945 45.2706 41.9 47.125" stroke="#0075FD" stroke-width="1.5" stroke-linecap="round" stroke-linejoin="round"/>
<path d="M20.3125 29.9375C19.2686 29.9386 18.2459 29.6425 17.364 29.084C16.4821 28.5254 15.7774 27.7274 15.3322 26.7832C14.887 25.839 14.7197 24.7876 14.8498 23.7519C14.9799 22.7161 15.4021 21.7388 16.0671 20.9341C16.732 20.1294 17.6123 19.5305 18.6049 19.2075C19.5976 18.8844 20.6617 18.8506 21.6728 19.1098C22.684 19.3691 23.6006 19.9108 24.3153 20.6716C25.0301 21.4324 25.5136 22.3809 25.7093 23.4062" stroke="#0075FD" stroke-width="1.5" stroke-linecap="round" stroke-linejoin="round"/>
<path d="M38.2906 23.4062C38.4864 22.3809 38.9699 21.4324 39.6847 20.6716C40.3994 19.9108 41.316 19.3691 42.3271 19.1098C43.3383 18.8506 44.4024 18.8844 45.3951 19.2075C46.3877 19.5305 47.268 20.1294 47.9329 20.9341C48.5979 21.7388 49.0201 22.7161 49.1502 23.7519C49.2803 24.7876 49.113 25.839 48.6678 26.7832C48.2226 27.7274 47.5179 28.5254 46.636 29.084C45.7541 29.6425 44.7314 29.9386 43.6875 29.9375" stroke="#0075FD" stroke-width="1.5" stroke-linecap="round" stroke-linejoin="round"/>
</svg>
