<svg width="39" height="39" viewBox="0 0 39 39" fill="none" xmlns="http://www.w3.org/2000/svg">
<g clip-path="url(#clip0_1476_14918)">
<path d="M38.8959 19.5625C38.8959 18.0056 38.7666 16.8696 38.4868 15.6914H20.2944V22.7182H30.973C30.7578 24.4645 29.5952 27.0943 27.0116 28.8615L26.9754 29.0967L32.7275 33.4512L33.126 33.4901C36.7859 30.187 38.8959 25.327 38.8959 19.5625Z" fill="#FF0000"/>
<path d="M20.2946 38.0766C25.5262 38.0766 29.9181 36.3934 33.1261 33.4902L27.0117 28.8616C25.3755 29.9766 23.1795 30.755 20.2946 30.755C15.1706 30.755 10.8217 27.4521 9.27143 22.8867L9.0442 22.9056L3.06308 27.4289L2.98486 27.6414C6.17119 33.8267 12.7162 38.0766 20.2946 38.0766Z" fill="#FF0000"/>
<path d="M9.27132 22.8867C8.86227 21.7086 8.62553 20.4461 8.62553 19.1418C8.62553 17.8373 8.86227 16.5751 9.2498 15.3969L9.23896 15.146L3.18289 10.55L2.98475 10.6421C1.67151 13.2089 0.917969 16.0912 0.917969 19.1418C0.917969 22.1924 1.67151 25.0746 2.98475 27.6413L9.27132 22.8867Z" fill="#FF0000"/>
<path d="M20.2946 7.52841C23.933 7.52841 26.3873 9.06422 27.7868 10.3477L33.2553 5.13006C29.8968 2.07947 25.5262 0.207031 20.2946 0.207031C12.7162 0.207031 6.17119 4.45679 2.98486 10.6421L9.24991 15.3969C10.8217 10.8315 15.1706 7.52841 20.2946 7.52841Z" fill="#FF0000"/>
</g>
<defs>
<clipPath id="clip0_1476_14918">
<rect width="38" height="38" fill="white" transform="translate(0.916016 0.207031)"/>
</clipPath>
</defs>
</svg>
