<svg width="154" height="51" viewBox="0 0 154 51" fill="none" xmlns="http://www.w3.org/2000/svg">
<path fill-rule="evenodd" clip-rule="evenodd" d="M0.319336 26.682C0.712486 32.6435 3.19976 38.3 7.27568 42.5123C11.3837 46.7487 16.5107 49.3082 22.3277 50.0303C27.6794 50.6882 33.3439 49.4927 38.0296 46.7166C41.56 44.6225 44.6249 41.5896 46.7191 38.1155C50.0007 32.6675 51.0838 25.992 49.6958 19.7979C48.6928 15.3609 46.7271 11.6139 43.5739 8.13977C41.2791 5.60435 37.8451 3.24546 34.5394 1.93763C28.0324 -0.65395 20.3941 -0.316963 14.1037 2.82824C7.58058 6.10181 2.76649 12.0793 1.03342 19.0597C0.656322 20.5842 0.463758 21.7717 0.319336 23.5529C0.323437 24.188 0.329179 25.7031 0.319336 26.682ZM43.0363 8.70944C39.0326 4.46502 33.9377 1.88147 28.1608 1.16738C27.1899 1.04703 24.7508 0.950741 24.133 1.01493C23.9565 1.03098 23.3627 1.08714 22.8091 1.13528C21.5173 1.24761 19.5997 1.62472 18.2919 2.02589C13.2772 3.55035 9.09701 6.47891 5.8796 10.7153C4.81248 12.1194 4.29898 12.9458 3.51268 14.5666C2.25299 17.1421 1.59507 19.3004 1.17785 22.3092C0.97726 23.7053 0.97726 26.8505 1.17785 28.2466C1.60309 31.2634 2.25299 33.4298 3.51268 35.9892C7.01091 43.098 13.7747 48.0806 21.5655 49.2681C28.3212 50.2951 35.0449 48.5059 40.4527 44.2374C42.3142 42.761 44.5287 40.2818 45.8926 38.1155C47.2165 36.0294 48.4361 33.0687 48.9656 30.6697C49.8643 26.5777 49.7279 22.3814 48.5564 18.2975C47.5936 14.9437 45.5075 11.3251 43.0363 8.70944Z" fill="#FF0000"/>
<path d="M24.3896 3.38185C23.9804 3.62255 24.1008 4.16815 24.5983 4.38478C24.7828 4.46502 24.9994 4.57735 25.0797 4.64154C25.2722 4.81003 25.2562 5.11492 25.0476 5.21923C24.7908 5.36365 24.502 5.2433 24.3174 4.9384C24.2292 4.78596 24.1409 4.65758 24.1249 4.65758C24.1088 4.65758 24.0928 4.81003 24.0928 4.99457V5.33958L24.5902 5.36365C25.0074 5.37969 25.1118 5.35562 25.2722 5.20318C25.4969 4.99457 25.521 4.57735 25.3204 4.40083C25.2401 4.32862 25.0074 4.20024 24.7988 4.11199C24.4939 3.97559 24.4137 3.90338 24.4137 3.75093C24.4137 3.26952 24.9513 3.26952 25.208 3.75895L25.3685 4.05582L25.3765 3.69477V3.32569L24.9593 3.30964C24.7266 3.30162 24.4699 3.33371 24.3896 3.38185Z" fill="#FF0000"/>
<path d="M26.4439 3.4622C26.5964 3.55046 26.6204 3.87942 26.5241 4.72991C26.484 5.13911 26.4439 5.24341 26.3075 5.29958C26.1551 5.36377 26.1551 5.37179 26.3476 5.37179C26.468 5.37981 26.6766 5.40388 26.813 5.42795C26.9735 5.46005 27.0617 5.45202 27.0617 5.38784C27.0617 5.33969 27.0056 5.29958 26.9414 5.29958C26.805 5.29958 26.7809 4.88236 26.8692 4.02385C26.9173 3.62267 26.9494 3.53441 27.0697 3.53441C27.158 3.53441 27.2222 3.4943 27.2222 3.45418C27.2222 3.40604 27.0136 3.37394 26.7648 3.37394C26.4118 3.38197 26.3316 3.39802 26.4439 3.4622Z" fill="#FF0000"/>
<path d="M22.5282 3.49428C22.4881 3.51033 22.2313 3.55045 21.9665 3.57452C21.5814 3.62266 21.5172 3.64673 21.6697 3.70289C21.766 3.74301 21.8462 3.78313 21.8462 3.79115C21.8462 3.8072 21.9024 4.17628 21.9585 4.61757C22.0227 5.05084 22.0548 5.44399 22.0388 5.47608C22.0147 5.50817 21.9425 5.54027 21.8703 5.54027C21.798 5.54027 21.7579 5.56434 21.79 5.58841C21.8141 5.6205 22.1992 5.59643 22.6485 5.54027L23.4509 5.43596V5.12305C23.4509 4.74594 23.4027 4.73792 23.2583 5.09898C23.1701 5.31561 23.0898 5.3798 22.9374 5.3798C22.8331 5.3798 22.6967 5.39585 22.6325 5.41992C22.4479 5.4841 22.3517 5.35573 22.3035 4.95455C22.2554 4.58547 22.2554 4.57745 22.464 4.57745C22.5763 4.57745 22.7448 4.64164 22.8331 4.71385C22.9935 4.85025 22.9935 4.85025 22.9454 4.65769C22.9133 4.54536 22.8892 4.37686 22.8892 4.27256C22.8892 4.05593 22.7609 4.03988 22.7047 4.24849C22.6887 4.32872 22.5763 4.40896 22.464 4.43303C22.2393 4.47315 22.1671 4.35279 22.1671 3.87139C22.1671 3.62266 22.1751 3.61463 22.5202 3.61463C22.801 3.61463 22.9053 3.65475 23.0016 3.79115C23.1299 3.96767 23.1299 3.96767 23.1299 3.71092C23.1299 3.47021 23.1139 3.45417 22.8732 3.46219C22.7288 3.46219 22.5763 3.47824 22.5282 3.49428Z" fill="#FF0000"/>
<path d="M28.3532 3.67877C27.8637 3.94354 27.6391 4.64961 27.8878 5.13904C28.0403 5.43591 28.4816 5.70068 28.8346 5.70068C29.2438 5.70068 29.3882 5.6365 29.3882 5.44393C29.3882 5.21125 29.5406 4.97857 29.6931 4.97055C29.9017 4.96252 29.5888 4.8502 29.1876 4.79403C28.9068 4.75391 28.8827 4.75391 29.0111 4.85822C29.2358 5.01869 29.1716 5.49207 28.9148 5.52417C28.2408 5.62045 27.9119 4.97857 28.2328 4.17622C28.3772 3.81517 28.5377 3.69482 28.8907 3.69482C29.1555 3.69482 29.3481 3.87936 29.4363 4.20029C29.4765 4.36879 29.5086 4.40088 29.5567 4.32065C29.661 4.1682 29.645 3.67075 29.5487 3.73493C29.5005 3.76703 29.4123 3.75098 29.3641 3.70284C29.1555 3.53435 28.642 3.5183 28.3532 3.67877Z" fill="#FF0000"/>
<path d="M30.6721 4.00779C30.6721 4.0479 30.7282 4.09605 30.7924 4.12814C30.9609 4.19233 30.9449 4.32873 30.7042 5.107C30.5196 5.70074 30.4715 5.78097 30.303 5.78097C29.9901 5.78097 30.0864 5.90133 30.4795 6.00563C30.8406 6.10191 31.0733 6.07784 30.8005 5.97354C30.6239 5.90935 30.64 5.66865 30.8566 5.01874L31.0492 4.4571L31.2096 4.89839C31.2979 5.1391 31.4504 5.58039 31.5547 5.87726C31.659 6.18215 31.7713 6.42285 31.8034 6.42285C31.8355 6.42285 31.9558 6.10994 32.0682 5.71679C32.365 4.74595 32.4051 4.65769 32.5977 4.65769C32.8304 4.65769 32.7341 4.52931 32.4613 4.47315C32.3329 4.44908 32.1644 4.40094 32.0762 4.36884C31.9237 4.31268 31.9237 4.31268 32.0601 4.47315C32.1323 4.56141 32.1965 4.70583 32.1965 4.79409C32.1965 4.96258 31.9639 5.70074 31.8836 5.79702C31.8596 5.82911 31.6991 5.46004 31.5226 4.97863C31.2498 4.19233 31.1936 4.09605 30.977 4.02383C30.6801 3.91953 30.6721 3.91953 30.6721 4.00779Z" fill="#FF0000"/>
<path d="M19.2546 4.13604C18.8214 4.2564 18.685 4.33663 18.9337 4.33663C19.0701 4.33663 19.1262 4.46501 19.3108 5.15503C19.5114 5.89318 19.5194 5.98144 19.4071 6.0697C19.1824 6.23017 19.2707 6.24622 19.736 6.12587C20.5865 5.90923 20.9636 5.58829 20.9636 5.08281C20.9636 4.19221 20.3298 3.83918 19.2546 4.13604ZM20.1131 4.20826C20.5945 4.40884 20.8352 5.34759 20.4822 5.70062C20.2977 5.88516 19.9366 5.98947 19.8484 5.89318C19.8082 5.85307 19.6879 5.46794 19.5756 5.03467L19.367 4.24837L19.5435 4.17616C19.7842 4.07988 19.8082 4.07988 20.1131 4.20826Z" fill="#FF0000"/>
<path d="M16.4306 5.1311C16.1257 5.27552 16.1257 5.28354 16.3263 5.29157C16.5189 5.29959 16.5911 5.37983 16.8318 5.86123C16.9843 6.16613 17.1126 6.43892 17.1126 6.47102C17.1126 6.49509 16.7355 6.31055 16.2782 6.06984C15.516 5.66065 15.4277 5.62855 15.195 5.70879C14.8901 5.81309 14.8661 5.94147 15.1549 5.94147C15.3314 5.94147 15.3956 6.02973 15.6845 6.63951C15.9572 7.22522 15.9974 7.36162 15.9171 7.49C15.861 7.57023 15.8449 7.63442 15.885 7.61837C15.9171 7.60233 16.0856 7.53012 16.2541 7.46593C16.551 7.3536 16.6713 7.20918 16.4146 7.27336C16.3344 7.28941 16.23 7.28139 16.1819 7.24929C16.0776 7.17708 15.4839 6.0217 15.5561 6.0217C15.5801 6.0217 16.0134 6.23834 16.5189 6.51114C17.0244 6.77591 17.4336 6.96045 17.4336 6.92033C17.4336 6.88021 17.2651 6.49509 17.0645 6.06182C16.7516 5.41192 16.7034 5.25145 16.7837 5.12307C16.896 4.93853 16.8318 4.94656 16.4306 5.1311Z" fill="#FF0000"/>
<path d="M34.6194 5.53208C34.7077 5.6765 34.6675 5.79686 34.3626 6.41466C34.0738 7.01642 33.9775 7.1448 33.809 7.16085C33.6165 7.18492 33.6245 7.20096 33.9374 7.36946C34.3546 7.58609 34.475 7.60214 34.3546 7.40155C34.2824 7.28922 34.2985 7.18492 34.4349 6.91212C34.6033 6.59118 34.6194 6.57513 34.7879 6.68746C34.8842 6.75165 34.9805 6.90409 35.0045 7.02445L35.0446 7.2491L35.2292 6.92014C35.4458 6.52699 35.4538 6.47083 35.2533 6.58316C35.0446 6.68746 34.9885 6.68746 34.812 6.55909C34.6756 6.45478 34.6756 6.43873 34.836 6.11779C34.9323 5.93325 35.0366 5.78081 35.0687 5.78081C35.1008 5.78081 35.2452 5.85302 35.3896 5.94128C35.5662 6.05361 35.6464 6.15791 35.6464 6.30233C35.6464 6.41466 35.6785 6.50292 35.7266 6.50292C35.7988 6.50292 35.9673 6.25419 35.9673 6.14989C35.9673 6.12582 35.6384 5.94128 35.2452 5.74069C34.6836 5.45987 34.5392 5.41173 34.6194 5.53208Z" fill="#FF0000"/>
<path d="M13.5822 6.68758C13.4218 6.74375 13.2292 6.89619 13.1249 7.05666C12.5552 7.90715 13.51 9.06253 14.4167 8.62926C15.5239 8.09971 14.7456 6.29443 13.5822 6.68758ZM14.2803 7.08073C14.6092 7.43376 14.7055 7.64237 14.7055 7.97936C14.7055 8.27623 14.4167 8.58914 14.1359 8.58914C13.7989 8.58914 13.1811 7.80284 13.1811 7.36958C13.1811 6.79189 13.839 6.62339 14.2803 7.08073Z" fill="#FF0000"/>
<path d="M36.4654 6.98428C36.1204 7.19289 35.8556 7.7786 35.9198 8.14768C35.992 8.53281 36.4493 8.90991 36.8345 8.90991C37.2677 8.90991 37.6368 8.65316 37.8294 8.21187C37.9818 7.86686 37.9898 7.80267 37.8855 7.51383C37.6689 6.90404 37.003 6.65532 36.4654 6.98428ZM37.5325 7.18487C37.7732 7.41755 37.7812 7.56197 37.5807 7.98721C37.3961 8.40443 36.9869 8.74944 36.69 8.74944C36.4333 8.74944 36.1284 8.43653 36.1284 8.17175C36.1284 7.93105 36.4172 7.42557 36.69 7.19289C37.003 6.92812 37.2838 6.92812 37.5325 7.18487Z" fill="#FF0000"/>
<path d="M11.6166 8.11581C11.2315 8.40466 11.1834 8.50094 11.4401 8.4528C11.5926 8.4207 11.7049 8.50896 12.0659 8.9663C12.6356 9.67237 12.6517 9.69644 12.5393 9.83284C12.3548 10.0575 12.5794 9.95319 12.9004 9.67237C13.1892 9.42364 13.1973 9.39154 13.0207 9.43166C12.8442 9.46376 12.7479 9.3755 12.3147 8.8299C11.8894 8.28431 11.8252 8.16395 11.8975 8.02755C12.0098 7.81894 12.0018 7.82697 11.6166 8.11581Z" fill="#FF0000"/>
<path d="M38.9686 8.25203C39.0167 8.39645 38.9285 8.54087 38.5433 8.99821C37.9656 9.66416 37.9335 9.8487 38.3267 10.2419C38.5353 10.4505 38.6717 10.5146 38.8803 10.5146C39.129 10.5146 39.2253 10.4505 39.6425 9.9851C40.0598 9.52776 40.156 9.45555 40.3406 9.48764L40.5572 9.53579L40.2924 9.26299C39.9715 8.93402 39.9153 8.926 39.9635 9.21485C39.9876 9.39136 39.9073 9.52776 39.5222 9.93696C39.2173 10.2659 38.9926 10.4344 38.8723 10.4344C38.6476 10.4344 38.2946 10.0974 38.2946 9.88079C38.2946 9.79254 38.5193 9.4716 38.7921 9.15868C39.1611 8.72541 39.3216 8.59704 39.4339 8.63716C39.6586 8.70937 39.6105 8.62913 39.2494 8.34029C38.9525 8.10761 38.9204 8.09958 38.9686 8.25203Z" fill="#FF0000"/>
<path d="M10.036 9.43154C9.69098 9.75247 9.41016 10.0574 9.41016 10.0975C9.41016 10.1697 9.66691 10.4345 9.73912 10.4345C9.76319 10.4345 9.76319 10.2981 9.74714 10.1296C9.7311 9.93701 9.75517 9.79259 9.82738 9.7284C9.91563 9.65619 10.0681 9.7605 10.5736 10.274C11.1512 10.8517 11.1994 10.9319 11.1111 11.0763C11.055 11.1646 11.0389 11.2368 11.079 11.2368C11.1673 11.2368 11.737 10.6431 11.737 10.5548C11.737 10.5147 11.6968 10.5227 11.6407 10.5789C11.4722 10.7474 11.3679 10.6832 10.7741 10.0333C10.2286 9.42351 10.2045 9.37537 10.3409 9.27107C10.4452 9.19885 10.5896 9.17478 10.7741 9.20688L11.055 9.25502L10.8624 9.03839C10.7501 8.92606 10.6618 8.82978 10.6618 8.82978C10.6538 8.8378 10.373 9.10257 10.036 9.43154Z" fill="#FF0000"/>
<path d="M24.3338 9.04641C23.9326 9.11862 23.1864 9.32723 22.7612 9.47968L22.3359 9.64015L22.6569 10.1456C23.0982 10.8517 23.4913 11.8626 23.6598 12.7212C23.74 13.1143 23.8123 13.4513 23.8123 13.4673C23.8203 13.4754 24.1011 13.4112 24.4381 13.3229C24.7751 13.2427 25.3688 13.1544 25.7539 13.1304L26.46 13.0902L26.5643 12.1435C26.6766 11.0683 26.6445 10.0172 26.476 9.61607C26.2674 9.1106 26.0107 8.99024 25.2244 8.99827C24.8473 9.00629 24.4461 9.03036 24.3338 9.04641Z" fill="#FF0000"/>
<path d="M41.0707 10.1537C41.1269 10.3703 41.0787 10.4345 40.5732 10.8919C40.1079 11.3251 39.9875 11.3973 39.795 11.3653L39.5703 11.3171L39.8271 11.6381C39.9715 11.8146 40.0999 11.959 40.1079 11.959C40.1239 11.959 40.1159 11.8547 40.0918 11.7343C40.0517 11.5418 40.1079 11.4615 40.5412 11.0844C40.8059 10.8518 41.0466 10.6672 41.0627 10.6833C41.0787 10.6993 40.9985 11.1406 40.8862 11.6621C40.7738 12.1836 40.7016 12.633 40.7337 12.657C40.7578 12.6811 41.0707 12.4404 41.4398 12.1275C41.9693 11.6621 42.1378 11.5578 42.2903 11.5979C42.4507 11.6381 42.4668 11.622 42.3946 11.5017C42.3545 11.4214 42.2261 11.269 42.1138 11.1647L41.9051 10.9641L41.9533 11.2128C41.9934 11.4294 41.9533 11.4936 41.5361 11.8627C41.2793 12.0954 41.0627 12.2719 41.0547 12.2559C41.0466 12.2478 41.1269 11.8627 41.2312 11.3973C41.3355 10.932 41.4237 10.5148 41.4237 10.4746C41.4237 10.4265 41.3355 10.2821 41.2231 10.1537L41.0226 9.91301L41.0707 10.1537Z" fill="#FF0000"/>
<path d="M8.55155 11.0363C8.26271 11.3251 8.20654 11.4294 8.20654 11.6862C8.20654 12.296 8.75214 12.8416 9.36192 12.8416C9.94764 12.8416 10.429 12.0873 10.1242 11.638C10.068 11.5498 10.06 11.5979 10.1001 11.8226C10.1643 12.2157 9.98775 12.4965 9.61867 12.5607C9.28169 12.6249 8.96075 12.4725 8.61574 12.0793C8.33492 11.7584 8.30282 11.5257 8.49539 11.2449C8.61574 11.0844 8.67993 11.0603 9.02494 11.0924C9.41006 11.1326 9.41006 11.1326 9.27366 10.9801C8.99284 10.6752 8.90458 10.6752 8.55155 11.0363Z" fill="#FF0000"/>
<path d="M27.8557 10.8917C27.6792 10.9158 27.623 10.988 27.5508 11.2769C27.4545 11.654 27.4305 13.5716 27.5107 14.2456L27.5588 14.6467H28.6741H29.7894V14.1412C29.7894 13.5074 29.9739 12.5927 30.2708 11.7823L30.5035 11.1485L30.3269 11.0843C29.8295 10.8917 28.4976 10.7955 27.8557 10.8917Z" fill="#FF0000"/>
<path d="M16.2702 12.4966C16.0937 12.7373 15.7807 13.0984 15.5721 13.2829L15.187 13.6279L15.5882 13.8847C15.9974 14.1494 16.6312 14.7833 17.1126 15.4332C17.2651 15.6338 17.4095 15.8103 17.4336 15.8103C17.4577 15.8103 17.5459 15.698 17.6261 15.5616C17.7064 15.4252 18.0032 15.0641 18.2921 14.7592C18.7655 14.2537 18.7976 14.1976 18.7093 14.0291C18.5087 13.66 17.9872 13.0262 17.6582 12.7534C17.2811 12.4404 16.6954 12.0393 16.6312 12.0473C16.6072 12.0473 16.4467 12.2479 16.2702 12.4966Z" fill="#FF0000"/>
<path d="M21.2767 12.3841C20.6027 12.7211 19.6158 13.395 19.327 13.716C19.1906 13.8684 19.1986 13.8845 19.8084 14.4622C20.5626 15.1763 21.2606 16.0348 21.6458 16.7328C21.8303 17.0618 21.9747 17.2383 22.0309 17.1982C22.0871 17.1661 22.2716 17.0377 22.4481 16.9093L22.7691 16.6847L22.8814 17.0698C23.082 17.7919 23.1301 17.808 23.1141 17.142L23.09 16.5082L23.6998 16.2755L24.3015 16.0348L24.0047 14.9035C23.6035 13.395 23.3387 12.7371 22.9696 12.352C22.5524 11.9107 22.1994 11.9187 21.2767 12.3841Z" fill="#FF0000"/>
<path d="M31.611 12.6651C31.5549 13.1546 31.0574 14.679 30.6643 15.5857L30.3594 16.2917H30.6402C30.9852 16.2917 31.924 16.5966 32.7343 16.9737C33.1355 17.1583 33.3361 17.2144 33.3521 17.1503C33.3682 17.0941 33.4243 16.7812 33.4805 16.4522C33.6009 15.7141 33.8897 14.7753 34.2508 13.9569C34.5717 13.2348 34.5797 13.1626 34.3551 13.1626C34.0261 13.1626 32.8627 12.8256 32.285 12.5528C31.956 12.4004 31.6832 12.28 31.6752 12.28C31.6672 12.28 31.6351 12.4565 31.611 12.6651Z" fill="#FF0000"/>
<path d="M42.9482 12.4565C42.9482 12.5929 42.7877 12.7453 42.2983 13.0662C41.8891 13.339 41.5922 13.4835 41.4959 13.4594C41.2873 13.4032 41.2953 13.4273 41.6644 13.9248C42.0576 14.4543 42.2983 14.6228 42.6513 14.6228C43.2851 14.6228 43.7184 14.1414 43.6542 13.5236C43.6221 13.2508 43.0926 12.2799 42.9803 12.2799C42.9642 12.2799 42.9482 12.3602 42.9482 12.4565ZM43.3894 13.0823C43.5419 13.3711 43.5419 13.5075 43.3894 13.8044C43.1327 14.3019 42.3223 14.5426 41.9853 14.2056C41.7045 13.9248 41.7848 13.7803 42.4828 13.2989C42.8519 13.0502 43.1728 12.8416 43.2049 12.8416C43.237 12.8416 43.3172 12.9459 43.3894 13.0823Z" fill="#FF0000"/>
<path d="M6.89058 13.4191C6.92267 13.4753 7.16338 13.8203 7.42815 14.1894C7.69293 14.5504 7.92561 14.9596 7.9577 15.1041L8.00584 15.3528L8.2305 15.0158C8.43911 14.7029 8.43109 14.5745 8.22248 14.7831C8.15026 14.8553 8.0941 14.8393 7.96572 14.727C7.76514 14.5424 7.76514 14.414 7.96572 14.0851C8.10212 13.8684 8.15829 13.8363 8.37492 13.8684C8.52737 13.8925 8.6397 13.9647 8.67981 14.061C8.72795 14.2054 8.76005 14.1814 8.95261 13.9005L9.16122 13.5716L8.90447 13.6117C8.76005 13.6358 8.30271 13.5796 7.88549 13.4913C7.00291 13.2908 6.81034 13.2827 6.89058 13.4191ZM7.82933 13.7722C7.99782 13.8283 7.99782 13.8765 7.81328 14.1172L7.66886 14.3017L7.40408 13.9647L7.13128 13.6277L7.4121 13.6839C7.56455 13.708 7.74909 13.7561 7.82933 13.7722Z" fill="#FF0000"/>
<path d="M36.826 14.7833C36.7136 14.9277 36.5532 15.1925 36.4649 15.369C36.2804 15.7381 35.7187 17.1181 35.7508 17.1342C35.7589 17.1342 35.9835 17.2064 36.2403 17.2946C36.505 17.3829 36.842 17.5353 36.9864 17.6316C37.1389 17.7359 37.2833 17.8162 37.3154 17.8162C37.3475 17.8162 37.4839 17.6076 37.6123 17.3508C37.7487 17.1021 38.1338 16.6046 38.4708 16.2516C38.8158 15.8986 39.0966 15.5937 39.0966 15.5696C39.0966 15.4171 37.4197 14.5265 37.1389 14.5265C37.0747 14.5265 36.9303 14.6469 36.826 14.7833Z" fill="#FF0000"/>
<path d="M26.4598 14.7671C26.2431 14.8474 25.8339 14.9356 25.5611 14.9677C25.2803 14.9998 25.0557 15.0399 25.0557 15.056C25.0557 15.072 25.1439 15.393 25.2482 15.762C25.3606 16.1311 25.4809 16.7489 25.521 17.134C25.5692 17.5112 25.6173 17.8401 25.6414 17.8642C25.6654 17.8883 25.7537 17.8722 25.842 17.8241C26.0506 17.7117 27.0776 17.4951 27.3985 17.4951C27.5991 17.4951 27.6312 17.471 27.5831 17.3507C27.4226 16.9736 27.1337 15.7059 27.0856 15.1924C27.0535 14.8393 27.0054 14.6067 26.9492 14.6147C26.9011 14.6227 26.6844 14.6869 26.4598 14.7671Z" fill="#FF0000"/>
<path d="M5.73526 15.353C5.51862 15.5776 5.09338 16.5244 5.26989 16.38C5.38222 16.2917 5.51862 16.3238 6.1605 16.6207C6.82645 16.9256 6.92273 16.9978 6.92273 17.1743C6.93075 17.3508 6.95482 17.3267 7.12332 17.0138C7.34797 16.5966 7.37204 16.4762 7.20355 16.6126C7.09925 16.6929 7.01901 16.6929 6.76226 16.5725C6.21666 16.3238 6.33702 16.2034 7.21157 16.0831C7.54856 16.043 7.64484 15.9948 7.71705 15.8344C7.8374 15.5696 7.8374 15.5616 7.54856 15.6819C7.40414 15.7461 7.11529 15.8183 6.90668 15.8424C6.5697 15.8905 6.5376 15.8825 6.5697 15.7541C6.62586 15.5455 6.31295 15.1684 6.08829 15.1684C5.99201 15.1684 5.83154 15.2486 5.73526 15.353ZM6.28085 15.6498C6.44934 15.8183 6.48144 16.0189 6.36911 16.2034C6.31295 16.2917 6.24073 16.2917 5.92782 16.1713C5.71921 16.0911 5.53467 16.0029 5.51862 15.9708C5.45443 15.8665 5.80747 15.4893 5.96794 15.4893C6.04817 15.4893 6.19259 15.5616 6.28085 15.6498Z" fill="#FF0000"/>
<path d="M42.627 15.3688C42.627 15.433 42.9479 16.0508 42.972 16.0508C42.988 16.0508 42.996 15.9706 42.996 15.8743C42.988 15.7379 43.0442 15.6897 43.2528 15.6416C43.5015 15.5935 43.5256 15.6095 43.678 15.9144L43.8465 16.2353L43.6379 16.4359C43.4694 16.6044 43.4213 16.6205 43.317 16.5322C43.1405 16.3958 43.1645 16.5081 43.3892 16.9334C43.5416 17.2142 43.5817 17.2543 43.5898 17.1179C43.5898 17.0056 43.8545 16.6445 44.2637 16.1952C44.6408 15.786 44.9217 15.425 44.8896 15.4009C44.8575 15.3688 44.4082 15.3848 43.8866 15.433C43.1565 15.4972 42.8998 15.4972 42.7794 15.425C42.6992 15.3688 42.627 15.3447 42.627 15.3688ZM44.2316 15.8101C44.0952 15.9866 43.9669 16.131 43.9428 16.131C43.9107 16.131 43.67 15.6817 43.67 15.6175C43.67 15.5935 43.8064 15.5614 43.9749 15.5453C44.1354 15.5293 44.3199 15.5132 44.3761 15.5052C44.4403 15.4972 44.368 15.6336 44.2316 15.8101Z" fill="#FF0000"/>
<path d="M19.6801 16.6205C19.4795 16.797 19.0382 17.0778 18.6932 17.2623L18.0674 17.5913L18.637 18.185C19.0222 18.5942 19.295 18.9713 19.5036 19.4046C19.6641 19.7416 19.8085 20.0385 19.8165 20.0545C19.8245 20.0706 19.9529 19.9823 20.0893 19.87C20.2337 19.7496 20.5627 19.541 20.8355 19.4046C21.1083 19.2682 21.341 19.1479 21.357 19.1318C21.3731 19.1238 21.2126 18.8349 20.9959 18.498C20.7873 18.161 20.4985 17.5351 20.3541 17.1179C20.2096 16.7007 20.0813 16.3477 20.0652 16.3316C20.0492 16.3156 19.8807 16.452 19.6801 16.6205Z" fill="#FF0000"/>
<path d="M28.5218 17.2705C28.4175 18.3697 28.2009 19.3084 27.912 19.9503L27.7114 20.3836L28.0163 20.4638C28.1768 20.5039 28.4255 20.5681 28.5699 20.5922C28.7866 20.6323 28.8267 20.6805 28.8267 20.865C28.8267 21.218 28.6181 22.229 28.4335 22.7425C28.3453 23.0073 28.2811 23.2319 28.2971 23.248C28.3533 23.3122 29.1396 21.6272 29.2359 21.2421C29.284 21.0335 29.3562 20.865 29.3883 20.865C29.4204 20.865 29.613 20.9533 29.8056 21.0656L30.1666 21.2662L30.2228 20.8249C30.3351 19.846 30.985 18.1852 31.4744 17.6315C31.6028 17.4791 31.7151 17.3347 31.7151 17.3106C31.7151 17.2946 31.5466 17.2464 31.338 17.2143C30.8245 17.1421 29.8537 16.8292 29.2038 16.5323C28.9069 16.4039 28.6582 16.2916 28.6421 16.2916C28.6341 16.2916 28.578 16.7329 28.5218 17.2705Z" fill="#FF0000"/>
<path d="M16.631 16.8452C15.8848 17.1741 14.601 17.6154 14.1276 17.6957C13.9592 17.7197 13.8228 17.7679 13.8228 17.7919C13.8228 17.816 14.0153 18.153 14.256 18.5301C15.0824 19.8459 15.604 20.9933 15.7885 21.932L15.8286 22.1487L16.3742 21.8759C16.9198 21.6031 17.7703 21.3223 18.34 21.226C18.5085 21.2019 18.6368 21.1538 18.6208 21.1217C18.6047 21.0896 18.4683 20.8088 18.3079 20.5039C17.7061 19.3405 17.2969 17.808 17.3691 16.9575C17.3932 16.7248 17.3852 16.5323 17.3611 16.5323C17.337 16.5323 17.0081 16.6767 16.631 16.8452Z" fill="#FF0000"/>
<path d="M45.1947 17.0298L44.9941 17.118L45.2669 17.1742C45.5317 17.2384 45.6761 17.3668 45.6761 17.5433C45.6761 17.5994 45.307 17.7679 44.8577 17.9284C44.0714 18.2092 44.0313 18.2172 43.927 18.0808C43.8227 17.9525 43.8147 17.9605 43.8628 18.1691C43.8949 18.2975 43.9671 18.5141 44.0313 18.6505C44.1196 18.8671 44.1356 18.8752 44.1436 18.7227C44.1517 18.5141 44.256 18.4499 45.1305 18.145C45.62 17.9685 45.8125 17.9284 45.8526 18.0006C45.9569 18.1691 45.9249 18.3215 45.7403 18.5221L45.5558 18.7227L45.7965 18.6666C45.9329 18.6345 46.0613 18.5863 46.0853 18.5542C46.1575 18.466 45.5879 16.9335 45.4836 16.9415C45.4354 16.9415 45.307 16.9816 45.1947 17.0298Z" fill="#FF0000"/>
<path d="M11.0548 17.6637C10.8783 17.8403 10.5092 18.1532 10.2364 18.3538C9.95561 18.5543 9.73096 18.7389 9.73096 18.763C9.73096 18.795 9.93154 18.9796 10.1883 19.1802C10.6857 19.5813 11.44 20.4158 11.7288 20.9052C11.8411 21.0817 11.9374 21.2422 11.9535 21.2583C11.9695 21.2743 12.2423 21.0416 12.5632 20.7287C12.8762 20.4238 13.2934 20.0708 13.4779 19.9504L13.8149 19.7258L13.5341 19.2684C13.0527 18.5142 11.785 17.3348 11.448 17.3348C11.3998 17.3348 11.2233 17.4792 11.0548 17.6637Z" fill="#FF0000"/>
<path d="M4.53159 18.1371C4.39519 18.5302 4.31496 18.8592 4.35507 18.8592C4.38717 18.8592 4.43531 18.8111 4.45938 18.7549C4.49147 18.6426 4.88462 18.7308 5.6629 19.0197C6.02396 19.1561 6.12024 19.2283 6.12024 19.3647C6.12024 19.6455 6.24861 19.4289 6.48129 18.7389C6.59362 18.3858 6.71397 18.0569 6.73002 18.0087C6.75409 17.9526 6.65781 17.8723 6.51339 17.8242C6.16838 17.7038 6.16838 17.7038 6.36897 17.9686C6.52141 18.1772 6.52944 18.2334 6.44118 18.4901C6.39304 18.6506 6.3128 18.803 6.26466 18.8271C6.16036 18.8913 5.47836 18.6987 5.47836 18.6025C5.47836 18.4259 5.65488 18.2173 5.7993 18.2173C6.06407 18.2173 5.97582 18.089 5.64685 17.9927C5.22963 17.8643 5.18952 17.8723 5.35801 18.0569C5.47836 18.1852 5.48638 18.2574 5.41417 18.4099C5.32591 18.6105 5.32591 18.6105 4.98091 18.4741C4.78834 18.4099 4.61985 18.3377 4.61183 18.3297C4.59578 18.3136 4.61985 18.1852 4.67601 18.0248C4.7402 17.8242 4.83648 17.7279 5.02102 17.6557C5.22963 17.5915 5.2537 17.5514 5.15742 17.4952C4.8766 17.3187 4.78834 17.407 4.53159 18.1371Z" fill="#FF0000"/>
<path d="M34.6037 17.7198C34.6037 17.7599 34.347 18.1771 34.0421 18.6505C33.4484 19.5411 32.6861 20.4157 32.1807 20.7848L31.8838 21.0014L32.4133 21.3945C32.7022 21.6112 32.991 21.8358 33.0632 21.884C33.1756 21.9722 33.1515 22.0605 32.8627 22.6863C32.4535 23.5609 32.3492 23.938 32.6701 23.3603C32.8065 23.1276 33.0472 22.7666 33.2157 22.566L33.5126 22.2049L33.8816 22.6221L34.2507 23.0474L34.6519 22.7264C35.1413 22.3333 35.7752 21.6754 36.1683 21.1538C36.4893 20.7206 36.9306 19.8942 36.9306 19.7176C36.9306 19.6615 36.7059 19.4448 36.4331 19.2443C36.1523 19.0356 35.6548 18.5944 35.3259 18.2654C34.7562 17.6877 34.6037 17.5673 34.6037 17.7198Z" fill="#FF0000"/>
<path d="M24.6382 18.0087C24.0124 18.2654 23.2822 18.803 22.5441 19.5492C22.2071 19.8942 21.9263 20.1911 21.9263 20.2152C21.9343 20.2392 22.2312 20.4639 22.5922 20.7046C23.3464 21.2101 24.5499 22.3735 25.0073 23.0555C25.1838 23.3042 25.3443 23.5128 25.3764 23.5128C25.4084 23.5128 25.6893 23.3122 26.0102 23.0635C26.3311 22.8148 26.6039 22.6302 26.62 22.6463C26.7002 22.7265 26.981 24.2911 27.0693 25.1335C27.2137 26.5858 27.0212 28.0862 26.5478 29.1533C26.3151 29.6909 25.8016 30.4451 25.4646 30.766L25.2159 30.9987L25.1036 30.7259C25.0394 30.5735 24.8227 30.0038 24.6302 29.4502C24.4296 28.8965 24.2129 28.3269 24.1488 28.1744C24.0364 27.9097 24.0364 27.8856 24.2852 27.5245C24.4296 27.3159 24.5901 27.0351 24.6462 26.8987C24.7746 26.5938 24.8067 26.5938 25.1517 26.8024C25.2961 26.8907 25.4405 26.9629 25.4726 26.9629C25.585 26.9629 26.0824 25.8797 26.2188 25.3662C26.4194 24.5799 26.3793 24.4756 25.8578 24.3392C25.6171 24.2831 25.264 24.1386 25.0715 24.0263C24.8789 23.914 24.7184 23.8337 24.7024 23.8498C24.6944 23.8578 24.6302 24.1226 24.5499 24.4355C24.4697 24.7404 24.2691 25.278 24.0926 25.6149L23.7797 26.2328L24.0926 26.329C24.2691 26.3852 24.4135 26.4735 24.4135 26.5296C24.4135 26.5778 24.2611 26.7944 24.0685 27.011L23.7235 27.3881L23.4668 26.995C23.3304 26.7784 22.9212 26.3692 22.5681 26.0803C22.2151 25.7915 21.9263 25.5347 21.9263 25.5106C21.9263 25.4866 22.1509 25.3422 22.4317 25.1977C22.7045 25.0533 22.9372 24.9249 22.9533 24.9169C23.0014 24.8768 22.3034 23.5529 22.0065 23.1116C21.5732 22.4858 21.0838 21.9402 20.6826 21.6674L20.3456 21.4347L19.8321 21.876C19.2865 22.3574 18.6045 22.8388 18.1713 23.0635L17.9065 23.1999L18.6607 23.9942C19.5272 24.8928 20.0648 25.6149 20.3697 26.2729C20.5542 26.6821 20.5944 26.7222 20.7147 26.6259C20.7869 26.5617 21.0357 26.3531 21.2764 26.1605L21.7096 25.8075L21.9182 26.0643C22.6805 26.9709 23.202 28.383 23.2662 29.7069C23.2983 30.2605 23.2822 30.5735 23.2341 30.5735C23.1859 30.5735 22.9212 30.4691 22.6484 30.3408C22.167 30.1241 22.1349 30.1001 21.9664 29.6427C21.8701 29.386 21.7578 29.1052 21.7257 29.0249C21.6775 28.9126 21.7096 28.8885 21.9584 28.8885C22.1188 28.8885 22.2472 28.8645 22.2472 28.8243C22.2392 28.6799 21.9904 27.693 21.8781 27.3881C21.7578 27.0752 21.7337 27.0511 21.493 27.0993C21.2362 27.1474 20.4901 27.4283 20.3777 27.5245C20.3456 27.5566 20.4419 27.7652 20.5944 27.9979C20.7548 28.2226 20.9394 28.6077 21.0116 28.8484C21.14 29.2496 21.164 29.2737 21.3405 29.2014C21.4449 29.1613 21.5652 29.1292 21.6053 29.1292C21.7016 29.1292 21.846 29.5866 21.846 29.8915V30.1562L20.8752 29.9075C19.9043 29.6668 19.9043 29.6668 19.6396 29.2977C19.4871 29.0971 19.2063 28.7922 19.0057 28.6237C18.6126 28.2948 17.8102 27.8455 17.6257 27.8455C17.4973 27.8455 17.377 27.6369 17.2807 27.2277L17.2085 26.9228L17.2004 27.2598C17.1924 27.4924 17.1603 27.6048 17.0881 27.6048C16.9196 27.6048 16.1494 27.3239 15.7642 27.1314C15.5877 27.0431 15.4032 26.9629 15.3711 26.9629C15.2427 26.9709 16.2135 27.5486 16.9357 27.9016C17.4652 28.1584 17.8182 28.3911 18.1633 28.7281C18.42 28.9848 18.6366 29.2255 18.6366 29.2576C18.6366 29.2977 18.3558 29.3298 18.0188 29.3298C17.6738 29.3298 17.056 29.3619 16.6388 29.394L15.8846 29.4582L15.9408 29.2095C15.9648 29.0811 16.0049 28.8725 16.037 28.7441L16.0771 28.5275L14.6811 28.1343C12.611 27.5566 11.929 27.5887 11.584 28.2868C11.3754 28.72 11.3032 29.6508 11.3995 30.6778C11.4476 31.2073 11.4957 31.6486 11.5118 31.6566C11.5278 31.6727 11.8327 31.6005 12.1858 31.4962C13.0764 31.2394 13.9429 31.1271 14.9458 31.1431L15.7883 31.1592L15.8124 30.5012L15.8364 29.8433L16.1333 29.8915C17.064 30.0439 19.3587 30.6296 19.6155 30.7901C19.6556 30.8061 19.4711 30.9345 19.2224 31.0629L18.765 31.3036L18.5564 31.1431L18.3398 30.9907L18.067 31.1993C17.5936 31.5523 17.1924 31.9695 16.9437 32.3547L16.703 32.7318L17.3288 33.3335L17.9546 33.9273L18.0991 33.6464C18.2595 33.3496 19.0137 32.5472 19.3587 32.3065L19.5593 32.1701L19.3587 32.0177C19.2464 31.9374 19.086 31.8171 18.9977 31.7449C18.8452 31.6326 18.8533 31.6165 19.2785 31.4239C19.9364 31.119 20.1611 31.095 20.6024 31.2875C21.493 31.6807 22.4799 32.5713 22.9131 33.3736C23.194 33.8791 23.3223 34.9382 23.2662 36.0695C23.194 37.3453 23.0897 37.6742 22.6644 37.9871L22.3114 38.2359L17.385 38.2599C12.5388 38.276 12.4586 38.284 12.4586 38.4365C12.4586 38.5969 12.5629 38.5969 25.2159 38.5969C37.917 38.5969 37.9732 38.5969 37.9732 38.4365C37.9732 38.276 37.917 38.276 33.0468 38.276H28.1284L27.8556 38.0914C27.5106 37.8588 27.0854 37.0404 26.965 36.3584C26.8687 35.8529 26.8687 35.8449 27.0773 35.6764C27.4544 35.3715 27.6229 34.9944 27.6229 34.4408C27.6229 34.168 27.5668 33.8069 27.5026 33.6464C27.4384 33.494 27.3822 33.3175 27.3822 33.2613C27.3822 33.1971 27.5668 32.8842 27.7914 32.5472C28.1124 32.0658 28.337 31.8331 28.8906 31.432L29.5887 30.9345L30.4472 30.9506C31.5705 30.9666 31.6106 30.9907 31.3137 31.4721L31.081 31.8412L31.4581 31.9776C32.0037 32.1862 32.6777 32.5392 32.9505 32.7639L33.1912 32.9564L33.3998 32.5071C33.5202 32.2584 33.7127 31.9695 33.8251 31.8572C33.9454 31.7449 34.0417 31.6165 34.0417 31.5603C34.0417 31.3277 32.4771 30.413 32.084 30.413C32.0198 30.413 31.9315 30.5253 31.8834 30.6617C31.8112 30.8703 31.763 30.9024 31.6186 30.8703C31.5143 30.8463 31.1853 30.7821 30.8805 30.7259C30.5354 30.6697 30.367 30.6136 30.4392 30.5735C30.6879 30.4371 31.6186 30.1643 32.2525 30.0439C32.8462 29.9316 34.7959 29.8594 34.8842 29.9476C34.9002 29.9637 34.844 30.2445 34.7638 30.5735C34.6756 30.9024 34.6033 31.1993 34.6033 31.2314C34.6033 31.2715 34.836 31.2956 35.1249 31.2956C35.8149 31.2956 36.6734 31.4721 37.8448 31.8652C38.3664 32.0337 38.7996 32.1781 38.8157 32.1781C38.8237 32.1781 38.8558 31.8652 38.8799 31.4721C38.9039 31.087 39.0163 30.413 39.1286 29.9717C39.2409 29.5304 39.3372 29.1693 39.3372 29.1613C39.3372 29.1613 39.0564 29.0249 38.7114 28.8645C37.9251 28.4954 36.7857 28.2466 35.839 28.2466H35.1088L35.0687 28.8083C35.0446 29.1212 35.0045 29.394 34.9885 29.4181C34.9644 29.4421 34.3145 29.4181 33.5523 29.3699C32.782 29.3218 32.0198 29.3057 31.8513 29.3378L31.5384 29.386L31.5945 29.1212C31.6668 28.7521 32.076 27.9016 32.2685 27.7331C32.421 27.5967 32.437 27.6048 32.7259 28.038C32.8863 28.2868 33.0307 28.4874 33.0468 28.4874C33.0548 28.4874 33.3517 28.2868 33.6967 28.038C34.4509 27.4924 35.5662 26.9388 36.3123 26.7463C36.6092 26.666 36.8499 26.5778 36.8499 26.5376C36.8499 26.4333 36.3605 25.5026 36.1037 25.1175C35.7026 24.5238 34.9965 23.7535 34.8521 23.7535C34.483 23.7535 32.8061 25.0052 31.8032 26.0322L31.3699 26.4735L31.739 26.9148C32.1562 27.3962 32.1883 27.4924 31.9636 27.5647C31.6828 27.6529 30.9366 28.5435 30.7681 28.9848L30.6077 29.402L29.9417 29.5384C29.2437 29.6748 28.69 29.8674 28.3531 30.084L28.1605 30.2044L28.2247 29.8915C28.345 29.2416 28.4172 28.5114 28.4253 27.9016C28.4253 27.3641 28.4654 27.1956 28.6981 26.6901C28.8425 26.3611 29.1233 25.8797 29.3079 25.5989L29.6448 25.1014L29.9818 25.4304L30.3108 25.7513L30.5354 25.3983C30.6638 25.1977 31.0249 24.8046 31.3378 24.5077C31.8673 24.0183 31.8994 23.9701 31.755 23.8899C31.6668 23.8418 31.3859 23.6091 31.1372 23.3684L30.6799 22.9351L30.4071 23.1036C29.8214 23.4647 28.8024 24.7163 29.0912 24.7163C29.1474 24.7163 29.2597 24.7645 29.3399 24.8206C29.4683 24.9169 29.4362 24.965 28.9227 25.3823C28.6098 25.631 28.337 25.8396 28.3129 25.8396C28.2808 25.8396 28.2648 25.7754 28.2648 25.6872C28.2648 25.2699 27.4705 23.3764 27.0452 22.7746L26.8928 22.55L27.1335 22.4136C27.2619 22.3333 27.4865 22.205 27.6229 22.1328C27.8396 22.0044 27.8636 21.9723 27.7834 21.8198C27.7272 21.7236 27.4544 21.0897 27.1736 20.3997C26.2349 18.113 25.6732 17.5754 24.6382 18.0087ZM26.3552 33.0768C26.267 33.1811 26.1145 33.4218 26.0263 33.6224C25.8738 33.9513 25.8578 33.9594 25.8578 33.7588C25.8578 33.486 26.0503 33.1008 26.2349 32.9885C26.4756 32.8441 26.5317 32.8922 26.3552 33.0768ZM26.8206 33.6384C27.0613 33.8952 27.0452 34.4969 26.7885 34.7376C26.636 34.8821 26.5638 34.9061 26.4355 34.8339C26.1065 34.6574 26.0664 33.9674 26.3793 33.6625C26.612 33.4218 26.612 33.4218 26.8206 33.6384Z" fill="#FF0000"/>
<path d="M39.1852 19.3084C38.7439 20.1669 37.4922 21.4908 36.5535 22.1005C36.2405 22.3011 36.2325 22.3412 36.4813 22.4536C36.8824 22.6381 37.8131 23.6009 38.2705 24.307C38.2785 24.323 38.4951 24.1144 38.7439 23.8416C39.2895 23.2479 40.1961 22.5579 41.2231 21.9401C41.6403 21.6913 41.9854 21.4587 41.9854 21.4266C41.9854 21.3865 41.7527 21.1778 41.4719 20.9532C40.9423 20.5279 40.2603 19.8219 39.7388 19.172L39.4499 18.8029L39.1852 19.3084Z" fill="#FF0000"/>
<path d="M46.2458 19.3968C46.2378 19.5733 46.0693 19.6455 45.0021 19.9103C44.6491 19.9986 44.601 19.9905 44.5047 19.8622C44.3683 19.6776 44.3603 19.798 44.4806 20.2714C44.5689 20.6084 44.5769 20.6244 44.6652 20.4559C44.7374 20.3115 44.9219 20.2312 45.5397 20.0708C46.31 19.8782 46.318 19.8782 46.4383 20.0307C46.5507 20.1751 46.5587 20.1671 46.5106 19.9424C46.4785 19.806 46.4063 19.5894 46.3501 19.461C46.2699 19.2524 46.2538 19.2444 46.2458 19.3968Z" fill="#FF0000"/>
<path d="M3.8899 20.4078C3.79361 20.8571 3.71338 21.2502 3.71338 21.2743C3.71338 21.3385 4.12258 21.4508 4.17072 21.3947C4.19479 21.3786 4.1306 21.2823 4.04234 21.1941C3.87385 21.0256 3.81768 20.7448 3.93804 20.6725C4.02629 20.6244 5.49459 20.9453 5.62296 21.0497C5.67913 21.0978 5.71122 21.178 5.68715 21.2422C5.66308 21.2984 5.67111 21.3465 5.71122 21.3465C5.75134 21.3465 5.8075 21.2101 5.83157 21.0416C5.86367 20.8812 5.91181 20.6725 5.93588 20.5843C5.976 20.4318 5.976 20.4318 5.82355 20.5682C5.67111 20.7046 5.63099 20.7046 4.84469 20.5281C4.21083 20.3837 4.03432 20.3195 4.03432 20.2072C4.03432 20.0226 4.25095 19.8221 4.45956 19.8221C4.6762 19.8221 4.54782 19.7017 4.267 19.6375C4.06641 19.5894 4.05839 19.5974 3.8899 20.4078Z" fill="#FF0000"/>
<path d="M45.1865 21.4185C44.9377 21.6673 44.8735 21.7876 44.8735 22.0283C44.8735 22.8066 45.6839 23.2639 46.4381 22.9029C47.088 22.598 47.1843 21.7796 46.6307 21.3142C46.4301 21.1458 46.3017 21.1056 45.9407 21.1056C45.5315 21.1056 45.4753 21.1297 45.1865 21.4185ZM46.6949 21.6031C47.0399 21.9321 46.9035 22.3733 46.398 22.582C45.7802 22.8307 45.2025 22.7103 45.034 22.3092C44.8414 21.8438 45.3389 21.4266 46.069 21.4266C46.406 21.4266 46.5504 21.4667 46.6949 21.6031Z" fill="#FF0000"/>
<path d="M3.55256 22.2451C3.55256 22.4055 3.52849 22.6061 3.50442 22.6863C3.47232 22.7906 3.49639 22.7826 3.61675 22.6382C3.76919 22.4537 3.79326 22.4456 4.42712 22.5178L5.08504 22.5901L4.23455 23.0955C3.40814 23.593 3.39209 23.609 3.39209 23.8979V24.1867L3.52047 24.0022C3.64884 23.8257 3.68896 23.8177 4.26665 23.8738C5.09307 23.946 5.20539 23.9781 5.30168 24.1787L5.38993 24.3552V24.1867C5.39796 24.0905 5.42203 23.8899 5.4461 23.7454L5.50226 23.4726L5.32575 23.6492C5.1733 23.8096 5.10109 23.8257 4.61166 23.7775C4.31479 23.7535 4.02594 23.7053 3.9778 23.6813C3.92164 23.6492 4.22653 23.4165 4.71596 23.1276C5.18132 22.8468 5.55843 22.5901 5.55843 22.558C5.55843 22.5259 5.1733 22.4537 4.69992 22.4055C3.95373 22.3333 3.82536 22.2932 3.69698 22.1327L3.55256 21.9482V22.2451Z" fill="#FF0000"/>
<path d="M14.0797 22.3573C13.486 22.6461 12.2263 23.1115 12.0418 23.1115C11.7048 23.1195 11.7369 23.2559 12.1701 23.8416C12.7318 24.5798 13.2052 25.5426 13.4298 26.3931L13.6063 27.043L14.1118 26.7621C14.3926 26.6017 14.6494 26.4813 14.6815 26.4893C14.7136 26.4974 14.9061 26.4332 15.1067 26.3369C15.3073 26.2406 15.548 26.1604 15.6443 26.1604C15.8208 26.1604 15.8208 26.1604 15.5881 25.6549C15.3073 25.0612 15.0827 24.1946 14.8981 22.967C14.8259 22.4776 14.7376 22.0684 14.7136 22.0684C14.6895 22.0764 14.4007 22.2048 14.0797 22.3573Z" fill="#FF0000"/>
<path d="M41.7846 23.914C40.9181 24.4275 39.1368 25.0052 37.9092 25.1577C37.4359 25.2218 37.4359 25.2379 37.7327 25.8396C38.0296 26.4254 38.4548 27.685 38.503 28.1183C38.5351 28.367 38.5672 28.5676 38.5912 28.5676C38.6073 28.5676 38.864 28.4473 39.1609 28.2948C40.2842 27.7332 42.4265 27.0432 43.0603 27.0432H43.3411L43.1887 26.7784C42.9319 26.3371 42.5709 25.3502 42.4265 24.6762C42.3462 24.3232 42.266 23.9541 42.2339 23.8578L42.1858 23.6813L41.7846 23.914Z" fill="#FF0000"/>
<path d="M47.0237 23.8176C46.9916 23.9299 46.8712 23.978 46.5503 24.0182C45.7078 24.1225 45.3869 24.0904 45.2505 23.8898C45.1301 23.7213 45.1221 23.7293 45.1221 24.1305C45.1141 24.3632 45.1542 24.5557 45.1943 24.5557C45.2425 24.5557 45.2746 24.4996 45.2746 24.4354C45.2746 24.2508 45.6437 24.1465 46.2294 24.1706L46.7589 24.1947L45.9405 24.8285C45.4912 25.1735 45.1382 25.4865 45.1542 25.5266C45.1783 25.5587 45.5875 25.5667 46.0689 25.5426C46.9114 25.4945 46.9354 25.5025 47.0638 25.687C47.2002 25.8716 47.2002 25.8636 47.1922 25.4383C47.1922 25.0692 47.1761 25.0291 47.1039 25.1735C47.0397 25.3099 46.9194 25.3581 46.6065 25.3982C46.3818 25.4303 46.0769 25.4383 45.9245 25.4223L45.6517 25.3982L46.4219 24.8045C47.136 24.2669 47.2002 24.1867 47.2002 23.9459C47.2002 23.6571 47.0879 23.5769 47.0237 23.8176Z" fill="#FF0000"/>
<path d="M7.64467 25.0452C7.64467 25.4784 7.57246 26.1203 7.4842 26.5616C7.39594 26.9788 7.32373 27.3318 7.32373 27.3318C7.32373 27.3399 7.4842 27.3238 7.67676 27.3078C8.35876 27.2275 10.8621 27.5565 11.52 27.8133C11.6404 27.8614 11.6564 27.7651 11.6564 26.8585C11.6564 25.9358 11.7286 25.2859 11.857 24.9328C11.9132 24.8125 11.849 24.7964 11.1509 24.7964C9.85112 24.7964 8.39085 24.6039 7.78909 24.3551C7.66072 24.307 7.64467 24.3632 7.64467 25.0452Z" fill="#FF0000"/>
<path d="M16.8556 24.6682C16.7112 24.8127 16.5989 25.7514 16.6791 26.2248L16.7353 26.5618H17.2809H17.8345V26.2489C17.8345 25.9761 18.011 25.2941 18.1875 24.8608C18.2517 24.7164 18.1634 24.6923 17.3852 24.596C17.0722 24.5559 16.9439 24.5719 16.8556 24.6682Z" fill="#FF0000"/>
<path d="M5.26171 25.0292C5.22962 25.1656 5.12532 25.1897 4.41123 25.2138C3.68109 25.2459 3.57679 25.2298 3.45643 25.0934C3.32004 24.941 3.31201 24.957 3.31201 25.3903C3.31201 25.8316 3.41632 25.9921 3.49655 25.6791C3.53667 25.5347 3.60888 25.5187 4.37913 25.5187C5.16543 25.5187 5.2216 25.5267 5.30183 25.6952C5.37404 25.8476 5.39009 25.7995 5.39009 25.3743C5.39811 24.8848 5.34195 24.7324 5.26171 25.0292Z" fill="#FF0000"/>
<path d="M45.9488 27.1072C45.9007 27.1393 45.8204 27.5405 45.7723 28.0059C45.4273 30.9826 44.2719 34.0556 42.4907 36.7514C41.6563 38.0111 41.1989 38.5728 40.1238 39.688C39.3535 40.4824 39.185 40.7632 39.4899 40.7632C39.8028 40.7632 41.8087 38.4765 42.7956 36.9922C43.8547 35.3955 45.0422 32.8039 45.5476 30.9826C45.8445 29.9235 46.1414 28.3589 46.2617 27.2436C46.2778 27.0832 46.1013 27.0029 45.9488 27.1072Z" fill="#FF0000"/>
<path d="M4.3067 27.4041C4.23449 27.5725 4.55543 29.45 4.83625 30.5733C4.96462 31.0949 5.22137 31.9453 5.40591 32.4508C5.79104 33.542 6.79397 35.6201 7.40376 36.5909C8.48693 38.332 10.7094 40.8434 11.0464 40.715C11.1186 40.6909 11.1748 40.6107 11.1748 40.5465C11.1748 40.4743 10.7495 39.9849 10.236 39.4473C7.37166 36.4866 5.48615 32.7316 4.84427 28.7279C4.74799 28.1342 4.65171 27.5645 4.62764 27.4602C4.58752 27.2596 4.37089 27.2195 4.3067 27.4041Z" fill="#FF0000"/>
<path d="M15.1066 40.9878C15.1066 41.0199 15.2189 41.0921 15.3473 41.1402L15.588 41.2285V42.6406V44.0528L15.3473 44.1009C14.7696 44.2212 15.2109 44.2935 16.5026 44.2935C17.6981 44.2935 17.9068 44.2774 17.9469 44.1651C18.0191 43.9886 18.003 43.3306 17.9388 43.3306C17.8987 43.3306 17.8024 43.467 17.7142 43.6275C17.5216 43.9886 17.2649 44.133 16.8075 44.133C16.2058 44.133 16.1496 44.0688 16.1496 43.2905V42.6085H16.4144C16.7353 42.6085 17.0161 42.7931 17.0482 43.0257C17.0643 43.122 17.1205 43.2103 17.1766 43.2344C17.2488 43.2584 17.2729 43.0899 17.2729 42.5764C17.2729 41.9185 17.1766 41.6858 17.0563 42.0228C16.952 42.3197 16.7674 42.4481 16.4545 42.4481H16.1496V41.7661V41.0841H16.5428C17.0723 41.0841 17.321 41.1884 17.4735 41.4852C17.658 41.8383 17.7543 41.7821 17.7543 41.3248V40.9236H16.4304C15.7003 40.9236 15.1066 40.9557 15.1066 40.9878Z" fill="#FF0000"/>
<path d="M20.7231 41.6056C20.7231 41.9506 20.7151 41.9666 20.4824 41.9666C20.3219 41.9666 20.2417 42.0068 20.2417 42.087C20.2417 42.1672 20.3219 42.2073 20.4824 42.2073H20.7231V43.1541C20.7231 43.9805 20.7472 44.125 20.8675 44.2373C21.036 44.3897 21.3329 44.4138 21.6378 44.2934C21.9427 44.1811 21.8865 44.0527 21.5335 44.0527C21.3249 44.0527 21.2045 44.0126 21.1724 43.9244C21.1484 43.8522 21.1243 43.443 21.1243 43.0017V42.2073H21.4452C21.6779 42.2073 21.7662 42.1753 21.7662 42.087C21.7662 41.9987 21.6779 41.9666 21.4452 41.9666H21.1243V41.6056C21.1243 41.2766 21.1082 41.2445 20.9237 41.2445C20.7392 41.2445 20.7231 41.2766 20.7231 41.6056Z" fill="#FF0000"/>
<path d="M25.256 41.758C24.903 41.9105 24.7184 42.1592 24.7505 42.424C24.7666 42.6005 24.8147 42.6486 24.9752 42.6486C25.1517 42.6486 25.1838 42.6085 25.2159 42.2876C25.256 41.9667 25.2801 41.9265 25.5208 41.8543C25.9139 41.742 26.2108 41.9827 26.2429 42.44C26.267 42.7289 26.2349 42.8011 26.0022 43.0177C25.8578 43.1541 25.5047 43.4189 25.2159 43.5954C24.8629 43.8201 24.6864 43.9886 24.6703 44.1089C24.6462 44.2935 24.6462 44.2935 25.7695 44.2935H26.9008V44.0929V43.8923H26.0102C24.9832 43.8923 24.9592 43.8441 25.8096 43.451C26.6681 43.0578 26.9249 42.6888 26.7002 42.1512C26.5157 41.7019 25.8096 41.5093 25.256 41.758Z" fill="#FF0000"/>
<path d="M28.0642 41.7982C27.5989 42.0389 27.4224 42.3679 27.4224 43.0098C27.4224 43.411 27.4625 43.5955 27.6069 43.8282C27.9439 44.3657 28.8586 44.5342 29.3801 44.1571C30.046 43.6677 30.038 42.3599 29.364 41.8544C29.0592 41.6297 28.4574 41.5976 28.0642 41.7982ZM29.0912 42.0229C29.4122 42.3198 29.4683 43.427 29.1875 43.8603C28.8907 44.3176 28.2648 44.2614 28.0562 43.764C27.8957 43.3869 27.9118 42.4883 28.0803 42.2074C28.313 41.8063 28.7543 41.726 29.0912 42.0229Z" fill="#FF0000"/>
<path d="M31.0814 41.7822C30.7203 41.9667 30.5117 42.2716 30.4315 42.6808C30.255 43.6677 30.8487 44.4299 31.7393 44.3497C32.4454 44.2855 32.8626 43.788 32.8626 43.0097C32.8626 42.2315 32.4454 41.734 31.7393 41.6698C31.4745 41.6458 31.2739 41.6779 31.0814 41.7822ZM32.0522 42.0389C32.301 42.2555 32.317 42.3117 32.3411 42.9054C32.3651 43.4591 32.3491 43.5634 32.1806 43.8121C31.9319 44.1812 31.635 44.2855 31.3542 44.1009C30.7765 43.7238 30.7604 42.3358 31.3221 41.9346C31.5869 41.7501 31.7554 41.7741 32.0522 42.0389Z" fill="#FF0000"/>
<path d="M33.9059 41.8062C33.6812 41.9025 33.5528 42.0228 33.5127 42.1592C33.4325 42.4882 33.5047 42.6486 33.7213 42.6486C33.8978 42.6486 33.9219 42.6166 33.9299 42.3277C33.9299 42.071 33.9701 41.9907 34.1305 41.9105C34.4033 41.7661 34.5477 41.7821 34.7965 41.9747C34.9569 42.095 35.0051 42.2074 35.0051 42.44C35.0051 42.8332 34.8526 43.0338 34.2589 43.3788C33.6491 43.7318 33.4004 43.9565 33.4004 44.149C33.4004 44.2854 33.4886 44.2935 34.5237 44.2935H35.647V44.0929V43.9003L34.7082 43.8762L33.7614 43.8522L34.4755 43.4911C35.2939 43.0739 35.4865 42.8733 35.4865 42.44C35.4865 41.758 34.6922 41.4451 33.9059 41.8062Z" fill="#FF0000"/>
<path d="M18.7572 41.9828C18.5085 42.1111 18.3961 42.2957 18.3961 42.5685C18.3961 42.9215 18.5325 43.0659 19.0781 43.2906C19.6237 43.5072 19.728 43.6195 19.6478 43.9164C19.5355 44.3657 18.7652 44.2373 18.5486 43.7399C18.3881 43.3869 18.3159 43.435 18.3159 43.8843C18.3159 44.3176 18.2517 44.2855 19.1744 44.3176C19.712 44.3336 20.0008 44.1009 20.0008 43.6436C20.0008 43.2826 19.8002 43.0579 19.367 42.9215C18.9096 42.7771 18.7171 42.6246 18.7171 42.408C18.7171 41.9667 19.4231 41.9426 19.6638 42.3679C19.8484 42.6968 19.9206 42.6647 19.9206 42.2636V41.9186L19.4231 41.9105C19.1423 41.9025 18.8454 41.9346 18.7572 41.9828Z" fill="#FF0000"/>
<path d="M22.3277 43.8521C22.1191 44.1089 22.432 44.502 22.7128 44.3255C22.9856 44.149 22.8893 43.7318 22.5684 43.7318C22.4882 43.7318 22.3838 43.7879 22.3277 43.8521Z" fill="#FF0000"/>
<path d="M92.798 17.0859C91.8111 17.4229 91.1291 18.3375 90.9285 19.5972C90.7038 21.0414 91.3297 22.3412 92.5171 22.927C92.9103 23.1195 93.0708 23.1516 93.6565 23.1516C94.2582 23.1436 94.4027 23.1195 94.876 22.8868C95.4377 22.614 95.9351 22.1005 96.0394 21.6833C96.1197 21.3383 95.887 21.3142 95.6944 21.6352C95.3655 22.1727 94.9483 22.5338 94.523 22.6301C93.4077 22.9029 92.3005 22.1246 92.0197 20.8729C91.8592 20.1749 91.8592 19.8459 92.0117 19.0596C92.1561 18.2894 92.3888 17.8722 92.8381 17.5753C93.5923 17.0778 94.4107 17.1982 94.86 17.8722C94.9884 18.0808 95.1649 18.4418 95.2371 18.6745C95.3494 19.0275 95.4056 19.0998 95.558 19.0998C95.7346 19.0998 95.7426 19.0677 95.7426 18.5943C95.7426 18.3215 95.7185 17.8561 95.6864 17.5512C95.6463 17.0859 95.6142 17.0137 95.4778 17.0137C95.3895 17.0137 95.2772 17.0698 95.2291 17.134C95.1488 17.2383 95.0927 17.2383 94.7156 17.0939C94.186 16.8933 93.3676 16.8853 92.798 17.0859Z" fill="#FF0000"/>
<path d="M133.87 17.0378C133.164 17.2946 132.739 17.9284 132.731 18.7067C132.731 19.501 133.268 20.0225 134.512 20.4077C134.889 20.528 135.29 20.6965 135.411 20.7928C136.125 21.3544 135.964 22.4697 135.138 22.7184C134.689 22.8548 134.015 22.6944 133.653 22.3734C133.381 22.1407 132.971 21.3946 132.971 21.1539C132.971 21.0736 132.899 21.0255 132.771 21.0255C132.578 21.0255 132.57 21.0415 132.57 21.6032C132.57 21.9241 132.594 22.3814 132.618 22.6061C132.667 22.9591 132.699 23.0313 132.835 23.0313C132.923 23.0313 133.036 22.9672 133.092 22.895C133.172 22.7906 133.22 22.7746 133.3 22.8468C133.365 22.895 133.645 22.9993 133.934 23.0715C135.451 23.4646 136.662 22.6783 136.662 21.2903C136.662 20.857 136.63 20.7607 136.406 20.4558C136.173 20.1589 136.012 20.0707 135.082 19.6936C133.822 19.1881 133.629 19.0678 133.485 18.7227C133.092 17.8 133.742 17.0619 134.705 17.3267C135.242 17.4791 135.595 17.9044 135.852 18.7147C135.932 18.9554 135.996 19.0196 136.149 19.0196H136.341V18.0568V17.094H136.141C136.036 17.094 135.916 17.1582 135.868 17.2304C135.812 17.3347 135.764 17.3427 135.683 17.2785C135.491 17.1261 134.793 16.9335 134.464 16.9415C134.279 16.9415 134.015 16.9897 133.87 17.0378Z" fill="#FF0000"/>
<path d="M79.1338 17.1661C79.1338 17.2864 79.214 17.3266 79.4948 17.3667C79.7275 17.4068 79.888 17.479 79.9361 17.5753C79.9843 17.6635 80.0164 18.6665 80.0164 20.0947C80.0164 22.3653 80.0083 22.4776 79.8559 22.6301C79.7676 22.7183 79.5911 22.7905 79.4547 22.7905C79.2943 22.7905 79.214 22.8307 79.214 22.9109C79.214 23.0152 79.4066 23.0312 80.4577 23.0312C81.4606 23.0312 81.7013 23.0072 81.7013 22.9189C81.7013 22.8547 81.5729 22.7905 81.3643 22.7585C80.8267 22.6702 80.8187 22.6622 80.8187 21.4185V20.3033H81.0915C81.4365 20.3033 81.6692 20.56 82.6481 22.0042L83.3381 23.0312H85.0471C86.1142 23.0312 86.7561 22.9992 86.7561 22.951C86.7561 22.9109 86.6598 22.8547 86.5395 22.8307C86.4111 22.8066 86.2265 22.7344 86.1142 22.6782C85.8575 22.5498 85.8655 22.1888 86.1463 21.5309L86.3389 21.0655L87.3819 21.0414L88.425 21.0174L88.6737 21.6592C89.0107 22.5338 89.0027 22.606 88.5614 22.7183C88.3528 22.7745 88.2003 22.8547 88.2003 22.9189C88.2003 23.0072 88.441 23.0312 89.4439 23.0312C90.495 23.0312 90.6876 23.0152 90.6876 22.9109C90.6876 22.8387 90.6154 22.7905 90.5111 22.7905C90.1099 22.7905 89.9414 22.4616 88.8743 19.6935C87.8794 17.118 87.8312 17.0056 87.6387 17.0297C87.4541 17.0538 87.3739 17.2383 86.5796 19.3405C86.0982 20.6001 85.6649 21.7555 85.6087 21.916C85.4242 22.4616 85.2878 22.59 84.9428 22.5659C84.7743 22.5498 84.5015 22.4536 84.349 22.3493C84.1003 22.1727 83.314 21.25 82.5919 20.2551L82.3432 19.9262L82.6721 19.8299C83.1134 19.6935 83.6029 19.2361 83.7072 18.859C83.8436 18.3616 83.7232 17.8401 83.4103 17.5352C82.9449 17.0778 82.608 17.0136 80.7626 17.0136C79.222 17.0136 79.1338 17.0217 79.1338 17.1661ZM82.3271 17.6475C82.7845 17.9684 82.8647 18.835 82.4956 19.3806C82.2469 19.7416 81.8297 19.9663 81.2761 20.0305L80.8187 20.0866V18.7387V17.3908L81.4526 17.4309C81.934 17.4549 82.1346 17.5111 82.3271 17.6475ZM87.9195 19.4608C88.1281 19.9904 88.3126 20.4718 88.3367 20.5199C88.3688 20.6001 88.1682 20.6242 87.4782 20.6242C86.6518 20.6242 86.5796 20.6082 86.6277 20.4798C86.9968 19.4608 87.4381 18.3857 87.4862 18.4338C87.5183 18.4739 87.7189 18.9313 87.9195 19.4608Z" fill="#FF0000"/>
<path d="M107.24 17.1261C106.542 17.3508 105.74 18.0568 105.451 18.7148C105.09 19.5412 105.114 20.8651 105.507 21.6674C105.828 22.3093 106.438 22.895 106.975 23.0795C107.545 23.2721 108.476 23.2801 109.021 23.0876C109.583 22.895 110.185 22.4136 110.474 21.9322C111.26 20.6243 110.931 18.3537 109.848 17.5674C109.174 17.086 108.01 16.8854 107.24 17.1261ZM108.789 17.4551C109.158 17.6717 109.503 18.129 109.679 18.6345C109.936 19.3968 109.96 20.9052 109.711 21.523C109.527 22.0044 109.206 22.3815 108.877 22.5179C107.978 22.8789 107.393 22.8067 106.855 22.2692C106.406 21.8198 106.205 21.2662 106.133 20.2633C106.037 18.8672 106.366 17.8643 107.048 17.4631C107.601 17.1422 108.227 17.1341 108.789 17.4551Z" fill="#FF0000"/>
<path d="M142.881 17.0858C142.399 17.2142 142.07 17.3988 141.669 17.7598C140.883 18.4659 140.498 19.5811 140.674 20.6563C140.778 21.2982 140.802 21.3624 141.123 21.8759C141.573 22.5819 142.407 23.0633 143.322 23.1516C143.891 23.2077 144.886 23.0473 145.464 22.8146L145.809 22.6702V21.8678C145.809 21.4265 145.841 21.0173 145.881 20.9612C145.913 20.905 146.05 20.8328 146.178 20.7927C146.307 20.7606 146.419 20.6723 146.435 20.6001C146.459 20.4798 146.331 20.4637 145.135 20.4637C143.859 20.4637 143.803 20.4717 143.803 20.6242C143.803 20.7526 143.859 20.7847 144.044 20.7847C144.341 20.7847 144.726 20.9692 144.798 21.1457C144.822 21.2179 144.846 21.571 144.846 21.916V22.5578L144.469 22.7263C143.394 23.1997 142.247 22.6381 141.878 21.4586C141.436 20.0224 141.709 18.2894 142.471 17.7036C143.057 17.2624 143.94 17.2383 144.509 17.6555C144.91 17.9444 145.111 18.2252 145.28 18.7547C145.4 19.1238 145.448 19.18 145.625 19.18C145.833 19.18 145.833 19.18 145.777 18.6905C145.753 18.4177 145.729 17.9604 145.729 17.6876C145.729 17.1982 145.721 17.1741 145.528 17.1741C145.424 17.1741 145.304 17.2303 145.264 17.2945C145.207 17.4068 145.151 17.3988 144.798 17.2463C144.373 17.0537 143.33 16.9655 142.881 17.0858Z" fill="#FF0000"/>
<path d="M57.9682 17.2303C57.9842 17.3185 58.1206 17.3988 58.3373 17.4549C58.5218 17.4951 58.7144 17.5913 58.7545 17.6555C58.8026 17.7277 58.8347 18.7868 58.8347 20.1187V22.4616L58.6261 22.6221C58.5058 22.7183 58.3052 22.7905 58.1848 22.7905C58.0324 22.7905 57.9521 22.8307 57.9521 22.9109C57.9521 23.0152 58.1527 23.0312 59.3081 23.0312C60.5919 23.0312 60.6641 23.0232 60.7042 22.8708C60.7363 22.7424 60.6882 22.6943 60.4154 22.6301C59.7975 22.4776 59.8377 22.6702 59.8136 20.0224C59.8056 18.3776 59.8216 17.5994 59.8858 17.5271C59.9339 17.471 60.1345 17.3988 60.3271 17.3667C60.5518 17.3346 60.6801 17.2784 60.6801 17.2062C60.6801 17.118 60.4234 17.0939 59.3081 17.0939C58.0645 17.0939 57.9441 17.1099 57.9682 17.2303Z" fill="#FF0000"/>
<path d="M67.7402 17.8962C67.7402 18.6906 67.7402 18.6986 67.9328 18.6986C68.0852 18.6986 68.1655 18.6023 68.35 18.2493C68.679 17.5913 68.9277 17.4148 69.5134 17.4148H69.9868V19.9904V22.5579L69.706 22.6782C69.5535 22.7344 69.3209 22.7905 69.1845 22.7905C69.024 22.7905 68.9438 22.8307 68.9438 22.9109C68.9438 23.0152 69.1524 23.0312 70.3559 23.0312C71.6477 23.0312 71.76 23.0232 71.7359 22.8949C71.7199 22.7986 71.5915 22.7344 71.3508 22.6862C71.1502 22.6461 70.9416 22.5579 70.8935 22.4857C70.8132 22.3894 70.7892 21.7395 70.7892 19.886V17.4148H71.3027C71.776 17.4148 71.8402 17.4389 72.0729 17.6635C72.2093 17.7999 72.4099 18.0888 72.5222 18.3054C72.8432 18.9473 72.9555 18.843 72.9555 17.8962V17.0939H70.3479H67.7402V17.8962Z" fill="#FF0000"/>
<path d="M96.3042 17.8962C96.3042 18.8671 96.4085 18.9393 96.7936 18.2091C97.1627 17.5271 97.3392 17.3988 97.941 17.4309L98.4304 17.4549L98.4545 19.7416C98.4625 21.0013 98.4545 22.1487 98.4304 22.2931C98.3903 22.5017 98.3181 22.59 98.1095 22.6782C97.957 22.7424 97.7404 22.7905 97.6281 22.7905C97.4997 22.7905 97.4275 22.8387 97.4275 22.9109C97.4275 23.0152 97.6361 23.0312 98.7995 23.0312C100.051 23.0312 100.163 23.0232 100.139 22.8949C100.123 22.8066 99.995 22.7344 99.7703 22.6862C99.1846 22.5739 99.1846 22.5819 99.2087 19.854L99.2328 17.4549L99.7222 17.4309C100.147 17.4148 100.244 17.4309 100.452 17.6074C100.581 17.7117 100.789 18.0005 100.91 18.2493C101.094 18.6023 101.174 18.6986 101.327 18.6986C101.519 18.6986 101.519 18.6906 101.519 17.8962V17.0939H98.9118H96.3042V17.8962Z" fill="#FF0000"/>
<path d="M101.776 17.2303C101.792 17.3105 101.929 17.3988 102.121 17.4549C102.298 17.4951 102.49 17.5673 102.547 17.5994C102.619 17.6475 102.643 18.2332 102.643 20.0626V22.4616L102.434 22.6221C102.314 22.7183 102.113 22.7905 101.993 22.7905C101.84 22.7905 101.76 22.8307 101.76 22.9109C101.76 23.0152 101.969 23.0312 103.164 23.0312C104.504 23.0312 104.568 23.0232 104.568 22.8708C104.568 22.7585 104.48 22.6943 104.231 22.6301C103.606 22.4776 103.646 22.6782 103.622 19.9904L103.606 17.5673L103.886 17.4549C104.039 17.3908 104.24 17.3346 104.328 17.3346C104.416 17.3346 104.488 17.2784 104.488 17.2142C104.488 17.1099 104.28 17.0939 103.116 17.0939C101.873 17.0939 101.752 17.1099 101.776 17.2303Z" fill="#FF0000"/>
<path d="M120.375 17.2385C120.375 17.3588 120.447 17.407 120.711 17.439C120.896 17.4631 121.097 17.5514 121.153 17.6236C121.233 17.7359 121.257 18.3216 121.257 20.0788C121.257 22.2852 121.249 22.3976 121.097 22.55C121.008 22.6383 120.832 22.7105 120.695 22.7105C120.535 22.7105 120.455 22.7506 120.455 22.8308C120.455 22.9351 120.671 22.9512 121.923 22.9512C122.733 22.9512 123.608 22.9111 123.873 22.8629C124.747 22.7024 125.493 22.1408 125.927 21.3304C126.071 21.0496 126.111 20.857 126.111 20.3034C126.111 19.7017 126.079 19.5492 125.838 19.0036C125.469 18.1531 125.148 17.8001 124.41 17.439L123.793 17.1342L122.084 17.1101C120.439 17.086 120.375 17.086 120.375 17.2385ZM123.632 17.6075C124.539 17.9365 124.948 18.5062 125.108 19.6295C125.261 20.8009 125.02 21.7156 124.41 22.221C123.817 22.7105 122.814 22.8308 122.364 22.4698C122.18 22.3253 122.18 22.3093 122.156 19.9825C122.14 18.6907 122.148 17.5835 122.172 17.5273C122.244 17.3428 123.022 17.3909 123.632 17.6075Z" fill="#FF0000"/>
<path d="M137.48 17.2303C137.496 17.3185 137.633 17.3988 137.849 17.4549C138.034 17.4951 138.227 17.5913 138.267 17.6555C138.315 17.7277 138.347 18.7868 138.347 20.1187V22.4616L138.138 22.6221C138.018 22.7183 137.817 22.7905 137.697 22.7905C137.545 22.7905 137.464 22.8307 137.464 22.9109C137.464 23.0152 137.673 23.0312 138.868 23.0312C140.2 23.0312 140.273 23.0232 140.273 22.8788C140.273 22.7264 140.224 22.6943 139.751 22.59C139.302 22.4857 139.31 22.5579 139.31 19.9823C139.31 17.3266 139.286 17.4389 139.871 17.3587C140.064 17.3266 140.192 17.2704 140.192 17.2062C140.192 17.118 139.928 17.0939 138.82 17.0939C137.577 17.0939 137.456 17.1099 137.48 17.2303Z" fill="#FF0000"/>
<path d="M61.0811 17.2785C61.0811 17.3507 61.2255 17.4309 61.4261 17.479C62.084 17.6475 62.084 17.6395 62.1081 19.9663C62.1402 22.3814 62.1321 22.4055 61.5063 22.6783C61.2736 22.7826 61.0811 22.9029 61.0811 22.951C61.0811 22.9992 61.5384 23.0313 62.3247 23.0313C63.4881 23.0313 63.5683 23.0233 63.5683 22.8788C63.5683 22.7184 63.4239 22.6301 63.1672 22.6301C63.0789 22.6301 62.9104 22.5419 62.7901 22.4375L62.5654 22.245L62.5493 20.207C62.5333 18.4098 62.5413 18.1931 62.6456 18.3376C65.1329 21.7315 66.1278 22.9912 66.3204 23.0152L66.537 23.0393V20.528C66.537 17.6556 66.545 17.6154 67.1709 17.4309C67.7807 17.2464 67.5319 17.1742 66.2562 17.1742C65.2854 17.1742 65.0126 17.1982 65.0126 17.2785C65.0126 17.3346 65.1891 17.4309 65.4057 17.4871C66.0957 17.6636 66.0957 17.6395 66.1198 19.8058C66.1358 20.8489 66.1198 21.6833 66.0957 21.6512C66.0717 21.6272 65.3174 20.6162 64.4188 19.4127L62.7901 17.2143L61.9396 17.1902C61.2415 17.1742 61.0811 17.1902 61.0811 17.2785Z" fill="#FF0000"/>
<path d="M73.4532 17.3105C73.4693 17.3988 73.5976 17.471 73.7982 17.5111C73.9747 17.5512 74.1673 17.6395 74.2235 17.7117C74.2957 17.816 74.3197 18.4178 74.3197 20.0706C74.3197 21.2982 74.2957 22.3573 74.2716 22.4295C74.2074 22.59 73.8223 22.7905 73.5575 22.7905C73.4291 22.7905 73.3569 22.8387 73.3569 22.9109C73.3569 23.0152 73.6859 23.0312 75.8041 23.0312H78.2513L78.2833 22.8467C78.3074 22.7504 78.3475 22.3894 78.3716 22.0444C78.4278 21.2902 78.3154 21.226 77.9865 21.8518C77.8661 22.0765 77.6575 22.3974 77.5291 22.5498L77.2965 22.8307H76.3657C75.1622 22.8307 75.2023 22.8868 75.2023 21.4025V20.2792L75.7239 20.3193C76.3898 20.3755 76.6225 20.5279 76.7348 20.9853C76.799 21.25 76.8632 21.3463 76.9755 21.3463C77.1199 21.3463 77.128 21.2661 77.128 20.1829C77.128 19.1078 77.1199 19.0195 76.9835 19.0195C76.8792 19.0195 76.807 19.1158 76.7428 19.3324C76.6145 19.7416 76.3417 19.9101 75.7078 19.9663L75.2023 20.0064V18.7868V17.5753H76.117H77.0237L77.3526 17.9283C77.5291 18.1129 77.6976 18.3536 77.7297 18.4498C77.7538 18.5461 77.8501 18.6183 77.9383 18.6183C78.0747 18.6183 78.0908 18.5542 78.0908 17.8962V17.1741H75.756C73.6057 17.1741 73.4291 17.1821 73.4532 17.3105Z" fill="#FF0000"/>
<path d="M111.388 17.2945C111.388 17.3587 111.452 17.4148 111.533 17.4148C111.605 17.4148 111.813 17.487 111.99 17.5673C112.487 17.7919 112.528 17.9925 112.495 20.2391C112.471 22.3974 112.447 22.4776 111.805 22.6943C111.621 22.7504 111.468 22.8547 111.468 22.9189C111.468 23.0072 111.685 23.0312 112.672 23.0312C113.819 23.0312 113.875 23.0232 113.875 22.8708C113.875 22.7665 113.803 22.6943 113.659 22.6622C113.53 22.6381 113.37 22.598 113.282 22.5739C113.201 22.5498 113.065 22.3733 112.985 22.1888C112.84 21.8678 112.832 21.6673 112.848 20.0064L112.873 18.1851L114.678 20.6082C116.122 22.5579 116.515 23.0312 116.66 23.0312H116.844V20.5761C116.844 17.7358 116.852 17.6876 117.454 17.4549C117.646 17.3827 117.807 17.2864 117.807 17.2463C117.807 17.2062 117.277 17.1741 116.603 17.1741C115.617 17.1741 115.4 17.1982 115.4 17.2864C115.4 17.3506 115.512 17.4309 115.665 17.4549C116.194 17.5753 116.347 17.7037 116.435 18.1369C116.531 18.5943 116.555 21.6673 116.467 21.6592C116.427 21.6592 115.665 20.6483 114.758 19.4207L113.113 17.1821L112.255 17.1741C111.533 17.1741 111.388 17.1982 111.388 17.2945Z" fill="#FF0000"/>
<path d="M126.97 17.3105C126.986 17.3988 127.114 17.471 127.315 17.5111C127.491 17.5512 127.684 17.6395 127.74 17.7117C127.812 17.816 127.836 18.4178 127.836 20.0706C127.836 21.2982 127.812 22.3573 127.788 22.4295C127.724 22.59 127.339 22.7905 127.074 22.7905C126.946 22.7905 126.874 22.8387 126.874 22.9109C126.874 23.0152 127.202 23.0312 129.321 23.0312C131.214 23.0312 131.784 23.0072 131.808 22.9269C131.824 22.8788 131.856 22.5177 131.888 22.1246C131.928 21.5389 131.92 21.4266 131.816 21.4266C131.752 21.4266 131.68 21.4988 131.648 21.587C131.623 21.6753 131.455 21.9641 131.278 22.2289C130.885 22.8146 130.653 22.9029 129.658 22.8628C128.727 22.8226 128.727 22.8226 128.719 21.4025V20.3033H129.144C129.77 20.3033 130.099 20.4958 130.243 20.9612C130.324 21.226 130.404 21.3463 130.508 21.3463C130.629 21.3463 130.645 21.234 130.645 20.1829C130.645 19.1238 130.629 19.0195 130.5 19.0195C130.404 19.0195 130.324 19.1318 130.243 19.3565C130.091 19.7817 129.746 19.9823 129.144 19.9823H128.719V18.7788V17.5753H129.626H130.532L130.821 17.8561C130.974 18.0086 131.15 18.2412 131.206 18.3776C131.27 18.5221 131.367 18.6183 131.455 18.6183C131.591 18.6183 131.607 18.5461 131.607 17.8962V17.1741H129.273C127.122 17.1741 126.946 17.1821 126.97 17.3105Z" fill="#FF0000"/>
<path d="M146.772 17.2945C146.772 17.3587 146.836 17.4148 146.916 17.4148C146.989 17.4148 147.197 17.487 147.374 17.5673C147.871 17.7919 147.911 17.9925 147.879 20.2391C147.855 22.3974 147.831 22.4776 147.189 22.6943C147.005 22.7504 146.852 22.8547 146.852 22.9189C146.852 23.0072 147.069 23.0312 148.064 23.0312C149.267 23.0312 149.267 23.0312 149.243 22.8547C149.227 22.7103 149.147 22.6622 148.922 22.6221C148.762 22.598 148.569 22.5338 148.505 22.4776C148.28 22.2851 148.208 21.595 148.232 19.862L148.256 18.1771L150.062 20.6082C151.474 22.5097 151.899 23.0312 152.035 23.0312H152.22L152.244 20.4798C152.268 17.6315 152.26 17.6796 152.846 17.4549C153.038 17.3827 153.191 17.2864 153.191 17.2463C153.191 17.2062 152.661 17.1741 151.987 17.1741C151 17.1741 150.784 17.1982 150.784 17.2864C150.784 17.3506 150.896 17.4309 151.048 17.4549C151.185 17.487 151.402 17.5673 151.522 17.6234C151.843 17.7839 151.915 18.3054 151.891 20.1428L151.867 21.7074L150.182 19.4448L148.497 17.1821L147.639 17.1741C146.916 17.1741 146.772 17.1982 146.772 17.2945Z" fill="#FF0000"/>
<path d="M70.1477 26.9547C69.3614 27.1633 68.8078 27.5003 68.1418 28.1662C67.0907 29.2093 66.7377 30.1881 66.7457 31.9774C66.7457 33.0204 66.7698 33.1568 67.0025 33.8629C67.2994 34.7615 67.6203 35.267 68.2862 35.8848C70.1477 37.6018 73.3491 37.313 74.8735 35.2911C75.6117 34.3122 75.9487 33.2852 75.9487 31.9774C75.9567 30.4289 75.4512 29.1291 74.4402 28.1181C73.7823 27.4521 73.2929 27.1553 72.5628 26.9467C71.8888 26.7621 70.8457 26.7621 70.1477 26.9547ZM72.2338 27.6768C73.3811 28.1101 74.023 29.2093 74.2477 31.1349C74.352 32.0576 74.3038 33.1087 74.1273 33.7425C73.9428 34.4326 73.4694 35.3553 73.1324 35.6922C72.9639 35.8607 72.6029 36.1095 72.3461 36.2378C71.9369 36.4384 71.7845 36.4705 71.1907 36.4705C70.6131 36.4705 70.4446 36.4384 70.0675 36.2539C69.2651 35.8607 68.5992 34.9621 68.3344 33.9191C68.214 33.4697 68.1819 33.0445 68.1819 31.9774C68.1819 30.7739 68.206 30.5412 68.3665 30.0116C68.7677 28.76 69.3373 28.0138 70.1557 27.7009C70.7334 27.4762 71.6802 27.4682 72.2338 27.6768Z" fill="#FF0000"/>
<path d="M136.181 26.9548C135.387 27.1714 134.841 27.5004 134.175 28.1663C133.116 29.2254 132.771 30.1802 132.779 31.9775C132.779 32.9804 132.803 33.173 133.004 33.7828C133.284 34.6413 133.533 35.0665 134.079 35.6442C134.608 36.2059 135.098 36.5268 135.74 36.7354C138.476 37.6501 141.115 36.1818 141.837 33.3415C142.166 32.0658 141.974 30.4691 141.332 29.2575C141.019 28.6558 140.249 27.7732 139.711 27.4041C138.917 26.8585 137.304 26.6499 136.181 26.9548ZM138.251 27.6368C139.302 28.0059 139.936 28.9125 140.281 30.5333C140.433 31.2554 140.417 33.1569 140.249 33.7106C139.88 34.9622 139.174 35.925 138.371 36.2941C137.834 36.5428 136.783 36.5428 136.253 36.3021C135.467 35.9331 134.865 35.211 134.528 34.216C134.344 33.6624 134.311 33.4137 134.271 32.2984C134.239 31.1671 134.255 30.9344 134.408 30.3327C134.889 28.407 135.804 27.5325 137.312 27.5245C137.649 27.5245 138.074 27.5726 138.251 27.6368Z" fill="#FF0000"/>
<path d="M93.8968 27.1554C93.8968 27.4041 93.9209 27.4282 94.2097 27.4763C94.3862 27.5004 94.6911 27.5967 94.8997 27.685C95.5175 27.9497 95.5255 27.9738 95.5657 31.4078C95.5897 33.4137 95.5737 34.3525 95.5175 34.3123C95.4774 34.2883 94.2177 32.6194 92.7334 30.6135L90.0375 26.9628H88.6334H87.2373V27.2276C87.2373 27.4844 87.2534 27.4924 87.7027 27.5887C88.2723 27.709 88.7216 28.054 88.842 28.4713C88.9062 28.6718 88.9222 29.8834 88.9062 32.2022L88.8821 35.6442L88.6254 35.8689C88.4729 36.0053 88.2001 36.1337 87.9273 36.1979C87.4941 36.2941 87.478 36.3022 87.478 36.5669V36.8317H89.4919H91.4978L91.4737 36.6151C91.4496 36.4305 91.3854 36.3904 90.9361 36.2701C90.6553 36.1898 90.3344 36.0615 90.222 35.9732C89.8048 35.6603 89.7727 35.4517 89.7406 32.0577C89.7166 28.9446 89.7166 28.9286 89.869 29.0891C89.9573 29.1773 91.2972 30.9666 92.8537 33.0607L95.678 36.8718H95.9668H96.2637L96.3038 32.5793C96.3359 29.2094 96.368 28.2466 96.4482 28.1022C96.5766 27.8695 97.1302 27.6127 97.4833 27.6047C97.7721 27.6047 97.7882 27.5887 97.8604 27.1795L97.9165 26.8826H95.9027H93.8968V27.1554Z" fill="#FF0000"/>
<path d="M98.7111 27.1473C98.7111 27.4121 98.7271 27.4281 99.0561 27.4762C99.5616 27.5565 99.8986 27.7892 99.9547 28.1021C99.9788 28.2465 99.9948 30.0598 99.9788 32.1218L99.9547 35.8848L99.7782 36.0293C99.6819 36.1095 99.4332 36.1978 99.2246 36.2298C98.687 36.3101 98.6309 36.3422 98.6309 36.607V36.8477L101.222 36.8075C104.119 36.7674 104.255 36.7514 105.451 36.1737C106.638 35.596 107.529 34.5048 107.818 33.2933C107.97 32.6273 107.97 31.3756 107.818 30.5893C107.473 28.8964 106.341 27.733 104.448 27.1152C103.926 26.9467 103.71 26.9306 101.303 26.8986L98.7111 26.8665V27.1473ZM103.028 27.6768C103.806 27.7731 104.681 28.1903 105.114 28.6878C105.499 29.1211 105.956 30.0357 106.133 30.6937C106.309 31.3917 106.285 32.3304 106.053 33.3655C105.828 34.4005 105.675 34.7214 105.17 35.2911C104.697 35.8126 104.103 36.1095 103.349 36.1897C102.49 36.286 101.864 36.1737 101.567 35.8688L101.319 35.6281L101.295 31.7207C101.279 29.5784 101.287 27.7731 101.311 27.7089C101.359 27.5886 102.105 27.5725 103.028 27.6768Z" fill="#FF0000"/>
<path d="M112.872 27.2598C112.311 28.7682 111.019 32.122 110.409 33.6625C109.575 35.7968 109.43 36.0054 108.652 36.222C108.211 36.3504 108.179 36.3744 108.179 36.5991V36.8318H110.024H111.87V36.5991C111.87 36.3825 111.853 36.3744 111.412 36.3263C110.449 36.23 110.337 35.869 110.81 34.4247L111.115 33.502L112.84 33.478L114.557 33.4619L114.991 34.5611C115.223 35.1709 115.424 35.7406 115.432 35.8289C115.44 36.0214 115.127 36.1819 114.614 36.2621C114.261 36.3103 114.236 36.3263 114.212 36.575L114.188 36.8318H116.242H118.296L118.272 36.575C118.248 36.3263 118.224 36.3103 117.871 36.2541C117.35 36.1819 117.069 35.9572 116.82 35.4116C116.708 35.1549 115.937 33.1972 115.119 31.0549C114.293 28.9126 113.587 27.0993 113.546 27.0191C113.498 26.9388 113.378 26.8827 113.242 26.8827C113.041 26.8827 112.993 26.9308 112.872 27.2598ZM113.627 30.9907L114.333 32.7799L112.888 32.804C112.094 32.812 111.436 32.812 111.42 32.796C111.388 32.7719 112.712 29.3379 112.808 29.1854C112.832 29.1453 112.864 29.1373 112.888 29.1533C112.905 29.1774 113.242 30.0038 113.627 30.9907Z" fill="#FF0000"/>
<path d="M149.291 26.9949C149.186 27.2758 149.299 27.3881 149.893 27.5566C150.599 27.7572 150.751 27.9176 150.863 28.6077C150.984 29.3378 150.968 34.4006 150.847 34.2802C150.799 34.2321 149.556 32.5712 148.095 30.5975L145.44 27.003H144.035H142.639L142.615 27.2437C142.591 27.4844 142.599 27.4924 143.073 27.5887C143.602 27.701 143.963 27.9497 144.188 28.3589C144.308 28.5756 144.324 28.9286 144.348 31.0147C144.364 32.3386 144.34 33.9192 144.3 34.529C144.212 35.8368 144.148 35.9491 143.369 36.1738C142.912 36.3102 142.88 36.3343 142.856 36.575L142.832 36.8317H144.846H146.86L146.836 36.6552C146.82 36.5188 146.707 36.4546 146.298 36.3503C146.017 36.2701 145.696 36.1417 145.584 36.0534C145.175 35.7485 145.143 35.5239 145.103 32.146C145.078 30.0358 145.095 29.0409 145.151 29.057C145.199 29.073 146.563 30.8382 148.176 32.9804C151.112 36.8638 151.12 36.8718 151.417 36.8718H151.706L151.746 32.5793C151.778 29.2094 151.81 28.2466 151.89 28.1022C152.027 27.8615 152.58 27.6127 152.974 27.6047H153.27V27.2437V26.8826H151.305C149.66 26.8826 149.323 26.8987 149.291 26.9949Z" fill="#FF0000"/>
<path d="M58.1929 27.2437C58.1929 27.5005 58.2169 27.5246 58.4175 27.5246C58.7625 27.5246 59.1637 27.669 59.3723 27.8615L59.5569 28.03V31.9054C59.5569 36.3744 59.605 36.0856 58.7786 36.23C58.3293 36.3103 58.3132 36.3263 58.2892 36.575L58.2651 36.8318H60.3512H62.4453V36.5911C62.4453 36.3825 62.4212 36.3504 62.2126 36.3504C61.8355 36.3504 61.2899 36.0776 61.1776 35.8369C61.1134 35.6844 61.0813 35.0827 61.0813 33.9032V32.1782H61.996C62.8064 32.1782 62.9347 32.1942 63.1754 32.3627C63.4884 32.5713 63.6007 32.7719 63.7531 33.3897C63.8574 33.7909 63.8895 33.823 64.1222 33.8471L64.3709 33.8711V31.9455V30.0118H64.1383C63.9216 30.0118 63.8895 30.0439 63.7692 30.4692C63.5205 31.3197 63.2557 31.4721 61.9639 31.4882L61.0412 31.4962V29.5304V27.5647H62.3651C63.2156 27.5727 63.7933 27.6048 63.9858 27.669C64.3629 27.8054 64.74 28.2226 65.0931 28.9046C65.3338 29.378 65.406 29.4502 65.5985 29.4502H65.8152V28.3831C65.8152 27.8054 65.7911 27.2437 65.767 27.1394L65.7189 26.9629H61.9559H58.1929V27.2437Z" fill="#FF0000"/>
<path d="M77.0479 27.2839C77.0479 27.4122 77.0799 27.5246 77.1281 27.5246C77.1682 27.5246 77.4089 27.5968 77.6576 27.6931C78.3477 27.9498 78.3316 27.8535 78.3316 31.5604C78.3316 35.1388 78.3396 35.187 78.9334 35.8529C79.9122 36.9361 82.223 37.2971 83.6752 36.5911C84.3893 36.2461 84.8627 35.7887 85.1676 35.1629L85.4324 34.6253L85.4725 31.4561C85.5206 27.7091 85.4564 27.9498 86.4193 27.661C86.9729 27.4925 87.0371 27.4523 87.0611 27.2598L87.0852 27.0432H85.1195H83.1457V27.2758C83.1457 27.4844 83.1778 27.5085 83.6833 27.6369C83.9801 27.7091 84.3011 27.8455 84.4054 27.9418C84.7664 28.2788 84.7905 28.5114 84.7905 31.5363C84.7905 34.3124 84.7825 34.3927 84.606 34.8339C84.4134 35.3234 83.8116 35.9572 83.4105 36.1177C83.0334 36.2701 82.2471 36.3343 81.6694 36.2621C80.7386 36.1418 80.0647 35.5801 79.8561 34.7457C79.7999 34.505 79.7758 33.3175 79.7919 31.1592C79.8159 27.4764 79.7518 27.7893 80.5862 27.6128C81.0355 27.5246 81.0596 27.5085 81.0596 27.2839V27.0432H79.0537H77.0479V27.2839Z" fill="#FF0000"/>
<path d="M127.114 27.2678C127.114 27.4844 127.146 27.5005 127.692 27.6449C128.037 27.7332 128.35 27.8696 128.454 27.9739L128.639 28.1584V31.9936C128.639 34.1038 128.607 35.869 128.575 35.9171C128.478 36.0615 128.221 36.1658 127.804 36.23C127.251 36.3103 127.194 36.3424 127.194 36.5991V36.8318H129.321H131.447V36.6312C131.447 36.4707 131.407 36.4306 131.246 36.4306C130.957 36.4306 130.243 36.1418 130.115 35.9733C129.971 35.7807 129.947 28.4152 130.099 28.1424C130.235 27.8776 130.396 27.7893 130.99 27.6449C131.495 27.5165 131.527 27.4925 131.527 27.2758V27.0432H129.321H127.114V27.2678Z" fill="#FF0000"/>
<path d="M118.288 28.4473V29.7711H118.497C118.633 29.7711 118.721 29.723 118.745 29.6187C118.818 29.3218 119.219 28.6398 119.564 28.2066C119.957 27.7171 120.254 27.6048 121.128 27.6048H121.658V31.7289V35.8609L121.457 36.0134C121.345 36.1017 121.056 36.1979 120.807 36.23C120.182 36.3022 120.133 36.3343 120.133 36.5991V36.8318H122.42H124.707V36.5991C124.707 36.3744 124.595 36.2701 124.33 36.2701C124.266 36.2701 124.009 36.214 123.768 36.1418C123.07 35.9412 123.094 36.1257 123.118 31.5202L123.142 27.5647L123.383 27.5406C123.856 27.4844 124.619 27.6128 124.883 27.7893C125.252 28.0461 125.726 28.696 125.926 29.2255L126.095 29.6909H126.44H126.793V28.4071V27.1234H122.541H118.288V28.4473Z" fill="#FF0000"/>
</svg>
