<svg width="837" height="51" viewBox="0 0 837 51" fill="none" xmlns="http://www.w3.org/2000/svg">
<path d="M6.88947 20.6588C3.62212 21.0619 1.52169 22.7062 1.13979 25.1673C0.906406 26.6949 1.40499 28.2649 2.46582 29.2939C3.29327 30.1108 4.21618 30.5139 6.55 31.0973C9.00051 31.702 9.15963 31.7657 9.59457 32.1688C9.90221 32.4552 9.94464 32.5719 9.94464 33.028C9.94464 33.951 9.31876 34.4389 8.15185 34.4389C7.12285 34.4389 6.38027 33.9404 6.17871 33.1341L6.10445 32.8477H3.35691C1.22465 32.8477 0.609375 32.8795 0.609375 32.975C0.619983 33.3675 0.970056 34.5344 1.21405 34.9906C1.90358 36.253 3.66455 37.4517 5.59526 37.9609C6.39088 38.173 6.74095 38.2049 8.56557 38.1943C10.5069 38.1943 10.6872 38.173 11.5889 37.8972C12.8725 37.5047 13.7 37.0486 14.4107 36.3378C16.352 34.3965 16.352 31.1079 14.4213 29.3364C13.5939 28.5832 12.6922 28.1801 10.2523 27.5117C7.97151 26.8753 7.49414 26.6949 7.1865 26.2918C6.88947 25.9205 6.90007 25.1249 7.19711 24.796C7.68509 24.2762 8.63983 24.1065 9.36119 24.4035C9.77491 24.5839 10.1568 25.1249 10.1568 25.5492V25.8462H12.9786H15.811L15.7474 25.2204C15.5564 23.4382 14.3577 21.9848 12.5118 21.2847C11.0903 20.7437 8.51253 20.4573 6.88947 20.6588Z" fill="#FF0000"/>
<path d="M82.0087 20.7008C78.6989 21.3055 76.7788 23.1726 76.7788 25.8246C76.7788 27.2568 77.2032 28.3176 78.1473 29.2405C79.0066 30.0786 79.8128 30.4286 82.3694 31.0863C84.735 31.691 85.17 31.8607 85.4352 32.2639C85.9019 32.9852 85.6473 33.8127 84.8199 34.2158C83.6954 34.7568 82.2845 34.2794 81.9344 33.2186L81.7859 32.7943L79.0702 32.7624L76.3545 32.7412V33.1125C76.3545 33.6323 76.7258 34.7038 77.0971 35.2342C77.5957 35.9555 78.6034 36.8148 79.4415 37.2179C81.5525 38.2681 84.5122 38.5227 87.0052 37.8862C89.3284 37.3028 90.7605 36.0828 91.3227 34.2052C91.5137 33.5899 91.5455 33.2822 91.5031 32.4124C91.4607 31.4682 91.4076 31.2773 91.0575 30.5771C90.5908 29.633 89.8482 28.9116 88.8086 28.4024C88.4373 28.2221 87.1537 27.7978 85.9762 27.4689C83.1013 26.6733 82.7619 26.4823 82.6452 25.6549C82.5285 24.7956 83.1438 24.2546 84.2576 24.2546C85.223 24.2546 85.6473 24.5835 85.7958 25.4215L85.8489 25.7928L88.6495 25.8246L91.45 25.8459L91.397 25.1033C91.2591 23.268 89.7739 21.6768 87.5992 21.0297C86.0611 20.5629 83.5469 20.425 82.0087 20.7008Z" fill="#FF0000"/>
<path d="M119.369 20.6588C116.218 21.1468 113.863 23.3639 112.983 26.6737C112.739 27.5754 112.707 27.9148 112.696 29.4C112.696 31.2564 112.877 32.2642 113.439 33.6115C114.362 35.818 116.25 37.4517 118.52 38.0033C119.539 38.2473 121.384 38.2473 122.276 38.0033C123.559 37.6532 124.694 36.9531 125.373 36.1044L125.776 35.5846L125.808 36.6879L125.84 37.7805L128.471 37.8123L131.091 37.8336V29.453V21.0725H128.439H125.787V22.1545L125.776 23.2472L125.554 22.9289C125.203 22.441 124.524 21.8151 123.994 21.4756C122.901 20.7861 120.854 20.4254 119.369 20.6588ZM123.973 25.528C125.193 26.1857 125.861 27.3526 125.967 28.9969C126.105 31.1291 125.288 32.7204 123.676 33.463C123.167 33.7069 122.933 33.7388 122.074 33.7388C121.194 33.7388 120.981 33.7069 120.408 33.4417C119.167 32.8795 118.372 31.7338 118.16 30.185C117.841 27.9042 118.892 25.8674 120.695 25.2628C121.024 25.1567 121.512 25.1142 122.233 25.1355C123.209 25.1567 123.347 25.1885 123.973 25.528Z" fill="#FF0000"/>
<path d="M154.205 20.6484C150.651 21.0621 148.127 23.014 147.055 26.1647C146.663 27.3103 146.546 28.3287 146.61 29.8988C146.673 31.5749 146.917 32.6251 147.533 33.8663C148.063 34.9589 149.166 36.1576 150.216 36.8153C152.964 38.5127 157.313 38.7036 160.39 37.2715C162.289 36.3804 163.646 34.821 164.028 33.0812L164.103 32.7418H161.44C159.881 32.7418 158.777 32.7842 158.777 32.8372C158.777 33.0388 158.204 33.601 157.812 33.8132C157.165 34.1421 155.86 34.28 154.937 34.1315C153.208 33.8556 152.168 32.9115 151.924 31.3839L151.85 30.9384H158.014H164.166L164.23 30.5777C164.325 30.0791 164.336 27.6816 164.241 27.1724C163.944 25.4857 163.275 24.1915 162.119 23.0246C161.376 22.282 161.101 22.0805 160.146 21.6243C158.194 20.6908 156.401 20.3938 154.205 20.6484ZM156.263 24.2552C157.929 24.4992 158.777 25.3584 159.043 27.0876L159.117 27.5437H155.489H151.85L151.924 27.0027C152.073 25.9101 152.762 24.9977 153.781 24.5416C154.173 24.3719 154.767 24.2339 155.436 24.1597C155.499 24.1597 155.871 24.2021 156.263 24.2552Z" fill="#FF0000"/>
<path d="M142.971 20.9023C141.454 21.3372 140.34 22.3238 139.757 23.7771C139.587 24.2015 139.587 24.1802 139.587 22.6314L139.576 21.072H136.871H134.166L134.187 29.4207L134.219 37.78H136.871H139.523L139.587 33.6428C139.64 30.2906 139.682 29.3995 139.82 28.9327C140.255 27.4794 141.072 26.4928 142.207 26.0473C142.716 25.8351 143.024 25.8033 144.17 25.8033L145.517 25.7927V23.3422V20.8811L145.188 20.8174C144.658 20.7113 143.491 20.7644 142.971 20.9023Z" fill="#FF0000"/>
<path d="M18.1652 21.0929C18.1334 21.1672 18.1228 24.9543 18.1334 29.5053L18.1652 37.7797H20.8173H23.4693L23.5224 34.2578L23.5754 30.7358L26.0577 34.2896L28.5401 37.8328H31.7544C33.526 37.8328 34.9793 37.8009 34.9793 37.7691C34.9793 37.7373 33.5366 35.7535 31.7756 33.3773C30.0252 31.001 28.5719 29.0279 28.5719 29.0067C28.5613 28.9749 29.9722 27.2245 31.6907 25.1028C33.4093 22.9812 34.8414 21.2096 34.852 21.1566C34.8732 21.1141 33.4941 21.0717 31.7756 21.0717H28.6568L26.1214 24.4876L23.5754 27.914L23.5224 24.4664L23.4693 21.0187L20.8385 20.9868C18.7911 20.9656 18.197 20.9868 18.1652 21.0929Z" fill="#FF0000"/>
<path d="M37.1549 21.0932C37.1231 21.1675 37.1125 24.9546 37.1231 29.5056L37.1549 37.78H39.807H42.4591V29.3995V21.019L39.8282 20.9872C37.7808 20.9659 37.1868 20.9872 37.1549 21.0932Z" fill="#FF0000"/>
<path d="M45.4805 29.3992V37.8328L51.9303 37.8115L58.3695 37.7797L58.4013 35.308L58.4225 32.8469H54.6036H50.7846V26.9063V20.9656H48.1325H45.4805V29.3992Z" fill="#FF0000"/>
<path d="M61.1807 29.3992V37.8328L67.6305 37.8115L74.0697 37.7797L74.1015 35.308L74.1227 32.8469H70.3038H66.4848V26.9063V20.9656H63.8327H61.1807V29.3992Z" fill="#FF0000"/>
<path d="M93.8238 21.0293C93.7813 21.0717 93.7495 24.8695 93.7495 29.4735V37.8328L96.3804 37.8115L99.0006 37.7797L99.0324 34.8306L99.0536 31.8921H102.183H105.313V34.8625V37.8328L107.943 37.8115L110.564 37.7797V29.3992V21.0187H107.965H105.366L105.334 24.0102L105.313 27.0123H102.183H99.0536L99.0324 24.0102L99.0006 21.0187L96.444 20.9868C95.0437 20.9762 93.8662 20.9975 93.8238 21.0293Z" fill="#FF0000"/>
<circle cx="168.653" cy="35.3064" r="3.05662" fill="#FF0000"/>
<circle cx="39.5293" cy="15.1079" r="3.05662" fill="#FF0000"/>
<g clip-path="url(#clip0_1476_14896)">
<path d="M238.525 9.44482L234.813 11.5823V13.6823C234.813 15.6573 234.825 15.7698 235.038 15.6573C235.163 15.5948 236.825 14.6323 238.738 13.5323L242.225 11.5198L243.613 12.3198C244.375 12.7573 246.025 13.7073 247.288 14.4323L249.563 15.7573V13.6448V11.5448L248.6 10.9823C248.063 10.6698 246.413 9.71982 244.925 8.85732L242.225 7.30732L238.525 9.44482Z" fill="#FF0000"/>
<path d="M264.688 17.0323V20.7948L264.413 20.5948C263.863 20.1948 262.363 19.5198 261.563 19.3198C260.488 19.0448 258.613 19.0448 257.563 19.3198C254.675 20.0573 252.438 22.3823 251.738 25.3698C251.425 26.6948 251.538 29.3073 251.963 30.4948C252.825 32.9073 254.638 34.7323 256.938 35.5323C257.95 35.8698 260.188 35.9948 261.35 35.7698C262.225 35.5948 263.538 35.0448 264.138 34.5823C264.363 34.4073 264.575 34.2698 264.613 34.2698C264.65 34.2698 264.688 34.5698 264.713 34.9323L264.75 35.5823L266.663 35.6198L268.563 35.6573V24.4573V13.2698H266.625H264.688V17.0323ZM260.875 22.6448C263.638 23.0948 265.45 25.6448 264.95 28.3698C264.65 30.0073 263.65 31.3198 262.188 31.9948C261.188 32.4698 259.425 32.5323 258.4 32.1448C256.225 31.3323 254.988 29.0198 255.4 26.5823C255.738 24.5823 257.125 23.1073 259.063 22.6948C259.938 22.4948 259.988 22.4948 260.875 22.6448Z" fill="#FF0000"/>
<path d="M276.688 19.22C275.588 19.445 274.026 20.245 273.163 21.02C272.001 22.0575 271.026 23.7325 270.688 25.295C270.476 26.32 270.413 27.9325 270.551 28.945C271.113 32.9075 273.776 35.445 277.863 35.895C280.763 36.22 283.688 35.2575 285.538 33.3575L286.076 32.8075L284.663 31.9825C283.376 31.245 283.226 31.1825 283.001 31.345C281.601 32.3325 280.713 32.6325 279.238 32.645C277.063 32.645 275.613 31.895 274.838 30.395C274.613 29.945 274.401 29.37 274.351 29.1075L274.276 28.645H280.538H286.801L286.888 28.1825C287.001 27.57 286.863 25.6075 286.626 24.77C285.901 22.07 283.701 19.895 281.001 19.2075C280.076 18.97 277.801 18.97 276.688 19.22ZM280.713 22.6075C281.851 23.12 282.938 24.4325 282.938 25.3075V25.645H278.676H274.413L274.488 25.245C274.701 24.145 275.851 23.02 277.251 22.5325C278.238 22.1825 279.838 22.22 280.713 22.6075Z" fill="#FF0000"/>
<path d="M295.188 19.3697C294.288 19.6697 294.075 19.7947 293.25 20.4697L292.563 21.0197V20.2072V19.3947H290.688H288.813V27.5197V35.6447H290.688H292.563V30.9197C292.563 24.9947 292.65 24.4572 293.775 23.3697C295.15 22.0322 297.338 22.3572 298.188 24.0197C298.6 24.8447 298.688 25.9447 298.688 30.8572V35.6447H300.563H302.438V30.7322C302.438 25.3322 302.5 24.7947 303.175 23.8322C303.375 23.5572 303.8 23.1697 304.125 22.9572C304.638 22.6447 304.838 22.5947 305.613 22.5822C306.363 22.5822 306.588 22.6322 307.088 22.9322C307.775 23.3322 308.225 24.0197 308.425 24.9947C308.513 25.4072 308.563 27.5072 308.563 30.6572V35.6572L310.475 35.6197L312.375 35.5822V30.0197C312.375 23.9197 312.338 23.4447 311.663 22.0322C311.163 20.9822 310.288 20.1072 309.225 19.6197C308.5 19.2697 308.225 19.2197 307.075 19.1697C304.913 19.0822 303.325 19.6072 301.963 20.8447L301.3 21.4322L301.1 21.1322C300.688 20.5322 299.875 19.8572 299.2 19.5447C298.25 19.1072 296.225 19.0197 295.188 19.3697Z" fill="#FF0000"/>
<path d="M234.813 24.7324C234.813 30.5449 234.875 31.1574 235.513 32.4074C236 33.3824 236.488 33.9574 237.375 34.5824C238.813 35.6199 240.85 36.1324 242.863 35.9699C246.3 35.7074 248.625 33.9949 249.4 31.1324C249.588 30.4324 249.625 29.6699 249.625 24.8949V19.4574L247.725 19.4199L245.838 19.3824L245.788 24.5449C245.75 29.6574 245.75 29.7199 245.45 30.3574C245.125 31.0949 244.313 31.9074 243.6 32.2199C243.313 32.3449 242.788 32.4324 242.25 32.4324C240.825 32.4449 239.725 31.8074 239.088 30.5949L238.75 29.9574L238.713 24.6699L238.675 19.3949H236.738H234.813V24.7324Z" fill="#FF0000"/>
<path d="M312.813 19.4574C312.813 19.4949 314.25 23.0824 316.013 27.4324C317.775 31.7824 319.263 35.4449 319.313 35.5824C319.375 35.7574 319.25 36.1949 318.875 37.0574C317.913 39.2449 317.438 39.6449 315.85 39.6449H314.813V41.4074V43.1699L316.35 43.1199C317.688 43.0699 317.963 43.0199 318.663 42.7199C319.688 42.2449 320.825 41.0574 321.538 39.6824C321.975 38.8324 330.188 19.6324 330.188 19.4449C330.188 19.4199 329.3 19.4074 328.225 19.4199L326.263 19.4574L323.988 25.0199C322.725 28.0824 321.638 30.7199 321.55 30.8949C321.425 31.1824 321.188 30.6574 319.075 25.3324L316.75 19.4574L314.775 19.4199C313.7 19.4074 312.813 19.4199 312.813 19.4574Z" fill="#FF0000"/>
</g>
<g clip-path="url(#clip1_1476_14896)">
<path d="M431.896 25.5625C431.896 24.0056 431.767 22.8696 431.487 21.6914H413.294V28.7182H423.973C423.758 30.4645 422.595 33.0943 420.012 34.8615L419.975 35.0967L425.727 39.4512L426.126 39.4901C429.786 36.187 431.896 31.327 431.896 25.5625Z" fill="#FF0000"/>
<path d="M413.295 44.0766C418.526 44.0766 422.918 42.3934 426.126 39.4902L420.012 34.8616C418.376 35.9766 416.179 36.755 413.295 36.755C408.171 36.755 403.822 33.4521 402.271 28.8867L402.044 28.9056L396.063 33.4289L395.985 33.6414C399.171 39.8267 405.716 44.0766 413.295 44.0766Z" fill="#FF0000"/>
<path d="M402.271 28.8867C401.862 27.7086 401.626 26.4461 401.626 25.1418C401.626 23.8373 401.862 22.5751 402.25 21.3969L402.239 21.146L396.183 16.55L395.985 16.6421C394.672 19.2089 393.918 22.0912 393.918 25.1418C393.918 28.1924 394.672 31.0746 395.985 33.6413L402.271 28.8867Z" fill="#FF0000"/>
<path d="M413.295 13.5284C416.933 13.5284 419.387 15.0642 420.787 16.3477L426.255 11.1301C422.897 8.07947 418.526 6.20703 413.295 6.20703C405.716 6.20703 399.171 10.4568 395.985 16.6421L402.25 21.3969C403.822 16.8315 408.171 13.5284 413.295 13.5284Z" fill="#FF0000"/>
</g>
<path d="M502.966 16.504C501.469 16.6729 500.154 17.1354 498.951 17.9355C498.628 18.1484 498.29 18.3907 498.209 18.4641C498.128 18.5375 497.937 18.6843 497.791 18.8018C497.556 18.9706 497.203 19.389 496.425 20.3948C495.904 21.0628 495.324 22.5163 495.126 23.6468C494.942 24.6819 495.001 26.2528 495.265 27.2218C495.493 28.0367 496.021 29.1745 496.513 29.8866C498.598 32.9184 502.401 34.3499 506.071 33.469C507.62 33.0946 509.044 32.3018 510.263 31.1346C510.623 30.7895 511.46 29.7545 511.46 29.6517C511.46 29.6223 511.122 29.3948 510.711 29.1525C510.292 28.9103 509.507 28.4404 508.956 28.1101C508.398 27.7797 507.921 27.5155 507.877 27.5155C507.84 27.5155 507.723 27.6256 507.628 27.7504C507.018 28.5505 506.358 29.013 505.33 29.3581C504.897 29.5049 504.677 29.5342 503.898 29.5342C503.091 29.5342 502.915 29.5049 502.445 29.336C501.689 29.0644 501.175 28.7341 500.595 28.1541C498.275 25.8271 499.185 22.0244 502.342 20.8499C502.724 20.7104 503.025 20.659 503.671 20.6297C504.691 20.5856 505.117 20.6737 505.991 21.0921C506.526 21.3491 506.754 21.5179 507.194 21.9657L507.745 22.5163L508.112 22.3107C508.318 22.1933 508.832 21.8996 509.257 21.6647C509.683 21.4225 510.322 21.0554 510.674 20.8499C511.026 20.6517 511.335 20.4682 511.357 20.4461C511.452 20.3507 511.1 19.8809 510.41 19.1835C508.736 17.4951 506.688 16.5921 504.265 16.482C503.84 16.46 503.252 16.4673 502.966 16.504Z" fill="#FF0000"/>
<path d="M520.032 16.5049C517.925 16.7471 516.038 17.6501 514.585 19.1109C513.777 19.9258 513.836 19.8524 513.33 20.6672C512.581 21.8858 512.184 23.0604 512.052 24.4478C511.986 25.1085 512.045 26.3124 512.155 26.8263C512.405 27.9421 512.911 29.124 513.513 30.0122C514.577 31.5832 516.295 32.8899 518.064 33.4845C520.964 34.4609 524.231 33.9103 526.602 32.0604C527.087 31.6786 528.092 30.6436 528.312 30.2912C528.423 30.115 528.533 29.9609 528.562 29.9388C528.665 29.8654 529.223 28.7863 529.45 28.2137C530.067 26.6648 530.177 24.646 529.729 23.0237C528.966 20.2635 526.83 17.9731 524.099 16.9894C522.939 16.5783 521.228 16.3727 520.032 16.5049ZM522.469 20.9095C523.93 21.416 525.016 22.4804 525.479 23.8458C525.706 24.4992 525.75 25.4829 525.596 26.1582C525.2 27.832 523.871 29.1754 522.161 29.6232C521.544 29.7847 520.436 29.7773 519.834 29.6158C518.226 29.1827 516.883 27.854 516.486 26.3051C516.347 25.7545 516.347 24.6607 516.486 24.1248C516.699 23.2879 517.022 22.752 517.69 22.084C518.373 21.4086 519.048 21.0122 519.885 20.7993C520.524 20.6378 521.86 20.6966 522.469 20.9095Z" fill="#FF0000"/>
<path d="M557.758 16.5117C556.07 16.6878 554.682 17.4219 553.831 18.5965L553.677 18.8167L553.669 17.8404V16.8714H551.467H549.265V25.1666V33.4619H551.467H553.669V28.705C553.677 25.0272 553.699 23.8306 553.772 23.4048C554.124 21.4962 555.152 20.5859 557.083 20.4758L557.817 20.4317L558.199 18.5598C558.412 17.532 558.58 16.6291 558.588 16.5557C558.588 16.4823 558.536 16.4382 558.463 16.4382C558.389 16.4456 558.074 16.4749 557.758 16.5117Z" fill="#FF0000"/>
<path d="M565.085 16.5045C562.097 16.7541 559.91 18.3618 559.44 20.6375C559.102 22.2598 559.513 23.7427 560.6 24.8218C561.503 25.7174 562.67 26.2533 565.305 26.9654C567.221 27.4866 567.801 27.7142 568.205 28.1032C568.572 28.4556 568.667 28.9034 568.484 29.3292C568.271 29.8063 567.618 30.0779 566.59 30.1367C564.901 30.2321 563.448 29.5861 562.758 28.4262C562.626 28.206 562.494 28.0298 562.472 28.0298C562.442 28.0298 562.178 28.1546 561.877 28.3161C561.583 28.4703 560.746 28.9034 560.02 29.2778C559.293 29.6522 558.691 29.9605 558.676 29.9752C558.618 30.0266 559.014 30.746 559.337 31.1717C559.814 31.8031 560.049 32.0306 560.68 32.4858C561.745 33.2492 563.096 33.7191 564.769 33.8952C568.998 34.3577 572.316 32.7794 573.021 29.9899C573.285 28.9621 573.16 27.4939 572.742 26.6791C571.956 25.1375 570.591 24.3006 567.522 23.4784C564.432 22.6416 563.947 22.3773 563.947 21.4964C563.947 20.7916 564.388 20.4393 565.401 20.3218C566.795 20.1677 568.139 20.7256 568.733 21.7093C568.821 21.8561 568.902 21.9882 568.91 22.0029C568.924 22.0176 569.269 21.8414 569.688 21.6212C570.708 21.0779 571.978 20.4099 572.404 20.197L572.756 20.0282L572.521 19.6538C572.242 19.1987 571.317 18.259 570.767 17.8773C569.746 17.1579 568.374 16.6734 566.935 16.5119C566.171 16.4238 566.076 16.4238 565.085 16.5045Z" fill="#FF0000"/>
<path d="M581.844 16.5043C580.537 16.6511 579.282 17.0695 578.262 17.6935C577.557 18.1266 577.63 18.0752 577.08 18.5377C576.25 19.2498 575.597 20.116 575.061 21.2319C573.563 24.3591 573.938 27.8974 576.059 30.6283C576.353 31.01 577.014 31.6707 577.344 31.9056C577.542 32.0524 577.77 32.2286 577.836 32.2873C578.284 32.6911 579.752 33.3738 580.772 33.6454C583.334 34.3281 586.102 33.895 588.267 32.4562C588.855 32.0671 589.963 31.0394 590.117 30.7384C590.235 30.5255 590.205 30.4888 589.457 29.9015C589.258 29.74 589.031 29.5565 588.957 29.4904C588.877 29.417 588.656 29.2335 588.451 29.0793C588.253 28.9252 587.922 28.6609 587.724 28.4847C587.526 28.3159 587.35 28.1764 587.342 28.1764C587.335 28.1764 587.122 28.3673 586.88 28.6022C586.381 29.0793 585.676 29.4757 584.905 29.718C584.12 29.9676 582.608 30.0116 581.8 29.8061C581.147 29.6372 580.376 29.2849 580.046 29.0059C579.935 28.9031 579.803 28.8004 579.767 28.7784C579.723 28.749 579.524 28.5288 579.333 28.2865C578.959 27.824 578.592 27.134 578.511 26.7229L578.467 26.488H584.891H591.314L591.358 26.2604C591.439 25.8273 591.402 24.249 591.292 23.603C590.668 20.0353 588.018 17.2677 584.604 16.6217C583.848 16.4823 582.549 16.4235 581.844 16.5043ZM584.098 20.5785C584.758 20.7473 585.559 21.1658 586.014 21.5842C586.469 22.01 586.895 22.7074 586.968 23.1552L587.012 23.4562L582.842 23.4195C580.545 23.4048 578.651 23.3754 578.643 23.3681C578.629 23.3534 578.724 23.1185 578.856 22.8395C579.355 21.8191 580.559 20.8575 581.697 20.5858C582.27 20.4464 583.555 20.439 584.098 20.5785Z" fill="#FF0000"/>
<path d="M601.459 16.5117C599.932 16.6805 598.897 17.1797 597.921 18.2221L597.429 18.7433L597.422 17.8037V16.8714H595.293H593.164V25.1666V33.4619H595.293H597.422V28.771C597.422 23.8893 597.451 23.3901 597.752 22.5239C597.914 22.0467 598.339 21.4668 598.758 21.1291C599.294 20.7107 599.815 20.5345 600.725 20.4758L601.489 20.4317L601.878 18.5231C602.083 17.4733 602.26 16.5704 602.267 16.519C602.267 16.4236 602.26 16.4236 601.459 16.5117Z" fill="#FF0000"/>
<path d="M609.719 16.5119C608.595 16.6587 607.281 17.1725 606.217 17.8699C605.578 18.2957 604.249 19.6024 603.86 20.1897C602.891 21.6652 602.392 23.1554 602.289 24.8659C602.055 28.9915 604.785 32.6987 608.86 33.7631C609.66 33.976 611.055 34.0274 611.965 33.8732C613.382 33.6456 614.299 33.2052 615.356 32.2729C615.525 32.1187 615.687 31.9939 615.716 31.9939C615.745 31.9939 615.819 32.1775 615.878 32.3977C615.944 32.6179 616.046 32.985 616.113 33.2052C616.193 33.5062 616.267 33.6163 616.384 33.6456C616.472 33.6677 617.375 33.675 618.381 33.6677L620.216 33.6456V25.2035V16.7614L618.278 16.7394C617.206 16.7321 616.311 16.7468 616.281 16.7761C616.245 16.8128 616.142 17.2606 616.039 17.7818C615.936 18.303 615.841 18.7362 615.826 18.7508C615.812 18.7729 615.716 18.6774 615.621 18.5453C614.762 17.3707 613.404 16.6954 611.554 16.5119C610.658 16.4238 610.453 16.4238 609.719 16.5119ZM612.824 20.9311C614.248 21.4376 615.356 22.5681 615.797 23.9556C616.024 24.675 616.017 25.9523 615.79 26.613C615.246 28.162 613.874 29.3438 612.236 29.6742C610.9 29.9458 609.763 29.7256 608.581 28.9474C607.582 28.2941 606.922 27.3104 606.657 26.0918C606.555 25.5853 606.628 24.5062 606.811 23.9189C607.281 22.436 608.529 21.2468 610.064 20.8357C610.834 20.6228 612.075 20.6668 612.824 20.9311Z" fill="#FF0000"/>
<path d="M531.751 16.827C531.729 16.8784 531.729 19.4845 531.744 22.6044C531.773 28.7634 531.766 28.6386 532.199 29.8866C532.552 30.9143 532.919 31.5016 533.667 32.2504C534.497 33.0799 535.194 33.4763 536.398 33.7993C537.147 34.0049 539.1 33.9828 539.9 33.77C540.928 33.4837 542.051 32.8156 542.506 32.221C542.946 31.6264 542.91 31.597 542.954 32.6321L542.991 33.5717H545.119H547.248V25.1664V16.761L545.105 16.7389L542.961 16.7243L542.932 21.8409C542.91 27.4934 542.917 27.3393 542.433 28.2496C542.242 28.6019 541.691 29.2773 541.588 29.2773C541.574 29.2773 541.434 29.358 541.28 29.4608C540.913 29.7031 539.966 29.938 539.349 29.938C537.632 29.938 536.486 29.0717 536.156 27.5228C536.075 27.1337 536.053 26.0252 536.053 21.8776V16.7243H533.924C532.185 16.7243 531.781 16.7463 531.751 16.827Z" fill="#FF0000"/>
<path fill-rule="evenodd" clip-rule="evenodd" d="M683.319 26.682C683.712 32.6435 686.2 38.3 690.276 42.5123C694.384 46.7487 699.511 49.3082 705.328 50.0303C710.679 50.6882 716.344 49.4927 721.03 46.7166C724.56 44.6225 727.625 41.5896 729.719 38.1155C733.001 32.6675 734.084 25.992 732.696 19.7979C731.693 15.3609 729.727 11.6139 726.574 8.13977C724.279 5.60435 720.845 3.24546 717.539 1.93763C711.032 -0.65395 703.394 -0.316963 697.104 2.82824C690.581 6.10181 685.766 12.0793 684.033 19.0597C683.656 20.5842 683.464 21.7717 683.319 23.5529C683.323 24.188 683.329 25.7031 683.319 26.682ZM726.036 8.70944C722.033 4.46502 716.938 1.88147 711.161 1.16738C710.19 1.04703 707.751 0.950741 707.133 1.01493C706.956 1.03098 706.363 1.08714 705.809 1.13528C704.517 1.24761 702.6 1.62472 701.292 2.02589C696.277 3.55035 692.097 6.47891 688.88 10.7153C687.812 12.1194 687.299 12.9458 686.513 14.5666C685.253 17.1421 684.595 19.3004 684.178 22.3092C683.977 23.7053 683.977 26.8505 684.178 28.2466C684.603 31.2634 685.253 33.4298 686.513 35.9892C690.011 43.098 696.775 48.0806 704.565 49.2681C711.321 50.2951 718.045 48.5059 723.453 44.2374C725.314 42.761 727.529 40.2818 728.893 38.1155C730.217 36.0294 731.436 33.0687 731.966 30.6697C732.864 26.5777 732.728 22.3814 731.556 18.2975C730.594 14.9437 728.508 11.3251 726.036 8.70944Z" fill="#FF0000"/>
<path d="M707.39 3.38185C706.98 3.62255 707.101 4.16815 707.598 4.38478C707.783 4.46502 707.999 4.57735 708.08 4.64154C708.272 4.81003 708.256 5.11492 708.048 5.21923C707.791 5.36365 707.502 5.2433 707.317 4.9384C707.229 4.78596 707.141 4.65758 707.125 4.65758C707.109 4.65758 707.093 4.81003 707.093 4.99457V5.33958L707.59 5.36365C708.007 5.37969 708.112 5.35562 708.272 5.20318C708.497 4.99457 708.521 4.57735 708.32 4.40083C708.24 4.32862 708.007 4.20024 707.799 4.11199C707.494 3.97559 707.414 3.90338 707.414 3.75093C707.414 3.26952 707.951 3.26952 708.208 3.75895L708.369 4.05582L708.377 3.69477V3.32569L707.959 3.30964C707.727 3.30162 707.47 3.33371 707.39 3.38185Z" fill="#FF0000"/>
<path d="M709.444 3.4622C709.596 3.55046 709.62 3.87942 709.524 4.72991C709.484 5.13911 709.444 5.24341 709.308 5.29958C709.155 5.36377 709.155 5.37179 709.348 5.37179C709.468 5.37981 709.677 5.40388 709.813 5.42795C709.973 5.46005 710.062 5.45202 710.062 5.38784C710.062 5.33969 710.006 5.29958 709.941 5.29958C709.805 5.29958 709.781 4.88236 709.869 4.02385C709.917 3.62267 709.949 3.53441 710.07 3.53441C710.158 3.53441 710.222 3.4943 710.222 3.45418C710.222 3.40604 710.014 3.37394 709.765 3.37394C709.412 3.38197 709.332 3.39802 709.444 3.4622Z" fill="#FF0000"/>
<path d="M705.528 3.49428C705.488 3.51033 705.231 3.55045 704.967 3.57452C704.581 3.62266 704.517 3.64673 704.67 3.70289C704.766 3.74301 704.846 3.78313 704.846 3.79115C704.846 3.8072 704.902 4.17628 704.959 4.61757C705.023 5.05084 705.055 5.44399 705.039 5.47608C705.015 5.50817 704.942 5.54027 704.87 5.54027C704.798 5.54027 704.758 5.56434 704.79 5.58841C704.814 5.6205 705.199 5.59643 705.649 5.54027L706.451 5.43596V5.12305C706.451 4.74594 706.403 4.73792 706.258 5.09898C706.17 5.31561 706.09 5.3798 705.937 5.3798C705.833 5.3798 705.697 5.39585 705.632 5.41992C705.448 5.4841 705.352 5.35573 705.304 4.95455C705.255 4.58547 705.255 4.57745 705.464 4.57745C705.576 4.57745 705.745 4.64164 705.833 4.71385C705.994 4.85025 705.994 4.85025 705.945 4.65769C705.913 4.54536 705.889 4.37686 705.889 4.27256C705.889 4.05593 705.761 4.03988 705.705 4.24849C705.689 4.32872 705.576 4.40896 705.464 4.43303C705.239 4.47315 705.167 4.35279 705.167 3.87139C705.167 3.62266 705.175 3.61463 705.52 3.61463C705.801 3.61463 705.905 3.65475 706.002 3.79115C706.13 3.96767 706.13 3.96767 706.13 3.71092C706.13 3.47021 706.114 3.45417 705.873 3.46219C705.729 3.46219 705.576 3.47824 705.528 3.49428Z" fill="#FF0000"/>
<path d="M711.353 3.67877C710.864 3.94354 710.639 4.64961 710.888 5.13904C711.04 5.43591 711.482 5.70068 711.835 5.70068C712.244 5.70068 712.388 5.6365 712.388 5.44393C712.388 5.21125 712.541 4.97857 712.693 4.97055C712.902 4.96252 712.589 4.8502 712.188 4.79403C711.907 4.75391 711.883 4.75391 712.011 4.85822C712.236 5.01869 712.172 5.49207 711.915 5.52417C711.241 5.62045 710.912 4.97857 711.233 4.17622C711.377 3.81517 711.538 3.69482 711.891 3.69482C712.156 3.69482 712.348 3.87936 712.436 4.20029C712.476 4.36879 712.509 4.40088 712.557 4.32065C712.661 4.1682 712.645 3.67075 712.549 3.73493C712.501 3.76703 712.412 3.75098 712.364 3.70284C712.156 3.53435 711.642 3.5183 711.353 3.67877Z" fill="#FF0000"/>
<path d="M713.672 4.00779C713.672 4.0479 713.728 4.09605 713.792 4.12814C713.961 4.19233 713.945 4.32873 713.704 5.107C713.52 5.70074 713.471 5.78097 713.303 5.78097C712.99 5.78097 713.086 5.90133 713.48 6.00563C713.841 6.10191 714.073 6.07784 713.8 5.97354C713.624 5.90935 713.64 5.66865 713.857 5.01874L714.049 4.4571L714.21 4.89839C714.298 5.1391 714.45 5.58039 714.555 5.87726C714.659 6.18215 714.771 6.42285 714.803 6.42285C714.835 6.42285 714.956 6.10994 715.068 5.71679C715.365 4.74595 715.405 4.65769 715.598 4.65769C715.83 4.65769 715.734 4.52931 715.461 4.47315C715.333 4.44908 715.164 4.40094 715.076 4.36884C714.924 4.31268 714.924 4.31268 715.06 4.47315C715.132 4.56141 715.197 4.70583 715.197 4.79409C715.197 4.96258 714.964 5.70074 714.884 5.79702C714.86 5.82911 714.699 5.46004 714.523 4.97863C714.25 4.19233 714.194 4.09605 713.977 4.02383C713.68 3.91953 713.672 3.91953 713.672 4.00779Z" fill="#FF0000"/>
<path d="M702.255 4.13604C701.821 4.2564 701.685 4.33663 701.934 4.33663C702.07 4.33663 702.126 4.46501 702.311 5.15503C702.511 5.89318 702.519 5.98144 702.407 6.0697C702.182 6.23017 702.271 6.24622 702.736 6.12587C703.587 5.90923 703.964 5.58829 703.964 5.08281C703.964 4.19221 703.33 3.83918 702.255 4.13604ZM703.113 4.20826C703.595 4.40884 703.835 5.34759 703.482 5.70062C703.298 5.88516 702.937 5.98947 702.848 5.89318C702.808 5.85307 702.688 5.46794 702.576 5.03467L702.367 4.24837L702.543 4.17616C702.784 4.07988 702.808 4.07988 703.113 4.20826Z" fill="#FF0000"/>
<path d="M699.431 5.1311C699.126 5.27552 699.126 5.28354 699.326 5.29157C699.519 5.29959 699.591 5.37983 699.832 5.86123C699.984 6.16613 700.113 6.43892 700.113 6.47102C700.113 6.49509 699.736 6.31055 699.278 6.06984C698.516 5.66065 698.428 5.62855 698.195 5.70879C697.89 5.81309 697.866 5.94147 698.155 5.94147C698.331 5.94147 698.396 6.02973 698.684 6.63951C698.957 7.22522 698.997 7.36162 698.917 7.49C698.861 7.57023 698.845 7.63442 698.885 7.61837C698.917 7.60233 699.086 7.53012 699.254 7.46593C699.551 7.3536 699.671 7.20918 699.415 7.27336C699.334 7.28941 699.23 7.28139 699.182 7.24929C699.078 7.17708 698.484 6.0217 698.556 6.0217C698.58 6.0217 699.013 6.23834 699.519 6.51114C700.024 6.77591 700.434 6.96045 700.434 6.92033C700.434 6.88021 700.265 6.49509 700.064 6.06182C699.752 5.41192 699.703 5.25145 699.784 5.12307C699.896 4.93853 699.832 4.94656 699.431 5.1311Z" fill="#FF0000"/>
<path d="M717.619 5.53208C717.708 5.6765 717.668 5.79686 717.363 6.41466C717.074 7.01642 716.978 7.1448 716.809 7.16085C716.616 7.18492 716.624 7.20096 716.937 7.36946C717.355 7.58609 717.475 7.60214 717.355 7.40155C717.282 7.28922 717.298 7.18492 717.435 6.91212C717.603 6.59118 717.619 6.57513 717.788 6.68746C717.884 6.75165 717.98 6.90409 718.005 7.02445L718.045 7.2491L718.229 6.92014C718.446 6.52699 718.454 6.47083 718.253 6.58316C718.045 6.68746 717.988 6.68746 717.812 6.55909C717.676 6.45478 717.676 6.43873 717.836 6.11779C717.932 5.93325 718.037 5.78081 718.069 5.78081C718.101 5.78081 718.245 5.85302 718.39 5.94128C718.566 6.05361 718.646 6.15791 718.646 6.30233C718.646 6.41466 718.678 6.50292 718.727 6.50292C718.799 6.50292 718.967 6.25419 718.967 6.14989C718.967 6.12582 718.638 5.94128 718.245 5.74069C717.684 5.45987 717.539 5.41173 717.619 5.53208Z" fill="#FF0000"/>
<path d="M696.582 6.68758C696.422 6.74375 696.229 6.89619 696.125 7.05666C695.555 7.90715 696.51 9.06253 697.417 8.62926C698.524 8.09971 697.746 6.29443 696.582 6.68758ZM697.28 7.08073C697.609 7.43376 697.706 7.64237 697.706 7.97936C697.706 8.27623 697.417 8.58914 697.136 8.58914C696.799 8.58914 696.181 7.80284 696.181 7.36958C696.181 6.79189 696.839 6.62339 697.28 7.08073Z" fill="#FF0000"/>
<path d="M719.465 6.98428C719.12 7.19289 718.856 7.7786 718.92 8.14768C718.992 8.53281 719.449 8.90991 719.834 8.90991C720.268 8.90991 720.637 8.65316 720.829 8.21187C720.982 7.86686 720.99 7.80267 720.886 7.51383C720.669 6.90404 720.003 6.65532 719.465 6.98428ZM720.533 7.18487C720.773 7.41755 720.781 7.56197 720.581 7.98721C720.396 8.40443 719.987 8.74944 719.69 8.74944C719.433 8.74944 719.128 8.43653 719.128 8.17175C719.128 7.93105 719.417 7.42557 719.69 7.19289C720.003 6.92812 720.284 6.92812 720.533 7.18487Z" fill="#FF0000"/>
<path d="M694.617 8.11581C694.232 8.40466 694.183 8.50094 694.44 8.4528C694.593 8.4207 694.705 8.50896 695.066 8.9663C695.636 9.67237 695.652 9.69644 695.539 9.83284C695.355 10.0575 695.579 9.95319 695.9 9.67237C696.189 9.42364 696.197 9.39154 696.021 9.43166C695.844 9.46376 695.748 9.3755 695.315 8.8299C694.889 8.28431 694.825 8.16395 694.897 8.02755C695.01 7.81894 695.002 7.82697 694.617 8.11581Z" fill="#FF0000"/>
<path d="M721.969 8.25203C722.017 8.39645 721.928 8.54087 721.543 8.99821C720.966 9.66416 720.934 9.8487 721.327 10.2419C721.535 10.4505 721.672 10.5146 721.88 10.5146C722.129 10.5146 722.225 10.4505 722.643 9.9851C723.06 9.52776 723.156 9.45555 723.341 9.48764L723.557 9.53579L723.292 9.26299C722.972 8.93402 722.915 8.926 722.963 9.21485C722.988 9.39136 722.907 9.52776 722.522 9.93696C722.217 10.2659 721.993 10.4344 721.872 10.4344C721.648 10.4344 721.295 10.0974 721.295 9.88079C721.295 9.79254 721.519 9.4716 721.792 9.15868C722.161 8.72541 722.322 8.59704 722.434 8.63716C722.659 8.70937 722.61 8.62913 722.249 8.34029C721.953 8.10761 721.92 8.09958 721.969 8.25203Z" fill="#FF0000"/>
<path d="M693.036 9.43154C692.691 9.75247 692.41 10.0574 692.41 10.0975C692.41 10.1697 692.667 10.4345 692.739 10.4345C692.763 10.4345 692.763 10.2981 692.747 10.1296C692.731 9.93701 692.755 9.79259 692.827 9.7284C692.916 9.65619 693.068 9.7605 693.574 10.274C694.151 10.8517 694.199 10.9319 694.111 11.0763C694.055 11.1646 694.039 11.2368 694.079 11.2368C694.167 11.2368 694.737 10.6431 694.737 10.5548C694.737 10.5147 694.697 10.5227 694.641 10.5789C694.472 10.7474 694.368 10.6832 693.774 10.0333C693.229 9.42351 693.204 9.37537 693.341 9.27107C693.445 9.19885 693.59 9.17478 693.774 9.20688L694.055 9.25502L693.862 9.03839C693.75 8.92606 693.662 8.82978 693.662 8.82978C693.654 8.8378 693.373 9.10257 693.036 9.43154Z" fill="#FF0000"/>
<path d="M707.334 9.04641C706.933 9.11862 706.186 9.32723 705.761 9.47968L705.336 9.64015L705.657 10.1456C706.098 10.8517 706.491 11.8626 706.66 12.7212C706.74 13.1143 706.812 13.4513 706.812 13.4673C706.82 13.4754 707.101 13.4112 707.438 13.3229C707.775 13.2427 708.369 13.1544 708.754 13.1304L709.46 13.0902L709.564 12.1435C709.677 11.0683 709.645 10.0172 709.476 9.61607C709.267 9.1106 709.011 8.99024 708.224 8.99827C707.847 9.00629 707.446 9.03036 707.334 9.04641Z" fill="#FF0000"/>
<path d="M724.071 10.1537C724.127 10.3703 724.079 10.4345 723.573 10.8919C723.108 11.3251 722.988 11.3973 722.795 11.3653L722.57 11.3171L722.827 11.6381C722.971 11.8146 723.1 11.959 723.108 11.959C723.124 11.959 723.116 11.8547 723.092 11.7343C723.052 11.5418 723.108 11.4615 723.541 11.0844C723.806 10.8518 724.047 10.6672 724.063 10.6833C724.079 10.6993 723.998 11.1406 723.886 11.6621C723.774 12.1836 723.702 12.633 723.734 12.657C723.758 12.6811 724.071 12.4404 724.44 12.1275C724.969 11.6621 725.138 11.5578 725.29 11.5979C725.451 11.6381 725.467 11.622 725.395 11.5017C725.354 11.4214 725.226 11.269 725.114 11.1647L724.905 10.9641L724.953 11.2128C724.993 11.4294 724.953 11.4936 724.536 11.8627C724.279 12.0954 724.063 12.2719 724.055 12.2559C724.047 12.2478 724.127 11.8627 724.231 11.3973C724.335 10.932 724.424 10.5148 724.424 10.4746C724.424 10.4265 724.335 10.2821 724.223 10.1537L724.023 9.91301L724.071 10.1537Z" fill="#FF0000"/>
<path d="M691.552 11.0363C691.263 11.3251 691.207 11.4294 691.207 11.6862C691.207 12.296 691.752 12.8416 692.362 12.8416C692.948 12.8416 693.429 12.0873 693.124 11.638C693.068 11.5498 693.06 11.5979 693.1 11.8226C693.164 12.2157 692.988 12.4965 692.619 12.5607C692.282 12.6249 691.961 12.4725 691.616 12.0793C691.335 11.7584 691.303 11.5257 691.495 11.2449C691.616 11.0844 691.68 11.0603 692.025 11.0924C692.41 11.1326 692.41 11.1326 692.274 10.9801C691.993 10.6752 691.905 10.6752 691.552 11.0363Z" fill="#FF0000"/>
<path d="M710.856 10.8917C710.679 10.9158 710.623 10.988 710.551 11.2769C710.455 11.654 710.43 13.5716 710.511 14.2456L710.559 14.6467H711.674H712.789V14.1412C712.789 13.5074 712.974 12.5927 713.271 11.7823L713.503 11.1485L713.327 11.0843C712.829 10.8917 711.498 10.7955 710.856 10.8917Z" fill="#FF0000"/>
<path d="M699.27 12.4966C699.094 12.7373 698.781 13.0984 698.572 13.2829L698.187 13.6279L698.588 13.8847C698.997 14.1494 699.631 14.7833 700.113 15.4332C700.265 15.6338 700.41 15.8103 700.434 15.8103C700.458 15.8103 700.546 15.698 700.626 15.5616C700.706 15.4252 701.003 15.0641 701.292 14.7592C701.765 14.2537 701.798 14.1976 701.709 14.0291C701.509 13.66 700.987 13.0262 700.658 12.7534C700.281 12.4404 699.695 12.0393 699.631 12.0473C699.607 12.0473 699.447 12.2479 699.27 12.4966Z" fill="#FF0000"/>
<path d="M704.277 12.3841C703.603 12.7211 702.616 13.395 702.327 13.716C702.191 13.8684 702.199 13.8845 702.808 14.4622C703.563 15.1763 704.261 16.0348 704.646 16.7328C704.83 17.0618 704.975 17.2383 705.031 17.1982C705.087 17.1661 705.272 17.0377 705.448 16.9093L705.769 16.6847L705.881 17.0698C706.082 17.7919 706.13 17.808 706.114 17.142L706.09 16.5082L706.7 16.2755L707.302 16.0348L707.005 14.9035C706.603 13.395 706.339 12.7371 705.97 12.352C705.552 11.9107 705.199 11.9187 704.277 12.3841Z" fill="#FF0000"/>
<path d="M714.611 12.6651C714.555 13.1546 714.057 14.679 713.664 15.5857L713.359 16.2917H713.64C713.985 16.2917 714.924 16.5966 715.734 16.9737C716.135 17.1583 716.336 17.2144 716.352 17.1503C716.368 17.0941 716.424 16.7812 716.481 16.4522C716.601 15.7141 716.89 14.7753 717.251 13.9569C717.572 13.2348 717.58 13.1626 717.355 13.1626C717.026 13.1626 715.863 12.8256 715.285 12.5528C714.956 12.4004 714.683 12.28 714.675 12.28C714.667 12.28 714.635 12.4565 714.611 12.6651Z" fill="#FF0000"/>
<path d="M725.948 12.4565C725.948 12.5929 725.788 12.7453 725.298 13.0662C724.889 13.339 724.592 13.4835 724.496 13.4594C724.287 13.4032 724.295 13.4273 724.664 13.9248C725.058 14.4543 725.298 14.6228 725.651 14.6228C726.285 14.6228 726.718 14.1414 726.654 13.5236C726.622 13.2508 726.093 12.2799 725.98 12.2799C725.964 12.2799 725.948 12.3602 725.948 12.4565ZM726.389 13.0823C726.542 13.3711 726.542 13.5075 726.389 13.8044C726.133 14.3019 725.322 14.5426 724.985 14.2056C724.705 13.9248 724.785 13.7803 725.483 13.2989C725.852 13.0502 726.173 12.8416 726.205 12.8416C726.237 12.8416 726.317 12.9459 726.389 13.0823Z" fill="#FF0000"/>
<path d="M689.891 13.4191C689.923 13.4753 690.163 13.8203 690.428 14.1894C690.693 14.5504 690.926 14.9596 690.958 15.1041L691.006 15.3528L691.23 15.0158C691.439 14.7029 691.431 14.5745 691.222 14.7831C691.15 14.8553 691.094 14.8393 690.966 14.727C690.765 14.5424 690.765 14.414 690.966 14.0851C691.102 13.8684 691.158 13.8363 691.375 13.8684C691.527 13.8925 691.64 13.9647 691.68 14.061C691.728 14.2054 691.76 14.1814 691.953 13.9005L692.161 13.5716L691.904 13.6117C691.76 13.6358 691.303 13.5796 690.885 13.4913C690.003 13.2908 689.81 13.2827 689.891 13.4191ZM690.829 13.7722C690.998 13.8283 690.998 13.8765 690.813 14.1172L690.669 14.3017L690.404 13.9647L690.131 13.6277L690.412 13.6839C690.565 13.708 690.749 13.7561 690.829 13.7722Z" fill="#FF0000"/>
<path d="M719.826 14.7833C719.714 14.9277 719.553 15.1925 719.465 15.369C719.28 15.7381 718.719 17.1181 718.751 17.1342C718.759 17.1342 718.984 17.2064 719.24 17.2946C719.505 17.3829 719.842 17.5353 719.986 17.6316C720.139 17.7359 720.283 17.8162 720.315 17.8162C720.348 17.8162 720.484 17.6076 720.612 17.3508C720.749 17.1021 721.134 16.6046 721.471 16.2516C721.816 15.8986 722.097 15.5937 722.097 15.5696C722.097 15.4171 720.42 14.5265 720.139 14.5265C720.075 14.5265 719.93 14.6469 719.826 14.7833Z" fill="#FF0000"/>
<path d="M709.46 14.7671C709.243 14.8474 708.834 14.9356 708.561 14.9677C708.28 14.9998 708.056 15.0399 708.056 15.056C708.056 15.072 708.144 15.393 708.248 15.762C708.361 16.1311 708.481 16.7489 708.521 17.134C708.569 17.5112 708.617 17.8401 708.641 17.8642C708.665 17.8883 708.754 17.8722 708.842 17.8241C709.051 17.7117 710.078 17.4951 710.399 17.4951C710.599 17.4951 710.631 17.471 710.583 17.3507C710.423 16.9736 710.134 15.7059 710.086 15.1924C710.054 14.8393 710.005 14.6067 709.949 14.6147C709.901 14.6227 709.684 14.6869 709.46 14.7671Z" fill="#FF0000"/>
<path d="M688.735 15.353C688.519 15.5776 688.093 16.5244 688.27 16.38C688.382 16.2917 688.519 16.3238 689.16 16.6207C689.826 16.9256 689.923 16.9978 689.923 17.1743C689.931 17.3508 689.955 17.3267 690.123 17.0138C690.348 16.5966 690.372 16.4762 690.204 16.6126C690.099 16.6929 690.019 16.6929 689.762 16.5725C689.217 16.3238 689.337 16.2034 690.212 16.0831C690.549 16.043 690.645 15.9948 690.717 15.8344C690.837 15.5696 690.837 15.5616 690.549 15.6819C690.404 15.7461 690.115 15.8183 689.907 15.8424C689.57 15.8905 689.538 15.8825 689.57 15.7541C689.626 15.5455 689.313 15.1684 689.088 15.1684C688.992 15.1684 688.832 15.2486 688.735 15.353ZM689.281 15.6498C689.449 15.8183 689.481 16.0189 689.369 16.2034C689.313 16.2917 689.241 16.2917 688.928 16.1713C688.719 16.0911 688.535 16.0029 688.519 15.9708C688.454 15.8665 688.807 15.4893 688.968 15.4893C689.048 15.4893 689.193 15.5616 689.281 15.6498Z" fill="#FF0000"/>
<path d="M725.627 15.3688C725.627 15.433 725.948 16.0508 725.972 16.0508C725.988 16.0508 725.996 15.9706 725.996 15.8743C725.988 15.7379 726.044 15.6897 726.253 15.6416C726.502 15.5935 726.526 15.6095 726.678 15.9144L726.847 16.2353L726.638 16.4359C726.469 16.6044 726.421 16.6205 726.317 16.5322C726.14 16.3958 726.165 16.5081 726.389 16.9334C726.542 17.2142 726.582 17.2543 726.59 17.1179C726.59 17.0056 726.855 16.6445 727.264 16.1952C727.641 15.786 727.922 15.425 727.89 15.4009C727.857 15.3688 727.408 15.3848 726.887 15.433C726.157 15.4972 725.9 15.4972 725.779 15.425C725.699 15.3688 725.627 15.3447 725.627 15.3688ZM727.232 15.8101C727.095 15.9866 726.967 16.131 726.943 16.131C726.911 16.131 726.67 15.6817 726.67 15.6175C726.67 15.5935 726.806 15.5614 726.975 15.5453C727.135 15.5293 727.32 15.5132 727.376 15.5052C727.44 15.4972 727.368 15.6336 727.232 15.8101Z" fill="#FF0000"/>
<path d="M702.68 16.6205C702.48 16.797 702.038 17.0778 701.693 17.2623L701.067 17.5913L701.637 18.185C702.022 18.5942 702.295 18.9713 702.504 19.4046C702.664 19.7416 702.808 20.0385 702.816 20.0545C702.825 20.0706 702.953 19.9823 703.089 19.87C703.234 19.7496 703.563 19.541 703.835 19.4046C704.108 19.2682 704.341 19.1479 704.357 19.1318C704.373 19.1238 704.213 18.8349 703.996 18.498C703.787 18.161 703.498 17.5351 703.354 17.1179C703.21 16.7007 703.081 16.3477 703.065 16.3316C703.049 16.3156 702.881 16.452 702.68 16.6205Z" fill="#FF0000"/>
<path d="M711.522 17.2705C711.417 18.3697 711.201 19.3084 710.912 19.9503L710.711 20.3836L711.016 20.4638C711.177 20.5039 711.426 20.5681 711.57 20.5922C711.787 20.6323 711.827 20.6805 711.827 20.865C711.827 21.218 711.618 22.229 711.434 22.7425C711.345 23.0073 711.281 23.2319 711.297 23.248C711.353 23.3122 712.14 21.6272 712.236 21.2421C712.284 21.0335 712.356 20.865 712.388 20.865C712.42 20.865 712.613 20.9533 712.806 21.0656L713.167 21.2662L713.223 20.8249C713.335 19.846 713.985 18.1852 714.474 17.6315C714.603 17.4791 714.715 17.3347 714.715 17.3106C714.715 17.2946 714.547 17.2464 714.338 17.2143C713.825 17.1421 712.854 16.8292 712.204 16.5323C711.907 16.4039 711.658 16.2916 711.642 16.2916C711.634 16.2916 711.578 16.7329 711.522 17.2705Z" fill="#FF0000"/>
<path d="M699.631 16.8452C698.885 17.1741 697.601 17.6154 697.128 17.6957C696.959 17.7197 696.823 17.7679 696.823 17.7919C696.823 17.816 697.015 18.153 697.256 18.5301C698.082 19.8459 698.604 20.9933 698.789 21.932L698.829 22.1487L699.374 21.8759C699.92 21.6031 700.77 21.3223 701.34 21.226C701.508 21.2019 701.637 21.1538 701.621 21.1217C701.605 21.0896 701.468 20.8088 701.308 20.5039C700.706 19.3405 700.297 17.808 700.369 16.9575C700.393 16.7248 700.385 16.5323 700.361 16.5323C700.337 16.5323 700.008 16.6767 699.631 16.8452Z" fill="#FF0000"/>
<path d="M728.195 17.0298L727.994 17.118L728.267 17.1742C728.532 17.2384 728.676 17.3668 728.676 17.5433C728.676 17.5994 728.307 17.7679 727.858 17.9284C727.071 18.2092 727.031 18.2172 726.927 18.0808C726.823 17.9525 726.815 17.9605 726.863 18.1691C726.895 18.2975 726.967 18.5141 727.031 18.6505C727.12 18.8671 727.136 18.8752 727.144 18.7227C727.152 18.5141 727.256 18.4499 728.131 18.145C728.62 17.9685 728.813 17.9284 728.853 18.0006C728.957 18.1691 728.925 18.3215 728.74 18.5221L728.556 18.7227L728.796 18.6666C728.933 18.6345 729.061 18.5863 729.085 18.5542C729.158 18.466 728.588 16.9335 728.484 16.9415C728.435 16.9415 728.307 16.9816 728.195 17.0298Z" fill="#FF0000"/>
<path d="M694.055 17.6637C693.878 17.8403 693.509 18.1532 693.236 18.3538C692.956 18.5543 692.731 18.7389 692.731 18.763C692.731 18.795 692.932 18.9796 693.188 19.1802C693.686 19.5813 694.44 20.4158 694.729 20.9052C694.841 21.0817 694.937 21.2422 694.953 21.2583C694.97 21.2743 695.242 21.0416 695.563 20.7287C695.876 20.4238 696.293 20.0708 696.478 19.9504L696.815 19.7258L696.534 19.2684C696.053 18.5142 694.785 17.3348 694.448 17.3348C694.4 17.3348 694.223 17.4792 694.055 17.6637Z" fill="#FF0000"/>
<path d="M687.532 18.1371C687.395 18.5302 687.315 18.8592 687.355 18.8592C687.387 18.8592 687.435 18.8111 687.459 18.7549C687.491 18.6426 687.885 18.7308 688.663 19.0197C689.024 19.1561 689.12 19.2283 689.12 19.3647C689.12 19.6455 689.249 19.4289 689.481 18.7389C689.594 18.3858 689.714 18.0569 689.73 18.0087C689.754 17.9526 689.658 17.8723 689.513 17.8242C689.168 17.7038 689.168 17.7038 689.369 17.9686C689.521 18.1772 689.529 18.2334 689.441 18.4901C689.393 18.6506 689.313 18.803 689.265 18.8271C689.16 18.8913 688.478 18.6987 688.478 18.6025C688.478 18.4259 688.655 18.2173 688.799 18.2173C689.064 18.2173 688.976 18.089 688.647 17.9927C688.23 17.8643 688.19 17.8723 688.358 18.0569C688.478 18.1852 688.486 18.2574 688.414 18.4099C688.326 18.6105 688.326 18.6105 687.981 18.4741C687.788 18.4099 687.62 18.3377 687.612 18.3297C687.596 18.3136 687.62 18.1852 687.676 18.0248C687.74 17.8242 687.836 17.7279 688.021 17.6557C688.23 17.5915 688.254 17.5514 688.157 17.4952C687.877 17.3187 687.788 17.407 687.532 18.1371Z" fill="#FF0000"/>
<path d="M717.604 17.7198C717.604 17.7599 717.347 18.1771 717.042 18.6505C716.448 19.5411 715.686 20.4157 715.181 20.7848L714.884 21.0014L715.413 21.3945C715.702 21.6112 715.991 21.8358 716.063 21.884C716.176 21.9722 716.151 22.0605 715.863 22.6863C715.453 23.5609 715.349 23.938 715.67 23.3603C715.806 23.1276 716.047 22.7666 716.216 22.566L716.513 22.2049L716.882 22.6221L717.251 23.0474L717.652 22.7264C718.141 22.3333 718.775 21.6754 719.168 21.1538C719.489 20.7206 719.931 19.8942 719.931 19.7176C719.931 19.6615 719.706 19.4448 719.433 19.2443C719.152 19.0356 718.655 18.5944 718.326 18.2654C717.756 17.6877 717.604 17.5673 717.604 17.7198Z" fill="#FF0000"/>
<path d="M707.638 18.0087C707.012 18.2654 706.282 18.803 705.544 19.5492C705.207 19.8942 704.926 20.1911 704.926 20.2152C704.934 20.2392 705.231 20.4639 705.592 20.7046C706.346 21.2101 707.55 22.3735 708.007 23.0555C708.184 23.3042 708.344 23.5128 708.376 23.5128C708.408 23.5128 708.689 23.3122 709.01 23.0635C709.331 22.8148 709.604 22.6302 709.62 22.6463C709.7 22.7265 709.981 24.2911 710.069 25.1335C710.214 26.5858 710.021 28.0862 709.548 29.1533C709.315 29.6909 708.802 30.4451 708.465 30.766L708.216 30.9987L708.104 30.7259C708.039 30.5735 707.823 30.0038 707.63 29.4502C707.43 28.8965 707.213 28.3269 707.149 28.1744C707.036 27.9097 707.036 27.8856 707.285 27.5245C707.43 27.3159 707.59 27.0351 707.646 26.8987C707.775 26.5938 707.807 26.5938 708.152 26.8024C708.296 26.8907 708.441 26.9629 708.473 26.9629C708.585 26.9629 709.082 25.8797 709.219 25.3662C709.419 24.5799 709.379 24.4756 708.858 24.3392C708.617 24.2831 708.264 24.1386 708.071 24.0263C707.879 23.914 707.718 23.8337 707.702 23.8498C707.694 23.8578 707.63 24.1226 707.55 24.4355C707.47 24.7404 707.269 25.278 707.093 25.6149L706.78 26.2328L707.093 26.329C707.269 26.3852 707.414 26.4735 707.414 26.5296C707.414 26.5778 707.261 26.7944 707.069 27.011L706.724 27.3881L706.467 26.995C706.33 26.7784 705.921 26.3692 705.568 26.0803C705.215 25.7915 704.926 25.5347 704.926 25.5106C704.926 25.4866 705.151 25.3422 705.432 25.1977C705.705 25.0533 705.937 24.9249 705.953 24.9169C706.001 24.8768 705.303 23.5529 705.006 23.1116C704.573 22.4858 704.084 21.9402 703.683 21.6674L703.346 21.4347L702.832 21.876C702.287 22.3574 701.605 22.8388 701.171 23.0635L700.907 23.1999L701.661 23.9942C702.527 24.8928 703.065 25.6149 703.37 26.2729C703.554 26.6821 703.594 26.7222 703.715 26.6259C703.787 26.5617 704.036 26.3531 704.276 26.1605L704.71 25.8075L704.918 26.0643C705.68 26.9709 706.202 28.383 706.266 29.7069C706.298 30.2605 706.282 30.5735 706.234 30.5735C706.186 30.5735 705.921 30.4691 705.648 30.3408C705.167 30.1241 705.135 30.1001 704.966 29.6427C704.87 29.386 704.758 29.1052 704.726 29.0249C704.678 28.9126 704.71 28.8885 704.958 28.8885C705.119 28.8885 705.247 28.8645 705.247 28.8243C705.239 28.6799 704.99 27.693 704.878 27.3881C704.758 27.0752 704.734 27.0511 704.493 27.0993C704.236 27.1474 703.49 27.4283 703.378 27.5245C703.346 27.5566 703.442 27.7652 703.594 27.9979C703.755 28.2226 703.939 28.6077 704.012 28.8484C704.14 29.2496 704.164 29.2737 704.341 29.2014C704.445 29.1613 704.565 29.1292 704.605 29.1292C704.702 29.1292 704.846 29.5866 704.846 29.8915V30.1562L703.875 29.9075C702.904 29.6668 702.904 29.6668 702.64 29.2977C702.487 29.0971 702.206 28.7922 702.006 28.6237C701.613 28.2948 700.81 27.8455 700.626 27.8455C700.497 27.8455 700.377 27.6369 700.281 27.2277L700.208 26.9228L700.2 27.2598C700.192 27.4924 700.16 27.6048 700.088 27.6048C699.92 27.6048 699.149 27.3239 698.764 27.1314C698.588 27.0431 698.403 26.9629 698.371 26.9629C698.243 26.9709 699.214 27.5486 699.936 27.9016C700.465 28.1584 700.818 28.3911 701.163 28.7281C701.42 28.9848 701.637 29.2255 701.637 29.2576C701.637 29.2977 701.356 29.3298 701.019 29.3298C700.674 29.3298 700.056 29.3619 699.639 29.394L698.885 29.4582L698.941 29.2095C698.965 29.0811 699.005 28.8725 699.037 28.7441L699.077 28.5275L697.681 28.1343C695.611 27.5566 694.929 27.5887 694.584 28.2868C694.375 28.72 694.303 29.6508 694.399 30.6778C694.448 31.2073 694.496 31.6486 694.512 31.6566C694.528 31.6727 694.833 31.6005 695.186 31.4962C696.076 31.2394 696.943 31.1271 697.946 31.1431L698.788 31.1592L698.812 30.5012L698.836 29.8433L699.133 29.8915C700.064 30.0439 702.359 30.6296 702.616 30.7901C702.656 30.8061 702.471 30.9345 702.222 31.0629L701.765 31.3036L701.556 31.1431L701.34 30.9907L701.067 31.1993C700.594 31.5523 700.192 31.9695 699.944 32.3547L699.703 32.7318L700.329 33.3335L700.955 33.9273L701.099 33.6464C701.26 33.3496 702.014 32.5472 702.359 32.3065L702.559 32.1701L702.359 32.0177C702.246 31.9374 702.086 31.8171 701.998 31.7449C701.845 31.6326 701.853 31.6165 702.279 31.4239C702.936 31.119 703.161 31.095 703.602 31.2875C704.493 31.6807 705.48 32.5713 705.913 33.3736C706.194 33.8791 706.322 34.9382 706.266 36.0695C706.194 37.3453 706.09 37.6742 705.664 37.9871L705.311 38.2359L700.385 38.2599C695.539 38.276 695.459 38.284 695.459 38.4365C695.459 38.5969 695.563 38.5969 708.216 38.5969C720.917 38.5969 720.973 38.5969 720.973 38.4365C720.973 38.276 720.917 38.276 716.047 38.276H711.128L710.856 38.0914C710.511 37.8588 710.085 37.0404 709.965 36.3584C709.869 35.8529 709.869 35.8449 710.077 35.6764C710.454 35.3715 710.623 34.9944 710.623 34.4408C710.623 34.168 710.567 33.8069 710.503 33.6464C710.438 33.494 710.382 33.3175 710.382 33.2613C710.382 33.1971 710.567 32.8842 710.791 32.5472C711.112 32.0658 711.337 31.8331 711.891 31.432L712.589 30.9345L713.447 30.9506C714.57 30.9666 714.611 30.9907 714.314 31.4721L714.081 31.8412L714.458 31.9776C715.004 32.1862 715.678 32.5392 715.951 32.7639L716.191 32.9564L716.4 32.5071C716.52 32.2584 716.713 31.9695 716.825 31.8572C716.945 31.7449 717.042 31.6165 717.042 31.5603C717.042 31.3277 715.477 30.413 715.084 30.413C715.02 30.413 714.932 30.5253 714.883 30.6617C714.811 30.8703 714.763 30.9024 714.619 30.8703C714.514 30.8463 714.185 30.7821 713.88 30.7259C713.535 30.6697 713.367 30.6136 713.439 30.5735C713.688 30.4371 714.619 30.1643 715.252 30.0439C715.846 29.9316 717.796 29.8594 717.884 29.9476C717.9 29.9637 717.844 30.2445 717.764 30.5735C717.676 30.9024 717.603 31.1993 717.603 31.2314C717.603 31.2715 717.836 31.2956 718.125 31.2956C718.815 31.2956 719.673 31.4721 720.845 31.8652C721.366 32.0337 721.8 32.1781 721.816 32.1781C721.824 32.1781 721.856 31.8652 721.88 31.4721C721.904 31.087 722.016 30.413 722.129 29.9717C722.241 29.5304 722.337 29.1693 722.337 29.1613C722.337 29.1613 722.056 29.0249 721.711 28.8645C720.925 28.4954 719.786 28.2466 718.839 28.2466H718.109L718.069 28.8083C718.045 29.1212 718.005 29.394 717.988 29.4181C717.964 29.4421 717.314 29.4181 716.552 29.3699C715.782 29.3218 715.02 29.3057 714.851 29.3378L714.538 29.386L714.595 29.1212C714.667 28.7521 715.076 27.9016 715.269 27.7331C715.421 27.5967 715.437 27.6048 715.726 28.038C715.886 28.2868 716.031 28.4874 716.047 28.4874C716.055 28.4874 716.352 28.2868 716.697 28.038C717.451 27.4924 718.566 26.9388 719.312 26.7463C719.609 26.666 719.85 26.5778 719.85 26.5376C719.85 26.4333 719.36 25.5026 719.104 25.1175C718.703 24.5238 717.996 23.7535 717.852 23.7535C717.483 23.7535 715.806 25.0052 714.803 26.0322L714.37 26.4735L714.739 26.9148C715.156 27.3962 715.188 27.4924 714.964 27.5647C714.683 27.6529 713.937 28.5435 713.768 28.9848L713.608 29.402L712.942 29.5384C712.244 29.6748 711.69 29.8674 711.353 30.084L711.16 30.2044L711.225 29.8915C711.345 29.2416 711.417 28.5114 711.425 27.9016C711.425 27.3641 711.465 27.1956 711.698 26.6901C711.842 26.3611 712.123 25.8797 712.308 25.5989L712.645 25.1014L712.982 25.4304L713.311 25.7513L713.535 25.3983C713.664 25.1977 714.025 24.8046 714.338 24.5077C714.867 24.0183 714.899 23.9701 714.755 23.8899C714.667 23.8418 714.386 23.6091 714.137 23.3684L713.68 22.9351L713.407 23.1036C712.821 23.4647 711.802 24.7163 712.091 24.7163C712.147 24.7163 712.26 24.7645 712.34 24.8206C712.468 24.9169 712.436 24.965 711.923 25.3823C711.61 25.631 711.337 25.8396 711.313 25.8396C711.281 25.8396 711.265 25.7754 711.265 25.6872C711.265 25.2699 710.47 23.3764 710.045 22.7746L709.893 22.55L710.133 22.4136C710.262 22.3333 710.487 22.205 710.623 22.1328C710.84 22.0044 710.864 21.9723 710.783 21.8198C710.727 21.7236 710.454 21.0897 710.174 20.3997C709.235 18.113 708.673 17.5754 707.638 18.0087ZM709.355 33.0768C709.267 33.1811 709.115 33.4218 709.026 33.6224C708.874 33.9513 708.858 33.9594 708.858 33.7588C708.858 33.486 709.05 33.1008 709.235 32.9885C709.476 32.8441 709.532 32.8922 709.355 33.0768ZM709.821 33.6384C710.061 33.8952 710.045 34.4969 709.788 34.7376C709.636 34.8821 709.564 34.9061 709.435 34.8339C709.106 34.6574 709.066 33.9674 709.379 33.6625C709.612 33.4218 709.612 33.4218 709.821 33.6384Z" fill="#FF0000"/>
<path d="M722.185 19.3084C721.744 20.1669 720.492 21.4908 719.553 22.1005C719.241 22.3011 719.233 22.3412 719.481 22.4536C719.882 22.6381 720.813 23.6009 721.27 24.307C721.279 24.323 721.495 24.1144 721.744 23.8416C722.289 23.2479 723.196 22.5579 724.223 21.9401C724.64 21.6913 724.985 21.4587 724.985 21.4266C724.985 21.3865 724.753 21.1778 724.472 20.9532C723.942 20.5279 723.26 19.8219 722.739 19.172L722.45 18.8029L722.185 19.3084Z" fill="#FF0000"/>
<path d="M729.246 19.3968C729.238 19.5733 729.069 19.6455 728.002 19.9103C727.649 19.9986 727.601 19.9905 727.505 19.8622C727.368 19.6776 727.36 19.798 727.481 20.2714C727.569 20.6084 727.577 20.6244 727.665 20.4559C727.737 20.3115 727.922 20.2312 728.54 20.0708C729.31 19.8782 729.318 19.8782 729.438 20.0307C729.551 20.1751 729.559 20.1671 729.511 19.9424C729.478 19.806 729.406 19.5894 729.35 19.461C729.27 19.2524 729.254 19.2444 729.246 19.3968Z" fill="#FF0000"/>
<path d="M686.89 20.4078C686.794 20.8571 686.713 21.2502 686.713 21.2743C686.713 21.3385 687.123 21.4508 687.171 21.3947C687.195 21.3786 687.131 21.2823 687.042 21.1941C686.874 21.0256 686.818 20.7448 686.938 20.6725C687.026 20.6244 688.495 20.9453 688.623 21.0497C688.679 21.0978 688.711 21.178 688.687 21.2422C688.663 21.2984 688.671 21.3465 688.711 21.3465C688.751 21.3465 688.808 21.2101 688.832 21.0416C688.864 20.8812 688.912 20.6725 688.936 20.5843C688.976 20.4318 688.976 20.4318 688.824 20.5682C688.671 20.7046 688.631 20.7046 687.845 20.5281C687.211 20.3837 687.034 20.3195 687.034 20.2072C687.034 20.0226 687.251 19.8221 687.46 19.8221C687.676 19.8221 687.548 19.7017 687.267 19.6375C687.066 19.5894 687.058 19.5974 686.89 20.4078Z" fill="#FF0000"/>
<path d="M728.186 21.4185C727.938 21.6673 727.874 21.7876 727.874 22.0283C727.874 22.8066 728.684 23.2639 729.438 22.9029C730.088 22.598 730.184 21.7796 729.631 21.3142C729.43 21.1458 729.302 21.1056 728.941 21.1056C728.531 21.1056 728.475 21.1297 728.186 21.4185ZM729.695 21.6031C730.04 21.9321 729.903 22.3733 729.398 22.582C728.78 22.8307 728.202 22.7103 728.034 22.3092C727.841 21.8438 728.339 21.4266 729.069 21.4266C729.406 21.4266 729.55 21.4667 729.695 21.6031Z" fill="#FF0000"/>
<path d="M686.553 22.2451C686.553 22.4055 686.528 22.6061 686.504 22.6863C686.472 22.7906 686.496 22.7826 686.617 22.6382C686.769 22.4537 686.793 22.4456 687.427 22.5178L688.085 22.5901L687.235 23.0955C686.408 23.593 686.392 23.609 686.392 23.8979V24.1867L686.52 24.0022C686.649 23.8257 686.689 23.8177 687.267 23.8738C688.093 23.946 688.205 23.9781 688.302 24.1787L688.39 24.3552V24.1867C688.398 24.0905 688.422 23.8899 688.446 23.7454L688.502 23.4726L688.326 23.6492C688.173 23.8096 688.101 23.8257 687.612 23.7775C687.315 23.7535 687.026 23.7053 686.978 23.6813C686.922 23.6492 687.227 23.4165 687.716 23.1276C688.181 22.8468 688.558 22.5901 688.558 22.558C688.558 22.5259 688.173 22.4537 687.7 22.4055C686.954 22.3333 686.825 22.2932 686.697 22.1327L686.553 21.9482V22.2451Z" fill="#FF0000"/>
<path d="M697.08 22.3573C696.486 22.6461 695.226 23.1115 695.042 23.1115C694.705 23.1195 694.737 23.2559 695.17 23.8416C695.732 24.5798 696.205 25.5426 696.43 26.3931L696.606 27.043L697.112 26.7621C697.393 26.6017 697.649 26.4813 697.681 26.4893C697.714 26.4974 697.906 26.4332 698.107 26.3369C698.307 26.2406 698.548 26.1604 698.644 26.1604C698.821 26.1604 698.821 26.1604 698.588 25.6549C698.307 25.0612 698.083 24.1946 697.898 22.967C697.826 22.4776 697.738 22.0684 697.714 22.0684C697.69 22.0764 697.401 22.2048 697.08 22.3573Z" fill="#FF0000"/>
<path d="M724.785 23.914C723.918 24.4275 722.137 25.0052 720.909 25.1577C720.436 25.2218 720.436 25.2379 720.733 25.8396C721.03 26.4254 721.455 27.685 721.503 28.1183C721.535 28.367 721.567 28.5676 721.591 28.5676C721.607 28.5676 721.864 28.4473 722.161 28.2948C723.284 27.7332 725.426 27.0432 726.06 27.0432H726.341L726.189 26.7784C725.932 26.3371 725.571 25.3502 725.426 24.6762C725.346 24.3232 725.266 23.9541 725.234 23.8578L725.186 23.6813L724.785 23.914Z" fill="#FF0000"/>
<path d="M730.024 23.8176C729.992 23.9299 729.871 23.978 729.55 24.0182C728.708 24.1225 728.387 24.0904 728.251 23.8898C728.13 23.7213 728.122 23.7293 728.122 24.1305C728.114 24.3632 728.154 24.5557 728.194 24.5557C728.242 24.5557 728.275 24.4996 728.275 24.4354C728.275 24.2508 728.644 24.1465 729.229 24.1706L729.759 24.1947L728.941 24.8285C728.491 25.1735 728.138 25.4865 728.154 25.5266C728.178 25.5587 728.587 25.5667 729.069 25.5426C729.911 25.4945 729.935 25.5025 730.064 25.687C730.2 25.8716 730.2 25.8636 730.192 25.4383C730.192 25.0692 730.176 25.0291 730.104 25.1735C730.04 25.3099 729.919 25.3581 729.606 25.3982C729.382 25.4303 729.077 25.4383 728.924 25.4223L728.652 25.3982L729.422 24.8045C730.136 24.2669 730.2 24.1867 730.2 23.9459C730.2 23.6571 730.088 23.5769 730.024 23.8176Z" fill="#FF0000"/>
<path d="M690.645 25.0452C690.645 25.4784 690.572 26.1203 690.484 26.5616C690.396 26.9788 690.324 27.3318 690.324 27.3318C690.324 27.3399 690.484 27.3238 690.677 27.3078C691.359 27.2275 693.862 27.5565 694.52 27.8133C694.64 27.8614 694.656 27.7651 694.656 26.8585C694.656 25.9358 694.729 25.2859 694.857 24.9328C694.913 24.8125 694.849 24.7964 694.151 24.7964C692.851 24.7964 691.391 24.6039 690.789 24.3551C690.661 24.307 690.645 24.3632 690.645 25.0452Z" fill="#FF0000"/>
<path d="M699.856 24.6682C699.711 24.8127 699.599 25.7514 699.679 26.2248L699.735 26.5618H700.281H700.834V26.2489C700.834 25.9761 701.011 25.2941 701.188 24.8608C701.252 24.7164 701.163 24.6923 700.385 24.596C700.072 24.5559 699.944 24.5719 699.856 24.6682Z" fill="#FF0000"/>
<path d="M688.262 25.0292C688.23 25.1656 688.125 25.1897 687.411 25.2138C686.681 25.2459 686.577 25.2298 686.456 25.0934C686.32 24.941 686.312 24.957 686.312 25.3903C686.312 25.8316 686.416 25.9921 686.497 25.6791C686.537 25.5347 686.609 25.5187 687.379 25.5187C688.165 25.5187 688.222 25.5267 688.302 25.6952C688.374 25.8476 688.39 25.7995 688.39 25.3743C688.398 24.8848 688.342 24.7324 688.262 25.0292Z" fill="#FF0000"/>
<path d="M728.949 27.1072C728.901 27.1393 728.82 27.5405 728.772 28.0059C728.427 30.9826 727.272 34.0556 725.491 36.7514C724.656 38.0111 724.199 38.5728 723.124 39.688C722.354 40.4824 722.185 40.7632 722.49 40.7632C722.803 40.7632 724.809 38.4765 725.796 36.9922C726.855 35.3955 728.042 32.8039 728.548 30.9826C728.845 29.9235 729.141 28.3589 729.262 27.2436C729.278 27.0832 729.101 27.0029 728.949 27.1072Z" fill="#FF0000"/>
<path d="M687.307 27.4041C687.234 27.5725 687.555 29.45 687.836 30.5733C687.965 31.0949 688.221 31.9453 688.406 32.4508C688.791 33.542 689.794 35.6201 690.404 36.5909C691.487 38.332 693.709 40.8434 694.046 40.715C694.119 40.6909 694.175 40.6107 694.175 40.5465C694.175 40.4743 693.75 39.9849 693.236 39.4473C690.372 36.4866 688.486 32.7316 687.844 28.7279C687.748 28.1342 687.652 27.5645 687.628 27.4602C687.588 27.2596 687.371 27.2195 687.307 27.4041Z" fill="#FF0000"/>
<path d="M698.107 40.9878C698.107 41.0199 698.219 41.0921 698.347 41.1402L698.588 41.2285V42.6406V44.0528L698.347 44.1009C697.77 44.2212 698.211 44.2935 699.503 44.2935C700.698 44.2935 700.907 44.2774 700.947 44.1651C701.019 43.9886 701.003 43.3306 700.939 43.3306C700.899 43.3306 700.802 43.467 700.714 43.6275C700.522 43.9886 700.265 44.133 699.808 44.133C699.206 44.133 699.15 44.0688 699.15 43.2905V42.6085H699.414C699.735 42.6085 700.016 42.7931 700.048 43.0257C700.064 43.122 700.12 43.2103 700.177 43.2344C700.249 43.2584 700.273 43.0899 700.273 42.5764C700.273 41.9185 700.177 41.6858 700.056 42.0228C699.952 42.3197 699.767 42.4481 699.455 42.4481H699.15V41.7661V41.0841H699.543C700.072 41.0841 700.321 41.1884 700.473 41.4852C700.658 41.8383 700.754 41.7821 700.754 41.3248V40.9236H699.43C698.7 40.9236 698.107 40.9557 698.107 40.9878Z" fill="#FF0000"/>
<path d="M703.723 41.6056C703.723 41.9506 703.715 41.9666 703.482 41.9666C703.322 41.9666 703.242 42.0068 703.242 42.087C703.242 42.1672 703.322 42.2073 703.482 42.2073H703.723V43.1541C703.723 43.9805 703.747 44.125 703.868 44.2373C704.036 44.3897 704.333 44.4138 704.638 44.2934C704.943 44.1811 704.887 44.0527 704.533 44.0527C704.325 44.0527 704.205 44.0126 704.172 43.9244C704.148 43.8522 704.124 43.443 704.124 43.0017V42.2073H704.445C704.678 42.2073 704.766 42.1753 704.766 42.087C704.766 41.9987 704.678 41.9666 704.445 41.9666H704.124V41.6056C704.124 41.2766 704.108 41.2445 703.924 41.2445C703.739 41.2445 703.723 41.2766 703.723 41.6056Z" fill="#FF0000"/>
<path d="M708.256 41.758C707.903 41.9105 707.718 42.1592 707.751 42.424C707.767 42.6005 707.815 42.6486 707.975 42.6486C708.152 42.6486 708.184 42.6085 708.216 42.2876C708.256 41.9667 708.28 41.9265 708.521 41.8543C708.914 41.742 709.211 41.9827 709.243 42.44C709.267 42.7289 709.235 42.8011 709.002 43.0177C708.858 43.1541 708.505 43.4189 708.216 43.5954C707.863 43.8201 707.686 43.9886 707.67 44.1089C707.646 44.2935 707.646 44.2935 708.77 44.2935H709.901V44.0929V43.8923H709.01C707.983 43.8923 707.959 43.8441 708.81 43.451C709.668 43.0578 709.925 42.6888 709.7 42.1512C709.516 41.7019 708.81 41.5093 708.256 41.758Z" fill="#FF0000"/>
<path d="M711.064 41.7982C710.599 42.0389 710.422 42.3679 710.422 43.0098C710.422 43.411 710.462 43.5955 710.607 43.8282C710.944 44.3657 711.859 44.5342 712.38 44.1571C713.046 43.6677 713.038 42.3599 712.364 41.8544C712.059 41.6297 711.457 41.5976 711.064 41.7982ZM712.091 42.0229C712.412 42.3198 712.468 43.427 712.188 43.8603C711.891 44.3176 711.265 44.2614 711.056 43.764C710.896 43.3869 710.912 42.4883 711.08 42.2074C711.313 41.8063 711.754 41.726 712.091 42.0229Z" fill="#FF0000"/>
<path d="M714.081 41.7822C713.72 41.9667 713.512 42.2716 713.431 42.6808C713.255 43.6677 713.849 44.4299 714.739 44.3497C715.445 44.2855 715.863 43.788 715.863 43.0097C715.863 42.2315 715.445 41.734 714.739 41.6698C714.475 41.6458 714.274 41.6779 714.081 41.7822ZM715.052 42.0389C715.301 42.2555 715.317 42.3117 715.341 42.9054C715.365 43.4591 715.349 43.5634 715.181 43.8121C714.932 44.1812 714.635 44.2855 714.354 44.1009C713.776 43.7238 713.76 42.3358 714.322 41.9346C714.587 41.7501 714.755 41.7741 715.052 42.0389Z" fill="#FF0000"/>
<path d="M716.906 41.8062C716.681 41.9025 716.553 42.0228 716.513 42.1592C716.432 42.4882 716.505 42.6486 716.721 42.6486C716.898 42.6486 716.922 42.6166 716.93 42.3277C716.93 42.071 716.97 41.9907 717.131 41.9105C717.403 41.7661 717.548 41.7821 717.796 41.9747C717.957 42.095 718.005 42.2074 718.005 42.44C718.005 42.8332 717.853 43.0338 717.259 43.3788C716.649 43.7318 716.4 43.9565 716.4 44.149C716.4 44.2854 716.489 44.2935 717.524 44.2935H718.647V44.0929V43.9003L717.708 43.8762L716.761 43.8522L717.476 43.4911C718.294 43.0739 718.486 42.8733 718.486 42.44C718.486 41.758 717.692 41.4451 716.906 41.8062Z" fill="#FF0000"/>
<path d="M701.757 41.9828C701.508 42.1111 701.396 42.2957 701.396 42.5685C701.396 42.9215 701.533 43.0659 702.078 43.2906C702.624 43.5072 702.728 43.6195 702.648 43.9164C702.535 44.3657 701.765 44.2373 701.549 43.7399C701.388 43.3869 701.316 43.435 701.316 43.8843C701.316 44.3176 701.252 44.2855 702.174 44.3176C702.712 44.3336 703.001 44.1009 703.001 43.6436C703.001 43.2826 702.8 43.0579 702.367 42.9215C701.91 42.7771 701.717 42.6246 701.717 42.408C701.717 41.9667 702.423 41.9426 702.664 42.3679C702.848 42.6968 702.921 42.6647 702.921 42.2636V41.9186L702.423 41.9105C702.142 41.9025 701.845 41.9346 701.757 41.9828Z" fill="#FF0000"/>
<path d="M705.328 43.8521C705.119 44.1089 705.432 44.502 705.713 44.3255C705.986 44.149 705.889 43.7318 705.568 43.7318C705.488 43.7318 705.384 43.7879 705.328 43.8521Z" fill="#FF0000"/>
<path d="M775.798 17.0859C774.811 17.4229 774.129 18.3375 773.928 19.5972C773.704 21.0414 774.33 22.3412 775.517 22.927C775.91 23.1195 776.071 23.1516 776.656 23.1516C777.258 23.1436 777.403 23.1195 777.876 22.8868C778.438 22.614 778.935 22.1005 779.039 21.6833C779.12 21.3383 778.887 21.3142 778.694 21.6352C778.365 22.1727 777.948 22.5338 777.523 22.6301C776.408 22.9029 775.301 22.1246 775.02 20.8729C774.859 20.1749 774.859 19.8459 775.012 19.0596C775.156 18.2894 775.389 17.8722 775.838 17.5753C776.592 17.0778 777.411 17.1982 777.86 17.8722C777.988 18.0808 778.165 18.4418 778.237 18.6745C778.349 19.0275 778.406 19.0998 778.558 19.0998C778.735 19.0998 778.743 19.0677 778.743 18.5943C778.743 18.3215 778.719 17.8561 778.686 17.5512C778.646 17.0859 778.614 17.0137 778.478 17.0137C778.39 17.0137 778.277 17.0698 778.229 17.134C778.149 17.2383 778.093 17.2383 777.716 17.0939C777.186 16.8933 776.368 16.8853 775.798 17.0859Z" fill="#FF0000"/>
<path d="M816.87 17.0378C816.164 17.2946 815.739 17.9284 815.731 18.7067C815.731 19.501 816.268 20.0225 817.512 20.4077C817.889 20.528 818.29 20.6965 818.411 20.7928C819.125 21.3544 818.964 22.4697 818.138 22.7184C817.689 22.8548 817.015 22.6944 816.653 22.3734C816.381 22.1407 815.971 21.3946 815.971 21.1539C815.971 21.0736 815.899 21.0255 815.771 21.0255C815.578 21.0255 815.57 21.0415 815.57 21.6032C815.57 21.9241 815.594 22.3814 815.618 22.6061C815.667 22.9591 815.699 23.0313 815.835 23.0313C815.923 23.0313 816.036 22.9672 816.092 22.895C816.172 22.7906 816.22 22.7746 816.3 22.8468C816.365 22.895 816.645 22.9993 816.934 23.0715C818.451 23.4646 819.662 22.6783 819.662 21.2903C819.662 20.857 819.63 20.7607 819.406 20.4558C819.173 20.1589 819.012 20.0707 818.082 19.6936C816.822 19.1881 816.629 19.0678 816.485 18.7227C816.092 17.8 816.742 17.0619 817.705 17.3267C818.242 17.4791 818.595 17.9044 818.852 18.7147C818.932 18.9554 818.996 19.0196 819.149 19.0196H819.341V18.0568V17.094H819.141C819.036 17.094 818.916 17.1582 818.868 17.2304C818.812 17.3347 818.764 17.3427 818.683 17.2785C818.491 17.1261 817.793 16.9335 817.464 16.9415C817.279 16.9415 817.015 16.9897 816.87 17.0378Z" fill="#FF0000"/>
<path d="M762.134 17.1661C762.134 17.2864 762.214 17.3266 762.495 17.3667C762.728 17.4068 762.888 17.479 762.936 17.5753C762.984 17.6635 763.016 18.6665 763.016 20.0947C763.016 22.3653 763.008 22.4776 762.856 22.6301C762.768 22.7183 762.591 22.7905 762.455 22.7905C762.294 22.7905 762.214 22.8307 762.214 22.9109C762.214 23.0152 762.407 23.0312 763.458 23.0312C764.461 23.0312 764.701 23.0072 764.701 22.9189C764.701 22.8547 764.573 22.7905 764.364 22.7585C763.827 22.6702 763.819 22.6622 763.819 21.4185V20.3033H764.092C764.437 20.3033 764.669 20.56 765.648 22.0042L766.338 23.0312H768.047C769.114 23.0312 769.756 22.9992 769.756 22.951C769.756 22.9109 769.66 22.8547 769.539 22.8307C769.411 22.8066 769.227 22.7344 769.114 22.6782C768.857 22.5498 768.865 22.1888 769.146 21.5309L769.339 21.0655L770.382 21.0414L771.425 21.0174L771.674 21.6592C772.011 22.5338 772.003 22.606 771.561 22.7183C771.353 22.7745 771.2 22.8547 771.2 22.9189C771.2 23.0072 771.441 23.0312 772.444 23.0312C773.495 23.0312 773.688 23.0152 773.688 22.9109C773.688 22.8387 773.615 22.7905 773.511 22.7905C773.11 22.7905 772.941 22.4616 771.874 19.6935C770.879 17.118 770.831 17.0056 770.639 17.0297C770.454 17.0538 770.374 17.2383 769.58 19.3405C769.098 20.6001 768.665 21.7555 768.609 21.916C768.424 22.4616 768.288 22.59 767.943 22.5659C767.774 22.5498 767.501 22.4536 767.349 22.3493C767.1 22.1727 766.314 21.25 765.592 20.2551L765.343 19.9262L765.672 19.8299C766.113 19.6935 766.603 19.2361 766.707 18.859C766.844 18.3616 766.723 17.8401 766.41 17.5352C765.945 17.0778 765.608 17.0136 763.763 17.0136C762.222 17.0136 762.134 17.0217 762.134 17.1661ZM765.327 17.6475C765.784 17.9684 765.865 18.835 765.496 19.3806C765.247 19.7416 764.83 19.9663 764.276 20.0305L763.819 20.0866V18.7387V17.3908L764.453 17.4309C764.934 17.4549 765.135 17.5111 765.327 17.6475ZM770.919 19.4608C771.128 19.9904 771.313 20.4718 771.337 20.5199C771.369 20.6001 771.168 20.6242 770.478 20.6242C769.652 20.6242 769.58 20.6082 769.628 20.4798C769.997 19.4608 770.438 18.3857 770.486 18.4338C770.518 18.4739 770.719 18.9313 770.919 19.4608Z" fill="#FF0000"/>
<path d="M790.24 17.1261C789.542 17.3508 788.74 18.0568 788.451 18.7148C788.09 19.5412 788.114 20.8651 788.507 21.6674C788.828 22.3093 789.438 22.895 789.975 23.0795C790.545 23.2721 791.476 23.2801 792.021 23.0876C792.583 22.895 793.185 22.4136 793.474 21.9322C794.26 20.6243 793.931 18.3537 792.848 17.5674C792.174 17.086 791.01 16.8854 790.24 17.1261ZM791.789 17.4551C792.158 17.6717 792.503 18.129 792.679 18.6345C792.936 19.3968 792.96 20.9052 792.711 21.523C792.527 22.0044 792.206 22.3815 791.877 22.5179C790.978 22.8789 790.393 22.8067 789.855 22.2692C789.406 21.8198 789.205 21.2662 789.133 20.2633C789.037 18.8672 789.366 17.8643 790.048 17.4631C790.601 17.1422 791.227 17.1341 791.789 17.4551Z" fill="#FF0000"/>
<path d="M825.881 17.0858C825.399 17.2142 825.07 17.3988 824.669 17.7598C823.883 18.4659 823.498 19.5811 823.674 20.6563C823.778 21.2982 823.802 21.3624 824.123 21.8759C824.573 22.5819 825.407 23.0633 826.322 23.1516C826.891 23.2077 827.886 23.0473 828.464 22.8146L828.809 22.6702V21.8678C828.809 21.4265 828.841 21.0173 828.881 20.9612C828.913 20.905 829.05 20.8328 829.178 20.7927C829.307 20.7606 829.419 20.6723 829.435 20.6001C829.459 20.4798 829.331 20.4637 828.135 20.4637C826.859 20.4637 826.803 20.4717 826.803 20.6242C826.803 20.7526 826.859 20.7847 827.044 20.7847C827.341 20.7847 827.726 20.9692 827.798 21.1457C827.822 21.2179 827.846 21.571 827.846 21.916V22.5578L827.469 22.7263C826.394 23.1997 825.247 22.6381 824.878 21.4586C824.436 20.0224 824.709 18.2894 825.471 17.7036C826.057 17.2624 826.94 17.2383 827.509 17.6555C827.91 17.9444 828.111 18.2252 828.28 18.7547C828.4 19.1238 828.448 19.18 828.625 19.18C828.833 19.18 828.833 19.18 828.777 18.6905C828.753 18.4177 828.729 17.9604 828.729 17.6876C828.729 17.1982 828.721 17.1741 828.528 17.1741C828.424 17.1741 828.304 17.2303 828.264 17.2945C828.207 17.4068 828.151 17.3988 827.798 17.2463C827.373 17.0537 826.33 16.9655 825.881 17.0858Z" fill="#FF0000"/>
<path d="M740.968 17.2303C740.984 17.3185 741.121 17.3988 741.337 17.4549C741.522 17.4951 741.714 17.5913 741.754 17.6555C741.803 17.7277 741.835 18.7868 741.835 20.1187V22.4616L741.626 22.6221C741.506 22.7183 741.305 22.7905 741.185 22.7905C741.032 22.7905 740.952 22.8307 740.952 22.9109C740.952 23.0152 741.153 23.0312 742.308 23.0312C743.592 23.0312 743.664 23.0232 743.704 22.8708C743.736 22.7424 743.688 22.6943 743.415 22.6301C742.798 22.4776 742.838 22.6702 742.814 20.0224C742.806 18.3776 742.822 17.5994 742.886 17.5271C742.934 17.471 743.135 17.3988 743.327 17.3667C743.552 17.3346 743.68 17.2784 743.68 17.2062C743.68 17.118 743.423 17.0939 742.308 17.0939C741.064 17.0939 740.944 17.1099 740.968 17.2303Z" fill="#FF0000"/>
<path d="M750.74 17.8962C750.74 18.6906 750.74 18.6986 750.933 18.6986C751.085 18.6986 751.165 18.6023 751.35 18.2493C751.679 17.5913 751.928 17.4148 752.513 17.4148H752.987V19.9904V22.5579L752.706 22.6782C752.554 22.7344 752.321 22.7905 752.184 22.7905C752.024 22.7905 751.944 22.8307 751.944 22.9109C751.944 23.0152 752.152 23.0312 753.356 23.0312C754.648 23.0312 754.76 23.0232 754.736 22.8949C754.72 22.7986 754.592 22.7344 754.351 22.6862C754.15 22.6461 753.942 22.5579 753.893 22.4857C753.813 22.3894 753.789 21.7395 753.789 19.886V17.4148H754.303C754.776 17.4148 754.84 17.4389 755.073 17.6635C755.209 17.7999 755.41 18.0888 755.522 18.3054C755.843 18.9473 755.955 18.843 755.955 17.8962V17.0939H753.348H750.74V17.8962Z" fill="#FF0000"/>
<path d="M779.304 17.8962C779.304 18.8671 779.409 18.9393 779.794 18.2091C780.163 17.5271 780.339 17.3988 780.941 17.4309L781.43 17.4549L781.454 19.7416C781.463 21.0013 781.454 22.1487 781.43 22.2931C781.39 22.5017 781.318 22.59 781.109 22.6782C780.957 22.7424 780.74 22.7905 780.628 22.7905C780.5 22.7905 780.427 22.8387 780.427 22.9109C780.427 23.0152 780.636 23.0312 781.799 23.0312C783.051 23.0312 783.163 23.0232 783.139 22.8949C783.123 22.8066 782.995 22.7344 782.77 22.6862C782.185 22.5739 782.185 22.5819 782.209 19.854L782.233 17.4549L782.722 17.4309C783.147 17.4148 783.244 17.4309 783.452 17.6074C783.581 17.7117 783.789 18.0005 783.91 18.2493C784.094 18.6023 784.174 18.6986 784.327 18.6986C784.519 18.6986 784.519 18.6906 784.519 17.8962V17.0939H781.912H779.304V17.8962Z" fill="#FF0000"/>
<path d="M784.776 17.2303C784.792 17.3105 784.929 17.3988 785.121 17.4549C785.298 17.4951 785.49 17.5673 785.547 17.5994C785.619 17.6475 785.643 18.2332 785.643 20.0626V22.4616L785.434 22.6221C785.314 22.7183 785.113 22.7905 784.993 22.7905C784.84 22.7905 784.76 22.8307 784.76 22.9109C784.76 23.0152 784.969 23.0312 786.164 23.0312C787.504 23.0312 787.568 23.0232 787.568 22.8708C787.568 22.7585 787.48 22.6943 787.231 22.6301C786.606 22.4776 786.646 22.6782 786.622 19.9904L786.606 17.5673L786.886 17.4549C787.039 17.3908 787.24 17.3346 787.328 17.3346C787.416 17.3346 787.488 17.2784 787.488 17.2142C787.488 17.1099 787.28 17.0939 786.116 17.0939C784.873 17.0939 784.752 17.1099 784.776 17.2303Z" fill="#FF0000"/>
<path d="M803.375 17.2385C803.375 17.3588 803.447 17.407 803.711 17.439C803.896 17.4631 804.097 17.5514 804.153 17.6236C804.233 17.7359 804.257 18.3216 804.257 20.0788C804.257 22.2852 804.249 22.3976 804.097 22.55C804.008 22.6383 803.832 22.7105 803.695 22.7105C803.535 22.7105 803.455 22.7506 803.455 22.8308C803.455 22.9351 803.671 22.9512 804.923 22.9512C805.733 22.9512 806.608 22.9111 806.873 22.8629C807.747 22.7024 808.493 22.1408 808.927 21.3304C809.071 21.0496 809.111 20.857 809.111 20.3034C809.111 19.7017 809.079 19.5492 808.838 19.0036C808.469 18.1531 808.148 17.8001 807.41 17.439L806.793 17.1342L805.084 17.1101C803.439 17.086 803.375 17.086 803.375 17.2385ZM806.632 17.6075C807.539 17.9365 807.948 18.5062 808.108 19.6295C808.261 20.8009 808.02 21.7156 807.41 22.221C806.817 22.7105 805.814 22.8308 805.364 22.4698C805.18 22.3253 805.18 22.3093 805.156 19.9825C805.14 18.6907 805.148 17.5835 805.172 17.5273C805.244 17.3428 806.022 17.3909 806.632 17.6075Z" fill="#FF0000"/>
<path d="M820.48 17.2303C820.496 17.3185 820.633 17.3988 820.849 17.4549C821.034 17.4951 821.227 17.5913 821.267 17.6555C821.315 17.7277 821.347 18.7868 821.347 20.1187V22.4616L821.138 22.6221C821.018 22.7183 820.817 22.7905 820.697 22.7905C820.545 22.7905 820.464 22.8307 820.464 22.9109C820.464 23.0152 820.673 23.0312 821.868 23.0312C823.2 23.0312 823.273 23.0232 823.273 22.8788C823.273 22.7264 823.224 22.6943 822.751 22.59C822.302 22.4857 822.31 22.5579 822.31 19.9823C822.31 17.3266 822.286 17.4389 822.871 17.3587C823.064 17.3266 823.192 17.2704 823.192 17.2062C823.192 17.118 822.928 17.0939 821.82 17.0939C820.577 17.0939 820.456 17.1099 820.48 17.2303Z" fill="#FF0000"/>
<path d="M744.081 17.2785C744.081 17.3507 744.225 17.4309 744.426 17.479C745.084 17.6475 745.084 17.6395 745.108 19.9663C745.14 22.3814 745.132 22.4055 744.506 22.6783C744.274 22.7826 744.081 22.9029 744.081 22.951C744.081 22.9992 744.538 23.0313 745.325 23.0313C746.488 23.0313 746.568 23.0233 746.568 22.8788C746.568 22.7184 746.424 22.6301 746.167 22.6301C746.079 22.6301 745.91 22.5419 745.79 22.4375L745.565 22.245L745.549 20.207C745.533 18.4098 745.541 18.1931 745.646 18.3376C748.133 21.7315 749.128 22.9912 749.32 23.0152L749.537 23.0393V20.528C749.537 17.6556 749.545 17.6154 750.171 17.4309C750.781 17.2464 750.532 17.1742 749.256 17.1742C748.285 17.1742 748.013 17.1982 748.013 17.2785C748.013 17.3346 748.189 17.4309 748.406 17.4871C749.096 17.6636 749.096 17.6395 749.12 19.8058C749.136 20.8489 749.12 21.6833 749.096 21.6512C749.072 21.6272 748.317 20.6162 747.419 19.4127L745.79 17.2143L744.94 17.1902C744.242 17.1742 744.081 17.1902 744.081 17.2785Z" fill="#FF0000"/>
<path d="M756.453 17.3105C756.469 17.3988 756.598 17.471 756.798 17.5111C756.975 17.5512 757.167 17.6395 757.223 17.7117C757.296 17.816 757.32 18.4178 757.32 20.0706C757.32 21.2982 757.296 22.3573 757.272 22.4295C757.207 22.59 756.822 22.7905 756.558 22.7905C756.429 22.7905 756.357 22.8387 756.357 22.9109C756.357 23.0152 756.686 23.0312 758.804 23.0312H761.251L761.283 22.8467C761.307 22.7504 761.348 22.3894 761.372 22.0444C761.428 21.2902 761.315 21.226 760.986 21.8518C760.866 22.0765 760.658 22.3974 760.529 22.5498L760.296 22.8307H759.366C758.162 22.8307 758.202 22.8868 758.202 21.4025V20.2792L758.724 20.3193C759.39 20.3755 759.622 20.5279 759.735 20.9853C759.799 21.25 759.863 21.3463 759.976 21.3463C760.12 21.3463 760.128 21.2661 760.128 20.1829C760.128 19.1078 760.12 19.0195 759.984 19.0195C759.879 19.0195 759.807 19.1158 759.743 19.3324C759.614 19.7416 759.342 19.9101 758.708 19.9663L758.202 20.0064V18.7868V17.5753H759.117H760.024L760.353 17.9283C760.529 18.1129 760.698 18.3536 760.73 18.4498C760.754 18.5461 760.85 18.6183 760.938 18.6183C761.075 18.6183 761.091 18.5542 761.091 17.8962V17.1741H758.756C756.606 17.1741 756.429 17.1821 756.453 17.3105Z" fill="#FF0000"/>
<path d="M794.388 17.2945C794.388 17.3587 794.452 17.4148 794.533 17.4148C794.605 17.4148 794.813 17.487 794.99 17.5673C795.487 17.7919 795.528 17.9925 795.495 20.2391C795.471 22.3974 795.447 22.4776 794.805 22.6943C794.621 22.7504 794.468 22.8547 794.468 22.9189C794.468 23.0072 794.685 23.0312 795.672 23.0312C796.819 23.0312 796.875 23.0232 796.875 22.8708C796.875 22.7665 796.803 22.6943 796.659 22.6622C796.53 22.6381 796.37 22.598 796.282 22.5739C796.201 22.5498 796.065 22.3733 795.985 22.1888C795.84 21.8678 795.832 21.6673 795.848 20.0064L795.873 18.1851L797.678 20.6082C799.122 22.5579 799.515 23.0312 799.66 23.0312H799.844V20.5761C799.844 17.7358 799.852 17.6876 800.454 17.4549C800.646 17.3827 800.807 17.2864 800.807 17.2463C800.807 17.2062 800.277 17.1741 799.603 17.1741C798.617 17.1741 798.4 17.1982 798.4 17.2864C798.4 17.3506 798.512 17.4309 798.665 17.4549C799.194 17.5753 799.347 17.7037 799.435 18.1369C799.531 18.5943 799.555 21.6673 799.467 21.6592C799.427 21.6592 798.665 20.6483 797.758 19.4207L796.113 17.1821L795.255 17.1741C794.533 17.1741 794.388 17.1982 794.388 17.2945Z" fill="#FF0000"/>
<path d="M809.97 17.3105C809.986 17.3988 810.114 17.471 810.315 17.5111C810.491 17.5512 810.684 17.6395 810.74 17.7117C810.812 17.816 810.836 18.4178 810.836 20.0706C810.836 21.2982 810.812 22.3573 810.788 22.4295C810.724 22.59 810.339 22.7905 810.074 22.7905C809.946 22.7905 809.874 22.8387 809.874 22.9109C809.874 23.0152 810.202 23.0312 812.321 23.0312C814.214 23.0312 814.784 23.0072 814.808 22.9269C814.824 22.8788 814.856 22.5177 814.888 22.1246C814.928 21.5389 814.92 21.4266 814.816 21.4266C814.752 21.4266 814.68 21.4988 814.648 21.587C814.623 21.6753 814.455 21.9641 814.278 22.2289C813.885 22.8146 813.653 22.9029 812.658 22.8628C811.727 22.8226 811.727 22.8226 811.719 21.4025V20.3033H812.144C812.77 20.3033 813.099 20.4958 813.243 20.9612C813.324 21.226 813.404 21.3463 813.508 21.3463C813.629 21.3463 813.645 21.234 813.645 20.1829C813.645 19.1238 813.629 19.0195 813.5 19.0195C813.404 19.0195 813.324 19.1318 813.243 19.3565C813.091 19.7817 812.746 19.9823 812.144 19.9823H811.719V18.7788V17.5753H812.626H813.532L813.821 17.8561C813.974 18.0086 814.15 18.2412 814.206 18.3776C814.27 18.5221 814.367 18.6183 814.455 18.6183C814.591 18.6183 814.607 18.5461 814.607 17.8962V17.1741H812.273C810.122 17.1741 809.946 17.1821 809.97 17.3105Z" fill="#FF0000"/>
<path d="M829.772 17.2945C829.772 17.3587 829.836 17.4148 829.916 17.4148C829.989 17.4148 830.197 17.487 830.374 17.5673C830.871 17.7919 830.911 17.9925 830.879 20.2391C830.855 22.3974 830.831 22.4776 830.189 22.6943C830.005 22.7504 829.852 22.8547 829.852 22.9189C829.852 23.0072 830.069 23.0312 831.064 23.0312C832.267 23.0312 832.267 23.0312 832.243 22.8547C832.227 22.7103 832.147 22.6622 831.922 22.6221C831.762 22.598 831.569 22.5338 831.505 22.4776C831.28 22.2851 831.208 21.595 831.232 19.862L831.256 18.1771L833.062 20.6082C834.474 22.5097 834.899 23.0312 835.035 23.0312H835.22L835.244 20.4798C835.268 17.6315 835.26 17.6796 835.846 17.4549C836.038 17.3827 836.191 17.2864 836.191 17.2463C836.191 17.2062 835.661 17.1741 834.987 17.1741C834 17.1741 833.784 17.1982 833.784 17.2864C833.784 17.3506 833.896 17.4309 834.048 17.4549C834.185 17.487 834.402 17.5673 834.522 17.6234C834.843 17.7839 834.915 18.3054 834.891 20.1428L834.867 21.7074L833.182 19.4448L831.497 17.1821L830.639 17.1741C829.916 17.1741 829.772 17.1982 829.772 17.2945Z" fill="#FF0000"/>
<path d="M753.148 26.9547C752.361 27.1633 751.808 27.5003 751.142 28.1662C750.091 29.2093 749.738 30.1881 749.746 31.9774C749.746 33.0204 749.77 33.1568 750.002 33.8629C750.299 34.7615 750.62 35.267 751.286 35.8848C753.148 37.6018 756.349 37.313 757.874 35.2911C758.612 34.3122 758.949 33.2852 758.949 31.9774C758.957 30.4289 758.451 29.1291 757.44 28.1181C756.782 27.4521 756.293 27.1553 755.563 26.9467C754.889 26.7621 753.846 26.7621 753.148 26.9547ZM755.234 27.6768C756.381 28.1101 757.023 29.2093 757.248 31.1349C757.352 32.0576 757.304 33.1087 757.127 33.7425C756.943 34.4326 756.469 35.3553 756.132 35.6922C755.964 35.8607 755.603 36.1095 755.346 36.2378C754.937 36.4384 754.784 36.4705 754.191 36.4705C753.613 36.4705 753.445 36.4384 753.067 36.2539C752.265 35.8607 751.599 34.9621 751.334 33.9191C751.214 33.4697 751.182 33.0445 751.182 31.9774C751.182 30.7739 751.206 30.5412 751.366 30.0116C751.768 28.76 752.337 28.0138 753.156 27.7009C753.733 27.4762 754.68 27.4682 755.234 27.6768Z" fill="#FF0000"/>
<path d="M819.181 26.9548C818.387 27.1714 817.841 27.5004 817.175 28.1663C816.116 29.2254 815.771 30.1802 815.779 31.9775C815.779 32.9804 815.803 33.173 816.004 33.7828C816.284 34.6413 816.533 35.0665 817.079 35.6442C817.608 36.2059 818.098 36.5268 818.74 36.7354C821.476 37.6501 824.115 36.1818 824.837 33.3415C825.166 32.0658 824.974 30.4691 824.332 29.2575C824.019 28.6558 823.249 27.7732 822.711 27.4041C821.917 26.8585 820.304 26.6499 819.181 26.9548ZM821.251 27.6368C822.302 28.0059 822.936 28.9125 823.281 30.5333C823.433 31.2554 823.417 33.1569 823.249 33.7106C822.88 34.9622 822.174 35.925 821.371 36.2941C820.834 36.5428 819.783 36.5428 819.253 36.3021C818.467 35.9331 817.865 35.211 817.528 34.216C817.344 33.6624 817.311 33.4137 817.271 32.2984C817.239 31.1671 817.255 30.9344 817.408 30.3327C817.889 28.407 818.804 27.5325 820.312 27.5245C820.649 27.5245 821.074 27.5726 821.251 27.6368Z" fill="#FF0000"/>
<path d="M776.897 27.1554C776.897 27.4041 776.921 27.4282 777.21 27.4763C777.386 27.5004 777.691 27.5967 777.9 27.685C778.518 27.9497 778.526 27.9738 778.566 31.4078C778.59 33.4137 778.574 34.3525 778.518 34.3123C778.477 34.2883 777.218 32.6194 775.733 30.6135L773.037 26.9628H771.633H770.237V27.2276C770.237 27.4844 770.253 27.4924 770.703 27.5887C771.272 27.709 771.722 28.054 771.842 28.4713C771.906 28.6718 771.922 29.8834 771.906 32.2022L771.882 35.6442L771.625 35.8689C771.473 36.0053 771.2 36.1337 770.927 36.1979C770.494 36.2941 770.478 36.3022 770.478 36.5669V36.8317H772.492H774.498L774.474 36.6151C774.45 36.4305 774.385 36.3904 773.936 36.2701C773.655 36.1898 773.334 36.0615 773.222 35.9732C772.805 35.6603 772.773 35.4517 772.741 32.0577C772.717 28.9446 772.717 28.9286 772.869 29.0891C772.957 29.1773 774.297 30.9666 775.854 33.0607L778.678 36.8718H778.967H779.264L779.304 32.5793C779.336 29.2094 779.368 28.2466 779.448 28.1022C779.577 27.8695 780.13 27.6127 780.483 27.6047C780.772 27.6047 780.788 27.5887 780.86 27.1795L780.917 26.8826H778.903H776.897V27.1554Z" fill="#FF0000"/>
<path d="M781.711 27.1473C781.711 27.4121 781.727 27.4281 782.056 27.4762C782.562 27.5565 782.899 27.7892 782.955 28.1021C782.979 28.2465 782.995 30.0598 782.979 32.1218L782.955 35.8848L782.778 36.0293C782.682 36.1095 782.433 36.1978 782.225 36.2298C781.687 36.3101 781.631 36.3422 781.631 36.607V36.8477L784.222 36.8075C787.119 36.7674 787.255 36.7514 788.451 36.1737C789.638 35.596 790.529 34.5048 790.818 33.2933C790.97 32.6273 790.97 31.3756 790.818 30.5893C790.473 28.8964 789.341 27.733 787.448 27.1152C786.926 26.9467 786.71 26.9306 784.303 26.8986L781.711 26.8665V27.1473ZM786.028 27.6768C786.806 27.7731 787.681 28.1903 788.114 28.6878C788.499 29.1211 788.956 30.0357 789.133 30.6937C789.309 31.3917 789.285 32.3304 789.053 33.3655C788.828 34.4005 788.675 34.7214 788.17 35.2911C787.697 35.8126 787.103 36.1095 786.349 36.1897C785.49 36.286 784.864 36.1737 784.567 35.8688L784.319 35.6281L784.295 31.7207C784.279 29.5784 784.287 27.7731 784.311 27.7089C784.359 27.5886 785.105 27.5725 786.028 27.6768Z" fill="#FF0000"/>
<path d="M795.872 27.2598C795.311 28.7682 794.019 32.122 793.409 33.6625C792.575 35.7968 792.43 36.0054 791.652 36.222C791.211 36.3504 791.179 36.3744 791.179 36.5991V36.8318H793.024H794.87V36.5991C794.87 36.3825 794.853 36.3744 794.412 36.3263C793.449 36.23 793.337 35.869 793.81 34.4247L794.115 33.502L795.84 33.478L797.557 33.4619L797.991 34.5611C798.223 35.1709 798.424 35.7406 798.432 35.8289C798.44 36.0214 798.127 36.1819 797.614 36.2621C797.261 36.3103 797.236 36.3263 797.212 36.575L797.188 36.8318H799.242H801.296L801.272 36.575C801.248 36.3263 801.224 36.3103 800.871 36.2541C800.35 36.1819 800.069 35.9572 799.82 35.4116C799.708 35.1549 798.937 33.1972 798.119 31.0549C797.293 28.9126 796.587 27.0993 796.546 27.0191C796.498 26.9388 796.378 26.8827 796.242 26.8827C796.041 26.8827 795.993 26.9308 795.872 27.2598ZM796.627 30.9907L797.333 32.7799L795.888 32.804C795.094 32.812 794.436 32.812 794.42 32.796C794.388 32.7719 795.712 29.3379 795.808 29.1854C795.832 29.1453 795.864 29.1373 795.888 29.1533C795.905 29.1774 796.242 30.0038 796.627 30.9907Z" fill="#FF0000"/>
<path d="M832.291 26.9949C832.186 27.2758 832.299 27.3881 832.893 27.5566C833.599 27.7572 833.751 27.9176 833.863 28.6077C833.984 29.3378 833.968 34.4006 833.847 34.2802C833.799 34.2321 832.556 32.5712 831.095 30.5975L828.44 27.003H827.035H825.639L825.615 27.2437C825.591 27.4844 825.599 27.4924 826.073 27.5887C826.602 27.701 826.963 27.9497 827.188 28.3589C827.308 28.5756 827.324 28.9286 827.348 31.0147C827.364 32.3386 827.34 33.9192 827.3 34.529C827.212 35.8368 827.148 35.9491 826.369 36.1738C825.912 36.3102 825.88 36.3343 825.856 36.575L825.832 36.8317H827.846H829.86L829.836 36.6552C829.82 36.5188 829.707 36.4546 829.298 36.3503C829.017 36.2701 828.696 36.1417 828.584 36.0534C828.175 35.7485 828.143 35.5239 828.103 32.146C828.078 30.0358 828.095 29.0409 828.151 29.057C828.199 29.073 829.563 30.8382 831.176 32.9804C834.112 36.8638 834.12 36.8718 834.417 36.8718H834.706L834.746 32.5793C834.778 29.2094 834.81 28.2466 834.89 28.1022C835.027 27.8615 835.58 27.6127 835.974 27.6047H836.27V27.2437V26.8826H834.305C832.66 26.8826 832.323 26.8987 832.291 26.9949Z" fill="#FF0000"/>
<path d="M741.193 27.2437C741.193 27.5005 741.217 27.5246 741.418 27.5246C741.763 27.5246 742.164 27.669 742.372 27.8615L742.557 28.03V31.9054C742.557 36.3744 742.605 36.0856 741.779 36.23C741.329 36.3103 741.313 36.3263 741.289 36.575L741.265 36.8318H743.351H745.445V36.5911C745.445 36.3825 745.421 36.3504 745.213 36.3504C744.836 36.3504 744.29 36.0776 744.178 35.8369C744.113 35.6844 744.081 35.0827 744.081 33.9032V32.1782H744.996C745.806 32.1782 745.935 32.1942 746.175 32.3627C746.488 32.5713 746.601 32.7719 746.753 33.3897C746.857 33.7909 746.89 33.823 747.122 33.8471L747.371 33.8711V31.9455V30.0118H747.138C746.922 30.0118 746.89 30.0439 746.769 30.4692C746.52 31.3197 746.256 31.4721 744.964 31.4882L744.041 31.4962V29.5304V27.5647H745.365C746.216 27.5727 746.793 27.6048 746.986 27.669C747.363 27.8054 747.74 28.2226 748.093 28.9046C748.334 29.378 748.406 29.4502 748.599 29.4502H748.815V28.3831C748.815 27.8054 748.791 27.2437 748.767 27.1394L748.719 26.9629H744.956H741.193V27.2437Z" fill="#FF0000"/>
<path d="M760.048 27.2839C760.048 27.4122 760.08 27.5246 760.128 27.5246C760.168 27.5246 760.409 27.5968 760.658 27.6931C761.348 27.9498 761.332 27.8535 761.332 31.5604C761.332 35.1388 761.34 35.187 761.933 35.8529C762.912 36.9361 765.223 37.2971 766.675 36.5911C767.389 36.2461 767.863 35.7887 768.168 35.1629L768.432 34.6253L768.472 31.4561C768.521 27.7091 768.456 27.9498 769.419 27.661C769.973 27.4925 770.037 27.4523 770.061 27.2598L770.085 27.0432H768.119H766.146V27.2758C766.146 27.4844 766.178 27.5085 766.683 27.6369C766.98 27.7091 767.301 27.8455 767.405 27.9418C767.766 28.2788 767.79 28.5114 767.79 31.5363C767.79 34.3124 767.782 34.3927 767.606 34.8339C767.413 35.3234 766.812 35.9572 766.41 36.1177C766.033 36.2701 765.247 36.3343 764.669 36.2621C763.739 36.1418 763.065 35.5801 762.856 34.7457C762.8 34.505 762.776 33.3175 762.792 31.1592C762.816 27.4764 762.752 27.7893 763.586 27.6128C764.036 27.5246 764.06 27.5085 764.06 27.2839V27.0432H762.054H760.048V27.2839Z" fill="#FF0000"/>
<path d="M810.114 27.2678C810.114 27.4844 810.146 27.5005 810.692 27.6449C811.037 27.7332 811.35 27.8696 811.454 27.9739L811.639 28.1584V31.9936C811.639 34.1038 811.607 35.869 811.575 35.9171C811.478 36.0615 811.221 36.1658 810.804 36.23C810.251 36.3103 810.194 36.3424 810.194 36.5991V36.8318H812.321H814.447V36.6312C814.447 36.4707 814.407 36.4306 814.246 36.4306C813.957 36.4306 813.243 36.1418 813.115 35.9733C812.971 35.7807 812.947 28.4152 813.099 28.1424C813.235 27.8776 813.396 27.7893 813.99 27.6449C814.495 27.5165 814.527 27.4925 814.527 27.2758V27.0432H812.321H810.114V27.2678Z" fill="#FF0000"/>
<path d="M801.288 28.4473V29.7711H801.497C801.633 29.7711 801.721 29.723 801.745 29.6187C801.818 29.3218 802.219 28.6398 802.564 28.2066C802.957 27.7171 803.254 27.6048 804.128 27.6048H804.658V31.7289V35.8609L804.457 36.0134C804.345 36.1017 804.056 36.1979 803.807 36.23C803.182 36.3022 803.133 36.3343 803.133 36.5991V36.8318H805.42H807.707V36.5991C807.707 36.3744 807.595 36.2701 807.33 36.2701C807.266 36.2701 807.009 36.214 806.768 36.1418C806.07 35.9412 806.094 36.1257 806.118 31.5202L806.142 27.5647L806.383 27.5406C806.856 27.4844 807.619 27.6128 807.883 27.7893C808.252 28.0461 808.726 28.696 808.926 29.2255L809.095 29.6909H809.44H809.793V28.4071V27.1234H805.541H801.288V28.4473Z" fill="#FF0000"/>
<defs>
<clipPath id="clip0_1476_14896">
<rect width="96" height="35.875" fill="white" transform="translate(234.813 7.26953)"/>
</clipPath>
<clipPath id="clip1_1476_14896">
<rect width="38" height="38" fill="white" transform="translate(393.916 6.20703)"/>
</clipPath>
</defs>
</svg>
