<svg width="14" height="44" viewBox="0 0 14 44" fill="none" xmlns="http://www.w3.org/2000/svg">
<path d="M13.3493 43.1289C10.6087 41.0962 7.89703 39.0288 5.22238 36.9166L5.0125 36.7509C5.86376 34.6589 6.66307 32.5456 7.54802 30.4692C7.54802 30.4692 9.42861 25.9628 9.81422 25.0393C7.58305 24.3935 5.36319 23.7118 3.14679 23.0201L2.80405 22.9137L2.76902 22.5656C2.01917 15.2541 1.32216 7.64488 0.907227 0.324429C2.04234 7.44228 2.97497 14.9038 3.7913 22.0944C6.29671 22.8219 8.80122 23.5618 11.2874 24.3543L11.0477 24.9028C9.55062 28.328 7.4803 33.1344 5.89924 36.5405C8.41427 38.6986 10.8964 40.8947 13.3493 43.1289Z" fill="#040606"/>
</svg>
