<svg width="45" height="51" viewBox="0 0 45 51" fill="none" xmlns="http://www.w3.org/2000/svg">
<path d="M43.8551 16.559C43.7823 16.4359 42.8645 14.9841 42.7324 15.1912C43.8025 13.5122 44.6005 11.7548 43.8372 9.73888C43.1566 7.93563 41.2034 6.63499 39.2949 6.90923C40.2228 4.70973 39.6844 1.97182 37.992 0.288342C37.889 1.71437 36.4708 2.69604 35.0884 3.06542C33.1598 3.57919 31.1215 3.32845 29.1347 3.14265C26.1976 2.86841 23.2181 2.74529 20.3101 3.24004C16.2752 3.92619 7.58895 5.10036 5.83081 12.0626C4.58521 12.4645 1.80165 14.9293 1.11606 17.4321C0.00422657 21.4908 0.506581 27.561 3.0928 33.3244C5.93927 39.6688 9.76516 46.4117 10.9242 48.1735C12.0839 49.9342 14.1363 50.2566 14.1363 50.2566L13.1437 42.306L12.2998 36.7809C12.2998 36.7809 16.3775 32.2745 16.3701 28.246C16.3658 25.9469 15.9128 24.1358 15.41 22.8306C17.2792 22.7691 19.1479 22.7075 21.0166 22.6448C23.2584 22.5709 25.5002 22.5027 27.7422 22.4232C30.0973 22.3392 32.88 22.4433 35.131 23.2605C37.4614 24.1055 39.8792 24.0104 42.0194 22.6952C43.235 21.9486 44.3879 20.8337 44.5155 19.4122C44.605 18.4104 44.3633 17.4097 43.8551 16.559Z" fill="#17282F"/>
</svg>
