<svg width="27" height="32" viewBox="0 0 27 32" fill="none" xmlns="http://www.w3.org/2000/svg">
<path d="M15.1895 22.6912L0.490389 31.178C0.35383 31.2563 0.244141 31.4892 0.244141 31.6996C0.244141 31.9089 0.35383 32.0153 0.490389 31.9358L15.1895 23.449C15.3261 23.3707 15.4358 23.1378 15.4358 22.9285C15.4358 22.7181 15.3261 22.6129 15.1895 22.6912ZM26.1232 13.5921L0.490389 28.3909C0.35383 28.4692 0.244141 28.7031 0.244141 28.9125C0.244141 29.1218 0.35383 29.2281 0.490389 29.1498L26.1232 14.3499C26.2597 14.2716 26.3694 14.0387 26.3694 13.8283C26.3694 13.619 26.2597 13.5127 26.1232 13.5921ZM0.490389 24.1922L9.69133 18.8799C9.82677 18.8015 9.93758 18.5687 9.93758 18.3582C9.93758 18.1489 9.82677 18.0426 9.69133 18.1221L0.490389 23.4333C0.35383 23.5128 0.244141 23.7456 0.244141 23.9549C0.244141 24.1642 0.35383 24.2706 0.490389 24.1922ZM26.1232 5.84747L0.490389 20.6473C0.35383 20.7257 0.244141 20.9585 0.244141 21.1678C0.244141 21.3782 0.35383 21.4835 0.490389 21.4051L26.1232 6.60635C26.2597 6.528 26.3694 6.29407 26.3694 6.08475C26.3694 5.87544 26.2597 5.76911 26.1232 5.84747ZM26.1232 3.0603L0.490389 17.859C0.35383 17.9374 0.244141 18.1713 0.244141 18.3807C0.244141 18.59 0.35383 18.6963 0.490389 18.6179L26.1232 3.8181C26.2597 3.73975 26.3694 3.50693 26.3694 3.2965C26.3694 3.08718 26.2597 2.98195 26.1232 3.0603ZM0.490389 15.8308L26.1232 1.03209C26.2597 0.952612 26.3694 0.719772 26.3694 0.510458C26.3694 0.301142 26.2597 0.194818 26.1232 0.273172L0.490389 15.0719C0.35383 15.1514 0.244141 15.3842 0.244141 15.5935C0.244141 15.8028 0.35383 15.9092 0.490389 15.8308Z" fill="#DADBD8"/>
</svg>
