<svg width="27" height="33" viewBox="0 0 27 33" fill="none" xmlns="http://www.w3.org/2000/svg">
<path d="M15.1579 23.1926L0.457701 31.6794C0.322262 31.7589 0.211426 31.9917 0.211426 32.2011C0.211426 32.4104 0.322262 32.5167 0.457701 32.4383L15.1579 23.9515C15.2933 23.8732 15.4042 23.6392 15.4042 23.4299C15.4042 23.2206 15.2933 23.1143 15.1579 23.1926ZM26.0916 14.0936L0.457701 28.8923C0.322262 28.9718 0.211426 29.2046 0.211426 29.4139C0.211426 29.6243 0.322262 29.7296 0.457701 29.6512L26.0916 14.8525C26.227 14.773 26.3378 14.5402 26.3378 14.3309C26.3378 14.1215 26.227 14.0152 26.0916 14.0936ZM0.457701 24.6937L9.65863 19.3824C9.79519 19.303 9.90488 19.0701 9.90488 18.8608C9.90488 18.6515 9.79519 18.5452 9.65863 18.6235L0.457701 23.9359C0.322262 24.0142 0.211426 24.247 0.211426 24.4575C0.211426 24.6668 0.322262 24.7731 0.457701 24.6937ZM26.0916 6.34999L0.457701 21.1487C0.322262 21.2271 0.211426 21.461 0.211426 21.6703C0.211426 21.8797 0.322262 21.986 0.457701 21.9077L26.0916 7.10778C26.227 7.02943 26.3378 6.79662 26.3378 6.58618C26.3378 6.37687 26.227 6.27164 26.0916 6.34999ZM26.0916 3.56174L0.457701 18.3616C0.322262 18.4399 0.211426 18.6728 0.211426 18.8821C0.211426 19.0925 0.322262 19.1977 0.457701 19.1194L26.0916 4.32065C26.227 4.2423 26.3378 4.00837 26.3378 3.79905C26.3378 3.58974 26.227 3.48339 26.0916 3.56174ZM0.457701 16.3322L26.0916 1.53352C26.227 1.45516 26.3378 1.22232 26.3378 1.01189C26.3378 0.802574 26.227 0.696251 26.0916 0.774605L0.457701 15.5744C0.322262 15.6528 0.211426 15.8856 0.211426 16.096C0.211426 16.3054 0.322262 16.4117 0.457701 16.3322Z" fill="#DADBD8"/>
</svg>
