<svg width="49" height="85" viewBox="0 0 49 85" fill="none" xmlns="http://www.w3.org/2000/svg">
<path d="M42.1315 65.3074L22.2891 52.2649C22.2891 52.2649 30.2184 35.9383 32.6071 29.9409C33.5301 21.9007 34.3853 3.94766 27.5627 0.185577C18.9298 2.89773 17.1196 7.67841 15.0357 13.7262C11.8889 22.8599 4.13005 39.7171 1.42876 49.6837C0.0199652 54.8796 0.29196 59.8932 6.51826 64.9145C11.2488 68.7303 31.9294 74.0975 40.6566 80.2919C42.8673 81.8612 45.2897 83.8906 46.9914 84.7111C47.2332 84.8286 47.5944 84.7737 47.9538 84.7189C48.2979 84.6663 48.6398 84.6137 48.8737 84.7111L42.1315 65.3074Z" fill="#DB745E"/>
</svg>
