<svg width="27" height="33" viewBox="0 0 27 33" fill="none" xmlns="http://www.w3.org/2000/svg">
<path d="M15.1895 23.2959L0.490389 31.7827C0.35383 31.8611 0.244141 32.095 0.244141 32.3043C0.244141 32.5136 0.35383 32.62 0.490389 32.5416L15.1895 24.0548C15.3261 23.9753 15.4358 23.7425 15.4358 23.5332C15.4358 23.3239 15.3261 23.2175 15.1895 23.2959ZM26.1232 14.1968L0.490389 28.9956C0.35383 29.075 0.244141 29.3078 0.244141 29.5172C0.244141 29.7265 0.35383 29.8328 0.490389 29.7545L26.1232 14.9546C26.2597 14.8763 26.3694 14.6434 26.3694 14.4341C26.3694 14.2237 26.2597 14.1185 26.1232 14.1968ZM0.490389 24.7969L9.69133 19.4846C9.82677 19.4062 9.93758 19.1734 9.93758 18.9641C9.93758 18.7536 9.82677 18.6484 9.69133 18.7268L0.490389 24.0391C0.35383 24.1175 0.244141 24.3503 0.244141 24.5596C0.244141 24.7701 0.35383 24.8753 0.490389 24.7969ZM26.1232 6.45214L0.490389 21.252C0.35383 21.3303 0.244141 21.5632 0.244141 21.7736C0.244141 21.9829 0.35383 22.0893 0.490389 22.0098L26.1232 7.21106C26.2597 7.1327 26.3694 6.89877 26.3694 6.68946C26.3694 6.48014 26.2597 6.37379 26.1232 6.45214ZM26.1232 3.66501L0.490389 18.4637C0.35383 18.5432 0.244141 18.776 0.244141 18.9853C0.244141 19.1958 0.35383 19.301 0.490389 19.2226L26.1232 4.42392C26.2597 4.34445 26.3694 4.11161 26.3694 3.90229C26.3694 3.69298 26.2597 3.58666 26.1232 3.66501ZM0.490389 16.4355L26.1232 1.63676C26.2597 1.55729 26.3694 1.32448 26.3694 1.11516C26.3694 0.905846 26.2597 0.799522 26.1232 0.877876L0.490389 15.6777C0.35383 15.7561 0.244141 15.9889 0.244141 16.1982C0.244141 16.4086 0.35383 16.5139 0.490389 16.4355Z" fill="#DADBD8"/>
</svg>
