<svg width="18" height="41" viewBox="0 0 18 41" fill="none" xmlns="http://www.w3.org/2000/svg">
<path d="M13.4595 40.8018C14.3169 37.5803 15.2583 34.3846 16.2265 31.1956C14.1725 28.6469 12.1577 26.068 10.1675 23.47L9.94704 23.1834L10.1261 22.8644L12.4331 18.7598C11.7682 17.1469 10.9813 15.5809 10.1284 14.0452C7.34235 9.2186 3.9586 4.78491 0.30957 0.556061C5.8223 5.73858 10.7675 11.7808 13.6856 18.8259L13.5513 19.0654L11.2667 23.095C13.1965 25.6672 15.1061 28.2551 16.9742 30.8744L17.1007 31.0524L17.0347 31.2359C15.8896 34.4417 14.7176 37.6363 13.4595 40.8018Z" fill="#040606"/>
</svg>
