<svg width="27" height="33" viewBox="0 0 27 33" fill="none" xmlns="http://www.w3.org/2000/svg">
<path d="M15.1579 22.7972L0.457701 31.2852C0.322262 31.3635 0.211426 31.5963 0.211426 31.8057C0.211426 32.0161 0.322262 32.1213 0.457701 32.0429L15.1579 23.5561C15.2933 23.4778 15.4042 23.245 15.4042 23.0357C15.4042 22.8252 15.2933 22.72 15.1579 22.7972ZM26.0916 13.6993L0.457701 28.498C0.322262 28.5764 0.211426 28.8092 0.211426 29.0196C0.211426 29.2289 0.322262 29.3342 0.457701 29.2558L26.0916 14.4571C26.227 14.3787 26.3378 14.1448 26.3378 13.9355C26.3378 13.7261 26.227 13.6198 26.0916 13.6993ZM0.457701 24.2994L9.65863 18.987C9.79519 18.9087 9.90488 18.6747 9.90488 18.4654C9.90488 18.2561 9.79519 18.1498 9.65863 18.2281L0.457701 23.5405C0.322262 23.6188 0.211426 23.8528 0.211426 24.0621C0.211426 24.2714 0.322262 24.3777 0.457701 24.2994ZM26.0916 5.9546L0.457701 20.7533C0.322262 20.8328 0.211426 21.0656 0.211426 21.2749C0.211426 21.4843 0.322262 21.5906 0.457701 21.5122L26.0916 6.71351C26.227 6.63404 26.3378 6.40122 26.3378 6.19191C26.3378 5.98147 26.227 5.87624 26.0916 5.9546ZM26.0916 3.16746L0.457701 17.9662C0.322262 18.0445 0.211426 18.2785 0.211426 18.4878C0.211426 18.6971 0.322262 18.8035 0.457701 18.724L26.0916 3.92525C26.227 3.8469 26.3378 3.61294 26.3378 3.40363C26.3378 3.19431 26.227 3.08799 26.0916 3.16746ZM0.457701 15.938L26.0916 1.13809C26.227 1.05974 26.3378 0.826929 26.3378 0.616493C26.3378 0.407179 26.227 0.301977 26.0916 0.380329L0.457701 15.1791C0.322262 15.2585 0.211426 15.4913 0.211426 15.7007C0.211426 15.91 0.322262 16.0163 0.457701 15.938Z" fill="#DADBD8"/>
</svg>
