<svg width="59" height="92" viewBox="0 0 59 92" fill="none" xmlns="http://www.w3.org/2000/svg">
<path d="M16.4688 91.1162L16.4059 91.0782L12.1738 83.742L2.68621 89.2357C2.56901 89.3062 2.45048 89.36 2.32679 89.4115L2.27205 89.4305C2.06531 89.5088 1.87032 89.5491 1.69235 89.5491C0.752668 89.5491 0.679688 88.4231 0.679688 88.0772V36.4983C0.679688 35.7282 0.945531 34.845 1.42864 34.0122C1.88868 33.2018 2.53264 32.5179 3.19685 32.134L56.6722 1.23699C57.0233 1.03551 57.3653 0.929176 57.6599 0.929176C58.2541 0.929176 58.5055 1.35561 58.611 1.71381L58.6223 1.75299C58.6599 2.00932 58.6796 2.20184 58.6796 2.39549V53.9745C58.6796 55.6512 58.6796 56.8612 56.4143 58.1574L20.8137 78.7476L16.5467 91.0625L16.4688 91.1162Z" fill="#FAFAF9"/>
</svg>
