<svg width="82" height="65" viewBox="0 0 82 65" fill="none" xmlns="http://www.w3.org/2000/svg">
<path d="M50.9923 57.2023C45.6575 65.7831 40.2713 65.2705 34.0735 62.3389C23.6469 57.4094 9.01273 47.4719 9.01273 47.4719C9.01273 47.4719 -1.58513 30.1457 0.339008 20.4803C10.0571 18.677 13.3737 21.4418 24.8625 30.5397C31.7923 36.0267 39.4396 42.0364 39.4396 42.0364C39.4396 42.0364 49.5976 31.0266 51.205 27.6899C52.8112 24.3543 53.663 22.4022 54.4309 20.0952C55.2446 17.6461 56.9136 14.8377 57.6546 13.4889C59.3795 10.3469 61.5465 7.49487 63.3979 4.43796C63.5299 4.22081 63.6699 3.99469 63.8881 3.86709C64.7344 3.37346 65.3399 4.57339 65.5414 5.21365C65.8145 6.0845 65.5537 7.05161 65.2571 7.89894C64.8653 9.02163 64.4299 10.1152 64.0247 11.2379C63.9184 11.5357 63.4527 12.5207 63.8064 12.7703C64.1814 13.0367 64.8049 12.083 64.9896 11.8603C65.7406 10.9559 66.3955 9.97756 67.0492 9.00262C68.6845 6.56247 70.3198 4.1223 71.9552 1.68215C72.1802 1.34523 72.4108 1.00385 72.7253 0.74976C73.9812 -0.26548 75.3143 0.955719 74.9046 2.7377C74.7949 3.2123 74.6427 3.67456 74.4435 4.11894C73.8278 5.49572 73.1316 6.83558 72.3615 8.13177C72.0414 8.67017 71.7168 9.17835 71.4739 9.75481C71.4257 9.86786 71.0776 10.6637 71.4705 10.5216L71.6955 10.3212C72.8999 8.7295 73.9443 7.02698 75.0322 5.35693C75.5841 4.50959 76.146 3.66896 76.7448 2.85521C77.1456 2.31121 77.7276 1.19189 78.4641 1.0766C78.7104 1.03854 78.9611 1.11018 79.1839 1.22099C79.8745 1.56799 80.339 2.34256 80.3222 3.1149C80.3133 3.5492 80.2181 4.02381 80.1028 4.44244C80.0234 4.73347 79.7995 5.24501 79.5712 5.70282C80.62 5.05584 81.6766 6.19309 81.6039 7.27549C81.493 8.92763 80.5942 10.216 79.5241 11.8536C78.313 13.7061 77.7175 14.606 75.7923 17.3002C75.4173 17.8252 75.424 18.3278 75.9467 17.8095C76.3911 17.3696 76.7728 16.9365 77.1679 16.4484C77.6526 15.8485 77.7959 15.647 78.3164 15.0146C79.0048 14.1784 80.1118 12.4569 80.6737 12.317C81.2054 12.1849 81.68 12.7893 81.8053 13.2762C81.9016 13.6467 81.8333 14.0396 81.7393 14.4113C81.1349 16.7977 79.5185 18.7789 77.9257 20.656C76.6508 22.157 75.3636 23.648 74.0763 25.1389C71.7101 27.8791 68.9419 30.2577 66.4895 31.9288C61.4894 35.3361 56.3259 48.6215 50.9923 57.2023Z" fill="#F8A39A"/>
</svg>
