<svg width="147" height="219" viewBox="0 0 147 219" fill="none" xmlns="http://www.w3.org/2000/svg">
<path d="M144.397 0.0577087C143.974 0.0577087 143.499 0.195389 142.993 0.484177L4.05889 80.4495C2.31609 81.4547 0.894531 83.9138 0.894531 87.4353V217.171C0.894531 215.786 0.897893 215.688 0.897893 215.688V215.689V216.38C0.897893 217.238 1.37696 217.923 2.03625 218.281L2.17058 218.371L2.33736 218.465L2.60712 218.558C2.74144 218.589 2.87688 218.609 3.0112 218.609L3.05485 218.61C3.36603 218.61 3.7119 218.506 4.05889 218.308L4.14172 218.261L4.14955 218.258L7.16393 216.517L142.993 138.291C144.736 137.285 146.157 134.837 146.157 132.813V2.30983C146.157 2.17551 146.147 2.04005 146.136 1.91582C146.126 1.81172 146.116 1.7188 146.085 1.62477L146.075 1.56209C146.064 1.45911 146.033 1.36508 146.002 1.28226C145.96 1.13786 145.898 1.00244 145.815 0.878189L145.711 0.712524L145.618 0.598358L145.411 0.390182L145.389 0.368912L145.12 0.214401C144.901 0.11142 144.659 0.0577087 144.397 0.0577087ZM144.397 0.963287C144.524 0.963287 144.634 0.985641 144.753 1.04161L144.809 1.07074L144.84 1.10097L144.894 1.14233L144.972 1.24536L144.987 1.25652L144.993 1.27892L145.062 1.3808L145.123 1.50836L145.103 1.54646L145.188 1.79941L145.19 1.82181L145.206 1.85204L145.223 1.90352L145.234 1.99194C145.243 2.0927 145.252 2.20125 145.252 2.30983V132.813C145.252 134.509 144.01 136.658 142.541 137.506L6.71171 215.732L3.78354 217.424L3.77794 217.425L3.68951 217.476L3.61004 217.522C3.40856 217.637 3.20707 217.703 3.01455 217.703H3.0112L2.803 217.673L2.74367 217.654L2.65636 217.606L2.58697 217.559L2.53883 217.528L2.50414 217.504L2.46832 217.484C2.05193 217.259 1.80343 216.846 1.80343 216.38V215.689V214.782H1.80119V87.4353C1.80119 84.0168 3.20149 81.9908 4.51111 81.2341L143.441 1.2711C143.794 1.06963 144.125 0.963287 144.397 0.963287Z" fill="#00977D"/>
</svg>
