<svg width="12" height="25" viewBox="0 0 12 25" fill="none" xmlns="http://www.w3.org/2000/svg">
<path d="M11.2927 10.4438C11.0325 9.18235 10.6141 7.99473 10.0986 6.82278C9.84502 6.24744 9.71596 5.62397 9.63637 5.00162C9.56686 4.4621 9.71641 3.58566 9.51751 3.09539C9.1629 2.22231 7.2513 2.08801 6.51019 1.90779C5.15736 1.57759 3.80453 1.24737 2.4517 0.91717C1.94319 0.792925 1.43076 0.668686 0.907802 0.64518C0.752551 0.638464 0.586892 0.64406 0.457049 0.72913C0.279075 0.846661 0.219638 1.09066 0.26027 1.29997C0.300902 1.50929 0.422906 1.69287 0.544914 1.86749C0.885975 2.35663 1.25189 2.82901 1.64019 3.28122C1.99043 3.68978 2.94007 4.6468 2.47577 5.23221C2.0643 5.75047 1.00395 5.28481 0.678675 5.86127C0.502492 6.17468 0.703187 6.56197 0.923584 6.84628C1.76432 7.92644 2.96715 8.70999 3.67771 9.88081C3.95183 10.3319 3.87751 10.8423 3.34101 10.9845C2.70612 11.1535 2.01314 10.7606 1.40143 10.6543C1.09316 10.6005 0.664684 10.6946 0.658528 11.008C0.655058 11.177 0.788929 11.3135 0.913063 11.4288C1.72279 12.1799 2.53263 12.931 3.34236 13.6821C3.92654 14.2238 4.56579 14.9682 4.29771 15.7181C4.25573 15.8368 4.19193 15.9465 4.15566 16.0663C4.05201 16.4121 4.19328 16.7894 4.40618 17.0804C4.61907 17.3714 4.90025 17.6065 5.13072 17.8841C5.76683 18.6508 5.97234 19.6795 6.1061 20.6667C6.23953 21.654 6.33177 22.6759 6.80054 23.5557C7.26921 24.4344 8.23721 25.1396 9.21585 24.9527C10.8445 24.6426 10.8965 22.8752 11.088 21.5532C11.6229 17.8684 12.0461 14.0895 11.2927 10.4438Z" fill="#33535F"/>
</svg>
