<svg width="46" height="56" viewBox="0 0 46 56" fill="none" xmlns="http://www.w3.org/2000/svg">
<path d="M13.2781 22.5547C13.2448 22.8681 13.2361 23.1849 13.2019 23.4972C13.1363 24.0972 12.9326 24.7453 12.4154 25.0576C11.9291 25.3508 11.2873 25.2568 10.7923 24.9792C10.2974 24.7005 9.8221 24.3333 9.52828 23.8476C8.41062 22.0007 6.63502 21.16 4.82092 21.591C3.17471 21.9816 1.66405 23.1457 1.0886 24.7676C-0.359036 28.8857 2.07631 32.875 6.08755 34.3581C10.4171 35.9588 11.9789 32.5056 11.9789 32.5056L12.6296 47.3346C20.0177 58.6958 41.2818 57.0761 34.6173 48.1561L34.3542 42.6322C34.3542 42.6322 35.5631 42.5281 37.7089 41.9215C43.3604 40.323 45.092 35.4696 45.3125 31.3482C45.5241 27.4216 45.0842 22.7596 44.1574 17.9442C43.5731 14.9097 42.8019 11.9065 41.8672 8.96152C41.0311 6.32325 39.3286 4.34986 37.2164 2.60818C35.6538 1.31982 33.8673 0.0169106 31.8436 0.0851898C31.6275 0.0919075 31.3891 0.127739 31.2548 0.296761C31.1193 0.468018 31.1417 0.709782 31.1507 0.928055C31.2179 2.63056 29.9944 4.18868 28.4744 4.95878C26.9532 5.72776 25.188 5.84193 23.4845 5.79156C21.4137 5.73 19.35 5.4457 17.34 4.94424C16.343 4.69575 15.323 4.3924 14.3068 4.54127C13.2907 4.69014 12.3402 5.06401 12.2947 6.09044C12.2352 7.43476 13.0104 8.69512 13.5854 9.80103C14.0996 10.7894 14.3523 12.0408 14.5919 13.1254C15.1192 15.5163 15.2381 18.0998 14.1674 20.3642C13.9247 20.8769 13.5767 21.3481 13.4065 21.891C13.3388 22.1081 13.3021 22.3309 13.2781 22.5547Z" fill="#F8A39A"/>
</svg>
