<svg width="46" height="80" viewBox="0 0 46 80" fill="none" xmlns="http://www.w3.org/2000/svg">
<path d="M36.7646 79.3367C36.7646 79.3367 16.168 72.9587 5.05948 65.8532C2.0478 63.9268 0.274772 61.734 0.277347 58.0492C0.278242 56.5224 0.584378 54.7404 1.23326 52.6137C3.51345 45.1432 6.90593 38.4283 8.77164 33.7294C12.6946 23.8479 14.0077 20.5604 15.9241 15.5424C18.1444 9.72971 19.1277 6.02807 30.7395 0.0899963C36.0782 2.00854 38.1048 12.2538 38.1017 21.2376C38.1005 26.3205 37.4489 30.9993 36.3804 33.5391L31.6944 43.3635L26.5078 54.2367C25.1502 53.0323 23.3427 52.6137 21.5819 52.6137C19.7246 52.6137 17.9187 53.0793 16.746 53.5796C17.1474 53.5539 17.5492 53.5416 17.9481 53.5416C24.232 53.5416 30.0202 56.5168 30.0202 56.5168L29.3128 56.0579L45.3932 66.4934C45.3932 66.4934 45.0468 66.5953 44.4911 66.8863C43.3185 67.4997 41.211 68.9515 39.4401 72.0543C37.8101 74.9108 37.1512 77.3387 36.9024 78.5364C36.7961 79.049 36.7646 79.3367 36.7646 79.3367Z" fill="#282828"/>
</svg>
