<svg width="145" height="219" viewBox="0 0 145 219" fill="none" xmlns="http://www.w3.org/2000/svg">
<path d="M2.02554 218.157C1.92256 218.157 1.82405 218.144 1.711 218.117L1.54086 218.06L1.40654 217.985L1.25207 217.883C0.68681 217.577 0.349883 217.015 0.349883 216.381V215.167L0.347656 87.4343C0.347656 83.8256 1.86547 81.6619 3.28591 80.8414L142.219 0.877274C142.645 0.63327 143.042 0.511261 143.395 0.511261C143.589 0.511261 143.767 0.549286 143.926 0.624283L144.12 0.73288L144.258 0.872803L144.294 0.920898L144.343 0.956757L144.394 1.04404L144.414 1.10339L144.437 1.12914L144.565 1.40448L144.613 1.55336L144.594 1.5925L144.656 1.77275L144.685 1.95853C144.695 2.06598 144.705 2.188 144.705 2.31001V132.813C144.705 134.683 143.386 136.963 141.767 137.9L5.93761 216.124L2.98032 217.832L2.91764 217.848L2.86728 217.896L2.83369 217.916C2.55722 218.073 2.28858 218.157 2.05576 218.157H2.02554Z" fill="#FAFAF9"/>
</svg>
