<svg width="149" height="86" viewBox="0 0 149 86" fill="none" xmlns="http://www.w3.org/2000/svg">
<path d="M4.83789 85.7847L0.818359 83.4721C1.04447 83.0837 1.30303 82.7155 1.58734 82.383C2.01605 81.8849 2.4996 81.4629 3.01337 81.1674L141.958 1.2021C142.459 0.906601 142.932 0.773445 143.353 0.773445C143.363 0.773445 143.373 0.773445 143.384 0.773445C143.491 0.775681 143.595 0.785736 143.695 0.804764C143.896 0.841705 144.082 0.913322 144.25 1.01518C144.807 1.34875 147.323 2.79159 148.069 3.18783C148.075 3.19118 148.08 3.19344 148.086 3.1968C148.044 3.17889 148.003 3.1621 147.959 3.14755C147.788 3.08598 147.601 3.05573 147.403 3.05573C147.174 3.05573 146.928 3.09607 146.671 3.18002C146.453 3.25053 146.227 3.35125 145.993 3.48444L7.05865 83.4498C7.05194 83.4531 7.04521 83.4576 7.0385 83.4609C6.54151 83.752 6.07139 84.1594 5.65388 84.6418C5.35166 84.9899 5.07631 85.3761 4.83789 85.7847Z" fill="#23BAA0"/>
</svg>
