<svg width="63" height="48" viewBox="0 0 63 48" fill="none" xmlns="http://www.w3.org/2000/svg">
<path d="M42.876 47.6826C40.6183 47.6826 38.4904 47.0188 36.8025 46.3349C32.4091 44.5552 24.1495 39.5372 18.1096 35.7169C17.71 32.2884 17.2343 29.208 16.6679 26.6783C12.561 8.33241 0.977051 0.107517 0.977051 0.107517C13.6233 1.55594 14.4594 2.69542 27.3251 12.7761C33.4243 17.5546 41.4142 24.3199 41.4142 24.3199L50.5725 14.0455C50.5725 14.0455 51.5878 17.3621 55.773 20.8846C59.3571 23.9001 62.4767 24.077 62.4767 24.077C62.4767 24.077 61.0921 27.5402 55.5872 36.6325C54.6335 38.2086 53.5556 39.9536 52.34 41.8789C51.5363 43.1493 50.6834 44.1668 49.8013 44.9727C49.5025 45.2447 49.2002 45.4932 48.8947 45.7182C48.8947 45.7182 48.8947 45.7182 48.8947 45.7193C47.5761 46.6942 46.2083 47.245 44.855 47.5013C44.189 47.6278 43.5263 47.6826 42.876 47.6826ZM37.3789 35.5871C37.1663 32.3824 38.3035 27.5626 41.4142 24.3199L39.9019 23.0472C39.9019 23.0472 34.256 28.9729 37.3789 35.5871Z" fill="#282828"/>
</svg>
