<svg width="11" height="62" viewBox="0 0 11 62" fill="none" xmlns="http://www.w3.org/2000/svg">
<path d="M8.15898 61.3472C7.15337 61.3472 6.14731 61.1255 5.37866 60.6812L3.11369 59.3738C1.57763 58.4861 0.332031 56.3303 0.332031 54.5561V2.97721C0.332031 2.08958 0.643318 1.1068 1.14657 0.235958L1.15575 0.240414V0.241535L4.25362 2.02911L8.97453 4.7547C8.47116 5.62666 8.15988 6.60944 8.15988 7.49595V59.0749C8.15988 60.3353 8.78816 61.0662 9.70243 61.0662C9.93951 61.0662 10.1965 61.017 10.4664 60.914C10.4659 60.914 10.4655 60.9151 10.465 60.9151C9.77855 61.2039 8.96882 61.3472 8.15898 61.3472Z" fill="#18AF95"/>
</svg>
