<svg width="148" height="85" viewBox="0 0 148 85" fill="none" xmlns="http://www.w3.org/2000/svg">
<path d="M4.65394 84.6418C5.07145 84.1594 5.54157 83.752 6.03856 83.4609C5.87066 83.5594 5.70613 83.6714 5.54494 83.7956C5.22929 84.0374 4.93042 84.324 4.65394 84.6418ZM144.993 3.48446C145.227 3.35126 145.453 3.25055 145.671 3.18003C145.663 3.18227 145.654 3.18561 145.647 3.18784C145.436 3.25836 145.218 3.35574 144.993 3.48446ZM0.587402 82.383C1.01723 81.8793 1.50302 81.4562 2.0168 81.1629L140.954 1.19878C141.458 0.906639 141.93 0.77346 142.351 0.77346C142.362 0.77346 142.374 0.77346 142.384 0.77346C142.374 0.77346 142.363 0.77346 142.353 0.77346C141.933 0.77346 141.459 0.906616 140.958 1.20212L2.01343 81.1674C1.49966 81.4629 1.01611 81.8849 0.587402 82.383ZM147.069 3.18784C146.323 2.7916 143.807 1.34875 143.25 1.0152C143.082 0.913338 142.896 0.841713 142.695 0.804771C142.896 0.841713 143.082 0.912239 143.251 1.01186C143.807 1.35326 146.345 2.79607 147.069 3.18784Z" fill="white"/>
</svg>
