<svg width="60" height="92" viewBox="0 0 60 92" fill="none" xmlns="http://www.w3.org/2000/svg">
<path d="M57.6603 0.409943C57.283 0.409943 56.8593 0.530815 56.4129 0.788261L2.93671 31.6853C2.17769 32.1252 1.47855 32.874 0.979213 33.7527C0.470251 34.6314 0.160645 35.6097 0.160645 36.4984V88.0774C0.160645 89.3366 0.782434 90.0687 1.69189 90.0687C1.9293 90.0687 2.18642 90.0183 2.45707 89.9153H2.46714C2.63717 89.8448 2.79679 89.7754 2.94678 89.6847L11.9841 84.453L15.9586 91.3425C16.0758 91.5417 16.2725 91.6357 16.4683 91.6357C16.7067 91.6357 16.9441 91.4958 17.0373 91.2328L21.2413 79.1003L56.6722 58.6086C59.1689 57.1804 59.199 55.7521 59.199 53.9746V2.39564C59.199 2.13596 59.1688 1.87626 59.119 1.60651L59.109 1.56731C58.889 0.82296 58.3543 0.409943 57.6603 0.409943ZM57.6603 1.44756C57.7732 1.44756 57.9817 1.44756 58.105 1.83373C58.1426 2.04529 58.1606 2.22998 58.1606 2.39564V53.9746C58.1606 55.6424 58.1606 56.5614 56.1528 57.7098L20.7215 78.2015L20.3869 78.3951L20.2605 78.76L16.3722 89.9825L12.8835 83.9336L12.3641 83.0325L11.4641 83.5541L2.41196 88.7949L2.18116 88.909L2.08713 88.9449C1.94106 89.0008 1.80472 89.0299 1.69189 89.0299C1.26296 89.0299 1.19871 88.4333 1.19871 88.0774V36.4984C1.19871 35.829 1.44609 35.0175 1.88207 34.2653C2.29611 33.5367 2.87022 32.9233 3.45574 32.5841L56.9302 1.68821C57.1995 1.53262 57.4588 1.44756 57.6603 1.44756Z" fill="#00977D"/>
</svg>
