<svg width="172" height="27" viewBox="0 0 172 27" fill="none" xmlns="http://www.w3.org/2000/svg">
<path d="M6.88947 8.65881C3.62212 9.06192 1.52169 10.7062 1.13979 13.1673C0.906406 14.6949 1.40499 16.2649 2.46582 17.2939C3.29327 18.1108 4.21618 18.5139 6.55 19.0973C9.00051 19.702 9.15963 19.7657 9.59457 20.1688C9.90221 20.4552 9.94464 20.5719 9.94464 21.028C9.94464 21.951 9.31876 22.4389 8.15185 22.4389C7.12285 22.4389 6.38027 21.9404 6.17871 21.1341L6.10445 20.8477H3.35691C1.22465 20.8477 0.609375 20.8795 0.609375 20.975C0.619983 21.3675 0.970056 22.5344 1.21405 22.9906C1.90358 24.253 3.66455 25.4517 5.59526 25.9609C6.39088 26.173 6.74095 26.2049 8.56557 26.1943C10.5069 26.1943 10.6872 26.173 11.5889 25.8972C12.8725 25.5047 13.7 25.0486 14.4107 24.3378C16.352 22.3965 16.352 19.1079 14.4213 17.3364C13.5939 16.5832 12.6922 16.1801 10.2523 15.5117C7.97151 14.8753 7.49414 14.6949 7.1865 14.2918C6.88947 13.9205 6.90007 13.1249 7.19711 12.796C7.68509 12.2762 8.63983 12.1065 9.36119 12.4035C9.77491 12.5839 10.1568 13.1249 10.1568 13.5492V13.8462H12.9786H15.811L15.7474 13.2204C15.5564 11.4382 14.3577 9.98484 12.5118 9.2847C11.0903 8.74368 8.51253 8.45725 6.88947 8.65881Z" fill="#FF0000"/>
<path d="M82.0087 8.70085C78.6989 9.30552 76.7788 11.1726 76.7788 13.8246C76.7788 15.2568 77.2032 16.3176 78.1473 17.2405C79.0066 18.0786 79.8128 18.4286 82.3694 19.0863C84.735 19.691 85.17 19.8607 85.4352 20.2639C85.9019 20.9852 85.6473 21.8127 84.8199 22.2158C83.6954 22.7568 82.2845 22.2794 81.9344 21.2186L81.7859 20.7943L79.0702 20.7624L76.3545 20.7412V21.1125C76.3545 21.6323 76.7258 22.7038 77.0971 23.2342C77.5957 23.9555 78.6034 24.8148 79.4415 25.2179C81.5525 26.2681 84.5122 26.5227 87.0052 25.8862C89.3284 25.3028 90.7605 24.0828 91.3227 22.2052C91.5137 21.5899 91.5455 21.2822 91.5031 20.4124C91.4607 19.4682 91.4076 19.2773 91.0575 18.5771C90.5908 17.633 89.8482 16.9116 88.8086 16.4024C88.4373 16.2221 87.1537 15.7978 85.9762 15.4689C83.1013 14.6733 82.7619 14.4823 82.6452 13.6549C82.5285 12.7956 83.1438 12.2546 84.2576 12.2546C85.223 12.2546 85.6473 12.5835 85.7958 13.4215L85.8489 13.7928L88.6495 13.8246L91.45 13.8459L91.397 13.1033C91.2591 11.268 89.7739 9.67681 87.5992 9.0297C86.0611 8.56294 83.5469 8.42503 82.0087 8.70085Z" fill="#FF0000"/>
<path d="M119.369 8.65878C116.218 9.14676 113.863 11.3639 112.983 14.6737C112.739 15.5754 112.707 15.9148 112.696 17.4C112.696 19.2564 112.877 20.2642 113.439 21.6115C114.362 23.818 116.25 25.4517 118.52 26.0033C119.539 26.2473 121.384 26.2473 122.276 26.0033C123.559 25.6532 124.694 24.9531 125.373 24.1044L125.776 23.5846L125.808 24.6879L125.84 25.7805L128.471 25.8123L131.091 25.8336V17.453V9.0725H128.439H125.787V10.1545L125.776 11.2472L125.554 10.9289C125.203 10.441 124.524 9.81508 123.994 9.47561C122.901 8.78608 120.854 8.4254 119.369 8.65878ZM123.973 13.528C125.193 14.1857 125.861 15.3526 125.967 16.9969C126.105 19.1291 125.288 20.7204 123.676 21.463C123.167 21.7069 122.933 21.7388 122.074 21.7388C121.194 21.7388 120.981 21.7069 120.408 21.4417C119.167 20.8795 118.372 19.7338 118.16 18.185C117.841 15.9042 118.892 13.8674 120.695 13.2628C121.024 13.1567 121.512 13.1142 122.233 13.1355C123.209 13.1567 123.347 13.1885 123.973 13.528Z" fill="#FF0000"/>
<path d="M154.205 8.64836C150.651 9.06208 148.127 11.014 147.055 14.1647C146.663 15.3103 146.546 16.3287 146.61 17.8988C146.673 19.5749 146.917 20.6251 147.533 21.8663C148.063 22.9589 149.166 24.1576 150.216 24.8153C152.964 26.5127 157.313 26.7036 160.39 25.2715C162.289 24.3804 163.646 22.821 164.028 21.0812L164.103 20.7418H161.44C159.881 20.7418 158.777 20.7842 158.777 20.8372C158.777 21.0388 158.204 21.601 157.812 21.8132C157.165 22.1421 155.86 22.28 154.937 22.1315C153.208 21.8556 152.168 20.9115 151.924 19.3839L151.85 18.9384H158.014H164.166L164.23 18.5777C164.325 18.0791 164.336 15.6816 164.241 15.1724C163.944 13.4857 163.275 12.1915 162.119 11.0246C161.376 10.282 161.101 10.0805 160.146 9.62432C158.194 8.69079 156.401 8.39376 154.205 8.64836ZM156.263 12.2552C157.929 12.4992 158.777 13.3584 159.043 15.0876L159.117 15.5437H155.489H151.85L151.924 15.0027C152.073 13.9101 152.762 12.9977 153.781 12.5416C154.173 12.3719 154.767 12.2339 155.436 12.1597C155.499 12.1597 155.871 12.2021 156.263 12.2552Z" fill="#FF0000"/>
<path d="M142.971 8.90228C141.454 9.33722 140.34 10.3238 139.757 11.7771C139.587 12.2015 139.587 12.1802 139.587 10.6314L139.576 9.07202H136.871H134.166L134.187 17.4207L134.219 25.78H136.871H139.523L139.587 21.6428C139.64 18.2906 139.682 17.3995 139.82 16.9327C140.255 15.4794 141.072 14.4928 142.207 14.0473C142.716 13.8351 143.024 13.8033 144.17 13.8033L145.517 13.7927V11.3422V8.88107L145.188 8.81742C144.658 8.71134 143.491 8.76438 142.971 8.90228Z" fill="#FF0000"/>
<path d="M18.1652 9.09293C18.1334 9.16718 18.1228 12.9543 18.1334 17.5053L18.1652 25.7797H20.8173H23.4693L23.5224 22.2578L23.5754 18.7358L26.0577 22.2896L28.5401 25.8328H31.7544C33.526 25.8328 34.9793 25.8009 34.9793 25.7691C34.9793 25.7373 33.5366 23.7535 31.7756 21.3773C30.0252 19.001 28.5719 17.0279 28.5719 17.0067C28.5613 16.9749 29.9722 15.2245 31.6907 13.1028C33.4093 10.9812 34.8414 9.20962 34.852 9.15658C34.8732 9.11414 33.4941 9.07171 31.7756 9.07171H28.6568L26.1214 12.4876L23.5754 15.914L23.5224 12.4664L23.4693 9.01867L20.8385 8.98685C18.7911 8.96563 18.197 8.98685 18.1652 9.09293Z" fill="#FF0000"/>
<path d="M37.1549 9.09323C37.1231 9.16749 37.1125 12.9546 37.1231 17.5056L37.1549 25.78H39.807H42.4591V17.3995V9.01898L39.8282 8.98715C37.7808 8.96593 37.1868 8.98715 37.1549 9.09323Z" fill="#FF0000"/>
<path d="M45.4805 17.3992V25.8328L51.9303 25.8115L58.3695 25.7797L58.4013 23.308L58.4225 20.8469H54.6036H50.7846V14.9063V8.96563H48.1325H45.4805V17.3992Z" fill="#FF0000"/>
<path d="M61.1807 17.3992V25.8328L67.6305 25.8115L74.0697 25.7797L74.1015 23.308L74.1227 20.8469H70.3038H66.4848V14.9063V8.96563H63.8327H61.1807V17.3992Z" fill="#FF0000"/>
<path d="M93.8238 9.02928C93.7813 9.07171 93.7495 12.8695 93.7495 17.4735V25.8328L96.3804 25.8115L99.0006 25.7797L99.0324 22.8306L99.0536 19.8921H102.183H105.313V22.8625V25.8328L107.943 25.8115L110.564 25.7797V17.3992V9.01867H107.965H105.366L105.334 12.0102L105.313 15.0123H102.183H99.0536L99.0324 12.0102L99.0006 9.01867L96.444 8.98685C95.0437 8.97624 93.8662 8.99745 93.8238 9.02928Z" fill="#FF0000"/>
<circle cx="168.653" cy="23.3064" r="3.05662" fill="#FF0000"/>
<circle cx="39.5293" cy="3.10789" r="3.05662" fill="#FF0000"/>
</svg>
