<svg width="285" height="285" viewBox="0 0 285 285" fill="none" xmlns="http://www.w3.org/2000/svg">
<path d="M95.3882 178.505C95.2047 178.547 95.0458 178.662 94.9464 178.822C94.847 178.982 94.8154 179.175 94.8583 179.358C94.9013 179.542 95.0153 179.701 95.1754 179.8C95.3356 179.899 95.5286 179.931 95.7121 179.888C106.302 177.428 117.287 177.194 127.972 179.201C138.656 181.208 148.808 185.413 157.783 191.548C157.934 191.548 158.082 191.5 158.204 191.41C158.327 191.321 158.417 191.194 158.462 191.049C158.507 190.904 158.505 190.749 158.455 190.606C158.405 190.462 158.311 190.339 158.186 190.253C149.109 184.04 138.837 179.786 128.025 177.763C117.213 175.74 106.097 175.993 95.3882 178.505Z" fill="black"/>
<path d="M162.469 185.781C146.186 175.598 127.989 168.754 108.682 171.593C108.5 171.624 108.338 171.723 108.228 171.871C108.119 172.019 108.071 172.203 108.094 172.386C108.118 172.568 108.212 172.734 108.355 172.849C108.499 172.964 108.682 173.018 108.865 173.001C120.768 171.441 132.873 173.007 143.986 177.547C150.115 180.264 156.041 183.419 161.718 186.987C161.878 187.086 162.071 187.118 162.254 187.076C162.438 187.033 162.597 186.919 162.696 186.759C162.796 186.6 162.828 186.407 162.785 186.223C162.743 186.039 162.629 185.88 162.469 185.781Z" fill="black"/>
<path d="M121.395 166.414C121.206 166.421 121.028 166.502 120.9 166.64C120.772 166.778 120.703 166.962 120.71 167.15C120.717 167.338 120.798 167.516 120.936 167.645C121.074 167.773 121.258 167.841 121.446 167.835C137.825 167.253 153.853 172.664 166.529 183.052C167.221 183.643 168.16 182.532 167.431 181.954C154.462 171.392 138.112 165.873 121.395 166.414Z" fill="black"/>
<path d="M117.488 161.242C117.3 161.255 117.125 161.343 117.001 161.486C116.878 161.629 116.816 161.815 116.83 162.004C116.844 162.192 116.932 162.367 117.074 162.491C117.217 162.614 117.404 162.676 117.592 162.662C137.379 161.197 156.97 167.42 172.284 180.036C172.97 180.628 173.918 179.517 173.185 178.939C157.578 166.111 137.637 159.775 117.488 161.242Z" fill="black"/>
<path d="M124.394 158.054C133.967 156.738 143.714 157.615 152.898 160.619C162.083 163.623 170.464 168.676 177.409 175.395C178.049 176.041 179.079 175.011 178.397 174.375C171.287 167.519 162.717 162.363 153.33 159.293C143.943 156.222 133.983 155.318 124.196 156.648C124.013 156.678 123.849 156.778 123.739 156.928C123.63 157.077 123.583 157.264 123.608 157.447C123.634 157.631 123.731 157.797 123.877 157.91C124.024 158.024 124.209 158.075 124.394 158.054Z" fill="black"/>
<path d="M51.5935 161.311C47.7366 162.243 47.4425 167.647 51.7995 167.704C57.6792 167.736 57.8085 159.808 51.5935 161.311ZM54.5767 164.996C54.1588 165.5 53.6089 165.877 52.9886 166.085C52.3683 166.294 51.7022 166.326 51.065 166.177C49.1274 165.466 50.028 163.169 52.0282 162.664C53.5823 161.916 55.6535 163.431 54.5753 164.996H54.5767Z" fill="black"/>
<path d="M277.39 78.9619C274.756 76.983 271.636 78.6636 269.274 76.5625C269.038 76.3333 268.756 76.1562 268.447 76.0427C268.138 75.9293 267.809 75.882 267.48 75.904C267.152 75.9259 266.832 76.0167 266.541 76.1702C266.25 76.3238 265.994 76.5368 265.791 76.7955C264.978 77.7975 264.507 79.0329 264.447 80.3214C256.078 88.9428 246.164 95.6039 230.637 99.3642C233.885 96.032 236.539 92.168 238.483 87.9399C243.171 76.5057 224.173 67.7677 215.896 65.6909C215.529 64.141 216.651 61.6664 217.107 60.0782C217.626 57.9857 216.113 56.9529 215.005 57.5211C212.276 58.4218 210.966 61.4306 209.382 63.5032C206.287 67.6228 208.622 68.8658 212.258 70.7254C212.149 70.866 212.101 71.0437 212.123 71.2198C212.145 71.396 212.236 71.5562 212.376 71.6658C214.254 73.5324 223.456 80.8484 219.865 83.6327C217.921 85.1343 212.099 89.6332 208.718 92.5099C202.122 92.1917 199.244 92.1761 194.983 92.9105C194.932 92.9197 194.885 92.9457 194.85 92.9844C194.816 93.0232 194.795 93.0724 194.791 93.1244C194.787 93.1764 194.801 93.2281 194.83 93.2714C194.859 93.3148 194.901 93.3472 194.951 93.3637C207.516 99.4238 209.774 115.657 205.713 127.244C208.502 127.051 213.391 127.364 215.707 126.285C224.458 125.418 236.828 123.018 243.343 119.315C250.01 115.683 255.789 110.617 260.262 104.482C264.734 98.3467 267.789 91.295 269.206 83.8359C271.747 82.8886 274.355 82.1289 277.007 81.5629C278.238 81.3697 279.138 79.5798 277.39 78.9619ZM221.48 69.0789C229.134 72.0749 240.625 79.4321 237.189 87.3504C234.981 92.1608 231.823 96.4749 227.905 100.033C226.515 100.371 224.682 100.732 223.261 101.048C227.405 96.9204 231.174 92.4337 234.524 87.6402C235.463 86.4338 236.058 84.9954 236.245 83.4779C235.518 78.513 230.847 77.0967 226.988 74.4572C224.991 73.3455 223.069 72.1066 221.231 70.7481C221.397 70.2073 221.481 69.6446 221.48 69.0789ZM213.685 69.8972L210.635 68.2266C209.865 67.8118 209.073 67.1569 209.463 66.2065C210.38 64.5271 211.425 62.9209 212.589 61.4021C213.269 60.1945 214.366 59.2759 215.674 58.8181C215.776 58.8693 215.847 59.2784 215.759 59.652C215.046 61.5439 214.553 63.5115 214.289 65.5161C214.206 65.9283 214.228 66.3547 214.352 66.7564C214.476 67.1582 214.698 67.5224 214.999 67.816C214.823 68.6442 214.357 69.3823 213.685 69.8972ZM215.589 72.6375C215.095 72.1843 214.626 71.7155 214.15 71.3078C214.834 70.8895 215.406 70.3099 215.814 69.6197C216.223 68.9296 216.456 68.1498 216.494 67.3487C217.613 67.6882 218.792 68.0817 219.973 68.5107C220.562 71.1246 218.059 73.8933 215.589 72.6375ZM207.024 93.8126C207.797 93.743 208.713 94.1876 209.409 93.7927C212.673 90.9938 218.575 86.4303 220.606 84.8596C220.637 84.8359 220.667 84.8128 220.696 84.7905C224.629 81.6255 219.781 76.9873 217.213 74.3123C217.933 74.2823 218.632 74.0613 219.238 73.6722C219.845 73.283 220.337 72.7396 220.665 72.0977C224.543 75.5383 233.64 78.1706 234.829 83.4026C234.655 84.6485 234.152 85.8254 233.372 86.812C229.908 91.7753 225.991 96.4059 221.67 100.644C220.969 99.7918 219.267 97.7362 218.353 99.0105C218.317 99.0963 218.297 99.1886 218.296 99.2821C218.295 99.3755 218.312 99.4682 218.347 99.5549C218.382 99.6416 218.434 99.7206 218.499 99.7873C218.564 99.8541 218.642 99.9072 218.728 99.9438C219.587 100.35 220.3 101.009 220.771 101.833C221.25 103.613 224.348 102.102 225.62 101.998C240.632 99.0033 254.16 92.8082 262.219 84.3828C263.151 84.5981 263.994 85.0939 264.634 85.8034C256.55 106.011 239.656 117.782 218.221 118.237C218.949 108.883 216.005 98.3698 207.024 93.8126ZM258.399 104.751C248.991 118.075 234.133 122.922 217.369 124.675C217.816 123.04 218.067 121.357 218.116 119.663C239.977 119.248 257.243 107.378 265.666 86.9725C268.198 90.1716 260.793 101.364 258.399 104.751ZM267.328 85.8929C267.265 86.1457 267.186 86.3943 267.119 86.6458C266.273 85.1095 264.932 83.9052 263.315 83.2293C263.975 82.573 264.891 81.1552 265.843 81.5161C266.265 81.6613 266.648 81.9013 266.963 82.2175C267.277 82.5337 267.516 82.9178 267.659 83.3403C267.802 83.7629 267.847 84.2126 267.789 84.655C267.732 85.0975 267.574 85.5209 267.328 85.8929ZM268.882 82.3883C268.236 81.4338 267.347 80.6693 266.306 80.1736C265.335 80.1949 266.572 78.0058 266.883 77.6919C267.828 76.0355 270.534 80.6026 275.406 80.5032C273.199 81.0116 271.021 81.641 268.882 82.3883Z" fill="black"/>
<path d="M207.024 93.8126C207.797 93.743 208.713 94.1876 209.409 93.7927C212.673 90.9938 218.575 86.4303 220.606 84.8596L220.696 84.7905C224.629 81.6255 219.781 76.9873 217.213 74.3123C217.933 74.2823 218.632 74.0613 219.238 73.6722C219.845 73.283 220.337 72.7396 220.665 72.0977C224.543 75.5383 233.64 78.1706 234.829 83.4026C234.655 84.6485 234.152 85.8254 233.372 86.812C229.908 91.7753 225.991 96.4059 221.67 100.644C220.969 99.7918 219.267 97.7362 218.353 99.0105C218.317 99.0963 218.297 99.1886 218.296 99.2821C218.295 99.3755 218.312 99.4682 218.347 99.5549C218.382 99.6416 218.434 99.7206 218.499 99.7873C218.564 99.8541 218.642 99.9072 218.728 99.9438C219.587 100.35 220.3 101.009 220.771 101.833C221.25 103.613 224.348 102.102 225.62 101.998C240.632 99.0033 254.16 92.8082 262.219 84.3828C263.151 84.5981 263.994 85.0939 264.634 85.8034C256.55 106.011 239.656 117.782 218.221 118.237C218.949 108.883 216.005 98.3698 207.024 93.8126Z" fill="#FEDD40"/>
<path d="M258.399 104.751C248.991 118.075 234.133 122.922 217.369 124.675C217.816 123.04 218.067 121.357 218.116 119.663C239.977 119.248 257.243 107.378 265.666 86.9725C268.198 90.1716 260.793 101.364 258.399 104.751Z" fill="#FBBC05"/>
<path d="M221.48 69.0789C229.134 72.0749 240.625 79.4321 237.189 87.3504C234.981 92.1608 231.823 96.4749 227.905 100.033C226.515 100.371 224.682 100.732 223.261 101.048C227.405 96.9204 231.174 92.4337 234.524 87.6402C235.463 86.4338 236.058 84.9954 236.245 83.4779C235.518 78.513 230.847 77.0967 226.988 74.4572C224.991 73.3455 223.069 72.1066 221.231 70.7481C221.397 70.2073 221.481 69.6446 221.48 69.0789Z" fill="#FBBC05"/>
<path d="M213.685 69.8972L210.635 68.2266C209.865 67.8118 209.073 67.1569 209.463 66.2065C210.38 64.5271 211.425 62.9209 212.589 61.4021C213.269 60.1945 214.366 59.2759 215.674 58.8181C215.776 58.8693 215.847 59.2784 215.759 59.652C215.046 61.5439 214.553 63.5115 214.289 65.5161C214.206 65.9283 214.228 66.3547 214.352 66.7564C214.476 67.1582 214.698 67.5224 214.999 67.816C214.823 68.6442 214.357 69.3823 213.685 69.8972Z" fill="#FFE2C0"/>
<path d="M268.882 82.3883C268.236 81.4338 267.347 80.6693 266.306 80.1736C265.335 80.1949 266.572 78.0058 266.883 77.6919C267.828 76.0355 270.534 80.6026 275.406 80.5032C273.199 81.0116 271.021 81.641 268.882 82.3883Z" fill="#FFDBB1"/>
<path d="M247.918 182.432C243.263 173.008 231.582 167.425 217.897 165.167C223.568 160.06 225.828 157.946 225.967 157.667C226.548 155.365 226.148 147.401 227.273 145.281C227.331 145.13 227.339 144.965 227.297 144.809C227.255 144.652 227.164 144.514 227.039 144.412C219.215 139.076 210.657 134.903 201.634 132.026C209.554 119.542 206.194 97.1339 189.78 92.9105C192.874 88.4939 189.646 81.7462 184.227 82.1908C180.647 82.2445 177.078 82.5947 173.557 83.2378C174.453 82.4821 173.983 80.8228 173.341 80.2148C176.222 78.5939 172.568 73.4898 169.789 73.7455C169.931 71.5578 168.406 67.5603 165.842 69.302C165.091 68.196 164.14 67.2397 163.039 66.4821C161.604 65.6298 159.762 65.4323 158.969 66.9779C157.784 66.2182 156.451 65.7207 155.058 65.519C153.251 65.4934 151.649 66.6554 151.867 68.2763C149.947 67.8501 147.833 68.0533 146.787 69.981C146.283 71.1388 147.425 71.7965 145.628 71.7113C143.11 71.94 141.509 75.3721 144.066 76.983C141.274 77.6208 139.094 82.6767 142.895 83.4736C141.551 85.3204 140.631 88.0734 142.163 89.933C122.425 93.2372 106.692 95.9889 91.8154 98.9323C84.6344 102.168 79.2604 106.43 72.3777 110.013C72.2164 110.097 72.0933 110.239 72.0339 110.411C71.9744 110.583 71.9831 110.771 72.0581 110.936C73.1065 113.243 92.2473 114.914 96.0729 115.231C113.663 112.682 131.104 109.188 148.319 104.765C142.298 109.581 133.697 114.081 132.95 122.672C114.118 120.531 96.5531 123.258 81.6796 132.736C56.5141 147.674 30.4267 162.649 7.12073 181.144C7.77845 185.475 9.25159 189.845 9.47178 193.919C9.48574 194.077 9.55199 194.225 9.66001 194.341C9.76803 194.457 9.91163 194.533 10.068 194.558C10.2244 194.583 10.3845 194.555 10.5231 194.478C10.6616 194.401 10.7706 194.281 10.8327 194.135C27.6665 189.213 46.6951 189.088 64.1242 192.949C78.3058 195.438 73.6264 202.096 77.9265 203.035C78.1836 203.099 82.9738 203.693 83.0405 203.614C83.9398 203.538 84.3446 202.514 84.3191 201.81C84.8305 195.276 88.6859 195.121 94.9194 195.418C123.983 197.304 134.447 202.08 158.54 217.437C158.63 217.496 158.733 217.532 158.84 217.544C158.947 217.556 159.056 217.542 159.157 217.504C159.258 217.466 159.348 217.405 159.421 217.325C159.494 217.245 159.547 217.15 159.575 217.046C173.899 204.261 194.969 185.683 204.346 177.27C200.739 192.061 197.444 207.024 193.723 225.469C193.704 225.564 193.705 225.663 193.725 225.758C193.746 225.853 193.786 225.943 193.843 226.022C193.899 226.101 193.972 226.168 194.055 226.218C194.139 226.268 194.232 226.3 194.328 226.312C209.087 228.199 228.171 228.664 239.841 219.271C250.964 210.918 254.826 194.571 247.918 182.432ZM184.259 83.6114C189.291 83.5745 190.996 89.1332 188.261 92.5312C186.32 92.0746 184.333 91.8363 182.339 91.8209C182.666 90.3789 182.592 88.8751 182.126 87.4718C181.661 86.0685 180.821 84.8191 179.696 83.8586C181.197 83.7165 182.721 83.6242 184.259 83.6114ZM180.181 111.905C179.783 110.09 181.387 109.818 181.783 111.646C182.538 117.213 181.926 122.879 179.999 128.155C172.863 127.212 165.604 128.041 158.864 130.57C156.63 129.336 154.306 128.274 151.911 127.394C155.527 124.788 160.128 121.13 163.672 118.742C167.317 123.128 172.372 126.11 177.973 127.18C178.134 127.175 178.288 127.118 178.413 127.017C178.538 126.916 178.627 126.778 178.667 126.622C180.294 121.898 180.812 116.862 180.181 111.905ZM172.92 91.2953C173.476 90.2996 173.754 89.1726 173.725 88.0325C173.695 86.8924 173.359 85.7814 172.751 84.8161C174.259 84.5788 175.916 84.2294 177.581 84.1058C178.939 84.8323 180.005 86.0044 180.6 87.4248C181.195 88.8452 181.283 90.4273 180.849 91.9047C178.392 92.1079 173.553 92.5909 171.899 92.7571C171.274 92.3039 172.79 91.98 172.92 91.2953ZM154.392 88.7226C156.49 89.6091 158.46 87.7538 159.271 85.8105C160.01 86.1097 160.827 86.152 161.592 85.9307C162.357 85.7094 163.026 85.2373 163.491 84.5902C163.749 84.8214 164.069 84.9739 164.411 85.0295C164.754 85.0851 165.105 85.0416 165.424 84.9041C165.836 85.5917 166.786 86.8446 167.516 87.7879C167.469 88.3687 167.575 88.9519 167.825 89.4784C167.986 89.7997 168.247 90.0607 168.568 90.2229C168.889 90.3852 169.254 90.4401 169.608 90.3797C169.963 90.3193 170.289 90.1467 170.538 89.8873C170.787 89.6278 170.946 89.2953 170.993 88.9386C170.981 88.7468 171.532 88.7567 171.717 88.3604C172.028 87.9647 172.18 87.4672 172.143 86.9654C172.469 88.3263 172.351 90.8578 170.716 91.247C170.162 91.2783 169.637 91.9573 169.967 92.473C171.197 94.5622 172.725 96.4607 174.503 98.1084C174.992 102.202 168.678 107.45 166.089 102.421C167.039 101.562 167.38 102.674 168.129 103.312C168.555 103.738 169.278 103.028 168.848 102.593C168.296 102.137 167.812 101.604 167.41 101.012C167.268 100.728 166.984 100.728 166.691 100.87C165.126 102.039 163.168 102.555 161.23 102.308C160.133 102.036 159.102 101.545 158.2 100.864C157.299 100.182 156.545 99.3244 155.984 98.3428C155.871 97.6566 155.679 96.5117 154.757 96.0699C153.676 95.2928 153.382 93.5015 152.832 92.2727C153.59 91.2089 154.121 90.0005 154.392 88.7226ZM161.809 103.33C158.34 105.439 153.143 102.391 152.899 98.4792C152.922 98.1668 153.063 97.875 153.294 97.6637C153.525 97.4524 153.829 97.3375 154.142 97.3427C154.483 97.5728 154.547 98.4621 154.639 98.867C154.882 99.8372 156.05 101.387 156.936 101.023C158.22 102.367 159.955 103.189 161.809 103.33ZM79.5928 111.854C77.7305 111.602 75.8889 111.216 74.0824 110.699C75.9987 110.091 77.9052 107.29 79.8371 108.774C80.1951 109.305 79.3286 109.554 79.3257 110.045C79.205 110.864 80.242 110.702 80.5389 111.227C80.443 111.401 80.3072 111.549 80.1427 111.66C79.9782 111.771 79.7897 111.841 79.5928 111.865V111.854ZM95.9294 113.78C91.0909 113.38 85.8533 112.786 81.6299 112.172C81.7631 111.99 81.8565 111.781 81.904 111.561C81.9516 111.34 81.9523 111.112 81.9062 110.89C81.86 110.669 81.7679 110.46 81.6359 110.277C81.5039 110.094 81.3349 109.941 81.1398 109.827C81.2608 109.584 81.3275 109.318 81.3352 109.047C81.3429 108.776 81.2914 108.506 81.1843 108.257C81.0772 108.008 80.917 107.786 80.715 107.605C80.5131 107.424 80.2741 107.289 80.0147 107.21C83.9337 104.643 88.0145 102.332 92.2317 100.292C93.7873 100.358 95.2816 100.917 96.499 101.888C97.7165 102.859 98.5941 104.191 99.0053 105.693C99.4165 107.195 99.34 108.788 98.7869 110.244C98.2339 111.7 97.2327 112.942 95.928 113.792L95.9294 113.78ZM98.4865 113.436C99.3976 112.408 100.054 111.181 100.403 109.852C100.753 108.524 100.785 107.132 100.497 105.788C100.209 104.445 99.6087 103.189 98.7455 102.12C97.8823 101.052 96.7799 100.201 95.5274 99.6369C110.174 96.8313 125.921 94.0498 145.611 90.7924C145.661 92.1675 146.814 93.9063 148.327 93.1662C148.754 92.8821 148.762 92.4943 149.16 93.1051C149.328 93.3144 149.538 93.4859 149.777 93.6085C150.016 93.7312 150.278 93.8022 150.546 93.8169C150.814 93.8316 151.082 93.7898 151.332 93.6941C151.583 93.5984 151.811 93.4509 152.001 93.2614C152.365 94.2213 152.794 95.1549 153.287 96.0556C150.957 96.8128 151.205 99.6611 152.366 101.396C151.817 101.762 151.302 102.176 150.825 102.632C133.587 107.174 116.116 110.785 98.4893 113.448L98.4865 113.436ZM77.854 201.256C77.765 201.284 77.6714 201.295 77.5785 201.286C77.4856 201.278 77.3952 201.252 77.3125 201.209C77.2297 201.165 77.1563 201.106 77.0964 201.035C77.0365 200.963 76.9913 200.881 76.9633 200.792C75.9546 197.573 73.9688 194.749 71.2815 192.71C68.5943 190.672 65.339 189.521 61.9677 189.417C61.7793 189.417 61.5987 189.342 61.4655 189.209C61.3323 189.076 61.2574 188.895 61.2574 188.707C61.2574 188.519 61.3323 188.338 61.4655 188.205C61.5987 188.072 61.7793 187.997 61.9677 187.997C65.6431 188.094 69.1957 189.34 72.1269 191.559C75.0581 193.779 77.2208 196.86 78.3114 200.371C78.3665 200.549 78.3495 200.742 78.2639 200.907C78.1783 201.073 78.0311 201.198 77.854 201.256ZM78.2333 195.006C68.5095 179.806 28.2489 177.653 11.5089 179.479C32.6318 163.359 55.8488 149.646 78.3344 136.366C78.3944 136.33 78.4545 136.295 78.5146 136.259C94.3938 125.527 112.608 121.559 132.93 124.101C133.259 128.323 136.545 128.727 140.396 128.87C146.292 128.87 153.23 122.285 155.817 116.249C157.647 112.788 159.127 109.153 160.236 105.397C160.958 105.296 161.655 105.064 162.293 104.711C158.659 112.267 157.303 121.788 150.187 126.879C149.531 127.355 150.087 128.125 150.626 128.408C153.096 129.37 155.207 130.255 157.29 131.31C154.524 132.496 151.656 134.719 148.967 135.627C134.032 126.362 113.351 126.44 96.0189 129.519C80.1752 137.038 66.7821 147.401 51.4711 155.892C51.4696 155.893 51.4681 155.893 51.4666 155.894C41.7186 161.546 31.6398 167.389 22.0069 173.716C21.8768 173.801 21.7784 173.927 21.727 174.075C21.6756 174.222 21.674 174.382 21.7224 174.53C21.7709 174.678 21.8667 174.806 21.9951 174.894C22.1236 174.983 22.2775 175.026 22.4331 175.018C35.996 174.12 49.6073 175.768 62.5644 179.875C68.2836 181.654 75.2941 184.464 78.8143 190.449C78.3544 191.921 78.1577 193.462 78.2333 195.003V195.006ZM87.5906 154.085C73.4815 157.54 75.503 152.569 78.4151 141.118C86.69 136.561 93.2829 129.996 103.508 129.753C118.944 128.617 134.964 128.665 147.722 136.548C141.683 139.973 135.647 143.597 129.667 147.415C128.588 147.882 127.578 149.242 126.426 149.033C113.342 149.371 100.327 151.063 87.5906 154.082V154.085ZM124.81 150.521C120.28 153.472 115.613 156.666 110.594 160.249C108.987 160.037 105.631 161.273 104.588 160.071C103.204 158.116 103.593 154.896 103.41 152.562C110.501 151.501 117.643 150.819 124.807 150.518L124.81 150.521ZM63.0005 178.523C50.7224 174.65 37.865 172.939 25.0015 173.467C42.0925 162.591 59.7786 153.011 76.7104 142.173C72.9317 154.929 74.5796 158.953 87.95 155.46C92.6256 154.397 97.3187 153.498 102.029 152.761C101.981 154.525 102.081 156.29 102.328 158.038C102.721 161.661 105.237 162.5 108.382 161.827C100.71 167.467 93.3876 173.57 86.457 180.101C83.5492 182.489 81.1655 185.452 79.455 188.804C75.4746 182.962 68.2168 180.162 62.9976 178.52L63.0005 178.523ZM114.518 195.135C114.464 195.316 114.34 195.467 114.175 195.557C114.009 195.646 113.815 195.666 113.634 195.612C113.813 195.392 79.5033 186.894 82.5419 201.295C82.5621 201.386 82.5641 201.48 82.5478 201.572C82.5315 201.664 82.4973 201.752 82.4472 201.83C82.397 201.909 82.3318 201.977 82.2553 202.031C82.1788 202.084 82.0925 202.122 82.0014 202.142C81.9103 202.162 81.816 202.164 81.7241 202.148C81.6322 202.132 81.5444 202.097 81.4658 202.047C81.3871 201.997 81.319 201.932 81.2655 201.855C81.2121 201.779 81.1742 201.693 81.154 201.602C79.661 195.571 85.5578 191.264 93.067 191.498C100.15 191.458 107.206 192.383 114.039 194.247C114.128 194.274 114.212 194.318 114.284 194.377C114.356 194.436 114.416 194.509 114.46 194.591C114.504 194.673 114.532 194.763 114.541 194.856C114.551 194.949 114.542 195.043 114.515 195.132L114.518 195.135ZM135.392 193.913C135.332 194.092 135.203 194.239 135.035 194.323C134.866 194.407 134.671 194.421 134.492 194.361C134.35 194.311 119.848 189.466 109.178 187.978C97.8387 186.399 86.2212 188.831 82.7294 193.51C82.2081 194.259 81.0162 193.392 81.593 192.658C85.9627 186.796 99.1612 185.144 109.377 186.568C120.173 188.073 134.805 192.96 134.947 193.01C135.125 193.071 135.271 193.2 135.354 193.369C135.437 193.538 135.449 193.733 135.389 193.911L135.392 193.913ZM157.126 197.972C152.427 194.052 147.024 191.063 141.206 189.164C130.712 185.404 119.633 183.541 108.486 183.663C100.593 184.073 83.471 184.799 79.6255 193.787C79.8741 188.7 83.4269 184.721 87.4259 181.144C106.233 163.117 134.897 144.777 157.398 132.83C162.858 129.918 170.304 128.786 179.51 129.459C178.979 130.242 178.503 132.843 177.573 132.506C172.516 131.826 167.399 131.728 162.32 132.214C162.227 132.222 162.136 132.248 162.053 132.291C161.97 132.334 161.896 132.393 161.836 132.465C161.775 132.536 161.73 132.619 161.701 132.708C161.673 132.798 161.663 132.892 161.671 132.985C161.687 133.173 161.777 133.348 161.922 133.469C161.994 133.53 162.076 133.575 162.166 133.603C162.255 133.632 162.349 133.642 162.442 133.634C167.367 133.164 172.33 133.254 177.235 133.901C176.36 135.326 175.375 136.68 174.288 137.951C174.184 137.814 174.032 137.72 173.862 137.688C168.668 136.817 163.377 136.669 158.142 137.249C158.049 137.26 157.958 137.288 157.876 137.333C157.794 137.378 157.721 137.439 157.663 137.512C157.604 137.585 157.56 137.669 157.534 137.759C157.507 137.85 157.499 137.944 157.509 138.037C157.519 138.13 157.548 138.221 157.593 138.303C157.638 138.385 157.699 138.458 157.772 138.517C157.845 138.576 157.929 138.619 158.019 138.646C158.109 138.672 158.204 138.68 158.297 138.67C163.338 138.113 168.431 138.247 173.436 139.069C172.308 140.247 170.903 142.5 169.316 142.739C168.902 142.514 153.091 139.109 157.303 142.264C160.948 142.51 164.566 143.063 168.119 143.916C166.485 145.32 163.823 144.929 162.211 146.239C161.392 146.573 160.864 147.532 161.318 148.127C159.756 147.877 148.38 145.712 148.307 147.593C148.307 147.781 148.382 147.962 148.515 148.095C148.649 148.228 148.829 148.303 149.018 148.303C150.845 148.506 162.687 148.293 160.213 150.503C159.598 151.38 159.389 153.353 160.804 153.477C161.154 153.343 160.834 154.438 161.189 154.808C151.85 151.222 141.81 149.839 131.849 150.766C131.66 150.784 131.487 150.876 131.366 151.022C131.245 151.167 131.187 151.355 131.205 151.543C131.223 151.732 131.315 151.905 131.46 152.026C131.606 152.147 131.794 152.205 131.982 152.187C151.751 150.148 170.984 158.189 184.66 172.025C184.799 172.025 184.935 171.985 185.051 171.909C185.167 171.833 185.258 171.725 185.313 171.597C185.369 171.47 185.385 171.329 185.361 171.192C185.337 171.055 185.274 170.929 185.178 170.828C178.861 164.145 171.187 158.892 162.671 155.42C163.036 155.244 163.34 154.962 163.543 154.612C163.553 154.851 163.633 155.083 163.772 155.278C163.91 155.474 164.103 155.625 164.326 155.714C164.549 155.802 164.792 155.824 165.027 155.778C165.263 155.731 165.479 155.617 165.651 155.45C166.786 154.156 168.07 153 169.475 152.006C176.655 154.827 183.133 159.179 188.457 164.76C188.52 164.831 188.597 164.889 188.683 164.93C188.769 164.971 188.863 164.994 188.958 164.998C189.053 165.002 189.148 164.987 189.237 164.953C189.326 164.92 189.408 164.869 189.477 164.803C189.546 164.738 189.601 164.659 189.639 164.572C189.677 164.485 189.697 164.391 189.698 164.295C189.699 164.2 189.681 164.106 189.645 164.018C189.608 163.93 189.555 163.85 189.487 163.783C184.482 158.544 178.48 154.358 171.835 151.471C175.266 151.198 178.624 150.332 181.761 148.914C187.262 151.687 192.334 155.241 196.819 159.466C196.886 159.533 196.966 159.586 197.054 159.622C197.142 159.658 197.236 159.675 197.331 159.674C197.426 159.673 197.52 159.652 197.607 159.614C197.694 159.576 197.773 159.521 197.838 159.451C197.903 159.382 197.954 159.301 197.987 159.212C198.02 159.123 198.035 159.028 198.031 158.933C198.027 158.838 198.003 158.745 197.963 158.659C197.922 158.573 197.864 158.496 197.793 158.433C193.487 154.38 188.651 150.93 183.418 148.175C185.769 147.096 188.024 145.821 190.16 144.364C195.489 146.978 200.398 150.374 204.724 154.437C205.38 155.079 206.382 154.025 205.697 153.403C201.454 149.423 196.665 146.069 191.474 143.442C193.168 142.184 194.755 140.79 196.219 139.272C201.162 141.476 205.822 144.267 210.097 147.586C210.171 147.642 210.256 147.684 210.347 147.707C210.438 147.731 210.532 147.737 210.625 147.724C210.718 147.711 210.807 147.68 210.888 147.633C210.969 147.586 211.04 147.523 211.096 147.449C211.153 147.374 211.194 147.289 211.218 147.198C211.242 147.108 211.247 147.013 211.235 146.92C211.222 146.828 211.191 146.738 211.144 146.657C211.096 146.577 211.034 146.506 210.959 146.449C206.728 143.168 202.13 140.389 197.259 138.166C198.615 136.65 199.84 135.022 200.92 133.299C209.468 135.991 217.597 139.867 225.07 144.814C221.042 147.046 203.051 161.577 195.995 166.721C193.115 168.832 157.274 197.813 157.126 197.969V197.972ZM166.329 149.948C164.978 149.074 162.875 152.667 162.432 153.609C162.833 152.028 163.725 150.614 164.981 149.573C165.118 149.457 165.207 149.293 165.229 149.114C165.252 148.936 165.206 148.755 165.102 148.608C164.998 148.461 164.842 148.359 164.666 148.322C164.49 148.284 164.306 148.314 164.151 148.405C164.539 148.172 164.946 147.973 165.369 147.811C165.512 147.756 165.633 147.656 165.714 147.526C165.796 147.396 165.833 147.243 165.82 147.09C165.808 146.938 165.746 146.793 165.644 146.678C165.543 146.563 165.407 146.484 165.256 146.453C167.759 145.301 169.802 147.732 170.191 149.944C168.173 150.943 166.403 152.379 165.009 154.147C165.203 152.962 165.679 151.841 166.398 150.88C166.502 150.742 166.551 150.571 166.538 150.399C166.524 150.227 166.448 150.065 166.325 149.945L166.329 149.948ZM159.529 215.213L159.017 207.943C162.956 204.389 167.19 201.176 171.673 198.34C171.832 198.239 171.944 198.079 171.985 197.895C172.026 197.711 171.992 197.518 171.891 197.359C171.79 197.2 171.63 197.088 171.446 197.047C171.262 197.006 171.069 197.04 170.91 197.141C166.674 199.827 162.656 202.842 158.892 206.157L158.706 203.508L193.443 175.152C193.516 175.093 193.576 175.02 193.62 174.938C193.664 174.856 193.692 174.766 193.701 174.673C193.71 174.58 193.701 174.486 193.674 174.397C193.648 174.307 193.603 174.224 193.544 174.152C193.485 174.079 193.413 174.02 193.33 173.975C193.248 173.931 193.158 173.904 193.065 173.894C192.972 173.885 192.878 173.894 192.789 173.921C192.7 173.948 192.616 173.992 192.544 174.051L158.584 201.776L158.391 199.027C176.649 184.904 177.463 182.103 209.372 158.354C213.13 155.431 221.495 148.616 225.54 146.137C225.121 148.555 224.904 151.004 224.891 153.458L206.774 168.151C206.66 168.244 206.578 168.369 206.538 168.51C206.499 168.652 206.504 168.802 206.553 168.94C206.602 169.078 206.692 169.198 206.812 169.282C206.932 169.367 207.075 169.413 207.222 169.413C207.602 169.413 206.24 170.407 224.837 155.338C224.808 156.153 224.781 156.822 224.757 156.941C223.406 158.604 172.277 203.894 159.529 215.211V215.213ZM245.128 197.73L249.894 197.98C249.449 203.98 247.071 209.674 243.117 214.208C242.074 213.347 239.281 209.946 238.241 211.155C238.14 211.314 238.107 211.507 238.148 211.69C238.189 211.874 238.301 212.034 238.46 212.135C239.813 213.021 241.053 214.068 242.154 215.253C238.213 219.295 233.278 222.229 227.844 223.76L226.591 219.251C226.536 219.074 226.415 218.926 226.253 218.837C226.091 218.749 225.9 218.727 225.722 218.776C225.544 218.826 225.392 218.943 225.299 219.103C225.206 219.262 225.179 219.452 225.223 219.631L226.487 224.177C221.136 225.578 215.605 226.168 210.078 225.926L210.799 221.119C210.818 220.937 210.766 220.755 210.654 220.61C210.542 220.465 210.378 220.369 210.197 220.342C210.016 220.315 209.832 220.359 209.683 220.464C209.533 220.57 209.43 220.729 209.395 220.909L208.645 225.909C204.177 225.843 199.715 225.541 195.279 225.004C199.087 206.159 202.458 190.944 206.187 175.767C210.307 171.737 214.207 168.6 216.908 166.052C217.264 166.819 218.424 166.572 219.112 166.822C218.941 167.928 217.572 172.042 219.152 172.284C219.34 172.284 219.521 172.209 219.654 172.076C219.787 171.942 219.862 171.762 219.862 171.573C219.873 170.058 220.091 168.551 220.512 167.094C224.686 167.902 228.757 169.17 232.651 170.873L230.185 174.942C230.137 175.021 230.105 175.11 230.091 175.202C230.077 175.295 230.081 175.389 230.103 175.479C230.125 175.57 230.165 175.655 230.221 175.73C230.276 175.806 230.345 175.869 230.425 175.918C230.505 175.966 230.594 175.998 230.686 176.012C230.778 176.026 230.872 176.022 230.963 176C231.054 175.977 231.139 175.937 231.214 175.882C231.289 175.827 231.353 175.757 231.401 175.677L233.945 171.481C239.319 174.192 243.271 177.359 246.003 181.931L242.404 183.729C242.317 183.769 242.24 183.826 242.176 183.896C242.112 183.967 242.063 184.049 242.031 184.139C242 184.229 241.987 184.324 241.993 184.419C241.999 184.514 242.024 184.607 242.066 184.692C242.109 184.777 242.168 184.853 242.24 184.914C242.313 184.976 242.397 185.023 242.487 185.051C242.578 185.08 242.673 185.09 242.768 185.081C242.863 185.072 242.955 185.044 243.039 184.999L246.705 183.168C248.917 187.277 250.03 191.886 249.938 196.551L245.203 196.303C245.015 196.293 244.829 196.358 244.689 196.485C244.548 196.611 244.463 196.789 244.453 196.978C244.443 197.167 244.509 197.352 244.635 197.492C244.762 197.633 244.939 197.718 245.128 197.728V197.73Z" fill="black"/>
<path d="M87.5906 154.085C73.4815 157.54 75.503 152.569 78.4151 141.118C86.69 136.561 93.2829 129.996 103.508 129.753C118.944 128.617 134.964 128.665 147.722 136.548C141.683 139.973 135.647 143.597 129.667 147.415C128.588 147.882 127.578 149.242 126.426 149.033C113.342 149.371 100.327 151.063 87.5906 154.082V154.085Z" fill="#00977D"/>
<path d="M63.0005 178.523C50.7224 174.65 37.865 172.939 25.0015 173.467C42.0925 162.591 59.7786 153.011 76.7104 142.173C72.9317 154.929 74.5796 158.953 87.95 155.46C92.6256 154.397 97.3187 153.498 102.029 152.761C101.981 154.525 102.081 156.29 102.328 158.038C102.721 161.661 105.237 162.5 108.382 161.827C100.71 167.467 93.3876 173.57 86.457 180.101C83.5492 182.489 81.1655 185.452 79.455 188.804C75.4746 182.962 68.2168 180.162 62.9976 178.52L63.0005 178.523Z" fill="#0084FF"/>
<path d="M124.81 150.521C120.28 153.472 115.613 156.666 110.594 160.249C108.987 160.037 105.631 161.273 104.588 160.071C103.204 158.116 103.593 154.896 103.41 152.562C110.501 151.501 117.643 150.819 124.807 150.518L124.81 150.521Z" fill="#4DC39E"/>
<path d="M157.126 197.972C152.427 194.052 147.024 191.063 141.206 189.164C130.712 185.404 119.633 183.541 108.486 183.663C100.593 184.073 83.471 184.799 79.6255 193.787C79.8741 188.7 83.4269 184.721 87.4259 181.144C106.233 163.117 134.897 144.777 157.398 132.83C162.858 129.918 170.304 128.786 179.51 129.459C178.979 130.242 178.503 132.843 177.573 132.506C172.516 131.826 167.399 131.728 162.32 132.214C162.227 132.222 162.136 132.248 162.053 132.291C161.97 132.334 161.896 132.393 161.836 132.465C161.775 132.536 161.73 132.619 161.701 132.708C161.673 132.798 161.663 132.892 161.671 132.985C161.687 133.173 161.777 133.348 161.922 133.469C161.994 133.53 162.076 133.575 162.166 133.603C162.255 133.632 162.349 133.642 162.442 133.634C167.367 133.164 172.33 133.254 177.235 133.901C176.36 135.326 175.375 136.68 174.288 137.951C174.184 137.814 174.032 137.72 173.862 137.688C168.668 136.817 163.377 136.669 158.142 137.249C158.049 137.26 157.958 137.288 157.876 137.333C157.794 137.378 157.721 137.439 157.663 137.512C157.604 137.585 157.56 137.669 157.534 137.759C157.507 137.85 157.499 137.944 157.509 138.037C157.519 138.13 157.548 138.221 157.593 138.303C157.638 138.385 157.699 138.458 157.772 138.517C157.845 138.576 157.929 138.619 158.019 138.646C158.109 138.672 158.204 138.68 158.297 138.67C163.338 138.113 168.431 138.247 173.436 139.069C172.308 140.247 170.903 142.5 169.316 142.739C168.902 142.514 153.091 139.109 157.303 142.264C160.948 142.51 164.566 143.063 168.119 143.916C166.485 145.32 163.823 144.929 162.211 146.239C161.392 146.573 160.864 147.532 161.318 148.127C159.756 147.877 148.38 145.712 148.307 147.593C148.307 147.781 148.382 147.962 148.515 148.095C148.649 148.228 148.829 148.303 149.018 148.303C150.845 148.506 162.687 148.293 160.213 150.503C159.598 151.38 159.389 153.353 160.804 153.477C161.154 153.343 160.834 154.438 161.189 154.808C151.85 151.222 141.81 149.839 131.849 150.766C131.66 150.784 131.487 150.876 131.366 151.022C131.245 151.167 131.187 151.355 131.205 151.543C131.223 151.732 131.315 151.905 131.46 152.026C131.606 152.147 131.794 152.205 131.982 152.187C151.751 150.148 170.984 158.189 184.66 172.025C184.799 172.025 184.935 171.985 185.051 171.909C185.167 171.833 185.258 171.725 185.313 171.597C185.369 171.47 185.385 171.329 185.361 171.192C185.337 171.055 185.274 170.929 185.178 170.828C178.861 164.145 171.187 158.892 162.671 155.42C163.036 155.244 163.34 154.962 163.543 154.612C163.553 154.851 163.633 155.083 163.772 155.278C163.91 155.474 164.103 155.625 164.326 155.714C164.549 155.802 164.792 155.824 165.027 155.778C165.263 155.731 165.479 155.617 165.651 155.45C166.786 154.156 168.07 153 169.475 152.006C176.655 154.827 183.133 159.179 188.457 164.76C188.52 164.831 188.597 164.889 188.683 164.93C188.769 164.971 188.863 164.994 188.958 164.998C189.053 165.002 189.148 164.987 189.237 164.953C189.326 164.92 189.408 164.869 189.477 164.803C189.546 164.738 189.601 164.659 189.639 164.572C189.677 164.485 189.697 164.391 189.698 164.295C189.699 164.2 189.681 164.106 189.645 164.018C189.608 163.93 189.555 163.85 189.487 163.783C184.482 158.544 178.48 154.358 171.835 151.471C175.266 151.198 178.624 150.332 181.761 148.914C187.262 151.687 192.334 155.241 196.819 159.466C196.886 159.533 196.966 159.586 197.054 159.622C197.142 159.658 197.236 159.675 197.331 159.674C197.426 159.673 197.52 159.652 197.607 159.614C197.694 159.576 197.773 159.521 197.838 159.451C197.903 159.382 197.954 159.301 197.987 159.212C198.02 159.123 198.035 159.028 198.031 158.933C198.027 158.838 198.003 158.745 197.963 158.659C197.922 158.573 197.864 158.496 197.793 158.433C193.487 154.38 188.651 150.93 183.418 148.175C185.769 147.096 188.024 145.821 190.16 144.364C195.489 146.978 200.398 150.374 204.724 154.437C205.38 155.079 206.382 154.025 205.697 153.403C201.454 149.423 196.665 146.069 191.474 143.442C193.168 142.184 194.755 140.79 196.219 139.272C201.162 141.476 205.822 144.267 210.097 147.586C210.171 147.642 210.256 147.684 210.347 147.707C210.438 147.731 210.532 147.737 210.625 147.724C210.718 147.711 210.807 147.68 210.888 147.633C210.969 147.586 211.04 147.523 211.096 147.449C211.153 147.374 211.194 147.289 211.218 147.198C211.242 147.108 211.247 147.013 211.235 146.92C211.222 146.828 211.191 146.738 211.144 146.657C211.096 146.577 211.034 146.506 210.959 146.449C206.728 143.168 202.13 140.389 197.259 138.166C198.615 136.65 199.84 135.022 200.92 133.299C209.468 135.991 217.597 139.867 225.07 144.814C221.042 147.046 203.051 161.577 195.995 166.721C193.115 168.832 157.274 197.813 157.126 197.969V197.972Z" fill="#FEDE9F"/>
<path d="M159.529 215.213L159.017 207.943C162.956 204.389 167.19 201.176 171.673 198.34C171.832 198.239 171.944 198.079 171.985 197.895C172.026 197.711 171.992 197.518 171.891 197.359C171.79 197.2 171.63 197.088 171.446 197.047C171.262 197.006 171.069 197.04 170.91 197.141C166.674 199.827 162.656 202.842 158.892 206.157L158.706 203.508L193.443 175.152C193.516 175.093 193.576 175.02 193.62 174.938C193.664 174.856 193.692 174.766 193.701 174.673C193.71 174.58 193.701 174.486 193.674 174.397C193.648 174.307 193.603 174.224 193.544 174.152C193.485 174.079 193.413 174.02 193.33 173.975C193.248 173.931 193.158 173.904 193.065 173.894C192.972 173.885 192.878 173.894 192.789 173.921C192.7 173.948 192.616 173.992 192.544 174.051L158.584 201.776L158.391 199.027C176.649 184.904 177.463 182.103 209.372 158.354C213.13 155.431 221.495 148.616 225.54 146.137C225.121 148.555 224.904 151.004 224.891 153.458L206.774 168.151C206.66 168.244 206.578 168.369 206.538 168.51C206.499 168.652 206.504 168.802 206.553 168.94C206.602 169.078 206.692 169.198 206.812 169.282C206.932 169.367 207.075 169.413 207.222 169.413C207.602 169.413 206.24 170.407 224.837 155.338C224.808 156.153 224.781 156.822 224.757 156.941C223.406 158.604 172.277 203.894 159.529 215.211V215.213Z" fill="#FEDE9F" fill-opacity="0.66"/>
<path d="M78.2333 195.006C68.5095 179.806 28.2489 177.653 11.5089 179.479C32.6318 163.359 55.8488 149.646 78.3344 136.366L78.5146 136.259C94.3938 125.527 112.608 121.559 132.93 124.101C133.259 128.323 136.545 128.727 140.396 128.87C146.292 128.87 153.23 122.285 155.817 116.249C157.647 112.788 159.127 109.153 160.236 105.397C160.958 105.296 161.655 105.064 162.293 104.711C158.659 112.267 157.303 121.788 150.187 126.879C149.531 127.355 150.087 128.125 150.626 128.408C153.096 129.37 155.207 130.255 157.29 131.31C154.524 132.496 151.656 134.719 148.967 135.627C134.032 126.362 113.351 126.44 96.0189 129.519C80.1752 137.038 66.7821 147.401 51.4711 155.892L51.4666 155.894C41.7186 161.546 31.6398 167.389 22.0069 173.716C21.8768 173.801 21.7784 173.927 21.727 174.075C21.6756 174.222 21.674 174.382 21.7224 174.53C21.7709 174.678 21.8667 174.806 21.9951 174.894C22.1236 174.983 22.2775 175.026 22.4331 175.018C35.996 174.12 49.6073 175.768 62.5644 179.875C68.2836 181.654 75.2941 184.464 78.8143 190.449C78.3544 191.921 78.1577 193.462 78.2333 195.003V195.006Z" fill="#FEDE9F"/>
<path d="M98.4865 113.436C99.3976 112.408 100.054 111.181 100.403 109.852C100.753 108.524 100.785 107.132 100.497 105.788C100.209 104.445 99.6087 103.189 98.7455 102.12C97.8823 101.052 96.7799 100.201 95.5274 99.6369C110.174 96.8313 125.921 94.0498 145.611 90.7924C145.661 92.1675 146.814 93.9063 148.327 93.1662C148.754 92.8821 148.762 92.4943 149.16 93.1051C149.328 93.3144 149.538 93.4859 149.777 93.6085C150.016 93.7312 150.278 93.8022 150.546 93.8169C150.814 93.8316 151.082 93.7898 151.332 93.6941C151.583 93.5984 151.811 93.4509 152.001 93.2614C152.365 94.2213 152.794 95.1549 153.287 96.0556C150.957 96.8128 151.205 99.6611 152.366 101.396C151.817 101.762 151.302 102.176 150.825 102.632C133.587 107.174 116.116 110.785 98.4893 113.448L98.4865 113.436Z" fill="#EBA300"/>
<path d="M79.5928 111.854C77.7305 111.602 75.8889 111.216 74.0824 110.699C75.9987 110.091 77.9052 107.29 79.8371 108.774C80.1951 109.305 79.3286 109.554 79.3257 110.045C79.205 110.864 80.242 110.702 80.5389 111.227C80.443 111.401 80.3072 111.549 80.1427 111.66C79.9782 111.771 79.7897 111.841 79.5928 111.865V111.854Z" fill="#EBA300"/>
<path d="M245.128 197.73L249.894 197.98C249.449 203.98 247.071 209.674 243.117 214.208C242.074 213.347 239.281 209.946 238.241 211.155C238.14 211.314 238.107 211.507 238.148 211.69C238.189 211.874 238.301 212.034 238.46 212.135C239.813 213.021 241.053 214.068 242.154 215.253C238.213 219.295 233.278 222.229 227.844 223.76L226.591 219.251C226.536 219.074 226.415 218.926 226.253 218.837C226.091 218.749 225.9 218.727 225.722 218.776C225.544 218.826 225.392 218.943 225.299 219.103C225.206 219.262 225.179 219.452 225.223 219.631L226.487 224.177C221.136 225.578 215.605 226.168 210.078 225.926L210.799 221.119C210.818 220.937 210.766 220.755 210.654 220.61C210.542 220.465 210.378 220.369 210.197 220.342C210.016 220.315 209.832 220.359 209.683 220.464C209.533 220.57 209.43 220.729 209.395 220.909L208.645 225.909C204.177 225.843 199.715 225.541 195.279 225.004C199.087 206.159 202.458 190.944 206.187 175.767C210.307 171.737 214.207 168.6 216.908 166.052C217.264 166.819 218.424 166.572 219.112 166.822C218.941 167.928 217.572 172.042 219.152 172.284C219.34 172.284 219.521 172.209 219.654 172.076C219.787 171.942 219.862 171.762 219.862 171.573C219.873 170.058 220.091 168.551 220.512 167.094C224.686 167.902 228.757 169.17 232.651 170.873L230.185 174.942C230.137 175.021 230.105 175.11 230.091 175.202C230.077 175.295 230.081 175.389 230.103 175.479C230.125 175.57 230.165 175.655 230.221 175.73C230.276 175.806 230.345 175.869 230.425 175.918C230.505 175.966 230.594 175.998 230.686 176.012C230.778 176.026 230.872 176.022 230.963 176C231.054 175.977 231.139 175.937 231.214 175.882C231.289 175.827 231.353 175.757 231.401 175.677L233.945 171.481C239.319 174.192 243.271 177.359 246.003 181.931L242.404 183.729C242.317 183.769 242.24 183.826 242.176 183.896C242.112 183.967 242.063 184.049 242.031 184.139C242 184.229 241.987 184.324 241.993 184.419C241.999 184.514 242.024 184.607 242.066 184.692C242.109 184.777 242.168 184.853 242.24 184.914C242.313 184.976 242.397 185.023 242.487 185.051C242.578 185.08 242.673 185.09 242.768 185.081C242.863 185.072 242.955 185.044 243.039 184.999L246.705 183.168C248.917 187.277 250.03 191.886 249.938 196.551L245.203 196.303C245.015 196.293 244.829 196.358 244.689 196.485C244.548 196.611 244.463 196.789 244.453 196.978C244.443 197.167 244.509 197.352 244.635 197.492C244.762 197.633 244.939 197.718 245.128 197.728V197.73Z" fill="#00977D"/>
<path d="M154.392 88.7226C156.49 89.6091 158.46 87.7538 159.271 85.8105C160.01 86.1097 160.827 86.152 161.592 85.9307C162.357 85.7094 163.026 85.2373 163.491 84.5902C163.749 84.8214 164.069 84.9739 164.411 85.0295C164.754 85.0851 165.105 85.0416 165.424 84.9041C165.836 85.5917 166.786 86.8446 167.516 87.7879C167.469 88.3687 167.575 88.9519 167.825 89.4784C167.986 89.7997 168.247 90.0607 168.568 90.2229C168.889 90.3852 169.254 90.4401 169.608 90.3797C169.963 90.3193 170.289 90.1467 170.538 89.8873C170.787 89.6278 170.946 89.2953 170.993 88.9386C170.981 88.7468 171.532 88.7567 171.717 88.3604C172.028 87.9647 172.18 87.4672 172.143 86.9654C172.469 88.3263 172.351 90.8578 170.716 91.247C170.162 91.2783 169.637 91.9573 169.967 92.473C171.197 94.5622 172.725 96.4607 174.503 98.1084C174.992 102.202 168.678 107.45 166.089 102.421C167.039 101.562 167.38 102.674 168.129 103.312C168.555 103.738 169.278 103.028 168.848 102.593C168.296 102.137 167.812 101.604 167.41 101.012C167.268 100.728 166.984 100.728 166.691 100.87C165.126 102.039 163.168 102.555 161.23 102.308C160.133 102.036 159.102 101.545 158.2 100.864C157.299 100.182 156.545 99.3244 155.984 98.3428C155.871 97.6566 155.679 96.5117 154.757 96.0699C153.676 95.2928 153.382 93.5015 152.832 92.2727C153.59 91.2089 154.121 90.0005 154.392 88.7226Z" fill="#FFDBB1"/>
<path d="M155.972 93.4818C154.792 94.087 156.736 96.2562 157.185 94.5686C157.256 94.05 156.501 93.2091 155.972 93.4818Z" fill="black"/>
<path d="M162.812 91.5854C162.883 91.0669 162.13 90.2302 161.599 90.5001C160.422 91.1138 162.363 93.273 162.812 91.5854Z" fill="black"/>
<path d="M160.37 89.649C161.039 89.4629 161.802 88.9885 162.405 89.3109C162.58 89.3808 162.776 89.3783 162.949 89.304C163.122 89.2297 163.259 89.0896 163.329 88.9146C163.399 88.7396 163.396 88.544 163.322 88.3708C163.247 88.1977 163.107 88.0611 162.932 87.9912C162.091 87.5821 159.262 87.7795 159.76 89.3052C159.823 89.4103 159.913 89.4971 160.02 89.5574C160.126 89.6176 160.247 89.6492 160.37 89.649Z" fill="black"/>
<path d="M155.166 93.4234C155.317 92.8988 155.627 92.4341 156.054 92.0937C156.205 91.9807 156.304 91.8124 156.331 91.6259C156.358 91.4394 156.309 91.25 156.196 91.0993C156.083 90.9486 155.915 90.849 155.728 90.8223C155.542 90.7957 155.352 90.8442 155.202 90.9572C154.516 91.4947 154.021 92.2381 153.79 93.0782C153.753 93.2574 153.787 93.4438 153.885 93.5985C153.982 93.7533 154.135 93.8645 154.313 93.909C154.49 93.9535 154.678 93.9278 154.837 93.8373C154.996 93.7469 155.114 93.5986 155.166 93.4234Z" fill="black"/>
<path d="M162.31 97.0602C161.65 97.7023 162.672 98.7251 163.315 98.0646C163.599 97.7805 163.84 97.5077 164.085 97.2279C163.725 97.8515 163.326 98.6882 164.394 98.8473C165.789 98.4481 165.815 96.3712 164.95 95.3953C163.85 94.4535 163.096 96.519 162.31 97.0602Z" fill="black"/>
<path d="M159.438 96.6894C160.276 97.0843 162.07 95.7234 161.046 94.8611C160.588 94.5017 160.051 95.0032 159.845 95.3242C159.449 94.8796 160.371 91.8026 159.051 91.8552C158.863 91.8552 158.682 91.93 158.549 92.0632C158.416 92.1964 158.341 92.3771 158.341 92.5654C158.433 93.7104 157.886 96.33 159.438 96.6894Z" fill="black"/>
<path d="M218.146 179.492C217.353 179.492 216.992 179.492 214.928 192.578C213.934 198.851 213.005 205.478 212.842 206.697C212.928 208.16 215.769 207.473 216.784 207.692C240.392 207.402 240.963 181.249 218.146 179.492ZM230.555 200.995C226.458 205.524 219.628 206.629 214.349 206.16C215.184 200.052 217.646 183.516 218.538 180.928C229.616 181.481 238.51 192.2 230.555 200.995Z" fill="black"/>
<path d="M230.555 200.995C226.458 205.524 219.628 206.629 214.349 206.16C215.184 200.052 217.646 183.516 218.538 180.928C229.616 181.481 238.51 192.2 230.555 200.995Z" fill="white"/>
</svg>
