<svg width="546" height="565" viewBox="0 0 546 565" fill="none" xmlns="http://www.w3.org/2000/svg">
<path d="M209.5 68.0001C165.5 184.8 100.667 155.666 64 214C27.3333 272.333 -24.5 330.9 13.5 426.5C61 546 153 562.5 255.5 526.5C295.5 487.5 467.8 441 527 305C586.2 169 489.667 98.9999 447.5 55.9998C384.5 12.1665 253.5 -48.7999 209.5 68.0001Z" fill="white"/>
<path d="M142.234 482.209C139.801 481.369 137.193 481.167 134.66 481.622C133.61 479.214 132.317 476.92 130.803 474.774C132.62 473.125 137.595 468.541 136.393 466.389C132.116 461.273 127.037 456.883 121.356 453.392C118.983 452.063 116.371 451.218 113.669 450.905C111.881 451.156 107.632 458.116 106.682 459.681C106.067 459.681 103.887 458.982 103.719 458.898C103.719 456.886 103.132 449.619 101.316 448.78C99.284 448.032 97.1743 447.517 95.0268 447.243C93.0424 446.936 75.1823 450.206 73.8687 452.61C73.0022 454.231 75.0146 460.352 75.6016 462.057C74.0942 462.886 72.6466 463.82 71.2693 464.852C68.4743 466.836 69.229 466.752 68.7259 466.529C68.1178 466.238 67.4663 466.05 66.7973 465.97C64.5646 464.66 61.9468 464.167 59.3906 464.572C56.8192 465.411 50.754 479.218 49.7758 482.768C49.4556 483.663 49.369 484.625 49.5242 485.563C50.195 487.407 54.667 488.889 56.5397 489.476C56.0225 493.072 56.0225 496.724 56.5397 500.32C54.0801 500.991 48.9652 502.5 49.2447 505.016C49.5242 507.531 56.0645 524.134 58.7757 525.447C60.2608 526.278 61.9032 526.789 63.5974 526.948C65.2917 527.107 67.0004 526.91 68.6141 526.37C69.5229 525.916 70.4006 525.402 71.2414 524.832C72.3594 525.671 73.5333 526.425 74.7351 527.152C73.8687 529.304 71.9401 534.112 72.555 536.292C72.8625 537.438 73.7848 537.801 75.0705 538.276C78.6202 539.562 97.738 544.146 100.645 543.643C101.735 543.475 102.322 542.329 102.657 541.239C103.278 538.758 103.643 536.22 103.747 533.665C105.183 533.523 106.61 533.308 108.024 533.022C108.887 534.541 109.991 535.91 111.294 537.074C112.719 538.081 113.921 537.578 115.542 536.543C116.325 537.55 117.499 538.947 118.756 539.087C121.915 539.45 134.967 527.152 136.309 524.637C137.427 522.54 133.346 518.795 131.53 517.146C133.495 514.189 135.038 510.971 136.113 507.587C138.129 507.891 140.169 508.003 142.206 507.923C143.129 507.923 144.191 507.587 144.582 506.721C146.287 502.836 145.784 488.106 144.582 484.361C144.414 483.271 143.157 482.544 142.234 482.209ZM142.905 484.78C143.855 488.414 144.163 502.137 142.765 505.687C140.349 505.925 137.911 505.812 135.526 505.351C135.272 505.308 135.01 505.361 134.793 505.501C134.576 505.64 134.419 505.856 134.352 506.106C133.239 509.885 131.511 513.454 129.238 516.671C129.076 516.884 129.003 517.152 129.034 517.418C129.065 517.683 129.198 517.927 129.405 518.096C131.366 519.65 133.032 521.544 134.325 523.686C132.927 525.978 121.999 535.984 118.98 536.823C118.533 536.823 117.303 535.146 116.996 534.699C115.963 533.147 115.03 531.532 114.201 529.863C114.079 529.62 113.872 529.431 113.619 529.333C113.365 529.234 113.084 529.234 112.831 529.332C104.725 532.379 101.651 530.59 101.651 532.602C101.655 535.615 101.164 538.609 100.198 541.463C93.6292 540.748 87.1608 539.305 80.9121 537.158C81.2138 534.174 82.0468 531.268 83.3717 528.578C84.2102 526.705 80.8562 527.236 74.5954 520.863C74.3939 520.677 74.1293 520.573 73.8547 520.573C73.58 520.573 73.3155 520.677 73.114 520.863C70.319 523.155 66.6855 525.391 65.9588 525.028C64.5334 524.329 57.9651 509.432 57.5738 506.413C59.5618 505.028 61.8186 504.076 64.198 503.618C64.4517 503.547 64.6709 503.385 64.8148 503.164C64.9587 502.943 65.0176 502.678 64.9806 502.416C64.2956 498.458 64.2956 494.412 64.9806 490.454C65.0233 490.21 64.972 489.959 64.8372 489.752C64.7024 489.544 64.4939 489.396 64.2539 489.336C62.1468 488.784 60.1182 487.967 58.2167 486.904C57.6018 486.457 57.6577 486.485 57.7136 486.01C59.5226 479.485 62.4239 473.314 66.2942 467.758C67.8035 467.339 71.8842 470.33 73.2817 471.392C73.4277 471.534 73.6232 471.613 73.8267 471.613C74.0302 471.613 74.2257 471.534 74.3718 471.392C75.656 470.06 77.0388 468.827 78.5084 467.703C82.7568 464.488 83.9027 464.908 83.5394 463.79C82.2545 460.985 81.5328 457.956 81.4152 454.873C81.8483 454.513 82.3399 454.23 82.8686 454.035C85.4779 453.003 88.1589 452.162 90.8902 451.52C94.2009 450.597 97.6036 450.044 101.036 449.87C101.623 450.122 102.154 452.665 102.294 453.448C103.328 459.038 102.629 460.184 103.44 460.268C111.406 461.05 113.027 463.258 113.586 462.28C115.136 459.57 116.942 457.015 118.98 454.65C119.567 454.063 119.539 453.783 121.3 454.79C126.56 458.227 131.272 462.439 135.275 467.283C135.694 468.01 132.061 471.867 129.405 474.131C128.483 474.942 129.797 475.305 132.2 479.889C134.604 484.473 134.045 485.758 135.331 485.479C137.809 484.885 140.36 484.65 142.905 484.78ZM530.823 251.23C524.964 248.837 518.82 247.211 512.544 246.394C507.96 245.668 502.566 244.941 498.01 244.354C502.398 238.149 515.395 222.441 517.575 218.612C518.19 217.578 517.016 216.125 516.149 215.258C511.286 210.059 501.895 208.103 494.684 206.985C490.547 206.314 473.274 204.19 470.339 205.587C466.818 207.264 440.768 246.394 439.986 252.348C439.986 253.354 440.321 253.745 441.299 254.109C445.408 255.618 463.939 257.966 468.075 258.944C462.485 268.727 437.638 301.791 435.206 306.459C434.619 307.633 434.983 308.332 435.681 308.555C438.197 309.554 440.785 310.357 443.424 310.959C444.43 311.266 446.638 309.897 449.852 307.94C464.274 299.276 526.156 258.413 530.907 253.13C531.038 253.006 531.141 252.856 531.209 252.688C531.277 252.521 531.308 252.341 531.3 252.161C531.292 251.981 531.245 251.804 531.163 251.644C531.081 251.483 530.965 251.342 530.823 251.23ZM470.759 284.77C447.001 300.45 438.98 305.034 438.7 305.229C442.529 299.388 466.315 266.798 470.395 259C470.466 258.849 470.503 258.685 470.502 258.518C470.501 258.352 470.464 258.187 470.391 258.037C470.319 257.887 470.214 257.755 470.084 257.651C469.954 257.547 469.803 257.473 469.641 257.435C466.846 256.429 446.498 254.248 441.691 252.543C442.306 247.345 467.684 208.047 470.759 206.482C473.833 204.917 503.656 208.466 509.246 212.463C506.311 218.193 490.1 238.261 487.473 242.929C486.942 243.879 486.774 244.801 487.808 245.053C488.842 245.304 515.115 248.379 520.845 250.252C513.858 256.093 478.585 279.515 470.759 284.658V284.77ZM291.459 113.884C291.459 114.135 291.627 114.443 292.046 116.064C292.156 116.415 292.398 116.711 292.721 116.888C293.044 117.065 293.424 117.11 293.779 117.014C294.135 116.91 294.435 116.669 294.613 116.344C294.792 116.019 294.833 115.637 294.73 115.281C294.45 114.191 294.199 113.269 294.031 112.821C293.868 112.514 293.597 112.279 293.27 112.162C292.943 112.044 292.584 112.052 292.263 112.185C291.942 112.317 291.681 112.565 291.533 112.879C291.384 113.193 291.358 113.551 291.459 113.884Z" fill="black"/>
<path d="M470.759 284.77C447.001 300.45 438.98 305.034 438.7 305.229C442.529 299.388 466.315 266.798 470.395 259C470.466 258.849 470.503 258.685 470.502 258.518C470.501 258.352 470.464 258.187 470.391 258.037C470.319 257.887 470.214 257.755 470.084 257.651C469.954 257.547 469.803 257.473 469.641 257.435C466.846 256.429 446.498 254.248 441.691 252.543C442.306 247.345 467.684 208.047 470.759 206.482C473.833 204.917 503.656 208.466 509.246 212.463C506.311 218.193 490.1 238.261 487.473 242.929C486.942 243.879 486.774 244.801 487.808 245.053C488.842 245.304 515.115 248.379 520.845 250.252C513.858 256.093 478.585 279.515 470.759 284.658V284.77Z" fill="#FFD5D5"/>
<path d="M142.905 484.78C143.855 488.414 144.163 502.137 142.765 505.687C140.349 505.925 137.911 505.812 135.526 505.351C135.272 505.308 135.01 505.361 134.793 505.501C134.576 505.64 134.419 505.856 134.352 506.106C133.239 509.885 131.511 513.454 129.238 516.671C129.076 516.884 129.003 517.152 129.034 517.418C129.065 517.683 129.198 517.927 129.405 518.096C131.366 519.65 133.032 521.544 134.325 523.686C132.927 525.978 121.999 535.984 118.98 536.823C118.533 536.823 117.303 535.146 116.996 534.699C115.963 533.147 115.03 531.532 114.201 529.863C114.079 529.62 113.872 529.431 113.619 529.333C113.365 529.234 113.084 529.234 112.831 529.332C104.725 532.379 101.651 530.59 101.651 532.602C101.655 535.615 101.164 538.609 100.198 541.463C93.6292 540.748 87.1608 539.305 80.9121 537.158C81.2138 534.174 82.0468 531.268 83.3717 528.578C84.2102 526.705 80.8562 527.236 74.5954 520.863C74.3939 520.677 74.1293 520.573 73.8547 520.573C73.58 520.573 73.3155 520.677 73.114 520.863C70.319 523.155 66.6855 525.391 65.9588 525.028C64.5334 524.329 57.9651 509.432 57.5738 506.413C59.5618 505.028 61.8186 504.076 64.198 503.618C64.4517 503.547 64.6709 503.385 64.8148 503.164C64.9587 502.943 65.0176 502.678 64.9806 502.416C64.2956 498.458 64.2956 494.412 64.9806 490.454C65.0233 490.21 64.972 489.959 64.8372 489.752C64.7024 489.544 64.4939 489.396 64.2539 489.336C62.1468 488.784 60.1182 487.967 58.2167 486.904C57.6018 486.457 57.6577 486.485 57.7136 486.01C59.5226 479.485 62.4239 473.314 66.2942 467.758C67.8035 467.339 71.8842 470.33 73.2817 471.392C73.4277 471.534 73.6232 471.613 73.8267 471.613C74.0302 471.613 74.2257 471.534 74.3718 471.392C75.656 470.06 77.0388 468.827 78.5084 467.703C82.7568 464.488 83.9027 464.908 83.5394 463.79C82.2545 460.985 81.5328 457.956 81.4152 454.873C81.8483 454.513 82.3399 454.23 82.8686 454.035C85.4779 453.003 88.1589 452.162 90.8902 451.52C94.2009 450.597 97.6036 450.044 101.036 449.87C101.623 450.122 102.154 452.665 102.294 453.448C103.328 459.038 102.629 460.184 103.44 460.268C111.406 461.05 113.027 463.258 113.586 462.28C115.136 459.57 116.942 457.015 118.98 454.65C119.567 454.063 119.539 453.783 121.3 454.79C126.56 458.227 131.272 462.439 135.275 467.283C135.694 468.01 132.061 471.867 129.405 474.131C128.483 474.942 129.797 475.305 132.2 479.889C134.604 484.473 134.045 485.758 135.331 485.479C137.809 484.885 140.36 484.65 142.905 484.78Z" fill="#82EC99"/>
<path d="M125.576 304.167C125.728 303.885 125.796 303.565 125.772 303.245C125.772 298.801 119.399 249.469 117.135 245.528C116.958 245.238 116.707 244.999 116.407 244.837C116.108 244.675 115.771 244.595 115.43 244.606C106.067 243.46 27.0804 258.888 21.8817 262.494C21.155 262.997 21.2668 264.255 21.3506 265.596C21.7978 272.947 29.7356 321.301 32.5306 321.021C32.8381 321.021 32.7263 320.798 31.9996 322.279C27.6394 331.251 19.3662 359.983 19.5339 365.769C19.5339 368.201 20.0929 371.359 22.4966 371.191C39.7417 369.067 124.29 355.651 148.607 350.648C149.557 350.452 150.172 349.586 150.144 348.161C149.857 345.786 149.137 343.484 148.02 341.369C144.61 334.968 130.467 309.618 125.576 304.167ZM32.6983 320.155C30.5182 317.36 22.4966 269.202 23.1115 263.863C29.2605 260.677 107.185 245.612 115.346 246.842C117.582 252.991 123.368 297.403 123.731 302.742C113.837 306.152 45.3317 317.22 32.6983 320.155ZM33.9281 320.993C36.2759 320.406 116.241 307.018 123.564 305.09C127.561 308.807 145.616 340.922 146.79 343.661C130.747 346.456 35.5772 362.359 21.5742 364.483C21.7699 356.015 30.4623 326.415 33.9281 320.993Z" fill="black"/>
<path d="M33.9281 320.993C36.2759 320.406 116.241 307.018 123.564 305.09C127.561 308.807 145.616 340.922 146.79 343.661C130.747 346.456 35.5772 362.359 21.5742 364.483C21.7699 356.015 30.4623 326.415 33.9281 320.993Z" fill="#737373"/>
<path d="M32.6983 320.155C30.5182 317.36 22.4966 269.202 23.1115 263.863C29.2605 260.677 107.185 245.612 115.346 246.842C117.582 252.991 123.368 297.403 123.731 302.742C113.837 306.152 45.3317 317.22 32.6983 320.155Z" fill="#F48914"/>
<path d="M193.802 439.53C198.461 437.879 203.235 436.572 208.085 435.617L208.672 437.769C208.737 438.022 208.892 438.244 209.108 438.393C209.323 438.542 209.585 438.608 209.845 438.579L229.047 436.343C234.33 424.297 244.028 406.045 244.168 405.766C244.028 401.21 244.168 397.381 244.168 393.021C233.184 397.101 212.864 404.844 202.243 409.791C202.003 409.946 201.817 410.172 201.712 410.437C201.607 410.703 201.587 410.995 201.656 411.272C201.656 411.272 201.852 411.971 202.103 412.977C196.905 412.977 181.336 412.222 177.591 415.772C177.009 416.583 176.723 417.57 176.781 418.567C176.557 422.424 178.486 452.387 181.56 461.191C183.153 465.803 186.507 465.299 188.799 460.883C191.452 454.233 193.155 447.242 193.858 440.116C193.858 439.753 193.774 439.781 193.802 439.53ZM190.588 414.514C193.998 414.235 195.06 414.291 202.383 414.067C203.696 419.042 206.408 429.272 207.805 434.499C202.874 435.262 198.006 436.393 193.243 437.88C191.759 430.172 190.871 422.36 190.588 414.514Z" fill="black"/>
<path d="M451.054 169.896C451.753 168.917 450.858 167.66 450.104 166.681C452.241 164.483 454.612 162.524 457.175 160.84C461.499 158.685 465.453 155.854 468.886 152.455C470.311 150.973 472.995 147.927 471.988 146.138C470.982 144.349 469.193 144.237 466.762 145.272C467.815 144.166 468.675 142.89 469.305 141.498C470.088 139.318 468.243 137.557 464.246 139.179C465.7 136.859 466.035 134.427 463.575 133.253C461.591 132.303 458.684 134.567 457.007 136.048C453.714 138.925 450.623 142.026 447.756 145.328C445.995 141.638 443.2 137.39 439.706 138.731C436.212 140.073 438.924 146.082 440.712 149.352L434.368 153.74C433.409 153.223 432.325 152.981 431.237 153.042C424.026 154.272 390.905 179.482 387.551 179.482C384.98 179.482 348.254 161.874 316.503 156.787C316.441 156.597 316.327 156.427 316.174 156.299C316.021 156.17 315.834 156.088 315.636 156.06C310.098 155.115 304.483 154.694 298.866 154.803C298.696 154.814 298.53 154.862 298.381 154.945C298.231 155.027 298.101 155.14 298 155.278H295.652C295.093 153.014 293.025 147.787 292.298 145.775C294.199 144.126 296.826 143.287 298.195 140.632C300.711 135.713 300.599 127.16 299.9 121.682C303.059 119.278 303.143 115.421 302.416 111.48C302.136 109.887 301.27 106.281 299.928 105.387C299.174 104.884 297.58 105.387 296.211 105.89C294.841 102.704 294.841 104.157 295.4 102.871C295.66 102.279 295.811 101.645 295.848 100.999C297.329 101.446 300.403 98.4833 299.341 94.5703C298.785 93.1696 298.102 91.8224 297.301 90.5455C297.692 89.5952 298.531 88.4493 295.903 84.9555C294.772 83.735 293.303 82.8788 291.683 82.4959H290.397C289.47 81.1495 288.108 80.1627 286.54 79.7009C284.173 79.0973 281.663 79.4487 279.553 80.6792C278.994 81.0984 278.547 81.6574 277.988 82.0487C276.724 81.2813 275.274 80.8755 273.795 80.8755C272.316 80.8755 270.866 81.2813 269.603 82.0487C268.863 82.339 268.189 82.7759 267.622 83.333C267.056 83.8902 266.607 84.5562 266.304 85.2909C264.935 84.8184 263.482 84.6365 262.038 84.7568C260.595 84.8771 259.192 85.297 257.919 85.9897C253.091 88.6079 249.479 93.0121 247.857 98.2597C247.812 99.051 247.812 99.8442 247.857 100.635H247.55C243.357 100.021 238.019 109.971 242.295 117.713C242.798 118.635 243.441 119.502 244.056 120.508C245.845 123.303 245.146 124.141 249.143 127.551C250.317 128.558 250.513 128.474 251.239 129.089C251.966 129.703 251.687 129.396 252.106 130.961C252.334 131.883 252.744 132.751 253.31 133.514C253.876 134.276 254.588 134.919 255.404 135.405C255.701 138.139 256.867 140.706 258.73 142.728C259.32 143.388 260.008 143.954 260.77 144.405C260.976 144.521 261.205 144.588 261.441 144.601C262.28 149.8 263.314 156.563 263.761 159.442L261.273 160.784C258.019 162.093 254.854 163.615 251.798 165.34C251.559 165.506 251.389 165.755 251.323 166.038C248.361 167.604 245.566 169.085 243.972 170.035C221.78 183.2 158.753 269.985 158.11 273.953C158.039 274.181 158.039 274.425 158.11 274.652C159.013 276.093 160.114 277.401 161.38 278.537C160.99 279.249 160.521 279.915 159.983 280.522C154.393 284.183 146.008 289.633 141.508 294.497C141.192 294.778 140.955 295.137 140.821 295.538C140.686 295.939 140.658 296.368 140.74 296.782C140.822 297.197 141.011 297.584 141.287 297.903C141.564 298.223 141.919 298.465 142.318 298.605C143.157 298.885 143.296 298.801 148.747 295.81C147.249 297.124 146.024 298.72 145.141 300.506C144.778 302.043 146.175 302.938 147.936 302.658C148.927 302.398 149.87 301.983 150.731 301.428C150.227 302.207 149.959 303.114 149.959 304.042C149.959 304.969 150.227 305.877 150.731 306.655C153.526 310.177 160.849 299.08 164.706 296.341C166.271 298.326 168.396 302.966 171.778 301.736C174.712 300.646 171.498 294.189 171.778 292.317C172.915 291.225 174.129 290.216 175.411 289.298C177.567 290.897 180.032 292.03 182.65 292.624C187.262 292.624 235.392 244.047 239.053 240.162C237.74 252.516 231.115 305.537 232.513 315.85C233.156 320.518 244.364 321.189 249.087 321.44C247.662 354.98 246.711 405.794 246.46 406.325C239.053 422.284 237.041 426.644 234.553 431.48C230.025 440.144 210.963 472.119 208.811 479.386C208.504 480.532 208.476 480.979 209.678 483.103C206.076 486.89 202.733 490.914 199.672 495.15C198.134 497.945 204.731 523.994 209.398 533.218C210.46 535.286 212.193 538.472 214.513 538.388C221.501 538.137 221.473 513.038 221.277 506.022C221.276 505.806 221.196 505.597 221.053 505.435C222.32 503.545 223.701 501.734 225.19 500.013C226.078 500.625 227.013 501.167 227.985 501.634C228.935 502.053 229.997 501.327 230.78 500.684C240.087 493.361 290.286 430.809 301.046 401.294C305.938 387.822 312.45 369.207 314.295 356.015C315.422 347.674 315.526 339.226 314.602 330.86C314.602 330.741 314.649 330.627 314.733 330.543C314.817 330.46 314.931 330.412 315.049 330.412C315.168 330.412 315.282 330.46 315.365 330.543C315.449 330.627 315.496 330.741 315.496 330.86C316.896 339.273 317.169 347.836 316.307 356.322C314.239 374.629 299.789 412.781 292.074 426.812C298.726 425.582 312.254 422.899 318.795 420.942C340.596 414.318 360.719 394.558 362.48 372.365C363.05 361.91 363.05 351.432 362.48 340.978C362.292 326.545 360.416 312.183 356.89 298.186C362.816 294.972 368.238 291.199 369.999 287.733C373.772 280.326 363.794 237.702 361.614 225.74C373.549 227.053 393.868 229.429 403.343 222.022C414.188 213.302 437.61 188.762 451.054 169.896ZM219.768 504.485C214.737 501.438 207.693 494.199 206.631 488.526C207.777 487.072 208.979 485.731 210.097 484.221C213.885 490.001 218.608 495.112 224.072 499.342C222.537 500.97 221.1 502.687 219.768 504.485ZM441.97 150.135C442.115 150.043 442.218 149.899 442.26 149.732C442.302 149.566 442.278 149.39 442.194 149.241C441.216 147.424 438.281 141.023 440.321 140.297C441.495 139.849 442.529 140.576 443.396 141.554C444.719 143.233 445.749 145.123 446.442 147.144C446.494 147.309 446.589 147.456 446.718 147.57C446.847 147.684 447.005 147.761 447.174 147.793C447.344 147.825 447.519 147.81 447.68 147.749C447.842 147.689 447.984 147.586 448.091 147.452C450.886 144.349 457.426 137.278 461.116 135.377C463.911 133.924 464.582 136.607 457.734 142.868C456.161 144.067 454.65 145.345 453.206 146.697C453.126 146.807 453.084 146.939 453.084 147.074C453.084 147.21 453.126 147.342 453.206 147.452C453.206 148.178 453.793 148.989 454.799 148.234C457.229 146.102 459.796 144.132 462.485 142.337C463.858 141.362 465.453 140.747 467.125 140.548C466.287 143.119 458.489 150.107 457.818 150.89C457.605 151.08 457.476 151.347 457.458 151.632C457.439 151.917 457.534 152.198 457.721 152.414C457.908 152.63 458.172 152.764 458.457 152.788C458.741 152.811 459.024 152.721 459.243 152.539C462.346 150.526 467.768 145.831 469.641 146.529C471.513 147.228 465.951 152.427 464.554 153.657C456.532 160.616 458.6 156.144 449.321 165.591C445.282 161.167 440.644 157.328 435.542 154.188L441.97 150.135ZM320.527 283.82C320.052 279.963 319.465 275.798 318.739 271.466L319.94 269.873C325.53 262.69 327.207 251.258 326.676 242.286C329.667 255.395 332.043 268.28 333.86 281.081L320.527 283.82ZM278.966 188.119C271.615 182.529 259.792 172.886 252.916 166.29L264.096 160.7C274.362 170.289 283.15 181.347 290.174 193.513C300.912 213.241 308.879 234.356 313.847 256.261L273.991 199.886L279.189 189.097C279.258 188.931 279.274 188.748 279.234 188.572C279.194 188.397 279.1 188.239 278.966 188.119ZM297.86 156.424C298.028 156.731 299.956 160.84 302.891 168.023C302.891 168.33 302.36 175.318 302.108 177.777C298.541 176.363 295.177 174.484 292.102 172.187C292.717 169.756 295.484 158.716 295.68 156.228L297.86 156.424ZM287.938 186.442C288.133 185.939 288.329 185.268 288.553 184.485L290.425 185.464C291.487 186.162 291.068 184.038 292.018 190.187C292.018 191.221 292.298 192.367 292.354 193.625C291.068 191.305 289.475 188.818 287.966 186.442H287.938ZM286.373 184.094C281.092 176.605 275.081 169.658 268.429 163.355L289.475 172.495C288.664 174.423 287.491 180.321 286.4 184.094H286.373ZM307.866 200.473C305.071 192.843 302.919 184.318 301.857 182.082C301.92 181.384 301.92 180.683 301.857 179.986C302.261 180.136 302.684 180.23 303.115 180.265C303.384 180.268 303.646 180.174 303.851 179.999C304.057 179.824 304.192 179.581 304.233 179.315C304.456 178.392 304.82 173.725 304.875 172.691C313.006 193.219 319.794 214.253 325.195 235.662C309.403 202.066 311.835 211.793 307.894 200.473H307.866ZM330.981 253.829C324.608 223.28 313.4 185.184 300.655 156.955C305.336 156.957 310.008 157.331 314.63 158.073C317.006 179.315 315.021 178.588 316.614 179.427C318.208 180.265 327.794 184.122 329.22 184.709C329.08 186.861 331.093 248.407 331.009 253.829H330.981ZM298.81 107.176C300.267 110.355 300.781 113.886 300.292 117.35C300.064 118.231 299.596 119.032 298.941 119.663C298.285 120.295 297.467 120.732 296.577 120.926C295.688 121.12 294.762 121.064 293.903 120.763C293.044 120.462 292.285 119.929 291.711 119.222C290.377 116.413 289.374 113.458 288.72 110.418C289.475 109.44 297.525 107.483 298.81 107.176ZM260.351 135.126C259.33 134.661 258.285 134.25 257.221 133.896C256.506 133.602 255.869 133.149 255.356 132.571C254.844 131.992 254.471 131.305 254.266 130.56C254.061 129.815 254.03 129.033 254.173 128.275C254.317 127.516 254.633 126.8 255.096 126.182C256.857 124.7 258.45 124.784 259.904 126.992C260.826 128.697 260.798 128.837 261.218 129.005C261.338 129.058 261.468 129.084 261.599 129.083C261.731 129.082 261.86 129.052 261.98 128.997C262.099 128.941 262.204 128.861 262.29 128.761C262.375 128.661 262.439 128.544 262.475 128.418C262.89 126.668 262.956 124.854 262.671 123.079C262.336 121.151 262.28 112.598 262.336 112.319C263.152 112.749 264.069 112.952 264.991 112.906C270.05 112.71 271.056 110.111 273.068 107.986C275.388 108.21 275.863 109.328 278.491 107.986C279.721 107.287 280.849 106.421 281.845 105.415C282.648 105.744 283.424 106.136 284.164 106.589C285.84 107.394 287.729 107.642 289.555 107.295C291.381 106.948 293.048 106.024 294.31 104.66C294.618 105.247 294.897 105.834 295.149 106.449C292.58 107.246 290.162 108.465 287.994 110.055C287.518 110.642 288.217 113.828 288.385 114.583C286.044 114.877 283.778 115.607 281.705 116.735C281.286 115.281 280.363 112.57 278.91 111.815C278.473 111.682 278.005 111.682 277.568 111.815C275.053 112.207 266.025 114.918 264.935 116.399C263.985 117.433 266.696 125.427 267.534 126.741C270.748 131.716 280.168 130.262 281.928 124.449C282.365 122.498 282.365 120.475 281.928 118.523C282.739 118.523 285.171 117.657 285.45 117.573C287.379 121.905 287.938 122.157 290.174 126.825C289.866 127.076 289.363 127.495 288.944 127.775C286.959 129.089 286.54 128.865 286.652 129.424C286.685 129.535 286.756 129.63 286.854 129.692C286.952 129.754 287.069 129.778 287.183 129.759C288.356 129.592 289.502 129.272 290.593 128.809C291.246 128.566 291.784 128.087 292.102 127.467C292.885 125.707 288.553 119.082 286.848 117.098C287.183 117.098 287.966 116.539 288.553 116.232C289.335 119.362 289.866 121.822 292.885 123.051C293.757 123.381 294.687 123.531 295.619 123.492C296.551 123.454 297.465 123.228 298.307 122.828C298.754 127.747 298.671 135.741 296.323 140.101C295.121 142.365 292.158 143.231 290.258 145.104C289.699 145.635 290.062 146.39 290.258 147.2C293.36 155.837 293.416 155.809 293.248 156.927C292.426 161.567 291.277 166.144 289.81 170.622C289.112 170.315 281.258 166.15 265.885 160.169C265.41 157.011 262.867 140.157 262.056 137.054C262.112 135.964 261.972 135.713 260.351 134.986V135.126ZM279.916 123.722C279.022 126.769 274.801 128.082 271.783 127.244C268.764 126.405 268.568 124.868 267.143 121.235C266.475 119.847 266.013 118.368 265.773 116.846C266.696 115.84 276.786 113.772 278.043 113.576C279.808 116.594 280.469 120.131 279.916 123.582V123.722ZM170.548 291.534C169.486 292.568 170.911 295.95 171.135 298.885C171.135 299.136 171.135 300.226 170.967 300.31C169.43 300.813 168.004 298.494 167.138 297.096C166.271 295.699 165.405 293.798 164.035 294.301C161.24 295.615 154.756 304.223 152.213 305.118C150.927 302.658 158.278 295.643 158.529 295.251C158.637 295.072 158.694 294.866 158.693 294.656C158.692 294.447 158.633 294.241 158.524 294.063C158.414 293.884 158.258 293.739 158.071 293.643C157.885 293.547 157.676 293.504 157.467 293.518C156.964 293.518 156.629 293.966 155.846 294.664C153.466 296.988 150.741 298.93 147.768 300.422C150.464 297.33 153.348 294.408 156.405 291.674C156.556 291.518 156.662 291.325 156.712 291.115C156.712 291.115 156.126 289.633 154.98 290.22C153.358 291.115 145.477 295.671 142.989 296.844C142.654 296.621 142.849 296.285 142.989 295.95C146.93 291.115 155.594 285.245 160.905 281.528C161.528 280.886 162.047 280.15 162.442 279.348C166.12 282.77 170.044 285.918 174.181 288.767C172.907 289.603 171.692 290.527 170.548 291.534ZM235.587 316.941C234.972 316.549 234.525 316.186 234.441 315.683C232.904 304.279 241.457 239.659 241.317 237.115C241.317 236.966 241.287 236.818 241.229 236.681C241.171 236.543 241.087 236.419 240.98 236.315C240.873 236.211 240.746 236.129 240.608 236.074C240.469 236.02 240.32 235.994 240.171 235.997C238.746 235.997 241.261 235.997 205.653 270.096C203.305 272.304 185.361 289.466 182.371 290.612C178.262 290.304 162.806 277.978 160.29 274.093C165.153 264.255 224.128 183.312 244.531 170.93C246.097 169.979 248.78 168.498 251.715 166.933C252.729 167.89 253.823 168.76 254.985 169.532C261.469 175.681 270.497 183.34 277.345 189.097L272.006 199.69C271.925 199.83 271.883 199.99 271.883 200.151C271.883 200.313 271.925 200.472 272.006 200.613C315.357 262.801 314.714 262.103 314.993 262.103C317.772 276.473 319.5 291.027 320.164 305.649C320.164 309.59 320.164 309.254 320.332 308.975C320.499 308.695 320.332 309.17 320.332 309.17C313.568 316.549 246.628 323.425 235.587 316.941ZM390.095 224.342C377.434 226.103 363.123 223.476 360.356 223.364C358.819 215.913 355.754 208.861 351.356 202.653C351.289 202.562 351.19 202.501 351.079 202.48C350.969 202.459 350.854 202.481 350.759 202.541C350.664 202.601 350.594 202.695 350.565 202.804C350.536 202.913 350.549 203.028 350.602 203.128C352.223 206.426 357.645 220.653 358.987 224.119C358.567 225.46 371.62 279.432 367.931 286.699C364.633 293.267 345.431 301.54 338.499 303.916C337.129 288.356 334.889 272.885 331.791 257.575C332.742 249.525 331.512 201.675 331.148 183.982C331.138 183.777 331.069 183.578 330.95 183.41C330.832 183.242 330.668 183.111 330.478 183.032L317.928 177.75C317.871 171.107 317.451 164.473 316.67 157.877C348.002 163.299 384.505 181.215 387.551 181.243C391.968 181.243 424.781 156.088 431.573 155.082C434.591 154.607 447.56 165.927 449.069 169.057C435.821 187.56 412.539 211.876 401.75 220.289C398.275 222.613 394.262 224.008 390.095 224.342Z" fill="black"/>
<path d="M235.587 316.941C234.972 316.549 234.525 316.186 234.441 315.683C232.904 304.279 241.457 239.659 241.317 237.115C241.317 236.966 241.287 236.818 241.229 236.681C241.171 236.543 241.087 236.419 240.98 236.315C240.873 236.211 240.746 236.129 240.608 236.074C240.469 236.02 240.32 235.994 240.171 235.997C238.746 235.997 241.261 235.997 205.653 270.096C203.305 272.304 185.361 289.466 182.371 290.612C178.262 290.304 162.806 277.978 160.29 274.093C165.153 264.255 224.128 183.312 244.531 170.93C246.097 169.979 248.78 168.498 251.715 166.933C252.729 167.89 253.823 168.76 254.985 169.532C261.469 175.681 270.497 183.34 277.345 189.097L272.006 199.69C271.925 199.83 271.883 199.99 271.883 200.151C271.883 200.313 271.925 200.472 272.006 200.613C315.357 262.801 314.714 262.103 314.993 262.103C317.772 276.473 319.5 291.027 320.164 305.649C320.164 309.59 320.164 309.254 320.332 308.975C320.499 308.695 320.332 309.17 320.332 309.17C313.568 316.549 246.628 323.425 235.587 316.941Z" fill="#00977D"/>
<path d="M390.095 224.342C377.434 226.103 363.123 223.476 360.356 223.364C358.819 215.913 355.754 208.861 351.356 202.653C351.289 202.562 351.19 202.501 351.079 202.48C350.969 202.459 350.854 202.481 350.759 202.541C350.664 202.601 350.594 202.695 350.565 202.804C350.536 202.913 350.549 203.028 350.602 203.128C352.223 206.426 357.645 220.653 358.987 224.119C358.567 225.46 371.62 279.432 367.931 286.699C364.633 293.267 345.431 301.54 338.499 303.916C337.129 288.356 334.889 272.885 331.791 257.575C332.742 249.525 331.512 201.675 331.148 183.982C331.138 183.777 331.069 183.578 330.95 183.41C330.832 183.242 330.668 183.111 330.478 183.032L317.928 177.75C317.871 171.107 317.451 164.473 316.67 157.877C348.002 163.299 384.505 181.215 387.551 181.243C391.968 181.243 424.781 156.088 431.573 155.082C434.591 154.607 447.56 165.927 449.069 169.057C435.821 187.56 412.539 211.876 401.75 220.289C398.275 222.613 394.262 224.008 390.095 224.342Z" fill="#00977D"/>
<path d="M278.966 188.119C271.615 182.529 259.792 172.886 252.916 166.29L264.096 160.7C274.362 170.289 283.15 181.347 290.174 193.513C300.912 213.241 308.879 234.356 313.847 256.261L273.991 199.886L279.189 189.097C279.258 188.931 279.274 188.748 279.234 188.572C279.194 188.397 279.1 188.239 278.966 188.119Z" fill="#00977D"/>
<path d="M330.981 253.829C324.608 223.28 313.4 185.184 300.655 156.955C305.336 156.957 310.008 157.331 314.63 158.073C317.006 179.315 315.021 178.588 316.614 179.427C318.208 180.265 327.794 184.122 329.22 184.709C329.08 186.861 331.093 248.407 331.009 253.829H330.981Z" fill="#00977D"/>
<path d="M307.866 200.473C305.071 192.843 302.919 184.318 301.857 182.082C301.92 181.384 301.92 180.683 301.857 179.986C302.261 180.136 302.684 180.23 303.115 180.265C303.384 180.268 303.646 180.174 303.851 179.999C304.057 179.824 304.192 179.581 304.233 179.315C304.456 178.392 304.82 173.725 304.875 172.691C313.006 193.219 319.794 214.253 325.195 235.662C309.403 202.066 311.835 211.793 307.894 200.473H307.866Z" fill="#FEDE9F"/>
<path d="M320.527 283.82C320.052 279.963 319.465 275.798 318.739 271.466L319.94 269.873C325.53 262.69 327.207 251.258 326.676 242.286C329.667 255.395 332.043 268.28 333.86 281.081L320.527 283.82Z" fill="#FEDE9F"/>
<path d="M286.373 184.094C281.092 176.605 275.081 169.658 268.429 163.355L289.475 172.495C288.664 174.423 287.491 180.321 286.4 184.094H286.373Z" fill="#FEDE9F"/>
<path d="M297.86 156.424C298.028 156.731 299.956 160.84 302.891 168.023C302.891 168.33 302.36 175.318 302.108 177.777C298.541 176.363 295.177 174.484 292.102 172.187C292.717 169.756 295.484 158.716 295.68 156.228L297.86 156.424Z" fill="#FEDE9F"/>
<path d="M260.351 135.126C259.33 134.661 258.285 134.25 257.221 133.896C256.506 133.602 255.869 133.149 255.356 132.571C254.844 131.992 254.471 131.305 254.266 130.56C254.061 129.815 254.03 129.033 254.173 128.275C254.317 127.516 254.633 126.8 255.096 126.182C256.857 124.7 258.45 124.784 259.904 126.992C260.826 128.697 260.798 128.837 261.218 129.005C261.338 129.058 261.468 129.084 261.599 129.083C261.731 129.082 261.86 129.052 261.98 128.997C262.099 128.941 262.204 128.861 262.29 128.761C262.375 128.661 262.439 128.544 262.475 128.418C262.89 126.668 262.956 124.854 262.671 123.079C262.336 121.151 262.28 112.598 262.336 112.319C263.152 112.749 264.069 112.952 264.991 112.906C270.05 112.71 271.056 110.111 273.068 107.986C275.388 108.21 275.863 109.328 278.491 107.986C279.721 107.287 280.849 106.421 281.845 105.415C282.648 105.744 283.424 106.136 284.164 106.589C285.84 107.394 287.729 107.642 289.555 107.295C291.381 106.948 293.048 106.024 294.31 104.66C294.618 105.247 294.897 105.834 295.149 106.449C292.58 107.246 290.162 108.465 287.994 110.055C287.518 110.642 288.217 113.828 288.385 114.583C286.044 114.877 283.778 115.607 281.705 116.735C281.286 115.281 280.363 112.57 278.91 111.815C278.473 111.682 278.005 111.682 277.568 111.815C275.053 112.207 266.025 114.918 264.935 116.399C263.985 117.433 266.696 125.427 267.534 126.741C270.748 131.716 280.168 130.262 281.928 124.449C282.365 122.498 282.365 120.475 281.928 118.523C282.739 118.523 285.171 117.657 285.45 117.573C287.379 121.905 287.938 122.157 290.174 126.825C289.866 127.076 289.363 127.495 288.944 127.775C286.959 129.089 286.54 128.865 286.652 129.424C286.685 129.535 286.756 129.63 286.854 129.692C286.952 129.754 287.069 129.778 287.183 129.759C288.356 129.592 289.502 129.272 290.593 128.809C291.246 128.566 291.784 128.087 292.102 127.467C292.885 125.707 288.553 119.082 286.848 117.098C287.183 117.098 287.966 116.539 288.553 116.232C289.335 119.362 289.866 121.822 292.885 123.051C293.757 123.381 294.687 123.531 295.619 123.492C296.551 123.454 297.465 123.228 298.307 122.828C298.754 127.747 298.671 135.741 296.323 140.101C295.121 142.365 292.158 143.231 290.258 145.104C289.699 145.635 290.062 146.39 290.258 147.2C293.36 155.837 293.416 155.809 293.248 156.927C292.426 161.567 291.277 166.144 289.81 170.622C289.112 170.315 281.258 166.15 265.885 160.169C265.41 157.011 262.867 140.157 262.056 137.054C262.112 135.964 261.972 135.713 260.351 134.986V135.126Z" fill="#FFE2C0"/>
<path d="M219.768 504.485C214.737 501.438 207.693 494.199 206.631 488.526C207.777 487.072 208.979 485.731 210.097 484.221C213.885 490.001 218.608 495.112 224.072 499.342C222.537 500.97 221.1 502.687 219.768 504.485Z" fill="#FFDBB1"/>
<path d="M277.037 118.132C277.002 117.949 276.932 117.774 276.829 117.618C276.727 117.461 276.595 117.327 276.44 117.222C276.286 117.117 276.112 117.043 275.929 117.005C275.746 116.967 275.558 116.965 275.374 117C275.191 117.035 275.016 117.106 274.86 117.208C274.703 117.311 274.569 117.443 274.464 117.597C274.359 117.752 274.285 117.925 274.247 118.108C274.209 118.291 274.207 118.48 274.242 118.663C274.801 121.458 274.913 122.101 276.143 122.101C276.375 122.102 276.604 122.045 276.809 121.935C277.014 121.825 277.188 121.665 277.316 121.471C277.443 121.277 277.52 121.054 277.54 120.822C277.56 120.591 277.521 120.358 277.429 120.145C277.345 119.697 277.093 118.384 277.037 118.132ZM285.59 136.635C287.407 137.166 289.14 136.3 289.084 135.853C289.028 135.405 289.084 135.629 286.624 134.707C284.975 134.092 283.158 131.912 282.515 132.247C281.873 132.582 282.851 134.371 283.074 134.707C283.672 135.614 284.559 136.293 285.59 136.635ZM336.71 110.083C333.049 125.427 330.366 138.452 329.919 141.051C329.622 142.182 329.565 143.363 329.751 144.517C331.232 147.675 350.378 153.908 352.81 152.678C355.241 151.449 361.558 137.222 368.909 122.548C373.412 122.692 377.918 122.364 382.353 121.57C387.023 120.713 391.567 119.277 395.881 117.294C405.328 112.933 415.669 94.2629 417.067 84.8717C418.115 74.6757 415.955 64.4067 410.89 55.4962C387.44 14.829 318.655 36.7138 324.245 81.881C325.841 92.2161 330.142 101.945 336.71 110.083ZM353.76 143.371C353.76 143.818 353.257 143.762 350.965 143.371C346.277 142.782 341.738 141.332 337.577 139.095C335.62 138.033 335.089 137.809 335.285 137.334C335.481 136.859 335.9 137.026 338.919 137.865C339.198 137.865 347.862 140.66 350.35 141.526C353.564 142.98 353.76 142.98 353.76 143.371ZM353.257 97.8964C356.242 98.0512 359.216 97.4351 361.893 96.1076C364.382 97.3133 367.074 98.0432 369.831 98.2597C365.136 107.008 355.605 124.84 352.53 134.343L340.679 131.073C343.474 124.197 349.651 108.098 353.201 97.8964H353.257ZM352.279 95.5765C350.192 95.2613 348.267 94.2704 346.798 92.7558C345.328 91.2412 344.397 89.2866 344.145 87.1915C343.363 81.6015 346.94 75.3407 352.335 76.8221C355.716 77.7444 356.136 80.4276 355.549 83.8096C355.046 86.2692 353.229 92.4461 352.223 95.4647L352.279 95.5765ZM359.881 88.8685C360.18 87.0396 360.866 85.2957 361.893 83.7537C362.382 82.9131 363.097 82.2265 363.957 81.772C364.817 81.3174 365.787 81.1131 366.757 81.1823C368.825 81.7972 369.719 85.7102 368.014 88.1698C366.376 90.3443 364.336 92.1848 362.005 93.5921C361.203 93.1214 360.564 92.4165 360.175 91.5721C359.785 90.7277 359.663 89.7843 359.825 88.8685H359.881ZM334.195 53.3441C346.717 38.279 370.278 32.2977 387.3 38.5026C396.547 41.6768 404.325 48.1036 409.185 56.5863C414.004 65.0651 416.065 74.8333 415.082 84.5363C413.797 93.2287 403.902 111.284 395.21 115.281C387.262 118.906 378.591 120.666 369.859 120.424C368.909 120.424 367.903 120.424 367.539 121.095C365.89 124.449 362.872 130.933 359.909 137.026C357.863 136.039 355.741 135.216 353.564 134.567C356.807 125.287 367.036 107.064 371.9 98.2318C376.113 98.5928 380.349 97.8612 384.197 96.1076C385.237 95.5603 386.099 94.7277 386.683 93.7076C387.266 92.6876 387.546 91.5223 387.49 90.3486C387.435 89.1748 387.045 88.0414 386.368 87.0812C385.691 86.121 384.753 85.3739 383.666 84.9276C379.334 82.8034 375.449 87.8903 373.185 92.1666C372.57 93.2846 371.872 94.5983 371.089 96.0796C368.828 95.9311 366.599 95.4702 364.465 94.7101C366.59 93.2163 368.476 91.4066 370.055 89.3437C370.94 88.0073 371.388 86.4292 371.338 84.8272C371.288 83.2252 370.742 81.6782 369.775 80.3997C369.016 79.5179 367.961 78.9433 366.809 78.7838C365.656 78.6243 364.485 78.8908 363.515 79.5332C361.557 80.736 359.988 82.4782 358.997 84.5506C358.005 86.623 357.633 88.9375 357.924 91.2163C358.228 92.5027 358.921 93.6641 359.909 94.5424C358.076 95.3017 356.108 95.682 354.123 95.6604C355.241 92.3623 357.058 86.4089 357.533 83.9773C357.831 82.591 357.897 81.1648 357.729 79.7568C357.513 78.5481 356.952 77.4277 356.114 76.5302C355.276 75.6327 354.196 74.9964 353.005 74.6979C346.213 72.7693 341.21 80.2879 342.189 87.3033C342.465 89.8174 343.544 92.1755 345.266 94.0282C346.988 95.8809 349.26 97.1295 351.748 97.5889C348.17 107.651 342.58 123.89 339.785 130.822L333.636 129.228C337.577 109.44 338.052 109.915 337.493 109.663C331.142 101.566 327.079 91.9145 325.726 81.7133C325.067 76.6551 325.481 71.5148 326.94 66.627C328.399 61.7392 330.871 57.2134 334.195 53.3441ZM372.99 96.2473C374.946 92.6977 378.859 84.9276 382.66 86.8282C383.421 87.1345 384.083 87.6427 384.575 88.2978C385.068 88.9529 385.372 89.7301 385.455 90.5455C385.399 95.4647 377.741 96.3312 372.878 96.2473H372.99ZM479.982 108.573C483.35 106.592 487.328 105.916 491.162 106.673C495.373 106.748 499.396 108.432 502.405 111.379C505.414 114.325 507.182 118.312 507.345 122.52C504.813 121.051 501.852 120.498 498.96 120.955C491.945 121.57 482.777 125.371 484.007 132.135C485.013 137.725 492.392 136.971 497.982 135.461C503.572 133.952 508.016 131.213 509.162 125.818C515.954 130.766 517.547 139.43 517.826 147.899C517.826 148.018 517.874 148.131 517.957 148.215C518.041 148.299 518.155 148.346 518.274 148.346C518.392 148.346 518.506 148.299 518.59 148.215C518.674 148.131 518.721 148.018 518.721 147.899C518.917 138.424 517.212 129.144 509.469 123.75C509.549 121.323 509.135 118.906 508.254 116.644C507.372 114.382 506.04 112.322 504.339 110.589C502.638 108.857 500.603 107.488 498.357 106.565C496.111 105.642 493.702 105.184 491.274 105.219C487.394 104.653 483.438 105.464 480.094 107.511C479.06 108.014 479.535 108.769 479.982 108.573ZM505.473 128.613C502.314 132.75 493.37 134.902 489.234 134.203C487.696 133.952 486.439 133.309 486.103 131.716C485.097 126.126 494.74 123.079 500.497 122.884C502.842 122.704 505.18 123.303 507.15 124.589C506.938 126.05 506.361 127.434 505.473 128.613ZM467.181 75.8997C470.172 72.2103 468.159 65.7818 459.802 65.7539C456.56 65.7539 454.995 69.052 455.218 72.2103C455.722 79.7289 464.19 79.5053 467.181 75.8997ZM457.175 72.0706C457.175 70.2259 458.041 67.8222 459.97 67.8501C464.47 67.8501 466.538 69.9464 466.538 72.2662C466.426 77.5488 456.812 80.2879 457.175 72.0706ZM456.029 388.94C431.461 379.129 420.057 426.616 399.989 467.423C399.862 469.139 399.919 470.863 400.157 472.566C400.157 476.842 400.632 505.156 403.12 508.37C403.79 509.656 406.613 508.37 407.927 507.56C419.084 500.653 429.598 492.758 439.343 483.97C439.426 483.875 439.489 483.764 439.527 483.644C439.566 483.523 439.579 483.397 439.566 483.271C444.765 475.864 464.246 437.293 468.97 417.952C472.268 404.256 468.998 394.055 456.029 388.94ZM464.805 424.436C451.652 422.751 438.936 418.598 427.324 412.194C433.865 399.812 441.942 385.698 455.274 391.008C470.116 396.906 469.808 409.12 464.805 424.352V424.436ZM418.296 497.106C417.438 496.387 416.5 495.768 415.501 495.262C411.725 493.341 407.361 492.922 403.287 494.088C403.008 490.762 401.415 469.128 401.415 468.933C422.349 476.591 415.893 473.265 436.632 483.578C434.452 485.647 426.262 491.376 418.296 497.05V497.106ZM432.719 416.219C435.445 417.708 438.243 419.061 441.104 420.272C434.697 430.335 429.036 440.854 424.166 451.743C419.47 461.554 419.638 461.498 414.859 472.203C412.064 471.308 409.269 470.47 406.474 469.631C409.492 463.622 430.958 419.685 432.719 416.163V416.219ZM415.949 472.482C415.952 472.477 415.955 472.472 415.958 472.466C425.039 456.174 434.286 435.919 442.222 420.635C445.017 421.809 447.812 422.759 450.607 423.598C449.125 426.393 444.793 433.827 443.647 435.98C442.501 438.132 431.014 460.771 430.203 462.504C428.918 465.299 425.396 473.097 424.306 475.585C421.495 474.345 418.792 473.403 415.958 472.466C415.917 472.453 415.877 472.44 415.837 472.426L415.949 472.482ZM425.312 475.948C425.313 475.946 425.315 475.943 425.316 475.941C427.028 472.825 434.033 459.82 434.899 458.144C436.212 455.545 450.858 425.61 451.669 423.877C454.24 424.604 456.951 425.219 458.684 425.554C453.569 439.529 438.84 466.445 433.529 479.721C428.772 477.494 427.64 476.917 425.316 475.941C425.278 475.925 425.239 475.909 425.2 475.892L425.312 475.948ZM427.017 413.005L432.02 415.8C421.938 432.97 413.155 450.87 405.747 469.352L401.554 468.066C417.793 433.464 418.548 428.936 426.905 412.949L427.017 413.005ZM438.532 482.153L434.312 480.141C438.868 471.197 453.122 448.25 459.635 425.75C461.2 426.029 462.737 426.281 464.218 426.477C457.036 445.642 448.412 464.235 438.42 482.097L438.532 482.153ZM350.965 500.293C352.079 499.37 352.875 498.121 353.241 496.722C353.607 495.323 353.525 493.844 353.005 492.495C352.768 490.547 351.875 488.738 350.473 487.366C349.071 485.994 347.244 485.14 345.291 484.945C343.339 484.749 341.379 485.225 339.733 486.292C338.087 487.36 336.853 488.956 336.235 490.818C332.658 488.498 328.773 486.038 325.055 483.69C327.85 479.973 336.068 481.622 336.906 484.668C336.925 484.787 336.99 484.893 337.086 484.964C337.183 485.035 337.305 485.064 337.423 485.046C337.542 485.027 337.648 484.962 337.719 484.865C337.79 484.768 337.819 484.647 337.801 484.529C337.381 479.665 327.263 476.815 323.183 482.544C319.577 480.336 315.105 477.653 311.36 475.613C314.574 472.818 321.757 474.383 322.54 477.29C322.577 477.389 322.647 477.472 322.74 477.524C322.832 477.576 322.94 477.594 323.044 477.574C323.148 477.553 323.242 477.497 323.308 477.414C323.374 477.332 323.409 477.228 323.406 477.122C323.043 472.594 313.68 469.548 309.431 474.523C307.651 473.525 305.779 472.702 303.841 472.063C303.487 471.916 303.098 471.875 302.721 471.944C302.344 472.014 301.996 472.191 301.717 472.454C294.646 481.259 270.804 504.122 259.792 506.777C259.515 506.819 259.254 506.933 259.035 507.107C258.817 507.282 258.648 507.511 258.546 507.772C258.444 508.033 258.412 508.315 258.454 508.592C258.496 508.869 258.611 509.13 258.786 509.348C261.204 511.803 263.973 513.884 267.003 515.525C264.208 518.32 262.028 520.836 260.407 522.653C259.568 523.547 259.121 540.652 259.848 544.426C259.956 544.795 260.194 545.113 260.519 545.32C264.04 547.724 309.403 567.345 314.043 564.717C317.145 562.956 354.179 524.413 354.766 523.24C355.661 521.395 355.353 509.097 355.297 504.178C355.074 502.696 352.307 501.103 350.965 500.293ZM261.525 537.215V530.982C273.124 536.572 299.677 547.975 309.739 551.162C312.31 552 312.534 551.888 313.875 551.162C321.562 546.242 348.701 515.665 353.676 510.997V516.895C338.583 532.016 312.953 558.512 312.478 557.003C309.711 556.835 263.929 538.333 261.525 537.215ZM350.266 490.873C351.271 492.566 351.811 494.495 351.831 496.463C351.822 497.09 351.668 497.706 351.382 498.263C351.096 498.82 350.686 499.304 350.182 499.678C347.835 498.112 343.391 495.206 338.136 491.796C341.015 486.122 347.415 486.038 350.154 490.873H350.266ZM260.826 508.761C272.733 505.24 295.344 483.439 302.947 473.992C304.777 474.501 306.54 475.223 308.201 476.144C305.406 481.342 308.397 487.044 309.459 486.234C310.046 485.786 308.984 485.619 308.816 482.88C308.745 480.879 309.198 478.894 310.13 477.122C313.987 479.134 318.515 481.762 322.344 483.97C319.996 489.196 322.819 494.367 323.798 493.612C324.776 492.858 323.35 493.026 323.183 490.286C323.114 488.49 323.459 486.702 324.189 485.06C328.13 487.38 332.155 489.783 335.844 492.047C335.275 493.44 335.05 494.949 335.186 496.447C335.322 497.945 335.816 499.389 336.627 500.656C336.663 500.704 336.709 500.744 336.761 500.774C336.813 500.804 336.871 500.823 336.931 500.831C336.99 500.839 337.051 500.835 337.109 500.819C337.167 500.803 337.222 500.776 337.269 500.74C337.317 500.703 337.357 500.657 337.387 500.605C337.417 500.553 337.437 500.495 337.445 500.436C337.452 500.376 337.448 500.315 337.433 500.257C337.417 500.199 337.39 500.145 337.353 500.097C336.851 498.986 336.603 497.778 336.627 496.559C336.651 495.341 336.947 494.143 337.493 493.053C344.005 497.022 349.26 500.348 350.881 501.439C350.574 501.718 321.422 527.656 311.5 535.37C304.987 533.665 270.804 516.699 260.826 508.761ZM261.888 524.33C274.55 529.92 303.31 542.888 309.934 544.146C311.08 544.37 311.527 544.454 313.708 542.721C323.015 535.258 353.285 503.591 353.564 503.926C353.578 504.009 353.578 504.094 353.564 504.178V509.768C347.331 514.771 312.673 551.162 312.114 549.429C309.319 549.429 263.901 530.898 261.581 529.864C261.525 528.69 261.776 525.559 261.888 524.33ZM312.785 562.845C309.99 564.438 267.422 547.137 261.721 543.615C261.506 541.834 261.404 540.042 261.413 538.249C273.655 544.286 309.264 559.323 312.534 559.183C317.313 558.932 351.105 520.892 353.508 518.236C353.536 519.664 353.395 521.09 353.089 522.485C352.614 523.407 314.63 561.811 312.785 562.845ZM81.2195 405.29C81.4151 408.281 81.5549 410.88 81.5549 413.312C81.5549 413.683 81.7021 414.038 81.9642 414.3C82.2263 414.562 82.5817 414.71 82.9524 414.71C83.323 414.71 83.6785 414.562 83.9406 414.3C84.2026 414.038 84.3499 413.683 84.3499 413.312C84.3499 410.713 84.2101 408.141 84.0145 405.095C83.9885 404.724 83.8164 404.379 83.536 404.135C83.2556 403.892 82.8898 403.769 82.5192 403.795C82.1485 403.821 81.8034 403.993 81.5596 404.274C81.3159 404.554 81.1935 404.92 81.2195 405.29ZM507.094 349.251C506.911 349.261 506.733 349.308 506.569 349.389C506.405 349.47 506.258 349.582 506.138 349.72C506.019 349.858 505.928 350.019 505.871 350.193C505.814 350.367 505.793 350.55 505.808 350.732C505.976 353.304 506.143 356.071 506.143 358.754C506.143 359.124 506.291 359.48 506.553 359.742C506.815 360.004 507.17 360.151 507.541 360.151C507.911 360.151 508.267 360.004 508.529 359.742C508.791 359.48 508.938 359.124 508.938 358.754C508.938 355.959 508.771 353.164 508.575 350.536C508.564 350.354 508.517 350.175 508.437 350.011C508.356 349.847 508.243 349.701 508.105 349.581C507.967 349.461 507.807 349.37 507.633 349.314C507.459 349.257 507.276 349.236 507.094 349.251ZM73.9804 398.331C74.3511 398.331 74.7065 398.184 74.9686 397.922C75.2307 397.66 75.3779 397.304 75.3779 396.933C75.3779 396.563 75.2307 396.207 74.9686 395.945C74.7065 395.683 74.3511 395.536 73.9804 395.536C70.5985 395.536 67.7755 395.787 64.9805 395.732C64.6073 395.732 64.2489 395.878 63.9823 396.139C63.7158 396.4 63.5624 396.756 63.5551 397.129C63.5551 397.5 63.7023 397.855 63.9644 398.117C64.2265 398.379 64.5819 398.527 64.9526 398.527C67.8314 398.582 70.9898 398.471 73.9804 398.331ZM498.429 340.978C495.075 340.978 492.252 341.173 489.429 341.201C489.059 341.201 488.703 341.348 488.441 341.61C488.179 341.873 488.032 342.228 488.032 342.599C488.032 342.969 488.179 343.325 488.441 343.587C488.703 343.849 489.059 343.996 489.429 343.996C492.448 343.996 495.578 343.996 498.597 343.773C498.967 343.75 499.314 343.582 499.56 343.304C499.807 343.026 499.933 342.662 499.91 342.291C499.888 341.921 499.72 341.574 499.442 341.328C499.164 341.081 498.8 340.955 498.429 340.978ZM80.4648 381.058C80.6325 383.629 80.8002 386.396 80.8002 389.079C80.8074 389.448 80.9569 389.799 81.2175 390.06C81.478 390.32 81.8293 390.47 82.1977 390.477C82.5684 390.477 82.9238 390.33 83.1859 390.068C83.448 389.806 83.5952 389.45 83.5952 389.079C83.5952 386.285 83.4275 383.49 83.2598 380.862C83.2339 380.492 83.0618 380.146 82.7813 379.903C82.5009 379.659 82.1351 379.537 81.7645 379.563C81.3939 379.589 81.0487 379.761 80.805 380.041C80.5612 380.321 80.4389 380.687 80.4648 381.058ZM508.184 334.521C508.184 331.726 508.016 328.931 507.82 326.304C507.794 325.933 507.622 325.588 507.342 325.344C507.061 325.101 506.696 324.978 506.325 325.004C505.954 325.03 505.609 325.202 505.366 325.483C505.122 325.763 504.999 326.129 505.025 326.499C505.193 329.071 505.361 331.838 505.361 334.521C505.361 334.892 505.508 335.247 505.77 335.509C506.032 335.771 506.388 335.919 506.758 335.919C507.132 335.919 507.49 335.772 507.756 335.511C508.023 335.25 508.176 334.894 508.184 334.521ZM101.092 397.968C101.275 397.96 101.456 397.917 101.623 397.84C101.789 397.763 101.939 397.654 102.064 397.519C102.189 397.384 102.285 397.226 102.349 397.053C102.412 396.881 102.441 396.698 102.434 396.514C102.405 396.148 102.24 395.807 101.97 395.558C101.701 395.309 101.347 395.172 100.98 395.173C97.5982 395.312 94.7752 395.424 91.9523 395.368C91.5816 395.368 91.2262 395.515 90.9641 395.778C90.702 396.04 90.5548 396.395 90.5548 396.766C90.5548 397.136 90.702 397.492 90.9641 397.754C91.2262 398.016 91.5816 398.163 91.9523 398.163C94.9429 398.219 98.0733 398.107 101.092 397.968ZM525.541 340.614C522.746 340.754 519.643 340.838 516.541 340.838C516.356 340.83 516.172 340.86 515.999 340.926C515.827 340.991 515.669 341.091 515.536 341.219C515.403 341.347 515.297 341.5 515.225 341.67C515.152 341.84 515.115 342.023 515.115 342.207C515.115 342.581 515.262 342.939 515.523 343.206C515.784 343.472 516.14 343.625 516.513 343.633C519.699 343.633 522.27 343.633 525.652 343.409C525.836 343.402 526.016 343.359 526.183 343.282C526.35 343.205 526.5 343.096 526.625 342.961C526.749 342.826 526.846 342.667 526.909 342.495C526.973 342.323 527.002 342.139 526.994 341.956C526.96 341.592 526.792 341.254 526.524 341.007C526.256 340.759 525.906 340.619 525.541 340.614ZM36.8628 315.152C37.2262 315.431 116.045 303.748 119.427 301.68C119.614 301.543 119.764 301.361 119.862 301.151C119.959 300.941 120.002 300.709 119.986 300.478C119.986 296.872 115.263 263.025 112.999 254.584C112.719 253.55 112.44 252.516 111.797 252.152C107.52 249.581 32.1672 263.78 27.6673 266.686C27.5453 266.759 27.44 266.856 27.3581 266.971C27.2762 267.087 27.2196 267.218 27.1921 267.357C26.2418 270.739 34.4312 313.475 36.8628 315.152ZM28.8971 268.028C34.2635 265.596 102.657 253.075 110.483 254.053C112.384 258.944 117.471 294.776 117.806 300.031C113.921 301.177 37.9249 314.229 37.6454 314.285C37.3659 314.341 37.338 314.677 36.751 312.916C34.2914 305.537 28.7573 274.345 28.8971 268.028Z" fill="black"/>
<path d="M28.8971 268.028C34.2635 265.596 102.657 253.075 110.483 254.053C112.384 258.944 117.471 294.776 117.806 300.031C113.921 301.177 37.9249 314.229 37.6454 314.285C37.3659 314.341 37.338 314.677 36.751 312.916C34.2914 305.537 28.7573 274.345 28.8971 268.028Z" fill="white"/>
<path d="M334.195 53.3441C346.717 38.279 370.278 32.2977 387.3 38.5026C396.547 41.6768 404.325 48.1036 409.185 56.5863C414.004 65.0651 416.065 74.8333 415.082 84.5363C413.797 93.2287 403.902 111.284 395.21 115.281C387.262 118.906 378.591 120.666 369.859 120.424C368.909 120.424 367.903 120.424 367.539 121.095C365.89 124.449 362.872 130.933 359.909 137.026C357.863 136.039 355.741 135.216 353.564 134.567C356.807 125.287 367.036 107.064 371.9 98.2318C376.113 98.5928 380.349 97.8612 384.197 96.1076C385.237 95.5603 386.099 94.7277 386.683 93.7076C387.266 92.6876 387.546 91.5223 387.49 90.3486C387.435 89.1748 387.045 88.0414 386.368 87.0812C385.691 86.121 384.753 85.3739 383.666 84.9276C379.334 82.8034 375.449 87.8903 373.185 92.1666C372.57 93.2846 371.872 94.5983 371.089 96.0796C368.828 95.9311 366.599 95.4702 364.465 94.7101C366.59 93.2163 368.476 91.4066 370.055 89.3437C370.94 88.0073 371.388 86.4292 371.338 84.8272C371.288 83.2252 370.742 81.6782 369.775 80.3997C369.016 79.5179 367.961 78.9433 366.809 78.7838C365.656 78.6243 364.485 78.8908 363.515 79.5332C361.557 80.736 359.988 82.4782 358.997 84.5506C358.005 86.623 357.633 88.9375 357.924 91.2163C358.228 92.5027 358.921 93.6641 359.909 94.5424C358.076 95.3017 356.108 95.682 354.123 95.6604C355.241 92.3623 357.058 86.4089 357.533 83.9773C357.831 82.591 357.897 81.1648 357.729 79.7568C357.513 78.5481 356.952 77.4277 356.114 76.5302C355.276 75.6327 354.196 74.9964 353.005 74.6979C346.213 72.7693 341.21 80.2879 342.189 87.3033C342.465 89.8174 343.544 92.1755 345.266 94.0282C346.988 95.8809 349.26 97.1295 351.748 97.5889C348.17 107.651 342.58 123.89 339.785 130.822L333.636 129.228C337.577 109.44 338.052 109.915 337.493 109.663C331.142 101.566 327.079 91.9145 325.726 81.7133C325.067 76.6551 325.481 71.5148 326.94 66.627C328.399 61.7392 330.871 57.2134 334.195 53.3441Z" fill="#FAFF00"/>
<path d="M260.826 508.761C272.733 505.24 295.344 483.439 302.947 473.992C304.777 474.501 306.54 475.223 308.201 476.144C305.406 481.342 308.397 487.044 309.459 486.234C310.046 485.786 308.984 485.619 308.816 482.88C308.745 480.879 309.198 478.894 310.13 477.122C313.987 479.134 318.515 481.762 322.344 483.97C319.996 489.196 322.819 494.367 323.798 493.612C324.776 492.858 323.35 493.026 323.183 490.286C323.114 488.49 323.459 486.702 324.189 485.06C328.13 487.38 332.155 489.783 335.844 492.047C335.275 493.44 335.05 494.949 335.186 496.447C335.322 497.945 335.816 499.389 336.627 500.656C336.663 500.704 336.709 500.744 336.761 500.774C336.813 500.804 336.871 500.823 336.931 500.831C336.99 500.839 337.051 500.835 337.109 500.819C337.167 500.803 337.222 500.776 337.269 500.74C337.317 500.703 337.357 500.657 337.387 500.605C337.417 500.553 337.437 500.495 337.445 500.436C337.452 500.376 337.448 500.315 337.433 500.257C337.417 500.199 337.39 500.145 337.353 500.097C336.851 498.986 336.603 497.778 336.627 496.559C336.651 495.341 336.947 494.143 337.493 493.053C344.005 497.022 349.26 500.348 350.881 501.439C350.574 501.718 321.422 527.656 311.5 535.37C304.987 533.665 270.804 516.699 260.826 508.761Z" fill="#FF0000"/>
<path d="M442.222 420.635C434.286 435.919 425.039 456.174 415.958 472.466C418.792 473.403 421.495 474.345 424.306 475.585C425.396 473.097 428.918 465.299 430.203 462.504C431.014 460.771 442.501 438.132 443.647 435.98C444.793 433.827 449.125 426.393 450.607 423.598C447.812 422.759 445.017 421.809 442.222 420.635Z" fill="#FD8E1F"/>
<path d="M432.719 416.219C435.445 417.708 438.243 419.061 441.104 420.272C434.697 430.335 429.036 440.854 424.166 451.743C419.47 461.554 419.638 461.498 414.859 472.203C412.064 471.308 409.269 470.47 406.474 469.631C409.492 463.622 430.958 419.685 432.719 416.163V416.219Z" fill="black"/>
<path d="M427.017 413.005L432.02 415.8C421.938 432.97 413.155 450.87 405.747 469.352L401.554 468.066C417.793 433.464 418.548 428.936 426.905 412.949L427.017 413.005Z" fill="#EBA300"/>
<path d="M434.899 458.144C434.033 459.82 427.028 472.825 425.316 475.941C427.64 476.917 428.772 477.494 433.529 479.721C438.84 466.445 453.569 439.529 458.684 425.554C456.951 425.219 454.24 424.604 451.669 423.877C450.858 425.61 436.212 455.545 434.899 458.144Z" fill="black"/>
<path d="M438.532 482.153L434.312 480.141C438.868 471.197 453.122 448.25 459.635 425.75C461.2 426.029 462.737 426.281 464.218 426.477C457.036 445.642 448.412 464.235 438.42 482.097L438.532 482.153Z" fill="#EBA300"/>
<path d="M464.805 424.436C451.652 422.751 438.936 418.598 427.324 412.194C433.865 399.812 441.942 385.698 455.274 391.008C470.116 396.906 469.808 409.12 464.805 424.352V424.436Z" fill="white"/>
<path d="M418.296 497.106C417.438 496.387 416.5 495.768 415.501 495.262C411.725 493.341 407.361 492.922 403.287 494.088C403.008 490.762 401.415 469.128 401.415 468.933C422.349 476.591 415.893 473.265 436.632 483.578C434.452 485.647 426.262 491.376 418.296 497.05V497.106Z" fill="#FFDBB1"/>
<path d="M44.4374 349.978C46.869 349.614 98.4647 343.409 117.107 338.35C117.222 338.321 117.321 338.247 117.381 338.144C117.441 338.042 117.458 337.92 117.429 337.805C117.399 337.69 117.325 337.592 117.223 337.532C117.121 337.472 116.999 337.454 116.884 337.484C113.222 338.239 68.5582 344.192 44.3814 349.111C44.3147 349.099 44.246 349.102 44.1807 349.121C44.1154 349.139 44.0551 349.172 44.0045 349.218C43.9539 349.263 43.9142 349.319 43.8885 349.382C43.8627 349.445 43.8516 349.512 43.856 349.58C43.8604 349.648 43.8801 349.714 43.9137 349.773C43.9473 349.832 43.9938 349.882 44.0499 349.92C44.1059 349.959 44.1699 349.984 44.237 349.994C44.3041 350.004 44.3727 349.998 44.4374 349.978ZM82.1419 155.502C81.0978 157.86 80.2199 160.288 79.5146 162.769C79.473 163.167 79.5828 163.566 79.8221 163.886C82.645 168.135 111.573 200.753 119.12 205.336C120.154 205.979 121.384 206.426 122.138 205.504C127.62 198.683 134.775 193.396 142.905 190.16C149.523 187.818 156.461 186.508 163.476 186.274C169.066 185.771 170.045 185.212 172.197 181.551C174.736 176.732 178.104 172.399 182.147 168.75C187.302 164.242 193.025 160.427 199.169 157.402C199.445 157.245 199.661 157.001 199.783 156.707C199.904 156.413 199.924 156.087 199.839 155.781C198.895 153.377 197.645 151.104 196.122 149.017C197.128 148.682 198.246 148.374 198.246 147.368C198.246 144.573 173.874 109.3 167.11 102.648C166.411 101.949 165.405 101.027 164.483 101.083C150.508 101.865 136.896 115.058 129.014 126.573C119.986 126.238 114.145 125.427 103.859 129.76C96.5979 132.842 90.0513 137.39 84.6294 143.12C83.7909 143.986 78.0891 150.023 78.0053 150.498C77.9215 150.974 78.0891 150.974 82.1419 155.502ZM193.942 154.719C182.287 156.703 174.852 166.402 169.374 176.939C166.942 181.635 167.166 181.858 164.594 181.802C160.098 181.548 155.587 181.716 151.123 182.306C147.848 182.795 144.628 183.6 141.508 184.709C134.408 187.225 126.275 195.274 121.943 201.256C121.851 201.379 121.734 201.481 121.599 201.556C121.465 201.63 121.317 201.676 121.163 201.689C121.01 201.702 120.856 201.683 120.711 201.632C120.566 201.582 120.433 201.501 120.322 201.395C111.238 192.032 95.1666 175.598 87.0891 166.15C86.6978 165.731 87.3686 165.116 87.7599 165.564C92.9865 171.154 106.486 184.542 120.964 199.104C125.856 192.871 133.402 185.324 140.865 182.697C144.934 181.245 149.169 180.306 153.47 179.902C157.499 179.596 161.544 179.596 165.573 179.902C167.222 178.001 175.383 156.424 193.886 154.02C193.94 154.06 193.985 154.111 194.016 154.171C194.048 154.23 194.066 154.296 194.068 154.363C194.071 154.43 194.058 154.497 194.032 154.558C194.005 154.62 193.965 154.675 193.914 154.719H193.942ZM164.455 103.347C170.045 107.26 192.796 140.94 195.759 146.837C190.618 148.466 185.655 150.61 180.945 153.238C176.485 155.473 172.58 158.676 169.515 162.611C166.449 166.547 164.301 171.117 163.225 175.989C153.191 159.666 139.188 141.694 129.881 128.474C130.44 128.111 146.147 104.437 164.455 103.347ZM104.474 131.297C114.676 127.188 120.322 128.138 128.763 128.502C137.147 142.812 152.213 162.992 162.135 176.212C152.977 174.045 143.34 175.371 135.107 179.93C130.16 182.725 124.123 189.433 120.405 193.597C115.039 189.293 84.0704 156.312 79.0954 150.722C86.7537 142.058 93.825 135.545 104.474 131.185V131.297ZM53.3255 202.374C52.6346 201.889 51.818 201.615 50.9746 201.585C50.1312 201.555 49.2972 201.771 48.5739 202.206C48.0472 202.441 47.572 202.777 47.1752 203.196C46.7785 203.614 46.4681 204.107 46.2618 204.646C46.0555 205.184 45.9572 205.758 45.9727 206.335C45.9882 206.911 46.117 207.479 46.3519 208.006C46.5868 208.532 46.9232 209.008 47.3418 209.404C47.7604 209.801 48.253 210.111 48.7915 210.318C49.3301 210.524 49.904 210.622 50.4805 210.607C51.057 210.591 51.6248 210.463 52.1516 210.228C52.993 210.044 53.7586 209.608 54.3469 208.979C54.9352 208.35 55.3185 207.557 55.4458 206.705C55.5731 205.853 55.4385 204.983 55.0598 204.209C54.6812 203.436 54.0763 202.796 53.3255 202.374ZM51.4808 207.964C49.5243 208.579 48.3504 207.964 47.8752 207.013C46.9808 205.029 48.0988 201.982 51.0056 202.877C53.046 203.631 54.695 207.069 51.4808 208.103V207.964ZM195.451 74.4744C196.262 76.1235 200.035 75.5086 201.684 74.9776C202.55 74.6981 203.109 74.3906 203.193 73.5521C203.445 71.4558 203.724 53.2883 202.774 51.5275C202.676 51.3429 202.525 51.1913 202.341 51.0919C202.157 50.9924 201.948 50.9495 201.74 50.9685C198.758 50.9602 195.791 51.3935 192.936 52.2542C191.79 52.9529 194.445 72.6297 195.451 74.4744ZM193.523 52.925C196.104 52.5556 198.716 52.434 201.321 52.5616C201.488 54.6299 201.041 72.5459 201.013 72.8254C199.832 73.2486 198.572 73.4014 197.324 73.2726C197.128 72.6297 196.793 70.8968 196.374 68.7167C195.142 63.5075 194.19 58.236 193.523 52.925ZM50.6143 178.784C50.8825 178.921 51.1795 178.993 51.4808 178.993C51.7821 178.993 52.079 178.921 52.3472 178.784C53.427 178.118 54.2834 177.145 54.8068 175.989C54.8779 175.804 54.8998 175.604 54.8704 175.408C54.841 175.212 54.7613 175.027 54.6391 174.871C53.2975 173.278 38.6517 156.312 36.8629 157.374C34.6666 158.796 32.5829 160.384 30.6301 162.126C30.5513 162.196 30.4883 162.282 30.445 162.378C30.4016 162.475 30.379 162.579 30.3785 162.685C30.3226 164.138 46.5895 177.163 50.6143 178.784ZM37.1983 158.101C39.2387 159.582 46.1143 168.079 52.4869 175.598C52.2128 176.029 51.8734 176.416 51.4808 176.744C44.7808 172.455 38.3837 167.711 32.335 162.545C33.8513 160.953 35.4763 159.468 37.1983 158.101ZM81.1078 96.4431C81.7227 85.5985 88.0394 80.5675 94.6356 79.2818C92.7629 86.1575 93.0703 95.1016 99.8622 96.2475C103.104 96.7786 104.698 95.1016 107.045 93.1451C117.079 84.76 108.974 76.375 97.6542 76.962C101.875 65.3907 111.629 55.9715 124.57 55.6641C124.689 55.6641 124.802 55.617 124.886 55.5331C124.97 55.4492 125.017 55.3355 125.017 55.2169C125.017 55.0983 124.97 54.9845 124.886 54.9007C124.802 54.8168 124.689 54.7697 124.57 54.7697C110.595 54.4902 99.6107 64.5522 95.2784 77.1297C87.8158 78.4154 80.409 84.0054 80.2133 96.2755C80.2023 96.3342 80.203 96.3945 80.2153 96.453C80.2276 96.5114 80.2513 96.5669 80.285 96.6162C80.3188 96.6655 80.3619 96.7077 80.4119 96.7404C80.462 96.773 80.518 96.7955 80.5767 96.8065C80.6354 96.8175 80.6958 96.8168 80.7542 96.8045C80.8127 96.7922 80.8682 96.7685 80.9175 96.7348C80.9668 96.7011 81.009 96.6579 81.0416 96.6079C81.0743 96.5579 81.0967 96.5019 81.1078 96.4431ZM97.0113 78.9464C101.176 78.667 107.381 79.9526 109.086 83.7259C110.064 85.878 109.086 88.5333 105.62 91.4401C104.679 92.3827 103.606 93.1831 102.434 93.8158C98.2411 95.6046 93.6014 90.4339 97.0113 78.9464ZM105.005 474.243C102.305 473.52 99.4869 473.344 96.7176 473.726C93.9482 474.108 91.2833 475.04 88.8795 476.467C86.4757 477.894 84.3816 479.788 82.7205 482.036C81.0594 484.285 79.8649 486.843 79.2072 489.56C77.9655 495.205 79.0171 501.112 82.1307 505.981C85.2442 510.851 90.1646 514.284 95.8094 515.525C101.454 516.767 107.361 515.715 112.231 512.602C117.1 509.488 120.533 504.568 121.775 498.923C122.305 496.201 122.292 493.4 121.735 490.683C121.177 487.965 120.088 485.385 118.529 483.091C116.97 480.797 114.973 478.834 112.651 477.315C110.33 475.797 107.732 474.753 105.005 474.243ZM113.642 497.023C112.52 501.495 109.835 505.419 106.073 508.085C102.31 510.751 97.7178 511.982 93.1263 511.557C88.9114 509.91 85.4123 506.829 83.2447 502.857C81.077 498.885 80.3797 494.275 81.2755 489.839C82.3213 485.258 84.9811 481.206 88.7686 478.425C92.5561 475.643 97.2182 474.318 101.903 474.69C106.159 476.449 109.659 479.653 111.786 483.738C113.912 487.823 114.53 492.527 113.53 497.023H113.642Z" fill="black"/>
<path d="M104.474 131.297C114.676 127.188 120.322 128.138 128.763 128.502C137.147 142.812 152.213 162.992 162.135 176.212C152.977 174.045 143.34 175.371 135.107 179.93C130.16 182.725 124.123 189.433 120.405 193.597C115.039 189.293 84.0704 156.312 79.0954 150.722C86.7537 142.058 93.825 135.545 104.474 131.185V131.297Z" fill="#F4A28C"/>
<path d="M164.455 103.347C170.045 107.26 192.796 140.94 195.759 146.837C190.618 148.466 185.655 150.61 180.945 153.238C176.485 155.473 172.58 158.676 169.515 162.611C166.449 166.547 164.301 171.117 163.225 175.989C153.191 159.666 139.188 141.694 129.881 128.474C130.44 128.111 146.147 104.437 164.455 103.347Z" fill="#F4A28C"/>
</svg>
