<svg width="97" height="37" viewBox="0 0 97 37" fill="none" xmlns="http://www.w3.org/2000/svg">
<g clip-path="url(#clip0_1476_14910)">
<path d="M4.52549 2.44482L0.812988 4.58232V6.68232C0.812988 8.65732 0.825488 8.76982 1.03799 8.65732C1.16299 8.59482 2.82549 7.63232 4.73799 6.53232L8.22549 4.51982L9.61299 5.31982C10.3755 5.75732 12.0255 6.70732 13.288 7.43232L15.563 8.75732V6.64482V4.54482L14.6005 3.98232C14.063 3.66982 12.413 2.71982 10.9255 1.85732L8.22549 0.307324L4.52549 2.44482Z" fill="#FF0000"/>
<path d="M30.6879 10.0323V13.7948L30.4129 13.5948C29.8629 13.1948 28.3629 12.5198 27.5629 12.3198C26.4879 12.0448 24.6129 12.0448 23.5629 12.3198C20.6754 13.0573 18.4379 15.3823 17.7379 18.3698C17.4254 19.6948 17.5379 22.3073 17.9629 23.4948C18.8254 25.9073 20.6379 27.7323 22.9379 28.5323C23.9504 28.8698 26.1879 28.9948 27.3504 28.7698C28.2254 28.5948 29.5379 28.0448 30.1379 27.5823C30.3629 27.4073 30.5754 27.2698 30.6129 27.2698C30.6504 27.2698 30.6879 27.5698 30.7129 27.9323L30.7504 28.5823L32.6629 28.6198L34.5629 28.6573V17.4573V6.26976H32.6254H30.6879V10.0323ZM26.8754 15.6448C29.6379 16.0948 31.4504 18.6448 30.9504 21.3698C30.6504 23.0073 29.6504 24.3198 28.1879 24.9948C27.1879 25.4698 25.4254 25.5323 24.4004 25.1448C22.2254 24.3323 20.9879 22.0198 21.4004 19.5823C21.7379 17.5823 23.1254 16.1073 25.0629 15.6948C25.9379 15.4948 25.9879 15.4948 26.8754 15.6448Z" fill="#FF0000"/>
<path d="M42.6881 12.22C41.5881 12.445 40.0256 13.245 39.1631 14.02C38.0006 15.0575 37.0256 16.7325 36.6881 18.295C36.4756 19.32 36.4131 20.9325 36.5506 21.945C37.1131 25.9075 39.7756 28.445 43.8631 28.895C46.7631 29.22 49.6881 28.2575 51.5381 26.3575L52.0756 25.8075L50.6631 24.9825C49.3756 24.245 49.2256 24.1825 49.0006 24.345C47.6006 25.3325 46.7131 25.6325 45.2381 25.645C43.0631 25.645 41.6131 24.895 40.8381 23.395C40.6131 22.945 40.4006 22.37 40.3506 22.1075L40.2756 21.645H46.5381H52.8006L52.8881 21.1825C53.0006 20.57 52.8631 18.6075 52.6256 17.77C51.9006 15.07 49.7006 12.895 47.0006 12.2075C46.0756 11.97 43.8006 11.97 42.6881 12.22ZM46.7131 15.6075C47.8506 16.12 48.9381 17.4325 48.9381 18.3075V18.645H44.6756H40.4131L40.4881 18.245C40.7006 17.145 41.8506 16.02 43.2506 15.5325C44.2381 15.1825 45.8381 15.22 46.7131 15.6075Z" fill="#FF0000"/>
<path d="M61.188 12.3697C60.288 12.6697 60.0755 12.7947 59.2505 13.4697L58.563 14.0197V13.2072V12.3947H56.688H54.813V20.5197V28.6447H56.688H58.563V23.9197C58.563 17.9947 58.6505 17.4572 59.7755 16.3697C61.1505 15.0322 63.338 15.3572 64.188 17.0197C64.6005 17.8447 64.688 18.9447 64.688 23.8572V28.6447H66.563H68.438V23.7322C68.438 18.3322 68.5005 17.7947 69.1755 16.8322C69.3755 16.5572 69.8005 16.1697 70.1255 15.9572C70.638 15.6447 70.838 15.5947 71.613 15.5822C72.363 15.5822 72.588 15.6322 73.088 15.9322C73.7755 16.3322 74.2255 17.0197 74.4255 17.9947C74.513 18.4072 74.563 20.5072 74.563 23.6572V28.6572L76.4755 28.6197L78.3755 28.5822V23.0197C78.3755 16.9197 78.338 16.4447 77.663 15.0322C77.163 13.9822 76.288 13.1072 75.2255 12.6197C74.5005 12.2697 74.2255 12.2197 73.0755 12.1697C70.913 12.0822 69.3255 12.6072 67.963 13.8447L67.3005 14.4322L67.1005 14.1322C66.688 13.5322 65.8755 12.8572 65.2005 12.5447C64.2505 12.1072 62.2255 12.0197 61.188 12.3697Z" fill="#FF0000"/>
<path d="M0.812988 17.7324C0.812988 23.5449 0.875488 24.1574 1.51299 25.4074C2.00049 26.3824 2.48799 26.9574 3.37549 27.5824C4.81299 28.6199 6.85049 29.1324 8.86299 28.9699C12.3005 28.7074 14.6255 26.9949 15.4005 24.1324C15.588 23.4324 15.6255 22.6699 15.6255 17.8949V12.4574L13.7255 12.4199L11.838 12.3824L11.788 17.5449C11.7505 22.6574 11.7505 22.7199 11.4505 23.3574C11.1255 24.0949 10.313 24.9074 9.60049 25.2199C9.31299 25.3449 8.78799 25.4324 8.25049 25.4324C6.82549 25.4449 5.72549 24.8074 5.08799 23.5949L4.75049 22.9574L4.71299 17.6699L4.67549 12.3949H2.73799H0.812988V17.7324Z" fill="#FF0000"/>
<path d="M78.813 12.4574C78.813 12.4949 80.2505 16.0824 82.013 20.4324C83.7755 24.7824 85.263 28.4449 85.313 28.5824C85.3755 28.7574 85.2505 29.1949 84.8755 30.0574C83.913 32.2449 83.438 32.6449 81.8505 32.6449H80.813V34.4074V36.1699L82.3505 36.1199C83.688 36.0699 83.963 36.0199 84.663 35.7199C85.688 35.2449 86.8255 34.0574 87.538 32.6824C87.9755 31.8324 96.188 12.6324 96.188 12.4449C96.188 12.4199 95.3005 12.4074 94.2255 12.4199L92.263 12.4574L89.988 18.0199C88.7255 21.0824 87.638 23.7199 87.5505 23.8949C87.4255 24.1824 87.188 23.6574 85.0755 18.3324L82.7505 12.4574L80.7755 12.4199C79.7005 12.4074 78.813 12.4199 78.813 12.4574Z" fill="#FF0000"/>
</g>
<defs>
<clipPath id="clip0_1476_14910">
<rect width="96" height="35.875" fill="white" transform="translate(0.812988 0.269531)"/>
</clipPath>
</defs>
</svg>
