<svg width="155" height="50" viewBox="0 0 155 50" fill="none" xmlns="http://www.w3.org/2000/svg">
<path d="M55.8785 37.2382L31.2536 47.4214V15.3906L30.8833 14.4648L31.6239 9.83608L33.2902 8.80843L55.8785 0.578613V37.2382Z" fill="#00977D"/>
<path d="M7.36934 37.2382L31.2536 47.4214V16.3163L31.6239 15.3906V9.83608L30.0882 8.85601L7.36934 0.578613V37.2382Z" fill="#00977D"/>
<path d="M2 10.3914V47.4212H20.8852" stroke="#00977D" stroke-width="3.70299" stroke-linecap="round"/>
<path d="M61.2478 10.3914V47.4212H42.3625" stroke="#00977D" stroke-width="3.70299" stroke-linecap="round"/>
<path fill-rule="evenodd" clip-rule="evenodd" d="M31.6239 12.9838L30.0846 11.8196V18.1288H23.6124L31.6662 33.0084L39.7201 18.1288H33.1051V11.7842L31.6239 12.9838Z" fill="white"/>
<path d="M86.1991 18.5686V22.1956H92.0484V25.5672H86.1991V29.5007H92.8146V33H81.8314V15.0692H92.8146V18.5686H86.1991ZM97.8469 25.8481C97.8469 24.3837 98.1193 23.0981 98.6642 21.9912C99.2262 20.8844 99.9839 20.033 100.938 19.437C101.891 18.841 102.955 18.543 104.13 18.543C105.067 18.543 105.918 18.7388 106.685 19.1305C107.468 19.5221 108.081 20.05 108.524 20.7141V14.0986H112.891V33H108.524V30.9566C108.115 31.6377 107.527 32.1826 106.761 32.5913C106.012 33 105.135 33.2043 104.13 33.2043C102.955 33.2043 101.891 32.9063 100.938 32.3104C99.9839 31.6973 99.2262 30.8374 98.6642 29.7306C98.1193 28.6067 97.8469 27.3126 97.8469 25.8481ZM108.524 25.8737C108.524 24.7839 108.217 23.9239 107.604 23.2939C107.008 22.6638 106.276 22.3488 105.407 22.3488C104.539 22.3488 103.798 22.6638 103.185 23.2939C102.589 23.9069 102.291 24.7583 102.291 25.8481C102.291 26.9379 102.589 27.8064 103.185 28.4535C103.798 29.0835 104.539 29.3985 105.407 29.3985C106.276 29.3985 107.008 29.0835 107.604 28.4535C108.217 27.8234 108.524 26.9635 108.524 25.8737ZM133.19 18.7473V33H128.822V31.0588C128.38 31.6888 127.775 32.1997 127.009 32.5913C126.26 32.9659 125.425 33.1533 124.506 33.1533C123.416 33.1533 122.454 32.9149 121.619 32.4381C120.785 31.9442 120.138 31.2376 119.678 30.318C119.218 29.3985 118.989 28.3172 118.989 27.0742V18.7473H123.331V26.4867C123.331 27.4403 123.578 28.181 124.072 28.7089C124.565 29.2368 125.229 29.5007 126.064 29.5007C126.915 29.5007 127.588 29.2368 128.082 28.7089C128.575 28.181 128.822 27.4403 128.822 26.4867V18.7473H133.19Z" fill="black"/>
<path d="M152.343 26.0269H147.898V30.5735H143.76V26.0269H139.316V22.1189H143.76V17.5469H147.898V22.1189H152.343V26.0269Z" fill="#EBA300"/>
</svg>
